<?xml version="1.0" encoding="UTF-8"?>
<svg width="320px" height="320px" viewBox="0 0 320 320" version="1.1" xmlns="http://www.w3.org/2000/svg" xmlns:xlink="http://www.w3.org/1999/xlink">
    <title>语聊备份</title>
    <defs>
        <path d="M44.0971515,8.3015183 L84.1360556,30.1664191 C85.901668,31.1306048 87,32.981826 87,34.9935519 L87,42.7574854 C87,44.7009599 85.9743202,46.5001518 84.3019559,47.4902481 L65.4085083,58.6758093 C60.8616554,61.3677002 55.2521866,61.5405293 50.5482397,59.1336575 L2.99471711,34.8019144 C1.15652313,33.8613645 2.05802527e-15,31.970481 0,29.9056345 L0,22.0639115 C-1.93419061e-15,20.2176402 0.926347251,18.4945393 2.46637782,17.4761957 L14.447725,9.5535427 C23.3359244,3.67623035 34.7451078,3.19444781 44.0971515,8.3015183 Z" id="path-1"></path>
        <polygon id="path-3" points="19.4882329 0 42 11.5851882 23.9266292 23 0 11.7043642"></polygon>
        <path d="M89.7924671,0 L113.952965,22.6397952 C121.115118,18.5035754 129.189499,17.8048526 135.676583,21.554819 C146.539684,27.8344211 148.838051,44.2110779 140.810132,58.1331108 C132.782204,72.0551382 117.468001,78.250552 106.604897,71.9709544 C103.365481,70.0983544 100.887687,67.3278701 99.2182287,63.992345 L77.7626924,50.6576969 L32.7836253,61.7427643 C32.2881665,62.0415467 31.7737577,62.3161498 31.2408011,62.5649801 C21.236617,67.2357959 8.48538316,61.0567146 2.76011925,48.7636155 C-2.96513837,36.4705135 0.503613714,22.7185408 10.5077962,18.0477216 C15.8939305,15.5330096 22.0763295,16.1632685 27.5298339,19.1994256 L89.7924671,0 Z" id="path-5"></path>
        <path d="M102.969303,0 C112.493212,-1.74951377e-15 120.582195,6.97168205 121.98756,16.3913318 C122.539825,20.0929774 122.971209,23.2935041 123.28171,25.9929119 C125.489507,26.2010184 127.697175,26.4251785 129.904842,26.6634713 C140.276934,27.7830117 148.138498,36.5388074 148.138498,46.9711442 C148.138498,57.2424954 140.186118,65.7603618 129.938955,66.4648592 C128.805699,66.5427691 127.672155,66.6180965 126.538324,66.6908413 C127.784274,83.5779242 128.407026,95.9570935 128.407026,103.828378 C128.407026,114.573638 128.274837,125.696539 128.010459,137.197082 C107.721316,135.764956 88.800221,135.048893 71.2471743,135.048893 C53.6941276,135.048893 37.4418973,131.961509 22.4904834,125.786741 C21.1485266,129.609625 20.4775482,123.336567 20.4775482,106.967566 C20.4775482,95.2982857 21.067343,81.6859367 22.2469325,66.130519 C20.7459576,66.0193734 19.2449527,65.9024341 17.744451,65.7809725 C7.72102402,64.9696249 1.23153063e-15,56.5983501 0,46.5421394 C2.305812e-15,36.3604146 7.6681255,27.8127779 17.7901207,26.7115361 C19.2223251,26.5557178 20.6545294,26.4058474 22.0867338,26.2619251 C22.235126,24.0168834 22.4082048,21.7709247 22.6060156,19.5252208 C23.4886728,9.50474843 31.8809146,1.81923542 41.9401865,1.81923542 C51.6917931,1.81923542 59.7741794,9.37824152 60.4260262,19.1080374 C60.5386202,20.7886081 60.641308,22.3607613 60.7340897,23.8244969 C65.1788781,23.7073582 69.6240636,23.6500605 74.0692491,23.6500605 C77.9583302,23.6500605 81.8474113,23.6939187 85.7364924,23.7816352 L86.0119853,16.3416451 C86.349394,7.22030281 93.8417222,1.67670937e-15 102.969303,0 Z" id="path-7"></path>
    </defs>
    <g id="页面-1" stroke="none" stroke-width="1" fill="none" fill-rule="evenodd">
        <g id="iPhone-11-Pro备份-5" transform="translate(-215.000000, -529.000000)">
            <g id="语聊备份" transform="translate(215.000000, 529.000000)">
                <rect id="矩形" fill="#EAEAEA" fill-rule="nonzero" opacity="0" x="0" y="0" width="320" height="320"></rect>
                <g id="对讲机" transform="translate(106.000000, 237.000000)">
                    <path d="M52.0556313,61.3486563 L71.691808,68.36477 C78.6467468,70.8498077 86.4115762,69.079343 91.6018669,63.825062 L102.692871,52.5973189 C104.245369,51.0256808 104.229852,48.4930684 102.658214,46.9405708 C102.410822,46.6961916 102.132619,46.4851157 101.830641,46.3126818 L66.3419514,26.0481137 L66.3419514,26.0481137 L52.0556313,61.3486563 Z" id="路径-95" fill="#D0D0D0" fill-rule="nonzero"></path>
                    <line x1="85.3010518" y1="59.0674751" x2="121.756314" y2="78.6139498" id="路径-3" stroke="#D0D0D0" stroke-width="4" stroke-linecap="round" stroke-linejoin="round"></line>
                    <g id="路径-92">
                        <mask id="mask-2" fill="white">
                            <use xlink:href="#path-1"></use>
                        </mask>
                        <use id="蒙版" fill="#FFFFFF" fill-rule="nonzero" xlink:href="#path-1"></use>
                        <path d="M-5.52404831,17.3870776 C-5.52404831,17.3870776 14.1692236,27.9037071 53.5557676,48.9369661 L64.6648982,47.2413438 L95.2078589,29.4741679 L101.411552,67 L24.0320443,80.4008259 L-16.223999,56.260123 C-9.09069855,30.3447594 -5.52404831,17.3870776 -5.52404831,17.3870776 Z" fill="#9D9DA1" fill-rule="nonzero" mask="url(#mask-2)"></path>
                    </g>
                    <path d="M48.7999443,10.869673 L84.1360556,30.1664191 C85.901668,31.1306048 87,32.981826 87,34.9935519 L87,42.7574854 C87,44.7009599 85.9743202,46.5001518 84.3019559,47.4902481 L65.4085083,58.6758093 C60.8616554,61.3677002 55.2521866,61.5405293 50.5482397,59.1336575 L2.99471711,34.8019144 C1.15652313,33.8613645 0,31.970481 0,29.9056345 L0,22.0639115 C0,20.2176402 0.926347251,18.4945393 2.46637782,17.4761957 L14.447725,9.5535427 C23.3359244,3.67623035 34.7451078,3.19444781 44.0971515,8.3015183 L44.8646644,8.72065054" id="路径" stroke="#363940" stroke-width="3" stroke-linecap="round" stroke-linejoin="round" fill-rule="nonzero"></path>
                    <path d="M87,46 L118.19325,62.6830097 C119.339862,63.2962498 119.772246,64.7228924 119.159006,65.8695051 C119.059764,66.0550649 118.936092,66.2264823 118.791296,66.3791769 C117.540306,67.6984108 115.555978,68.0058049 113.964472,67.1269052 L81.7533709,49.3385171 L81.7533709,49.3385171 L87,46 Z" id="路径-101" stroke="#363940" stroke-width="3" fill="#9D9DA1" stroke-linecap="round" stroke-linejoin="round"></path>
                    <path d="M82.5623823,40.9077945 L86.5437832,42.8777291 C88.2184247,43.7063153 89.4669746,45.9494267 88.1422017,47.3831786 C85.3936999,50.3577789 80.4147989,50.7927628 77.3181752,49.9137671" id="路径" stroke="#363940" stroke-width="3" fill="#9D9DA1" stroke-linecap="round" stroke-linejoin="round"></path>
                    <ellipse id="椭圆形" stroke="#363940" stroke-width="3" fill="#BCBCBC" fill-rule="nonzero" stroke-linecap="round" stroke-linejoin="round" cx="26.5318628" cy="18.1219261" rx="5.20784312" ry="4"></ellipse>
                    <g id="编组-5" transform="translate(55.000000, 31.500000) rotate(3.000000) translate(-55.000000, -31.500000) translate(34.000000, 20.000000)">
                        <g id="路径-91">
                            <mask id="mask-4" fill="white">
                                <use xlink:href="#path-3"></use>
                            </mask>
                            <use id="蒙版" fill="#363940" fill-rule="nonzero" xlink:href="#path-3"></use>
                            <polyline id="路径-2" stroke="#FFFFFF" stroke-width="3" stroke-linecap="round" stroke-linejoin="round" mask="url(#mask-4)" points="28.6484203 4.61500535 24.567725 7.78748535 26.1704166 12.1371987 15.3147833 9.58211853 16.3187146 13.7032785 11.34349 17.7332106"></polyline>
                        </g>
                        <polygon id="路径-90" stroke="#363940" stroke-width="3" stroke-linejoin="round" fill-rule="nonzero" points="19.4882329 0 42 11.5851882 23.9266292 23 0 11.7043642"></polygon>
                    </g>
                    <path d="M32.9976658,-0.261715355 L34.1207418,24.5513322 M34.3368575,29.3261562 L35.0805944,45.7581491 C35.3188597,51.0223408 38.232222,55.7992197 42.8034058,58.4208152 L55.630139,65.7770074 L55.630139,65.7770074" id="形状" stroke="#363940" stroke-width="3" stroke-linecap="round" stroke-linejoin="round" fill-rule="nonzero" transform="translate(44.313902, 32.757646) rotate(-60.000000) translate(-44.313902, -32.757646) "></path>
                </g>
                <g id="主体" transform="translate(74.000000, 38.000000)">
                    <path d="M28.6804267,169.958229 C36.6817141,175.738181 46.8563013,177.617937 56.3946103,175.078426 L101.607054,163.040917 L101.607054,163.040917 L117.037589,179.585233 C126.194831,189.403448 140.884764,191.673031 152.578115,185.076216 L163.496558,178.916566 C169.065344,175.77493 172.509818,169.876927 172.509818,163.483082 C172.509818,157.224086 168.72434,151.586734 162.930862,149.218054 L105.620977,125.786741 L105.620977,125.786741 L101.250681,106.684394 L28.6804267,169.958229 Z" id="阴影" fill="#D0D0D0" fill-rule="nonzero"></path>
                    <g id="脚面" transform="translate(7.620968, 106.684394)">
                        <mask id="mask-6" fill="white">
                            <use xlink:href="#path-5"></use>
                        </mask>
                        <use id="蒙版" fill="#5562F2" xlink:href="#path-5"></use>
                        <path d="M44.4917777,47.1784289 L71.8115473,41.4385981 C75.3259026,40.7002389 78.9800458,41.0161604 82.3155306,42.3467273 L92.19744,46.2887453 C94.7975244,47.3259518 96.5744534,49.7599113 96.770252,52.5523831 L96.99585,55.7698519 L96.99585,55.7698519 L99.4490022,72.406694 L30.1910581,68.8896818 L38.5715014,55.7698519 L39.6389839,51.7756783 C40.2603268,49.4508145 42.1367319,47.6732194 44.4917777,47.1784289 Z" id="路径-99" fill="#3C48ED" mask="url(#mask-6)"></path>
                    </g>
                    <g id="身体" transform="translate(2.448338, 0.000000)">
                        <g id="路径">
                            <mask id="mask-8" fill="white">
                                <use xlink:href="#path-7"></use>
                            </mask>
                            <use id="蒙版" fill="#D0D0D0" xlink:href="#path-7"></use>
                            <path d="M95.5623779,3.55271368e-13 C105.085993,3.49054119e-13 113.174604,6.96834909 114.579423,16.3832079 L114.896643,18.5463154 L115.091978,19.9214557 L115.360763,21.8837693 C115.570051,25.4416327 118.360756,28.305723 121.911989,28.6072782 C122.116009,28.6246023 122.308289,28.6430063 122.488829,28.6624904 C132.866182,29.7824374 140.731573,37.5385446 140.731573,47.9711442 C140.731573,57.3177021 134.143763,60.7095614 125.232765,61.9557069 C125.232765,61.9557069 125.232765,61.9557069 125.232765,61.9557069 C121.921548,62.4187593 119.514952,65.3380537 119.692042,68.6767986 L119.746278,69.6992347 L119.746278,69.6992347 L119.831633,72.7090581 C120.760324,78.8284059 121.39631,86.9968418 121.739592,97.2143656 C122.254514,112.540651 123.393013,126.251522 109.217297,137.197082 C98.0989146,145.781971 87.11876,146.277112 72.167052,146.277112 C54.6140053,146.277112 28.882872,132.133656 14.8114214,127.888773 L14.7737836,127.964406 L14.6997421,128.095691 L14.627346,128.200336 C14.4484123,128.428646 14.284904,128.407201 14.136821,128.136 L14.0784105,128.014199 C14.0688125,127.991679 14.0592831,127.968048 14.0498222,127.943308 L13.9938798,127.781546 L13.9395827,127.593144 L13.8612221,127.260589 L13.8110384,127.005585 L13.7625001,126.72394 L13.6927776,126.251522 L13.6483527,125.903276 L13.5848004,125.330955 L13.5249502,124.698693 L13.4509087,123.762435 L13.367612,122.442258 L13.3225701,121.57023 L13.2557271,119.983647 L13.2096568,118.594498 L13.1448705,115.907071 L13.1002399,112.893296 L13.0837863,111.024615 L13.070829,107.498008 L13.0706233,106.967566 C13.0706233,96.1463527 13.5778063,78.5282865 14.5921722,66.1133671 C13.1768876,66.0067194 11.761355,65.8962108 10.3462698,65.7816802 C0.3178324,64.9700004 -7.40692491,56.5985161 -7.40692491,46.5421394 C-7.40692491,36.3601426 0.2649409,27.8121871 10.3920874,26.7105688 C11.8214012,26.5550895 13.2507151,26.4055343 14.6800289,26.2619029 C14.8283801,24.0141278 15.0017341,21.7650123 15.1998896,19.5161524 C16.0823577,9.50084537 24.4743037,1.81923542 34.5332616,1.81923542 C39.7606,1.81923542 53.0697581,-10.5935808 59.6610623,-4.77273808 C65.3656883,0.265070834 64.6001329,23.6500605 66.6623242,23.6500605 C70.5515693,23.6500605 74.4408144,23.6939224 78.3300596,23.7816463 L78.6053536,16.3337189 C78.9425969,7.21684659 86.4348431,3.57935903e-13 95.5623779,3.55271368e-13 Z" fill="#FFFFFF" mask="url(#mask-8)"></path>
                        </g>
                        <path d="M29.8612248,6.03374688 C25.829003,9.2404092 23.0903961,14.0278872 22.6068145,19.5161524 C22.408659,21.7650123 22.235305,24.0141278 22.0869538,26.2619029 M55.2662356,23.5577437 C62.0855833,23.6344126 68.9076997,23.7919121 75.7325848,24.0302424 C81.1445916,24.2192338 86.5548574,24.4589316 91.9633821,24.7493356 M118.85362,26.8756522 C119.957304,26.9737919 123.260772,27.2775525 128.764022,27.786934 C139.376397,28.7691852 147.366908,37.8804088 146.95638,48.5302326 C146.542339,59.2427818 137.928874,67.8190978 127.214619,68.1863011 C124.342739,68.2847237 122.685351,68.3385133 122.242455,68.3476698 M21.427633,64.5430037 C10.6924364,63.5106257 2.62758485,54.2813839 3.04300267,43.5046667 C3.44722043,33.0465042 11.7406324,24.6602127 22.114349,24.0674257 M33.3785426,3.80567461 C35.9677719,2.5317395 38.8766677,1.81923542 41.9401865,1.81923542 C51.6916693,1.81923542 59.7738834,9.37461475 60.4254595,19.099579 C60.5456319,20.9393384 60.6357612,22.319158 60.6958474,23.2390377 M85.7369845,23.7816463 L86.0122785,16.3337189 C86.3495218,7.21684659 93.841768,0 102.969303,0 C112.492918,0 120.581529,6.96834909 121.986348,16.3832079 L122.303568,18.5463154 L122.498903,19.9214557 L122.767688,21.8837693 L122.930732,23.125047 L123.15108,24.8865666 L123.281833,26.9939818 M127.119695,71.1837363 C128.58334,82.6353388 129.315163,93.1635812 129.315163,102.768464 C129.315163,109.462068 129.01245,119.381114 128.407026,132.525602 C107.372383,136.770484 84.9083806,135.939776 69.6550923,135.256097 M21.6559796,70.5463444 C20.8703587,81.30391 20.4775482,97.4443171 20.4775482,106.967566 L20.4775482,107.498008 L20.4907112,111.024615 L20.5071648,112.893296 L20.5517954,115.907071 L20.6165817,118.594498 L20.662652,119.983647 L20.729495,121.57023 L20.7745369,122.442258 L20.8578336,123.762435 L20.9318751,124.698693 C38.1878334,130.531752 52.9081714,134.034677 65.0928891,135.207465" id="形状" stroke="#363940" stroke-width="3" stroke-linecap="round" stroke-linejoin="round"></path>
                        <path d="M47.9267767,103.823223 L47.9267767,106.447914 M47.9267767,111.302422 C47.9267767,113.418156 47.9267767,116.591756 47.9267767,120.823223 C47.9267767,127.45064 42.5541937,132.823223 35.9267767,132.823223 C29.2993597,132.823223 23.9267767,127.45064 23.9267767,120.823223 C23.9267767,115.810234 23.9267767,112.050493 23.9267767,109.543998" id="形状" stroke="#363940" stroke-width="3" stroke-linecap="round" stroke-linejoin="round" transform="translate(36.176777, 118.323223) rotate(-45.000000) translate(-36.176777, -118.323223) "></path>
                        <path d="M21.7669006,31.8903974 C21.9634719,27.7647896 22.2434432,23.6400413 22.6068145,19.5161524" id="路径" stroke="#363940" stroke-width="3" stroke-linecap="round" stroke-linejoin="round"></path>
                    </g>
                    <g id="脚线" transform="translate(0.000000, 116.288391)">
                        <path d="M121.57466,13.0353794 C128.736631,8.89953181 136.810685,8.20098364 143.297549,11.9508245 C154.160652,18.2304244 156.459018,34.6070812 148.431095,48.5291113 C140.403171,62.4511414 125.088969,68.6465552 114.225866,62.3669554 C111.345799,60.7020839 109.067752,58.327484 107.424554,55.4770652 C106.956111,54.6644664 94.5368374,48.5291113 85.38366,41.0537001 C73.4887044,46.0373076 61.691884,48.9855583 49.9931987,49.8984524 M38.8617679,52.9609817 C28.8575846,57.6317992 16.1063508,51.4527179 10.38109,39.1596173 C4.65582922,26.8665168 8.12458131,13.114544 18.1287646,8.44372652 C23.5148975,5.92901415 29.697295,6.55927192 35.1507981,9.59542756" id="形状" stroke="#363940" stroke-width="3" stroke-linecap="round" stroke-linejoin="round"></path>
                        <path d="M110.745277,54.8632892 C114.902202,61.7881575 121.434123,66.2536903 128.777332,66.2576384 C141.324855,66.2643774 151.489637,53.2418903 151.481013,37.1710967 C151.472378,21.1003032 141.293606,8.06688573 128.746083,8.0601415 C116.19856,8.0534025 106.033778,21.0758896 106.042402,37.1466832" id="路径备份-6" stroke="#363940" stroke-width="3" fill="#5562F2" stroke-linecap="round" stroke-linejoin="round" transform="translate(128.761707, 37.158890) rotate(-330.000000) translate(-128.761707, -37.158890) "></path>
                        <ellipse id="椭圆形备份-9" fill="#3C48ED" transform="translate(129.197524, 40.045056) rotate(-330.000000) translate(-129.197524, -40.045056) " cx="129.197524" cy="40.045056" rx="14.5403557" ry="19.0960536"></ellipse>
                        <path d="M48.4864826,30.6928523 C48.4929195,17.1319198 39.5477696,6.14286598 28.5069276,6.14811181 C17.4660856,6.15336141 8.51049374,17.1509234 8.50404989,30.7118559 C8.49761299,44.2727884 17.4427629,55.2618422 28.4836049,55.2565964 C32.7249352,55.2545786 36.6585439,53.6304205 39.8953225,50.8619494" id="路径备份-7" stroke="#363940" stroke-width="3" fill="#5562F2" stroke-linecap="round" stroke-linejoin="round" transform="translate(28.495266, 30.702354) rotate(-25.000000) translate(-28.495266, -30.702354) "></path>
                        <ellipse id="椭圆形备份-10" fill="#3C48ED" transform="translate(28.022593, 32.678902) rotate(-30.000000) translate(-28.022593, -32.678902) " cx="28.0225927" cy="32.6789025" rx="13.6315829" ry="16.3680462"></ellipse>
                    </g>
                    <g id="五官备份-2" transform="translate(71.740056, 81.480857) rotate(6.000000) translate(-71.740056, -81.480857) translate(57.658459, 73.311711)" fill-rule="nonzero">
                        <ellipse id="椭圆形" fill="#363940" cx="22.7122524" cy="5.45770626" rx="5.45094058" ry="5.45770626"></ellipse>
                        <ellipse id="椭圆形备份" fill="#363940" cx="5.45094058" cy="5.45770626" rx="5.45094058" ry="5.45770626"></ellipse>
                        <path d="M10.0613686,15.4286743 C11.2726887,16.0350861 12.4840088,16.338292 13.695329,16.338292 C14.9066491,16.338292 16.1179692,16.0350861 17.3292893,15.4286743" id="路径-98" stroke="#363940" stroke-width="3" stroke-linecap="round" stroke-linejoin="round"></path>
                    </g>
                    <g id="右手" transform="translate(101.070643, 95.326314) scale(-1, 1) translate(-101.070643, -95.326314) translate(80.558824, 63.036872)" fill-rule="nonzero" stroke="#363940" stroke-linejoin="round" stroke-width="3">
                        <g id="编组-7备份-3" transform="translate(8.046875, 0.000000)">
                            <polygon id="矩形" fill="#9D9DA1" transform="translate(16.488382, 42.496868) rotate(-15.000000) translate(-16.488382, -42.496868) " points="22.6074984 22.7952743 28.279384 26.1984626 28.1431094 59.6182592 10.3692647 62.1984626 4.69737911 58.7952743"></polygon>
                            <g id="编组" transform="translate(9.199356, 13.562189) rotate(-15.000000) translate(-9.199356, -13.562189) translate(5.111151, 0.617009)" fill="#FFFFFF">
                                <path d="M6.79905557,2.72414655 L6.74101547,18.9219118 C6.74101547,20.4264164 5.52078086,21.6460584 4.01554518,21.6460584 C2.5103095,21.6460584 1.29007489,20.4264164 1.29007489,18.9219118 L1.34811499,2.72414655 C1.34811499,1.21964196 2.5683496,0 4.07358528,0" id="路径" stroke-linecap="round"></path>
                                <path d="M4.08820543,18.6134184 C6.34605895,18.6134184 8.17641087,20.4437703 8.17641087,22.7016239 L8.17641087,25.8903601 L8.17641087,25.8903601 L1.8189894e-12,25.8903601 L1.8189894e-12,22.7016239 C1.8187129e-12,20.4437703 1.83035192,18.6134184 4.08820543,18.6134184 Z" id="矩形"></path>
                            </g>
                            <polygon id="矩形备份-2" fill="#FFFFFF" transform="translate(13.308666, 41.587251) rotate(-15.000000) translate(-13.308666, -41.587251) " points="4.48988108 26.3670896 22.2637258 23.5872508 22.1274513 56.8074119 4.35360655 59.5872508"></polygon>
                        </g>
                        <path d="M6.49090613,33.9042316 L20.3885382,31.6690401 C26.0913204,30.7518471 31.4578706,34.6313337 32.3750635,40.3341159 C32.4635591,40.8843499 32.5079324,41.4407772 32.5077597,41.9980822 C32.5055755,49.0453278 27.3254599,55.0202487 20.3497157,56.0215821 L3.22292635,58.4800477 L3.22292635,58.4800477" id="路径备份-8" fill="#FFFFFF" stroke-linecap="round" transform="translate(17.867246, 44.099655) rotate(-15.000000) translate(-17.867246, -44.099655) "></path>
                    </g>
                </g>
            </g>
        </g>
    </g>
</svg>