<?xml version="1.0" encoding="UTF-8"?>
<svg width="245px" height="148px" viewBox="0 0 245 148" version="1.1" xmlns="http://www.w3.org/2000/svg" xmlns:xlink="http://www.w3.org/1999/xlink">
    <!-- Generator: Sketch 60 (88103) - https://sketch.com -->
    <title>logo_02</title>
    <desc>Created with Sketch.</desc>
    <g id="页面-1" stroke="none" stroke-width="1" fill="none" fill-rule="evenodd">
        <g id="服务器首页备份-2" transform="translate(-425.000000, -120.000000)" fill="#32353B" fill-rule="nonzero">
            <g id="服务器背景" transform="translate(144.000000, 88.000000)">
                <g id="形状">
                    <g id="编组-5" transform="translate(281.000000, 32.000000)">
                        <path d="M19.8779475,1.42240134 C22.2100996,-0.642470544 25.7745918,-0.425797126 27.8394637,1.90635496 L27.8394637,1.90635496 L44.9777963,21.2630998 L245,21.2630385 L245,147.999039 L0.948,147.999039 L18.0164332,4.97680668 C18.1693529,3.69540945 18.7566224,2.5081069 19.6759122,1.61028883 Z M91.8371269,73.4592101 C78.485309,73.4592101 67.5930364,84.4253679 67.5930364,97.867755 C67.5930364,111.310142 78.485309,122.2763 91.8371269,122.2763 C105.188945,122.2763 116.081217,111.310142 116.081217,97.867755 C116.081217,84.4253679 105.188945,73.4592101 91.8371269,73.4592101 Z M208.918344,73.4592101 C195.566526,73.4592101 184.674254,84.4253679 184.674254,97.867755 C184.674254,111.310142 195.566526,122.2763 208.918344,122.2763 C222.270162,122.2763 233.162435,111.487015 233.162435,97.867755 C233.162435,84.4253679 222.270162,73.4592101 208.918344,73.4592101 Z" id="形状结合"></path>
                    </g>
                </g>
            </g>
        </g>
    </g>
</svg>