<?xml version="1.0" encoding="UTF-8"?>
<svg width="24px" height="24px" viewBox="0 0 24 24" version="1.1" xmlns="http://www.w3.org/2000/svg" xmlns:xlink="http://www.w3.org/1999/xlink">
    <title>音视频会议</title>
    <defs>
        <filter id="filter-1">
            <feColorMatrix in="SourceGraphic" type="matrix" values="0 0 0 0 1.000000 0 0 0 0 1.000000 0 0 0 0 1.000000 0 0 0 1.000000 0"></feColorMatrix>
        </filter>
    </defs>
    <g id="页面-1" stroke="none" stroke-width="1" fill="none" fill-rule="evenodd">
        <g id="发布视频" transform="translate(-354.000000, -1129.000000)">
            <g id="图片区域" transform="translate(0.000000, 572.000000)">
                <g id="音视频会议" transform="translate(346.000000, 551.000000)" filter="url(#filter-1)">
                    <g transform="translate(8.000000, 6.000000)">
                        <rect id="矩形" x="0" y="0" width="24" height="24"></rect>
                        <path d="M15.5,4 C16.0522847,4 16.5,4.44771525 16.5,5 L16.5,19 C16.5,19.5522847 16.0522847,20 15.5,20 L1.5,20 C0.94771525,20 0.5,19.5522847 0.5,19 L0.5,5 C0.5,4.44771525 0.94771525,4 1.5,4 L15.5,4 Z M14.5,6 L2.5,6 L2.5,18 L14.5,18 L14.5,6 Z M23.3574929,7.25169462 C23.4507422,7.40711003 23.5,7.58494643 23.5,7.76619038 L23.5,16.2338096 C23.5,16.7860944 23.0522847,17.2338096 22.5,17.2338096 C22.3187561,17.2338096 22.1409196,17.1845518 21.9855042,17.0913025 L18.5,15 L18.5,9 L21.9855042,6.90869745 C22.4590845,6.62454929 23.0733448,6.77811436 23.3574929,7.25169462 Z M21.5,9.532 L20.5,10.1315 L20.5,13.868 L21.5,14.4675 L21.5,9.532 Z M7.5,8 L7.5,11 L4.5,11 L4.5,8 L7.5,8 Z" id="形状结合" fill="#2B2F36" fill-rule="nonzero"></path>
                    </g>
                </g>
            </g>
        </g>
    </g>
</svg>