<?xml version="1.0" standalone="no"?><!DOCTYPE svg PUBLIC "-//W3C//DTD SVG 1.1//EN" "http://www.w3.org/Graphics/SVG/1.1/DTD/svg11.dtd"><svg t="1585570474760" class="icon" viewBox="0 0 1024 1024" version="1.1" xmlns="http://www.w3.org/2000/svg" p-id="882" xmlns:xlink="http://www.w3.org/1999/xlink" width="48" height="48"><path d="M512 512m-512 0a512 512 0 1 0 1024 0 512 512 0 1 0-1024 0Z" fill="#29CC5F" p-id="883"></path><path d="M291.84 501.504a50.56 50.56 0 0 1 71.7312-0.0512l70.0928 70.4512 226.816-228.608a50.4832 50.4832 0 0 1 71.68 0c19.84 19.968 19.8656 52.224 0.0256 72.2176l-262.144 264.6016a51.2 51.2 0 0 1-72.7552 0l-105.472-106.3936a51.2768 51.2768 0 0 1 0.0256-72.2176z" fill="#ffffff" p-id="884"></path></svg>