<?xml version="1.0" standalone="no"?><!DOCTYPE svg PUBLIC "-//W3C//DTD SVG 1.1//EN"
    "http://www.w3.org/Graphics/SVG/1.1/DTD/svg11.dtd">
<svg t="1640331661573" class="icon" viewBox="0 0 1024 1024" version="1.1"
    xmlns="http://www.w3.org/2000/svg" p-id="6989" xmlns:xlink="http://www.w3.org/1999/xlink"
    width="200" height="200">
    <defs>
        <style type="text/css"></style>
    </defs>
    <path
        d="M512 512m-469.333333 0a469.333333 469.333333 0 1 0 938.666666 0 469.333333 469.333333 0 1 0-938.666666 0Z"
        fill="#198CFE" p-id="6990"></path>
    <path
        d="M319.460282 470.437917m8.794523 8.794523l158.407004 158.407004q8.794523 8.794523 0 17.589045l-26.413738 26.413738q-8.794523 8.794523-17.589046 0l-158.407004-158.407004q-8.794523-8.794523 0-17.589045l26.413738-26.413738q8.794523-8.794523 17.589046 0Z"
        fill="#FFFFFF" p-id="6991"></path>
    <path
        d="M713.670778 346.532292m-8.794523 8.794523l-281.590662 281.590662q-8.794523 8.794523 0 17.589045l26.413738 26.413738q8.794523 8.794523 17.589046 0l281.590662-281.590662q8.794523-8.794523 0-17.589045l-26.413738-26.413738q-8.794523-8.794523-17.589046 0Z"
        fill="#FFFFFF" p-id="6992"></path>
</svg>