<?xml version="1.0" encoding="UTF-8"?>
<svg width="315px" height="446px" viewBox="0 0 315 446" version="1.1" xmlns="http://www.w3.org/2000/svg" xmlns:xlink="http://www.w3.org/1999/xlink">
    <title>默认样式</title>
    <g id="圈子改版" stroke="none" stroke-width="1" fill="none" fill-rule="evenodd">
        <g id="浏览样式设置" transform="translate(-40.000000, -302.000000)">
            <g id="默认样式" transform="translate(40.000000, 302.000000)">
                <path d="M8,0 L307,0 C311.418278,-8.11624501e-16 315,3.581722 315,8 L315,438 C315,442.418278 311.418278,446 307,446 L8,446 C3.581722,446 5.41083001e-16,442.418278 0,438 L0,8 C-5.41083001e-16,3.581722 3.581722,8.11624501e-16 8,0 Z" id="矩形" fill="#F5F5F8"></path>
                <path d="M28,24 L287,24 C289.209139,24 291,25.790861 291,28 L291,212 C291,214.209139 289.209139,216 287,216 L28,216 C25.790861,216 24,214.209139 24,212 L24,28 C24,25.790861 25.790861,24 28,24 Z" id="矩形" fill="#FFFFFF"></path>
                <g id="编组-5" transform="translate(40.000000, 40.000000)" fill="#F5F5F8">
                    <path d="M2,64 L233,64 C234.104569,64 235,64.8954305 235,66 L235,156 C235,157.104569 234.104569,158 233,158 L2,158 C0.8954305,158 1.3527075e-16,157.104569 0,156 L0,66 C-1.3527075e-16,64.8954305 0.8954305,64 2,64 Z" id="矩形"></path>
                    <path d="M62,8 L125,8 C126.104569,8 127,8.8954305 127,10 L127,18 C127,19.1045695 126.104569,20 125,20 L62,20 C60.8954305,20 60,19.1045695 60,18 L60,10 C60,8.8954305 60.8954305,8 62,8 Z" id="矩形备份-2"></path>
                    <path d="M62,28 L125,28 C126.104569,28 127,28.8954305 127,30 L127,38 C127,39.1045695 126.104569,40 125,40 L62,40 C60.8954305,40 60,39.1045695 60,38 L60,30 C60,28.8954305 60.8954305,28 62,28 Z" id="矩形备份-3"></path>
                    <circle id="椭圆形" cx="24" cy="24" r="24"></circle>
                </g>
                <path d="M32,232 L283,232 C287.418278,232 291,235.581722 291,240 L291,414 C291,418.418278 287.418278,422 283,422 L32,422 C27.581722,422 24,418.418278 24,414 L24,240 C24,235.581722 27.581722,232 32,232 Z" id="矩形备份-5" fill="#FFFFFF"></path>
                <g id="编组-5备份" transform="translate(40.000000, 248.000000)" fill="#F5F5F8">
                    <path d="M2,64 L233,64 C234.104569,64 235,64.8954305 235,66 L235,156 C235,157.104569 234.104569,158 233,158 L2,158 C0.8954305,158 1.3527075e-16,157.104569 0,156 L0,66 C-1.3527075e-16,64.8954305 0.8954305,64 2,64 Z" id="矩形"></path>
                    <path d="M62,8 L125,8 C126.104569,8 127,8.8954305 127,10 L127,18 C127,19.1045695 126.104569,20 125,20 L62,20 C60.8954305,20 60,19.1045695 60,18 L60,10 C60,8.8954305 60.8954305,8 62,8 Z" id="矩形备份-2"></path>
                    <path d="M62,28 L125,28 C126.104569,28 127,28.8954305 127,30 L127,38 C127,39.1045695 126.104569,40 125,40 L62,40 C60.8954305,40 60,39.1045695 60,38 L60,30 C60,28.8954305 60.8954305,28 62,28 Z" id="矩形备份-3"></path>
                    <circle id="椭圆形" cx="24" cy="24" r="24"></circle>
                </g>
            </g>
        </g>
    </g>
</svg>