<?xml version="1.0" encoding="UTF-8"?>
<svg width="48px" height="48px" viewBox="0 0 48 48" version="1.1" xmlns="http://www.w3.org/2000/svg" xmlns:xlink="http://www.w3.org/1999/xlink">
    <title>编组 38</title>
    <g id="FBUI基础组件" stroke="none" stroke-width="1" fill="none" fill-rule="evenodd">
        <g id="FBUI基础控件库" transform="translate(-496.000000, -1646.000000)">
            <g id="编组-26" transform="translate(200.000000, 838.000000)">
                <g id="编组-38" transform="translate(296.000000, 808.000000)">
                    <polygon id="路径" points="0 0 48 0 48 48 0 48"></polygon>
                    <path d="M24,4 C29.5228475,4 34.5228475,6.23857625 38.1421356,9.85786438 C41.7614237,13.4771525 44,18.4771525 44,24 C44,29.462943 41.8097446,34.4143379 38.259413,38.0238843 C34.7065904,41.6359633 29.7918671,43.9045858 24.3470506,43.9970555 L24.3470506,43.9970555 L5.64317826,44.0002641 L9.56365232,37.8416473 C6.11728974,34.2487273 4,29.3715543 4,24 C4,18.4771525 6.23857625,13.4771525 9.85786438,9.85786438 C13.4771525,6.23857625 18.4771525,4 24,4 Z" id="形状结合" stroke="#000000" stroke-width="4"></path>
                </g>
            </g>
        </g>
    </g>
</svg>