<?xml version="1.0" encoding="UTF-8"?>
<svg width="48px" height="48px" viewBox="0 0 48 48" version="1.1" xmlns="http://www.w3.org/2000/svg" xmlns:xlink="http://www.w3.org/1999/xlink">
    <title>点赞</title>
    <g id="FBUI基础组件" stroke="none" stroke-width="1" fill="none" fill-rule="evenodd">
        <g id="FBUI基础控件库" transform="translate(-398.000000, -1646.000000)">
            <g id="编组-26" transform="translate(200.000000, 838.000000)">
                <g id="点赞" transform="translate(198.000000, 808.000000)">
                    <polygon id="矩形" points="-9.37968453e-13 -3.41060513e-13 48 -3.41060513e-13 48 48 -9.37968453e-13 48"></polygon>
                    <path d="M14,20 L14,43 L7,43 C6.44771525,43 5.94771525,42.7761424 5.58578644,42.4142136 C5.22385763,42.0522847 5,41.5522847 5,41 L5,41 L5,22 C5,21.4477153 5.22385763,20.9477153 5.58578644,20.5857864 C5.94771525,20.2238576 6.44771525,20 7,20 L7,20 L14,20 Z" id="矩形" stroke="#000000" stroke-width="4"></path>
                    <path d="M23.0164569,5.99966746 C23.4416103,5.85560145 23.9150933,5.85416093 24.3605674,6.02121371 L24.3605674,6.02121371 L25.2977531,6.37265836 C26.0197422,6.64340428 26.5973455,7.14873337 26.9651392,7.77690556 C27.3329328,8.40507776 27.490917,9.15609305 27.3737003,9.91800189 L27.3737003,9.91800189 L26.1295488,17.9992876 L38.1156078,18 C39.2201773,18 40.2201773,18.4477153 40.9440349,19.1715729 C41.6678925,19.8954305 42.1156078,20.8954305 42.1156078,22 C42.1156078,22.1828265 42.1030732,22.3654378 42.0780923,22.5465496 L42.0780923,22.5465496 L39.9714337,37.8198244 C39.7666884,39.304228 39.0299854,40.5992719 37.9698544,41.5232149 C36.9097234,42.4471579 35.5261644,43 34.0277069,43 L34.0277069,43 L14,43 L14,19.5735925 L21.9623239,6.83387419 C22.2144797,6.43042498 22.5913035,6.14373347 23.0164569,5.99966746 Z" id="形状结合" stroke="#000000" stroke-width="4"></path>
                </g>
            </g>
        </g>
    </g>
</svg>