<?xml version="1.0" encoding="UTF-8"?>
<svg width="112px" height="112px" viewBox="0 0 112 112" version="1.1" xmlns="http://www.w3.org/2000/svg" xmlns:xlink="http://www.w3.org/1999/xlink">
    <title>文章图标</title>
    <g id="圈子2.0" stroke="none" stroke-width="1" fill="none" fill-rule="evenodd">
        <g id="发布弹窗" transform="translate(-551.000000, -1294.000000)">
            <g id="文章图标" transform="translate(551.000000, 1294.000000)">
                <rect id="矩形备份-3" fill="#00B34A" opacity="0.100000001" x="0" y="0" width="112" height="112" rx="16"></rect>
                <g id="编组-23" transform="translate(28.000000, 28.000000)">
                    <rect id="矩形" x="0" y="0" width="56" height="56"></rect>
                    <path d="M9.33333333,2.33333333 L46.6666667,2.33333333 C47.9553311,2.33333333 49,3.37800225 49,4.66666667 L49,51.3333333 C49,52.6219977 47.9553311,53.6666667 46.6666667,53.6666667 L9.33333333,53.6666667 C8.04466892,53.6666667 7,52.6219977 7,51.3333333 L7,4.66666667 C7,3.37800225 8.04466892,2.33333333 9.33333333,2.33333333 Z" id="矩形" fill="#00B34A"></path>
                    <path d="M38.5,37.3333333 C39.1443322,37.3333333 39.6666667,37.8556678 39.6666667,38.5 L39.6666667,40.8333333 C39.6666667,41.4776655 39.1443322,42 38.5,42 L17.5,42 C16.8556678,42 16.3333333,41.4776655 16.3333333,40.8333333 L16.3333333,38.5 C16.3333333,37.8556678 16.8556678,37.3333333 17.5,37.3333333 L38.5,37.3333333 Z M38.5,25.6666667 C39.1443322,25.6666667 39.6666667,26.1890011 39.6666667,26.8333333 L39.6666667,29.1666667 C39.6666667,29.8109989 39.1443322,30.3333333 38.5,30.3333333 L17.5,30.3333333 C16.8556678,30.3333333 16.3333333,29.8109989 16.3333333,29.1666667 L16.3333333,26.8333333 C16.3333333,26.1890011 16.8556678,25.6666667 17.5,25.6666667 L38.5,25.6666667 Z M24.5,14 C25.1443322,14 25.6666667,14.5223345 25.6666667,15.1666667 L25.6666667,17.5 C25.6666667,18.1443322 25.1443322,18.6666667 24.5,18.6666667 L17.5,18.6666667 C16.8556678,18.6666667 16.3333333,18.1443322 16.3333333,17.5 L16.3333333,15.1666667 C16.3333333,14.5223345 16.8556678,14 17.5,14 L24.5,14 Z" id="形状结合" fill="#FFFFFF"></path>
                </g>
            </g>
        </g>
    </g>
</svg>