<?xml version="1.0" encoding="UTF-8"?>
<svg width="202px" height="197px" viewBox="0 0 202 197" version="1.1" xmlns="http://www.w3.org/2000/svg" xmlns:xlink="http://www.w3.org/1999/xlink">
    <title>编组 4</title>
    <g id="圈子" stroke="none" stroke-width="1" fill="none" fill-rule="evenodd">
        <g id="话题详情+输入框" transform="translate(-274.000000, -923.000000)">
            <g id="编组-4" transform="translate(274.000000, 923.000000)">
                <path d="M76.3508772,5.67813271e-13 C87.0513486,5.65847626e-13 95.7257945,8.67444596 95.7257945,19.3749173 C95.7257945,20.0381246 95.691742,20.7008945 95.6237713,21.3606095 L93.522,41.754 L124.54,41.754 L126.856413,19.2728941 C127.984546,8.32336999 137.209536,5.80621967e-13 148.217023,5.67941784e-13 L150.315789,5.67813271e-13 C161.016261,5.65847626e-13 169.690707,8.67444596 169.690707,19.3749173 C169.690707,20.0381246 169.656654,20.7008945 169.588684,21.3606095 L168.316666,33.7009824 C168.328,33.7004191 168.339348,33.7001375 168.350708,33.7001375 C168.031743,37.5740698 169.796358,41.4815951 174.008428,41.7555712 L177.754386,41.754386 C189.613974,41.754386 199.22807,51.3684819 199.22807,63.2280702 C199.22807,75.0876585 189.613974,84.7017544 177.754386,84.7017544 L168.527146,84.7006567 C164.711615,84.8932639 162.794052,87.6538451 162.334351,91.8571809 L162.324,91.856 L160.779518,106.853565 C160.782191,106.853534 160.784864,106.853519 160.787537,106.853519 C160.465541,110.764258 162.974854,114.0918 167.008362,114.519657 L167.008,114.526 L180.140351,114.526316 C191.999939,114.526316 201.614035,124.140412 201.614035,136 C201.614035,147.859588 191.999939,157.473684 180.140351,157.473684 L160.829081,157.472251 C157.754746,157.649518 155.367449,160.110468 154.90387,164.349267 L154.855,164.346 L153.494464,177.569211 C152.366331,188.518735 143.141341,196.842105 132.133855,196.842105 L130.035088,196.842105 C119.334616,196.842105 110.66017,188.167659 110.66017,177.467188 C110.66017,176.803981 110.694223,176.141211 110.762194,175.481496 L112.045516,163.020204 C112.123233,160.064916 111.43347,158.207569 108.421645,157.472528 L86.8290811,157.472251 C83.7547455,157.649518 81.3674492,160.110468 80.9038696,164.349267 L80.89,164.348 L79.5295518,177.569211 C78.401419,188.518735 69.176429,196.842105 58.1689423,196.842105 L56.0701754,196.842105 C45.3697041,196.842105 36.6952581,188.167659 36.6952581,177.467188 C36.6952581,176.803981 36.7293107,176.141211 36.7972813,175.481496 L38.0226439,163.581377 C38.1997003,160.299056 37.6198245,158.253049 34.4216449,157.472528 L21.4736842,157.473684 C9.6140959,157.473684 -7.37512065e-13,147.859588 -7.38964445e-13,136 C-7.40416826e-13,124.140412 9.6140959,114.526316 21.4736842,114.526316 L38.085,114.526 L38.2831165,114.484588 C42.2303462,113.612198 43.216842,111.934658 43.626409,109.190679 L45.6474381,89.571794 C45.5370172,86.7649387 44.4277359,85.1326386 40.6056743,84.7017544 L28.6315789,84.7017544 C16.7719906,84.7017544 7.15789474,75.0876585 7.15789474,63.2280702 C7.15789474,51.3684819 16.7719906,41.754386 28.6315789,41.754386 L46.046,41.754 L46.2795918,41.7051053 C50.822247,40.6876127 50.936866,38.344097 51.2697144,34.7863802 L51.292,34.787 L52.8915009,19.2728941 C54.0196337,8.32336999 63.2446236,5.80621967e-13 74.2521103,5.67941784e-13 L76.3508772,5.67813271e-13 Z" id="形状结合" fill="#B0C1D2" opacity="0.400000006"></path>
                <path d="M102.765565,75.1223616 C102.765565,75.1223616 103.638895,72.1771861 106.44019,71.6491399 C109.241485,71.1210937 111.251002,73.6510845 111.251002,73.6510845" id="直线" stroke="#17181A" stroke-width="4.77192982" stroke-linecap="round"></path>
                <path d="M120.491228,72.7386939 C120.491228,72.7386939 121.364558,69.7935184 124.165853,69.2654722 C126.967148,68.737426 128.976665,71.2674168 128.976665,71.2674168" id="直线" stroke="#17181A" stroke-width="4.77192982" stroke-linecap="round"></path>
                <path d="M105.415844,82.6208796 C109.037476,82.0415895 113.737866,81.3284219 118.27157,80.3474849 C122.798915,79.367924 126.617172,78.4214743 129.527429,78.0295282 C133.406079,77.5071615 135.875209,80.5719236 136.464116,82.3022461 C138.553251,88.4405295 134.957601,100.04422 121.241065,101.822917 C109.51175,103.34392 102.909593,97.142326 101.096949,91.8594919 C100.192309,89.2229749 100.481248,83.4101819 105.415844,82.6208796 Z" id="矩形" fill="#17181A"></path>
            </g>
        </g>
    </g>
</svg>