<?xml version="1.0" encoding="UTF-8"?>
<svg width="48px" height="48px" viewBox="0 0 48 48" version="1.1" xmlns="http://www.w3.org/2000/svg" xmlns:xlink="http://www.w3.org/1999/xlink">
    <title>点赞</title>
    <g id="圈子改版" stroke="none" stroke-width="1" fill="none" fill-rule="evenodd">
        <g id="圈子间距调整" transform="translate(-406.000000, -1467.000000)">
            <g id="动态" transform="translate(0.000000, 610.000000)">
                <g id="点赞" transform="translate(406.000000, 857.000000)">
                    <polygon id="矩形" points="-9.37968453e-13 -3.41060513e-13 48 -3.41060513e-13 48 48 -9.37968453e-13 48"></polygon>
                    <path d="M10,17.9993374 L10,44.9993374 L7,45 C4.790861,45 3,43.209139 3,41 L3,22 C3,19.790861 4.790861,18 7,18 L10,17.9993374 Z M25.03679,3.86765429 L25.5,4 C27.505552,4.57301487 28.7801959,6.53862836 28.4852185,8.60347055 L27.413,16.1093374 L28,16 L38.1156078,16 C41.4293163,16 44.1156078,18.6862915 44.1156078,22 C44.1156078,22.2742397 44.096806,22.5481567 44.0593346,22.8198244 L41.952676,38.0930992 C41.4066884,42.0515089 38.0235935,45 34.0277069,45 L14,44.9993374 L14,17.2193374 L20.4516034,5.75270513 C21.3594318,4.13878789 23.2563132,3.35894662 25.03679,3.86765429 Z" id="形状结合" fill="#6179F2"></path>
                </g>
            </g>
        </g>
    </g>
</svg>