<?xml version="1.0" encoding="UTF-8"?>
<svg width="315px" height="446px" viewBox="0 0 315 446" version="1.1" xmlns="http://www.w3.org/2000/svg" xmlns:xlink="http://www.w3.org/1999/xlink">
    <title>双卡片样式</title>
    <g id="圈子改版" stroke="none" stroke-width="1" fill="none" fill-rule="evenodd">
        <g id="浏览样式设置" transform="translate(-395.000000, -302.000000)">
            <g id="双卡片样式" transform="translate(395.000000, 302.000000)">
                <path d="M8,0 L307,0 C311.418278,-8.11624501e-16 315,3.581722 315,8 L315,438 C315,442.418278 311.418278,446 307,446 L8,446 C3.581722,446 5.41083001e-16,442.418278 0,438 L0,8 C-5.41083001e-16,3.581722 3.581722,8.11624501e-16 8,0 Z" id="矩形备份" fill="#F5F5F8"></path>
                <path d="M28,24 L146,24 C148.209139,24 150,25.790861 150,28 L150,188 C150,190.209139 148.209139,192 146,192 L28,192 C25.790861,192 24,190.209139 24,188 L24,28 C24,25.790861 25.790861,24 28,24 Z" id="矩形" fill="#FFFFFF"></path>
                <path d="M34,172 L97,172 C98.1045695,172 99,172.895431 99,174 L99,182 C99,183.104569 98.1045695,184 97,184 L34,184 C32.8954305,184 32,183.104569 32,182 L32,174 C32,172.895431 32.8954305,172 34,172 Z" id="矩形备份-2" fill="#F5F5F8"></path>
                <path d="M169,275 L287,275 C289.209139,275 291,276.790861 291,279 L291,439 C291,441.209139 289.209139,443 287,443 L169,443 C166.790861,443 165,441.209139 165,439 L165,279 C165,276.790861 166.790861,275 169,275 Z" id="矩形备份-8" fill="#FFFFFF"></path>
                <path d="M170,24 L287,24 C289.209139,24 291,25.790861 291,28 L291,114 C291,116.209139 289.209139,118 287,118 L170,118 C167.790861,118 166,116.209139 166,114 L166,28 C166,25.790861 167.790861,24 170,24 Z" id="矩形备份-4" fill="#FFFFFF"></path>
                <path d="M176,98 L239,98 C240.104569,98 241,98.8954305 241,100 L241,108 C241,109.104569 240.104569,110 239,110 L176,110 C174.895431,110 174,109.104569 174,108 L174,100 C174,98.8954305 174.895431,98 176,98 Z" id="矩形备份-2" fill="#F5F5F8"></path>
                <path d="M28,208 L145,208 C147.209139,208 149,209.790861 149,212 L149,298 C149,300.209139 147.209139,302 145,302 L28,302 C25.790861,302 24,300.209139 24,298 L24,212 C24,209.790861 25.790861,208 28,208 Z" id="矩形备份-7" fill="#FFFFFF"></path>
                <path d="M34,282 L97,282 C98.1045695,282 99,282.895431 99,284 L99,292 C99,293.104569 98.1045695,294 97,294 L34,294 C32.8954305,294 32,293.104569 32,292 L32,284 C32,282.895431 32.8954305,282 34,282 Z" id="矩形备份-2" fill="#F5F5F8"></path>
                <path d="M170,134 L287,134 C289.209139,134 291,135.790861 291,138 L291,255 C291,257.209139 289.209139,259 287,259 L170,259 C167.790861,259 166,257.209139 166,255 L166,138 C166,135.790861 167.790861,134 170,134 Z" id="矩形备份-6" fill="#FFFFFF"></path>
                <path d="M176,239 L239,239 C240.104569,239 241,239.895431 241,241 L241,249 C241,250.104569 240.104569,251 239,251 L176,251 C174.895431,251 174,250.104569 174,249 L174,241 C174,239.895431 174.895431,239 176,239 Z" id="矩形备份-2" fill="#F5F5F8"></path>
                <path d="M28,318 L145,318 C147.209139,318 149,319.790861 149,322 L149,439 C149,441.209139 147.209139,443 145,443 L28,443 C25.790861,443 24,441.209139 24,439 L24,322 C24,319.790861 25.790861,318 28,318 Z" id="矩形备份-9" fill="#FFFFFF"></path>
                <path d="M0,422 L315,422 L315,438 C315,442.418278 311.418278,446 307,446 L8,446 C3.581722,446 5.41083001e-16,442.418278 0,438 L0,422 L0,422 Z" id="矩形" fill="#F5F5F8"></path>
            </g>
        </g>
    </g>
</svg>