<?xml version="1.0" encoding="UTF-8"?>
<svg width="365px" height="232px" viewBox="0 0 365 232" version="1.1" xmlns="http://www.w3.org/2000/svg" xmlns:xlink="http://www.w3.org/1999/xlink">
    <title>编组</title>
    <defs>
        <rect id="path-1" x="207.578947" y="71.5789474" width="83.5087719" height="94.245614" rx="39.3684211"></rect>
    </defs>
    <g id="页面-1" stroke="none" stroke-width="1" fill="none" fill-rule="evenodd">
        <g id="话题聚合页" transform="translate(-193.000000, -899.000000)">
            <g id="编组" transform="translate(193.000000, 900.000000)">
                <g transform="translate(12.000000, 3.614035)">
                    <rect id="矩形" stroke="#B0C1D2" stroke-width="40.5614035" x="180.140351" y="41.754386" width="139.578947" height="153.894737" rx="69.7894737"></rect>
                    <rect id="矩形" fill="#F2F3F5" x="289.894737" y="175.368421" width="50.1052632" height="40.5614035"></rect>
                    <path d="M249.333333,175.368421 L288.701754,175.368421 C299.902477,175.368421 308.982456,184.448401 308.982456,195.649123 C308.982456,206.849845 299.902477,215.929825 288.701754,215.929825 L249.333333,215.929825 L249.333333,215.929825 L249.333333,175.368421 Z" id="矩形" fill="#B0C1D2"></path>
                    <path d="M109.807742,30.8708327 L216.480589,20.6016653 L216.480589,20.6016653 L219.508772,76.3508772 L103.789474,45.9851631 C100.470248,42.1773124 100.866357,36.3996754 104.674207,33.0804497 C106.112933,31.8263424 107.907935,31.0537231 109.807742,30.8708327 Z" id="矩形" fill="#B0C1D2"></path>
                    <path d="M219.234412,6.35148991 L247.499058,3.81084755 C272.666922,1.54856758 296.342428,16.0506362 305.761767,39.4987784 L320.307991,75.7095896 C329.886288,99.5534368 318.321775,126.647439 294.477928,136.225736 C288.964082,138.4407 283.076987,139.578947 277.134886,139.578947 L229.481436,139.578947 C203.785662,139.578947 182.955121,118.748406 182.955121,93.0526316 C182.955121,92.910353 182.955773,92.7680752 182.957079,92.6258026 L183.392172,45.2006611 C183.577837,24.9631499 199.077317,8.16336355 219.234412,6.35148991 Z" id="矩形" fill="#B0C1D2"></path>
                    <rect id="矩形" fill="#F2F3F5" x="230.245614" y="87.0877193" width="38.1754386" height="60.8421053"></rect>
                    <path d="M76.3508772,9.54385965 C87.0513486,9.54385965 95.7257945,18.2183056 95.7257945,28.918777 C95.7257945,29.5819843 95.691742,30.2447541 95.6237713,30.9044691 L93.522,51.2978596 L124.54,51.2978596 L126.856413,28.8167538 C127.984546,17.8672296 137.209536,9.54385965 148.217023,9.54385965 L150.315789,9.54385965 C161.016261,9.54385965 169.690707,18.2183056 169.690707,28.918777 C169.690707,29.5819843 169.656654,30.2447541 169.588684,30.9044691 L168.316666,43.2448421 C168.328,43.2442788 168.339348,43.2439971 168.350708,43.2439971 C168.031743,47.1179294 169.796358,51.0254547 174.008428,51.2994309 L177.754386,51.2982456 C189.613974,51.2982456 199.22807,60.9123415 199.22807,72.7719298 C199.22807,84.6315181 189.613974,94.245614 177.754386,94.245614 L168.527146,94.2445163 C164.711615,94.4371235 162.794052,97.1977047 162.334351,101.401041 L162.324,101.39986 L160.779518,116.397425 C160.782191,116.397394 160.784864,116.397378 160.787537,116.397378 C160.465541,120.308118 162.974854,123.63566 167.008362,124.063516 L167.008,124.06986 L180.140351,124.070175 C191.999939,124.070175 201.614035,133.684271 201.614035,145.54386 C201.614035,157.403448 191.999939,167.017544 180.140351,167.017544 L160.829081,167.01611 C157.754746,167.193378 155.367449,169.654327 154.90387,173.893126 L154.855,173.88986 L153.494464,187.113071 C152.366331,198.062595 143.141341,206.385965 132.133855,206.385965 L130.035088,206.385965 C119.334616,206.385965 110.66017,197.711519 110.66017,187.011048 C110.66017,186.34784 110.694223,185.68507 110.762194,185.025355 L112.045516,172.564063 C112.123233,169.608775 111.43347,167.751429 108.421645,167.016387 L86.8290811,167.01611 C83.7547455,167.193378 81.3674492,169.654327 80.9038696,173.893126 L80.89,173.89186 L79.5295518,187.113071 C78.401419,198.062595 69.176429,206.385965 58.1689423,206.385965 L56.0701754,206.385965 C45.3697041,206.385965 36.6952581,197.711519 36.6952581,187.011048 C36.6952581,186.34784 36.7293107,185.68507 36.7972813,185.025355 L38.0226439,173.125236 C38.1997003,169.842916 37.6198245,167.796909 34.4216449,167.016387 L21.4736842,167.017544 C9.6140959,167.017544 -1.64700677e-12,157.403448 -1.64845915e-12,145.54386 C-1.64991153e-12,133.684271 9.6140959,124.070175 21.4736842,124.070175 L38.085,124.06986 L38.2831165,124.028447 C42.2303462,123.156057 43.216842,121.478518 43.626409,118.734539 L45.6474381,99.1156536 C45.5370172,96.3087983 44.4277359,94.6764983 40.6056743,94.245614 L28.6315789,94.245614 C16.7719906,94.245614 7.15789474,84.6315181 7.15789474,72.7719298 C7.15789474,60.9123415 16.7719906,51.2982456 28.6315789,51.2982456 L46.046,51.2978596 L46.2795918,51.248965 C50.822247,50.2314724 50.936866,47.8879567 51.2697144,44.3302398 L51.292,44.3308596 L52.8915009,28.8167538 C54.0196337,17.8672296 63.2446236,9.54385965 74.2521103,9.54385965 L76.3508772,9.54385965 Z" id="形状结合" fill="#FFFFFF"></path>
                    <path d="M102.765565,84.6662212 C102.765565,84.6662212 103.638895,81.7210458 106.44019,81.1929996 C109.241485,80.6649534 111.251002,83.1949441 111.251002,83.1949441" id="直线" stroke="#17181A" stroke-width="4.77192982" stroke-linecap="round"></path>
                    <path d="M120.491228,82.2825535 C120.491228,82.2825535 121.364558,79.3373781 124.165853,78.8093319 C126.967148,78.2812857 128.976665,80.8112764 128.976665,80.8112764" id="直线" stroke="#17181A" stroke-width="4.77192982" stroke-linecap="round"></path>
                    <path d="M239.347785,37.9223376 C239.347785,37.9223376 240.892041,36.6432391 242.707344,36.4143623 C244.3983,36.2011633 246.195929,36.9454667 246.195929,36.9454667" id="直线" stroke="#17181A" stroke-width="4.77192982" stroke-linecap="round"></path>
                    <path d="M230.245614,48.0726818 C230.245614,48.0726818 231.789871,46.7935833 233.605173,46.5647065 C235.29613,46.3515075 237.093759,47.0958109 237.093759,47.0958109" id="直线" stroke="#17181A" stroke-width="4.77192982" stroke-linecap="round" transform="translate(233.669686, 47.299499) scale(-1, -1) translate(-233.669686, -47.299499) "></path>
                    <rect id="矩形" fill="#17181A" transform="translate(218.912281, 41.157895) rotate(-10.000000) translate(-218.912281, -41.157895) " x="214.736842" y="35.7894737" width="8.35087719" height="10.7368421" rx="4.1754386"></rect>
                    <path d="M105.415844,92.1647392 C109.037476,91.5854492 113.737866,90.8722816 118.27157,89.8913446 C122.798915,88.9117837 126.617172,87.9653339 129.527429,87.5733878 C133.406079,87.0510211 135.875209,90.1157833 136.464116,91.8461057 C138.553251,97.9843892 134.957601,109.58808 121.241065,111.366776 C109.51175,112.887779 102.909593,106.686186 101.096949,101.403352 C100.192309,98.7668345 100.481248,92.9540416 105.415844,92.1647392 Z" id="矩形" fill="#17181A"></path>
                    <circle id="椭圆形" fill="#B0C1D2" cx="109.754386" cy="47.7192982" r="16.7017544"></circle>
                    <g id="矩形">
                        <rect stroke="#B0C1D2" stroke-width="36.9824561" stroke-linejoin="square" x="226.070175" y="90.0701754" width="46.5263158" height="57.2631579" rx="23.2631579"></rect>
                        <rect stroke="#F2F3F5" stroke-width="9.54385965" x="202.807018" y="66.8070175" width="93.0526316" height="103.789474" rx="39.3684211"></rect>
                    </g>
                    <path d="M287.027618,114.524568 L291.087719,114.525303 C291.087719,114.525641 291.087719,114.525978 291.087719,114.526316 C291.087719,117.16178 293.224185,119.298246 295.859649,119.298246 C298.495113,119.298246 300.631579,117.16178 300.631579,114.526316 L308.982456,114.526316 L308.982456,165.824561 L249.333333,165.824561 L249.333333,132.421053 L287.027618,114.524568 Z" id="形状结合" fill="#B0C1D2"></path>
                    <path d="M308.982456,159.172869 C317.738013,156.096091 324.764857,151.428842 330.062988,145.171121 C335.36112,138.9134 338.673457,128.697882 340,114.524568 L340,180.140351 L305.403509,180.140351 L308.982456,159.172869 Z" id="矩形" fill="#F2F3F5"></path>
                    <path d="M250.903809,165.86741 C286.681641,164.622293 302.67627,162.095438 320.26709,155.484598 C335.220019,157.079143 341.797656,163.707084 340,175.368421 L249.332647,175.368421 C249.830283,171.467682 250.354004,168.300678 250.903809,165.86741 Z" id="矩形" fill="#F2F3F5"></path>
                </g>
                <path d="M29,28.411388 L22.5230807,30.7577285 C22.0038182,30.9458375 21.4303804,30.6773845 21.2422715,30.1581221 C21.1625486,29.9380521 21.1625486,29.6969893 21.2422715,29.4769193 L23.588612,23 L23.588612,23 L21.2422715,16.5230807 C21.0541625,16.0038182 21.3226155,15.4303804 21.8418779,15.2422715 C22.0619479,15.1625486 22.3030107,15.1625486 22.5230807,15.2422715 L29,17.588612 L29,17.588612 L35.4769193,15.2422715 C35.9961818,15.0541625 36.5696196,15.3226155 36.7577285,15.8418779 C36.8374514,16.0619479 36.8374514,16.3030107 36.7577285,16.5230807 L34.411388,23 L34.411388,23 L36.7577285,29.4769193 C36.9458375,29.9961818 36.6773845,30.5696196 36.1581221,30.7577285 C35.9380521,30.8374514 35.6969893,30.8374514 35.4769193,30.7577285 L29,28.411388 L29,28.411388 Z" id="星形" fill="#717D8D" opacity="0.200000003" transform="translate(29.000000, 23.000000) rotate(45.000000) translate(-29.000000, -23.000000) "></path>
                <path d="M352,17.862337 L344.815974,20.4648353 C344.296711,20.6529442 343.723274,20.3844913 343.535165,19.8652289 C343.455442,19.6451589 343.455442,19.4040961 343.535165,19.1840261 L346.137663,12 L346.137663,12 L343.535165,4.81597388 C343.347056,4.29671145 343.615509,3.72327365 344.134771,3.53516471 C344.354841,3.45544177 344.595904,3.45544177 344.815974,3.53516471 L352,6.137663 L352,6.137663 L359.184026,3.53516471 C359.703289,3.34705576 360.276726,3.6155087 360.464835,4.13477113 C360.544558,4.35484108 360.544558,4.59590394 360.464835,4.81597388 L357.862337,12 L357.862337,12 L360.464835,19.1840261 C360.652944,19.7032885 360.384491,20.2767263 359.865229,20.4648353 C359.645159,20.5445582 359.404096,20.5445582 359.184026,20.4648353 L352,17.862337 L352,17.862337 Z" id="星形" fill="#717D8D" opacity="0.200000003" transform="translate(352.000000, 12.000000) rotate(45.000000) translate(-352.000000, -12.000000) "></path>
                <path d="M182,224.960439 L176.230187,227.050622 C175.710925,227.238731 175.137487,226.970278 174.949378,226.451015 C174.869655,226.230945 174.869655,225.989883 174.949378,225.769813 L177.039561,220 L177.039561,220 L174.949378,214.230187 C174.761269,213.710925 175.029722,213.137487 175.548985,212.949378 C175.769055,212.869655 176.010117,212.869655 176.230187,212.949378 L182,215.039561 L182,215.039561 L187.769813,212.949378 C188.289075,212.761269 188.862513,213.029722 189.050622,213.548985 C189.130345,213.769055 189.130345,214.010117 189.050622,214.230187 L186.960439,220 L186.960439,220 L189.050622,225.769813 C189.238731,226.289075 188.970278,226.862513 188.451015,227.050622 C188.230945,227.130345 187.989883,227.130345 187.769813,227.050622 L182,224.960439 L182,224.960439 Z" id="星形" fill="#717D8D" opacity="0.200000003" transform="translate(182.000000, 220.000000) rotate(45.000000) translate(-182.000000, -220.000000) "></path>
            </g>
        </g>
    </g>
</svg>