<?xml version="1.0" encoding="UTF-8"?>
<svg width="112px" height="112px" viewBox="0 0 112 112" version="1.1" xmlns="http://www.w3.org/2000/svg" xmlns:xlink="http://www.w3.org/1999/xlink">
    <title>编组 26</title>
    <g id="圈子2.0" stroke="none" stroke-width="1" fill="none" fill-rule="evenodd">
        <g id="发布弹窗" transform="translate(-319.000000, -1294.000000)">
            <g id="编组-26" transform="translate(319.000000, 1294.000000)">
                <rect id="矩形备份-2" fill="#FF6A00" opacity="0.100000001" x="0" y="0" width="112" height="112" rx="16"></rect>
                <g id="编组-22" transform="translate(28.000000, 28.000000)">
                    <rect id="矩形" x="0" y="0" width="56" height="56"></rect>
                    <g id="音视频会议" transform="translate(43.166667, 14.000000)" fill="#FF6A00">
                        <path d="M0,7 L9.89975495,1.06014703 C10.4522653,0.728640843 11.1689022,0.907800084 11.5004084,1.46031039 C11.6091992,1.64162836 11.6666667,1.84910417 11.6666667,2.06055544 L11.6666667,25.9394446 C11.6666667,26.5837768 11.1443322,27.1061112 10.5,27.1061112 C10.2885487,27.1061112 10.0810729,27.0486438 9.89975495,26.939853 L0,21 L0,21 L0,7 Z" id="矩形"></path>
                    </g>
                    <rect id="矩形" fill="#FF6A00" x="1.16666667" y="9.33333333" width="37.3333333" height="37.3333333" rx="2.33333333"></rect>
                    <rect id="矩形" fill="#FFFFFF" x="8.16666667" y="16.3333333" width="7" height="7" rx="1.16666667"></rect>
                </g>
            </g>
        </g>
    </g>
</svg>