<?xml version="1.0" encoding="UTF-8"?>
<svg width="112px" height="112px" viewBox="0 0 112 112" version="1.1" xmlns="http://www.w3.org/2000/svg" xmlns:xlink="http://www.w3.org/1999/xlink">
    <title>编组 28</title>
    <g fill="none" fill-rule="evenodd" id="圈子频道" stroke="none" stroke-width="1">
        <g id="发布弹窗" transform="translate(-87.000000, -1294.000000)">
            <g id="编组-28" transform="translate(87.000000, 1294.000000)">
                <rect fill="#198CFE" height="112" id="矩形" opacity="0.100000001" rx="16" transform="translate(56.000000, 56.000000) scale(-1, 1) translate(-56.000000, -56.000000) " width="112" x="0" y="0"></rect>
                <g id="编组-21" transform="translate(28.000000, 28.000000)">
                    <rect id="矩形" x="0" y="0" width="56" height="56"></rect>
                    <path d="M7,4.66666667 L49,4.66666667 C50.2886644,4.66666667 51.3333333,5.71133558 51.3333333,7 L51.3333333,49 C51.3333333,50.2886644 50.2886644,51.3333333 49,51.3333333 L7,51.3333333 C5.71133558,51.3333333 4.66666667,50.2886644 4.66666667,49 L4.66666667,7 C4.66666667,5.71133558 5.71133558,4.66666667 7,4.66666667 Z" fill="#198CFE" id="矩形"></path>
                    <path d="M41.6084245,23.1965883 C41.8574942,23.4179837 42,23.7353218 42,24.0685659 L42,40.8333333 C42,41.4776655 41.4776655,42 40.8333333,42 L15.4706437,42 C14.8263114,42 14.303977,41.4776655 14.303977,40.8333333 C14.303977,40.5431063 14.4121524,40.263299 14.6073802,40.0485484 L23.6367366,30.1162564 C24.0701613,29.6394892 24.8080177,29.6043532 25.2847849,30.0377779 C25.3121746,30.0626776 25.3383637,30.0888668 25.3632634,30.1162564 L29.677977,34.8618867 L39.9613558,23.2934747 C40.3894268,22.8118948 41.1268446,22.7685173 41.6084245,23.1965883 Z M19.8333333,14 C20.4776655,14 21,14.5223345 21,15.1666667 L21,19.8333333 C21,20.4776655 20.4776655,21 19.8333333,21 L15.1666667,21 C14.5223345,21 14,20.4776655 14,19.8333333 L14,15.1666667 C14,14.5223345 14.5223345,14 15.1666667,14 L19.8333333,14 Z" id="形状结合" fill="#FFFFFF"></path>
                </g>
            </g>
        </g>
    </g>
</svg>