<?xml version="1.0" encoding="UTF-8"?>
<svg width="48px" height="48px" viewBox="0 0 48 48" version="1.1" xmlns="http://www.w3.org/2000/svg" xmlns:xlink="http://www.w3.org/1999/xlink">
    <title>私信</title>
    <g id="web端" stroke="none" stroke-width="1" fill="none" fill-rule="evenodd">
        <g id="私信">
            <polygon id="路径" points="0 0 48 0 48 48 0 48"></polygon>
            <g transform="translate(4.000000, 4.000000)" id="形状结合">
                <path d="M20,2 C24.9705627,2 29.4705627,4.01471863 32.7279221,7.27207794 C35.9852814,10.5294373 38,15.0294373 38,20 C38,24.9705627 35.9852814,29.4705627 32.7279221,32.7279221 C29.4705627,35.9852814 24.9705627,38 20,38 L20,38 L2.86817958,37.9997825 L6.70784163,32.1375836 C3.78317993,28.9372799 2,24.6767998 2,20 C2,15.0294373 4.01471863,10.5294373 7.27207794,7.27207794 C10.5294373,4.01471863 15.0294373,2 20,2 Z" stroke="#5562F2" stroke-width="4"></path>
                <path d="M21,12.2 C21.5522847,12.2 22,12.6477153 22,13.2 L21.999,17.6 L26,17.6 C26.5522847,17.6 27,18.0477153 27,18.6 L27,20.6 C27,21.1522847 26.5522847,21.6 26,21.6 L21.999,21.6 L22,25.2 C22,25.7522847 21.5522847,26.2 21,26.2 L19,26.2 C18.4477153,26.2 18,25.7522847 18,25.2 L17.999,21.6 L14,21.6 C13.4477153,21.6 13,21.1522847 13,20.6 L13,18.6 C13,18.0477153 13.4477153,17.6 14,17.6 L17.999,17.6 L18,13.2 C18,12.6477153 18.4477153,12.2 19,12.2 L21,12.2 Z" fill="#5562F2"></path>
            </g>
        </g>
    </g>
</svg>