<?xml version="1.0" encoding="UTF-8"?>
<svg width="60px" height="60px" viewBox="0 0 60 60" version="1.1" xmlns="http://www.w3.org/2000/svg" xmlns:xlink="http://www.w3.org/1999/xlink">
    <!-- Generator: Sketch 60 (88103) - https://sketch.com -->
    <title>编组 6</title>
    <desc>Created with Sketch.</desc>
    <g id="页面-1" stroke="none" stroke-width="1" fill="none" fill-rule="evenodd">
        <g id="文字聊天-@-02" transform="translate(-144.000000, -410.000000)">
            <g id="编组-6" transform="translate(144.000000, 410.000000)">
                <rect id="矩形" fill="#8F959E" x="0" y="0" width="60" height="60" rx="8"></rect>
                <path d="M40,8 C42.209139,8 44,9.790861 44,12 L44,13.999 L46,14 C48.209139,14 50,15.790861 50,18 C50,20.209139 48.209139,22 46,22 L44,22 L44,38 L46,38 C48.209139,38 50,39.790861 50,42 C50,44.209139 48.209139,46 46,46 L44,46 L44,48 C44,50.209139 42.209139,52 40,52 C37.790861,52 36,50.209139 36,48 L36,46 L24,46 L24,48 C24,50.209139 22.209139,52 20,52 C17.790861,52 16,50.209139 16,48 L16,46 L14,46 C11.790861,46 10,44.209139 10,42 C10,39.790861 11.790861,38 14,38 L16,38 L16,22 L14,22 C11.790861,22 10,20.209139 10,18 C10,15.790861 11.790861,14 14,14 L16,14 L16,12 C16,9.790861 17.790861,8 20,8 C22.209139,8 24,9.790861 24,12 L24,14 L36,13.999 L36,12 C36,9.790861 37.790861,8 40,8 Z M36,31 L24,31 L24,33 C24,36.3137085 26.6862915,39 30,39 C33.3137085,39 36,36.3137085 36,33 L36,33 L36,31 Z M24,21 C22.3431458,21 21,22.3431458 21,24 C21,25.6568542 22.3431458,27 24,27 C25.6568542,27 27,25.6568542 27,24 C27,22.3431458 25.6568542,21 24,21 Z M36,21 C34.3431458,21 33,22.3431458 33,24 C33,25.6568542 34.3431458,27 36,27 C37.6568542,27 39,25.6568542 39,24 C39,22.3431458 37.6568542,21 36,21 Z" id="形状结合" fill="#FFFFFF"></path>
            </g>
        </g>
    </g>
</svg>