<?xml version="1.0" encoding="UTF-8"?>
<svg width="48px" height="48px" viewBox="0 0 48 48" version="1.1" xmlns="http://www.w3.org/2000/svg" xmlns:xlink="http://www.w3.org/1999/xlink">
    <title>编组 23</title>
    <g id="FBUI原子组件" stroke="none" stroke-width="1" fill="none" fill-rule="evenodd">
        <g id="画板" transform="translate(-121.000000, -103.000000)">
            <g id="编组-24" transform="translate(121.000000, 103.000000)">
                <rect id="矩形" fill="#E4E5E7" x="0" y="0" width="48" height="48"></rect>
                <path d="M27,16.5 L33,16.5 C37.1421356,16.5 40.5,19.8578644 40.5,24 C40.5,28.1421356 37.1421356,31.5 33,31.5 L30,31.5 C29.1715729,31.5 28.5,30.8284271 28.5,30 C28.5,29.1715729 29.1715729,28.5 30,28.5 L30,28.5 L33,28.5 C35.4852814,28.5 37.5,26.4852814 37.5,24 C37.5,21.5712023 35.5758188,19.5918212 33.1687037,19.5031039 L33,19.5 L27,19.5 C24.5857267,19.5 22.6155109,21.4012365 22.504898,23.7881643 L22.5,24 C22.5,24.8284271 21.8284271,25.5 21,25.5 C20.1715729,25.5 19.5,24.8284271 19.5,24 L19.5,24 C19.5,19.8578644 22.8578644,16.5 27,16.5 Z M18,16.5 C18.8284271,16.5 19.5,17.1715729 19.5,18 C19.5,18.8284271 18.8284271,19.5 18,19.5 L18,19.5 L15,19.5 C12.5147186,19.5 10.5,21.5147186 10.5,24 C10.5,26.4287977 12.4241812,28.4081788 14.8312963,28.4968961 L15,28.5 L21,28.5 C23.4852814,28.5 25.5,26.4852814 25.5,24 L25.5068666,23.85554 C25.5795513,23.0948881 26.2203039,22.5 27,22.5 C27.8284271,22.5 28.5,23.1715729 28.5,24 L28.5,24 C28.5,28.1421356 25.1421356,31.5 21,31.5 L15,31.5 C10.8578644,31.5 7.5,28.1421356 7.5,24 C7.5,19.8578644 10.8578644,16.5 15,16.5 Z" id="形状结合" fill="#8F959E" transform="translate(24.000000, 24.000000) rotate(-45.000000) translate(-24.000000, -24.000000) "></path>
            </g>
        </g>
    </g>
</svg>