<?xml version="1.0" encoding="UTF-8"?>
<svg width="168px" height="168px" viewBox="0 0 168 168" version="1.1" xmlns="http://www.w3.org/2000/svg" xmlns:xlink="http://www.w3.org/1999/xlink">
    <title>编组 12</title>
    <defs>
        <rect id="path-1" x="0" y="0" width="24" height="24"></rect>
    </defs>
    <g id="邀请/分享" stroke="none" stroke-width="1" fill="none" fill-rule="evenodd">
        <g id="组队邀请" transform="translate(-291.000000, -583.000000)">
            <g id="编组" transform="translate(95.000000, 511.000000)">
                <g id="编组-12" transform="translate(196.000000, 72.000000)">
                    <rect id="矩形" x="0" y="0" width="168" height="168"></rect>
                    <g id="编组-11" transform="translate(20.000000, 20.000000)">
                        <circle id="椭圆形" fill="#8F959E" opacity="0.149999991" cx="64" cy="64" r="64"></circle>
                        <g id="表情" transform="translate(32.000000, 32.000000)">
                            <rect id="矩形" x="0" y="0" width="64" height="64"></rect>
                            <path d="M32,2.66666667 C48.2003527,2.66666667 61.3333333,15.7996473 61.3333333,32 C61.3333333,48.2003527 48.2003527,61.3333333 32,61.3333333 C15.7996473,61.3333333 2.66666667,48.2003527 2.66666667,32 C2.66666667,15.7996473 15.7996473,2.66666667 32,2.66666667 Z" id="形状结合" fill="#646A73" fill-rule="nonzero"></path>
                            <path d="M42.6666667,36 C42.6666667,41.8910373 37.8910373,46.6666667 32,46.6666667 C26.1089627,46.6666667 21.3333333,41.8910373 21.3333333,36 L42.6666667,36 Z M22.6666667,22.6666667 C24.8758057,22.6666667 26.6666667,24.4575277 26.6666667,26.6666667 C26.6666667,28.8758057 24.8758057,30.6666667 22.6666667,30.6666667 C20.4575277,30.6666667 18.6666667,28.8758057 18.6666667,26.6666667 C18.6666667,24.4575277 20.4575277,22.6666667 22.6666667,22.6666667 Z M41.3333333,22.6666667 C43.5424723,22.6666667 45.3333333,24.4575277 45.3333333,26.6666667 C45.3333333,28.8758057 43.5424723,30.6666667 41.3333333,30.6666667 C39.1241943,30.6666667 37.3333333,28.8758057 37.3333333,26.6666667 C37.3333333,24.4575277 39.1241943,22.6666667 41.3333333,22.6666667 Z" id="形状结合" fill="#EEEFF1" fill-rule="nonzero"></path>
                        </g>
                    </g>
                    <g id="编组-10" transform="translate(144.000000, 0.000000)">
                        <rect id="矩形" fill="#FFFFFF" x="0" y="0" width="24" height="24"></rect>
                        <rect id="矩形" fill="#55F289" x="0" y="10" width="8" height="4" rx="2"></rect>
                        <rect id="矩形" fill="#55F289" x="16" y="10" width="8" height="4" rx="2"></rect>
                        <rect id="矩形" fill="#55F289" x="10" y="0" width="4" height="8" rx="2"></rect>
                        <rect id="矩形" fill="#55F289" x="10" y="16" width="4" height="8" rx="2"></rect>
                    </g>
                    <g id="星形" transform="translate(0.000000, 144.000000)">
                        <mask id="mask-2" fill="white">
                            <use xlink:href="#path-1"></use>
                        </mask>
                        <use id="蒙版" fill="#FFFFFF" xlink:href="#path-1"></use>
                        <path d="M12,18 L4.39207382,20.22831 C4.12706469,20.3059294 3.84930939,20.15402 3.77169001,19.8890108 C3.744812,19.7972435 3.744812,19.6996934 3.77169001,19.6079262 L6,12 L6,12 L3.77169001,4.39207382 C3.69407063,4.12706469 3.84598005,3.84930939 4.11098919,3.77169001 C4.20275646,3.744812 4.30030655,3.744812 4.39207382,3.77169001 L12,6 L12,6 L19.6079262,3.77169001 C19.8729353,3.69407063 20.1506906,3.84598005 20.22831,4.11098919 C20.255188,4.20275646 20.255188,4.30030655 20.22831,4.39207382 L18,12 L18,12 L20.22831,19.6079262 C20.3059294,19.8729353 20.15402,20.1506906 19.8890108,20.22831 C19.7972435,20.255188 19.6996934,20.255188 19.6079262,20.22831 L12,18 L12,18 Z" fill="#FFD70D" mask="url(#mask-2)" transform="translate(12.000000, 12.000000) rotate(45.000000) translate(-12.000000, -12.000000) "></path>
                    </g>
                </g>
            </g>
        </g>
    </g>
</svg>