<?xml version="1.0" encoding="UTF-8"?>
<svg width="154px" height="28px" viewBox="0 0 154 28" version="1.1" xmlns="http://www.w3.org/2000/svg" xmlns:xlink="http://www.w3.org/1999/xlink">
    <title>编组 3</title>
    <g id="圈子动态分享" stroke="none" stroke-width="1" fill="none" fill-rule="evenodd">
        <g id="不带邀请链接-文章动态详情页" transform="translate(-140.000000, -4480.000000)" fill="#646A73">
            <g id="编组-7" transform="translate(32.000000, 4454.000000)">
                <g id="编组-5" transform="translate(108.000000, 26.000000)">
                    <g id="编组-3" transform="translate(0.000000, 0.000000)">
                        <path d="M69,0 C69.5522847,-1.01453063e-16 70,0.44771525 70,1 L69.9999083,6.93556522 C71.1044749,6.38662669 72.3378143,6.0579408 73.6424621,6.00697189 L74,6 L76,6 C80.8818027,6 84.8557914,9.88681368 84.9961629,14.7346377 L85,15 L85,19 C85,23.8818027 81.1131863,27.8557914 76.2653623,27.9961629 L76,28 L74,28 C69.1181973,28 65.1442086,24.1131863 65.0038371,19.2653623 L65,19 L65,1 C65,0.44771525 65.4477153,1.01453063e-16 66,0 L69,0 Z M99,6 C103.881803,6 107.855791,9.88681368 107.996163,14.7346377 L108,15 L108,19 C108,23.8818027 104.113186,27.8557914 99.2653623,27.9961629 L99,28 L97,28 C92.1181973,28 88.1442086,24.1131863 88.0038371,19.2653623 L88,19 L88,15 C88,10.1181973 91.8868137,6.14420858 96.7346377,6.00383711 L97,6 L99,6 Z M122,6 C126.881803,6 130.855791,9.88681368 130.996163,14.7346377 L131,15 L131,19 C131,23.8818027 127.113186,27.8557914 122.265362,27.9961629 L122,28 L120,28 C115.118197,28 111.144209,24.1131863 111.003837,19.2653623 L111,19 L111,15 C111,10.1181973 114.886814,6.14420858 119.734638,6.00383711 L120,6 L122,6 Z M30,6 C34.9705627,6 39,10.0294373 39,15 L39,27 C39,27.5522847 38.5522847,28 38,28 L35,28 C34.4688,28 34.0343376,27.5858174 34.0019386,27.062778 C32.7981198,27.6625302 31.43847,28 30,28 L28,28 C23.0294373,28 19,23.9705627 19,19 L19,15 C19,10.0294373 23.0294373,6 28,6 L30,6 Z M53,6 C57.9705627,6 62,10.0294373 62,15 L62,27 C62,27.5522847 61.5522847,28 61,28 L58,28 C57.4477153,28 57,27.5522847 57,27 L57,15 C57,12.8578046 55.3160315,11.1089211 53.1996403,11.0048953 L53,11 L51,11 C48.8578046,11 47.1089211,12.6839685 47.0048953,14.8003597 L47,15 L47,27 C47,27.5522847 46.5522847,28 46,28 L43,28 C42.4477153,28 42,27.5522847 42,27 L42,15 C42,10.0294373 46.0294373,6 51,6 L53,6 Z M15,0 C15.5522847,-1.01453063e-16 16,0.44771525 16,1 L16,4 C16,4.55228475 15.5522847,5 15,5 L5,5 L5,13 L14,13 C14.5522847,13 15,13.4477153 15,14 L15,17 C15,17.5522847 14.5522847,18 14,18 L5,18 L5,27 C5,27.5522847 4.55228475,28 4,28 L1,28 C0.44771525,28 6.76353751e-17,27.5522847 0,27 L0,1 C-6.76353751e-17,0.44771525 0.44771525,1.01453063e-16 1,0 L15,0 Z M76,11 L74,11 L73.8003597,11.0048953 C71.7522392,11.1055655 70.1090931,12.746685 70.0052149,14.7939606 L70,15 L70,19 L70.0048953,19.1996403 C70.1055655,21.2477608 71.746685,22.8909069 73.7939606,22.9947851 L74,23 L76,23 L76.1996403,22.9951047 C78.2477608,22.8944345 79.8909069,21.253315 79.9947851,19.2060394 L80,19 L80,15 L79.9951047,14.8003597 C79.8910789,12.6839685 78.1421954,11 76,11 Z M99,11 L97,11 L96.8003597,11.0048953 C94.7522392,11.1055655 93.1090931,12.746685 93.0052149,14.7939606 L93,15 L93,19 L93.0048953,19.1996403 C93.1055655,21.2477608 94.746685,22.8909069 96.7939606,22.9947851 L97,23 L99,23 L99.1996403,22.9951047 C101.247761,22.8944345 102.890907,21.253315 102.994785,19.2060394 L103,19 L103,15 L102.995105,14.8003597 C102.891079,12.6839685 101.142195,11 99,11 Z M122,11 L120,11 L119.80036,11.0048953 C117.752239,11.1055655 116.109093,12.746685 116.005215,14.7939606 L116,15 L116,19 L116.004895,19.1996403 C116.105565,21.2477608 117.746685,22.8909069 119.793961,22.9947851 L120,23 L122,23 L122.19964,22.9951047 C124.247761,22.8944345 125.890907,21.253315 125.994785,19.2060394 L126,19 L126,15 L125.995105,14.8003597 C125.891079,12.6839685 124.142195,11 122,11 Z M30,11 L28,11 C25.8578046,11 24.1089211,12.6839685 24.0048953,14.8003597 L24,15 L24,19 C24,21.1421954 25.6839685,22.8910789 27.8003597,22.9951047 L28,23 L30,23 C32.1421954,23 33.8910789,21.3160315 33.9951047,19.1996403 L34,19 L34,15 C34,12.8578046 32.3160315,11.1089211 30.1996403,11.0048953 L30,11 Z" id="形状结合" fill-rule="nonzero"></path>
                        <g id="编组-2" transform="translate(134.000000, 0.000000)">
                            <path d="M4,0 C4.55228475,-1.01453063e-16 5,0.44771525 5,1 L5,27 C5,27.5522847 4.55228475,28 4,28 L1,28 C0.44771525,28 6.76353751e-17,27.5522847 0,27 L0,1 C-6.76353751e-17,0.44771525 0.44771525,1.01453063e-16 1,0 L4,0 Z M18.3118058,6.4 C18.7536336,6.4 19.1118058,6.7581722 19.1118058,7.2 C19.1118058,7.38467389 19.0479141,7.56366053 18.9309716,7.70659023 L11.547,16.73 L19.04,26.72 C19.1230862,26.8307815 19.1756345,26.9607311 19.1933303,27.0969049 L19.2,27.2 C19.2,27.6418278 18.8418278,28 18.4,28 L18.4,28 L14.5,28 C14.1852427,28 13.8888544,27.8518058 13.7,27.6 L13.7,27.6 L5.96,17.28 C5.8561423,17.1415231 5.8,16.9730962 5.8,16.8 C5.8,16.6468498 5.84303491,16.503751 5.91767167,16.3821365 C5.94812641,16.277267 5.99908995,16.1788901 6.06902837,16.0934098 L13.6999218,6.76676221 C13.8898508,6.53462678 14.173946,6.4 14.4738791,6.4 L18.3118058,6.4 Z" id="形状结合"></path>
                        </g>
                    </g>
                </g>
            </g>
        </g>
    </g>
</svg>