<?xml version="1.0" encoding="UTF-8"?>
<svg width="109px" height="20px" viewBox="0 0 109 20" version="1.1" xmlns="http://www.w3.org/2000/svg" xmlns:xlink="http://www.w3.org/1999/xlink">
    <title>编组 3</title>
    <g id="圈子动态分享" stroke="none" stroke-width="1" fill="none" fill-rule="evenodd">
        <g id="带邀请链接-图片动态-多图展示" transform="translate(-100.000000, -2848.000000)" fill="#646A73">
            <g id="编组-9" transform="translate(0.000000, 2674.000000)">
                <g id="编组-8" transform="translate(32.000000, 0.000000)">
                    <g id="编组-5" transform="translate(0.000000, 152.000000)">
                        <g id="编组-3" transform="translate(68.000000, 22.000000)">
                            <path d="M10.6694978,0 C11.0639869,7.56619057e-16 11.3837836,0.319796607 11.3837836,0.714285714 L11.3837836,2.85714286 C11.3837836,3.25163196 11.0639869,3.57142857 10.6694978,3.57142857 L3.557,3.571 L3.557,9.285 L9.95801137,9.28571429 C10.3525005,9.28571429 10.6722971,9.60551089 10.6722971,10 L10.6722971,12.1428571 C10.6722971,12.5373462 10.3525005,12.8571429 9.95801137,12.8571429 L3.557,12.857 L3.55743236,19.2857143 C3.55743236,19.6802034 3.23763575,20 2.84314665,20 L0.714285714,20 C0.319796607,20 1.9753829e-15,19.6802034 0,19.2857143 L0,0.714285714 C-4.83109822e-17,0.319796607 0.319796607,-8.15711946e-16 0.714285714,0 L10.6694978,0 Z M49.0897673,0 C49.4842564,-4.22843185e-16 49.804053,0.319796607 49.804053,0.714285714 L49.8034168,4.9542601 C50.5656124,4.5738846 51.4140072,4.34149848 52.3112964,4.29455312 L52.6499989,4.28571429 L54.0729719,4.28571429 C57.5325798,4.28571429 60.3513863,7.04010614 60.4723081,10.4837135 L60.4763501,10.7142857 L60.4763501,13.5714286 C60.4763501,17.0446479 57.7327526,19.8745445 54.3026405,19.9959421 L54.0729719,20 L52.6499989,20 C49.190391,20 46.3715845,17.2456081 46.2506627,13.8020008 L46.2466207,13.5714286 L46.2466207,0.714285714 C46.2466207,0.319796607 46.5664173,2.94511078e-16 46.9609064,0 L49.0897673,0 Z M70.4371607,4.28571429 C73.8967687,4.28571429 76.7155751,7.04010614 76.836497,10.4837135 L76.840539,10.7142857 L76.840539,13.5714286 C76.840539,17.0446479 74.0969414,19.8745445 70.6668293,19.9959421 L70.4371607,20 L69.0141878,20 C65.5545798,20 62.7357734,17.2456081 62.6148515,13.8020008 L62.6108095,13.5714286 L62.6108095,10.7142857 C62.6108095,7.2410664 65.3544071,4.41116978 68.7845192,4.2897722 L69.0141878,4.28571429 L70.4371607,4.28571429 Z M86.8013496,4.28571429 C90.2609576,4.28571429 93.079764,7.04010614 93.2006858,10.4837135 L93.2047278,10.7142857 L93.2047278,13.5714286 C93.2047278,17.0446479 90.4611303,19.8745445 87.0310182,19.9959421 L86.8013496,20 L85.3783766,20 C81.9187687,20 79.0999622,17.2456081 78.9790404,13.8020008 L78.9749984,13.5714286 L78.9749984,10.7142857 C78.9749984,7.2410664 81.718596,4.41116978 85.148708,4.2897722 L85.3783766,4.28571429 L86.8013496,4.28571429 Z M21.3445942,4.28571429 C24.8810823,4.28571429 27.7479724,7.16388375 27.7479724,10.7142857 L27.7479724,19.2857143 C27.7479724,19.6802034 27.4281758,20 27.0336867,20 L24.9048258,20 C24.5252486,20 24.2148238,19.7039235 24.1918977,19.3301167 C23.3359653,19.7588139 22.3683354,20 21.3445942,20 L19.9216212,20 C16.3851331,20 13.518243,17.1218305 13.518243,13.5714286 L13.518243,10.7142857 C13.518243,7.16388375 16.3851331,4.28571429 19.9216212,4.28571429 L21.3445942,4.28571429 Z M37.708783,4.28571429 C41.2452712,4.28571429 44.1121613,7.16388375 44.1121613,10.7142857 L44.1121613,19.2857143 C44.1121613,19.6802034 43.7923647,20 43.3978755,20 L41.2690146,20 C40.8745255,20 40.5547289,19.6802034 40.5547289,19.2857143 L40.5547289,10.7142857 C40.5547289,9.18414615 39.3566081,7.93494366 37.8508244,7.86063951 L37.708783,7.85714286 L36.2858101,7.85714286 C34.761667,7.85714286 33.5173601,9.05997748 33.4433471,10.5716855 L33.4398642,10.7142857 L33.4398642,19.2857143 C33.4398642,19.6802034 33.1200676,20 32.7255785,20 L30.5967175,20 C30.2022284,20 29.8824318,19.6802034 29.8824318,19.2857143 L29.8824318,10.7142857 C29.8824318,7.16388375 32.7493219,4.28571429 36.2858101,4.28571429 L37.708783,4.28571429 Z M54.0729719,7.85714286 L52.6499989,7.85714286 L52.5079575,7.86063951 C51.0600886,7.93208581 49.8966713,9.08979166 49.8093195,10.5390288 L49.804053,10.7142857 L49.804053,13.5714286 L49.807536,13.7140288 C49.8787023,15.1675942 51.0318712,16.3355888 52.4754288,16.4232843 L52.6499989,16.4285714 L54.0729719,16.4285714 L54.2150133,16.4250748 C55.6628822,16.3536285 56.8262995,15.1959226 56.9136513,13.7466855 L56.9189178,13.5714286 L56.9189178,10.7142857 L56.9154348,10.5716855 C56.8414219,9.05997748 55.5971149,7.85714286 54.0729719,7.85714286 Z M70.4371607,7.85714286 L69.0141878,7.85714286 L68.8721464,7.86063951 C67.4242774,7.93208581 66.2608602,9.08979166 66.1735083,10.5390288 L66.1682419,10.7142857 L66.1682419,13.5714286 L66.1717248,13.7140288 C66.2428911,15.1675942 67.39606,16.3355888 68.8396177,16.4232843 L69.0141878,16.4285714 L70.4371607,16.4285714 L70.5792021,16.4250748 C72.0270711,16.3536285 73.1904884,15.1959226 73.2778402,13.7466855 L73.2831066,13.5714286 L73.2831066,10.7142857 L73.2796237,10.5716855 C73.2056107,9.05997748 71.9613038,7.85714286 70.4371607,7.85714286 Z M86.8013496,7.85714286 L85.3783766,7.85714286 L85.2363352,7.86063951 C83.7884663,7.93208581 82.625049,9.08979166 82.5376972,10.5390288 L82.5324308,10.7142857 L82.5324308,13.5714286 L82.5359137,13.7140288 C82.60708,15.1675942 83.7602489,16.3355888 85.2038065,16.4232843 L85.3783766,16.4285714 L86.8013496,16.4285714 L86.943391,16.4250748 C88.3912599,16.3536285 89.5546772,15.1959226 89.642029,13.7466855 L89.6472955,13.5714286 L89.6472955,10.7142857 L89.6438125,10.5716855 C89.5697996,9.05997748 88.3254926,7.85714286 86.8013496,7.85714286 Z M21.3445942,7.85714286 L19.9216212,7.85714286 C18.3974782,7.85714286 17.1531712,9.05997748 17.0791583,10.5716855 L17.0756753,10.7142857 L17.0756753,13.5714286 C17.0756753,15.1015681 18.2737961,16.3507706 19.7795798,16.4250748 L19.9216212,16.4285714 L21.3445942,16.4285714 C22.8687372,16.4285714 24.1130441,15.2257368 24.1870571,13.7140288 L24.19054,13.5714286 L24.19054,10.7142857 C24.19054,9.18414615 22.9924193,7.93494366 21.4866356,7.86063951 L21.3445942,7.85714286 Z" id="形状结合" fill-rule="nonzero"></path>
                            <g id="编组-2" transform="translate(95.339187, 0.000000)">
                                <path d="M2.84314665,0 C3.23763575,-7.24664733e-17 3.55743236,0.319796607 3.55743236,0.714285714 L3.55743236,19.2857143 C3.55743236,19.6802034 3.23763575,20 2.84314665,20 L0.714285714,20 C0.319796607,20 4.83109822e-17,19.6802034 0,19.2857143 L0,0.714285714 C-4.83109822e-17,0.319796607 0.319796607,-7.04689644e-16 0.714285714,0 L2.84314665,0 Z M13.0268675,4.57142857 C13.3424588,4.57142857 13.5982961,4.82726586 13.5982961,5.14285714 C13.5982961,5.27438969 13.5529195,5.40189525 13.4698241,5.50385587 L8.216,11.95 L13.5473462,19.086576 C13.6026791,19.1606435 13.6389355,19.2466418 13.6536054,19.337017 L13.6609869,19.4285714 C13.6609869,19.7441627 13.4051496,20 13.0895583,20 L13.0895583,20 L10.3187948,20 C10.0934946,20 9.8814003,19.893703 9.74655994,19.7132085 L9.74655994,19.7132085 L4.23981559,12.3419954 C4.16603836,12.2432387 4.12617492,12.1232719 4.12617492,12 C4.12617492,11.8897534 4.15739571,11.7867989 4.21147817,11.6994955 C4.23203998,11.6260722 4.26805504,11.5566155 4.31733768,11.4961441 L9.74644167,4.83446588 C9.88209004,4.66802114 10.0854182,4.57142857 10.3001374,4.57142857 L13.0268675,4.57142857 Z" id="形状结合"></path>
                            </g>
                        </g>
                    </g>
                </g>
            </g>
        </g>
    </g>
</svg>