<?xml version="1.0" standalone="no"?><!DOCTYPE svg PUBLIC "-//W3C//DTD SVG 1.1//EN" "http://www.w3.org/Graphics/SVG/1.1/DTD/svg11.dtd"><svg t="1652422779528" class="icon" viewBox="0 0 5602 1024" version="1.1" xmlns="http://www.w3.org/2000/svg" p-id="9686" xmlns:xlink="http://www.w3.org/1999/xlink" width="1094.140625" height="200"><defs><style type="text/css">@font-face { font-family: feedback-iconfont; src: url("//at.alicdn.com/t/font_1031158_u69w8yhxdu.woff2?t=1630033759944") format("woff2"), url("//at.alicdn.com/t/font_1031158_u69w8yhxdu.woff?t=1630033759944") format("woff"), url("//at.alicdn.com/t/font_1031158_u69w8yhxdu.ttf?t=1630033759944") format("truetype"); }
</style></defs><path d="M2367.169828 36.572343c0-20.21844 16.379496-36.572343 36.572343-36.572343h108.974832c20.192847 0 36.54675 16.379496 36.546749 36.572343v217.002724A325.363325 325.363325 0 0 1 2694.938892 219.331684h72.837569c181.01902 0 327.769064 147.338682 327.769064 329.074304v146.238185c0 181.71003-146.750044 329.048712-327.769064 329.048711H2694.938892c-181.01902 0-327.769064-147.313089-327.769064-329.048711V36.572343z m400.606633 365.595461H2694.938892l-7.268401 0.179151c-77.086001 3.813351-138.406738 67.74457-138.406739 146.084626v146.238185l0.179151 7.293994c3.787758 77.367524 67.488641 138.969783 145.495989 138.969783h72.837569l7.268402-0.204743c77.086001-3.787758 138.406738-67.74457 138.406738-146.059034v-146.238185l-0.179151-7.319587c-3.787758-77.367524-67.488641-138.94419-145.495989-138.94419z m764.768889-182.810527c-181.01902 0-327.743471 147.338682-327.743471 329.074304v146.238185c0 181.71003 146.724451 329.048712 327.743471 329.048711h72.83757c181.01902 0 327.769064-147.313089 327.769063-329.048711v-146.238185c0-181.735623-146.750044-329.074305-327.769063-329.074304h-72.83757z m0 182.810527h72.83757c78.032941 0 141.70823 61.576666 145.495988 138.969783l0.179151 7.293994v146.238185c0 78.314464-61.320737 142.271275-138.406738 146.059034l-7.268401 0.17915h-72.83757c-78.007348 0-141.70823-61.576666-145.495989-138.94419l-0.17915-7.293994v-146.238185c0-78.314464 61.34633-142.296868 138.406738-146.084626l7.268401-0.179151z m837.632051-182.810527c-181.01902 0-327.769064 147.338682-327.769063 329.074304v146.238185c0 181.71003 146.750044 329.048712 327.769063 329.048711h72.83757c181.01902 0 327.743471-147.313089 327.74347-329.048711v-146.238185c0-181.735623-146.724451-329.074305-327.74347-329.074304h-72.83757z m0 182.810527h72.83757c78.007348 0 141.70823 61.576666 145.495988 138.969783l0.179151 7.293994v146.238185c0 78.314464-61.34633 142.271275-138.406738 146.059034l-7.268401 0.17915h-72.83757c-78.032941 0-141.70823-61.576666-145.495988-138.94419l-0.179151-7.293994v-146.238185c0-78.314464 61.320737-142.296868 138.406738-146.084626l7.268401-0.179151zM1420.307016 987.146135c0 20.21844-16.379496 36.572343-36.572343 36.572342H1274.785434c-19.425058 0-35.318287-15.099848-36.495564-34.21779A325.440104 325.440104 0 0 1 1092.537952 1023.718477h-72.83757c-181.01902 0-327.769064-147.313089-327.769063-329.048711v-146.238185c0-181.735623 146.750044-329.074305 327.769063-329.074304h72.83757c181.01902 0 327.769064 147.338682 327.769064 329.074304V987.120542zM1092.537952 402.167804h-72.83757c-78.007348 0-141.70823 61.576666-145.495988 138.969783l-0.179151 7.293994v146.238185c0 78.314464 61.34633 142.271275 138.406738 146.059034l7.268401 0.17915h72.83757c78.007348 0 141.70823-61.576666 145.495989-138.94419l0.17915-7.293994v-146.238185c0-78.314464-61.320737-142.296868-138.406738-146.084626l-7.268401-0.179151z m619.093749 584.978331c0 20.21844-16.353903 36.572343-36.546749 36.572342h-108.974832c-20.192847 0-36.54675-16.379496-36.54675-36.572342V548.457174c0-181.735623 146.750044-329.074305 327.769064-329.074304h72.837569c181.01902 0 327.743471 147.338682 327.743471 329.074304V987.120542c0 20.21844-16.379496 36.572343-36.54675 36.572342h-108.974832c-20.192847 0-36.572343-16.379496-36.572342-36.572342V548.457174c0-78.314464-61.320737-142.296868-138.381146-146.084626l-7.268401-0.179151h-72.837569c-78.032941 0-141.70823 61.576666-145.495989 138.969783l-0.179151 7.293994V987.120542zM546.153808 0c20.192847 0 36.572343 16.379496 36.572342 36.572343v109.665841c0 20.21844-16.379496 36.572343-36.572342 36.572343L182.068331 182.784934v292.501962h327.641099c20.192847 0 36.572343 16.379496 36.572343 36.572343v109.691435c0 20.192847-16.379496 36.54675-36.572343 36.546749H182.068331v329.048712c0 20.21844-16.353903 36.572343-36.546749 36.572342H36.597936C16.353903 1023.718477 0 1007.338982 0 987.146135V36.597936C0 16.353903 16.379496 0 36.572343 0h509.555872z" fill="#000000" p-id="9687"></path><path d="M4916.587139 0h108.974831c20.192847 0 36.54675 16.379496 36.54675 36.572343V987.120542c0 20.21844-16.379496 36.572343-36.54675 36.572342h-108.974831c-20.192847 0-36.572343-16.379496-36.572343-36.572342V36.597936c0-20.21844 16.379496-36.572343 36.572343-36.572343z m630.226687 233.996451a29.252755 29.252755 0 0 1 22.675364 47.730874L5300.558346 611.67179l272.897754 365.288346c3.01997 4.043688 4.939442 8.778386 5.579265 13.743421l0.25593 3.762165c0 16.149159-13.103597 29.252755-29.278349 29.252755h-141.810602c-11.516833 0-22.393842-5.451301-29.303941-14.69036l-281.85529-377.291445a29.252755 29.252755 0 0 1-1.458799-32.861363 28.920047 28.920047 0 0 1 5.425708-10.441928L5378.898403 247.483942a36.572343 36.572343 0 0 1 28.357002-13.461898h139.558421z" fill="#000000" p-id="9688"></path></svg>