<?xml version="1.0" encoding="UTF-8"?>
<svg width="40px" height="40px" viewBox="0 0 40 40" version="1.1" xmlns="http://www.w3.org/2000/svg" xmlns:xlink="http://www.w3.org/1999/xlink">
    <title>编组 11</title>
    <defs>
        <rect id="path-1" x="0" y="0" width="40" height="40" rx="5"></rect>
        <mask id="mask-2" maskContentUnits="userSpaceOnUse" maskUnits="objectBoundingBox" x="0" y="0" width="40" height="40" fill="white">
            <use xlink:href="#path-1"></use>
        </mask>
    </defs>
    <g id="60圈子" stroke="none" stroke-width="1" fill="none" fill-rule="evenodd">
        <g id="生成海报" transform="translate(-64.000000, -1040.000000)">
            <g id="动态-视频3:4" transform="translate(32.000000, -85.000000)">
                <g id="Group-200" transform="translate(0.000000, 1077.000000)">
                    <g id="编组-11" transform="translate(32.000000, 48.000000)">
                        <use id="蒙版" stroke-opacity="0.2" stroke="#8D93A6" mask="url(#mask-2)" stroke-width="2" fill="#FFFFFF" stroke-dasharray="0,0" xlink:href="#path-1"></use>
                        <g id="编组-2" transform="translate(6.250000, 6.250000)">
                            <path d="M0,0 L27.5,0 L27.5,27.5 L0,27.5 L0,0 Z" id="矩形"></path>
                            <path d="M19.4889505,0 C20.7568042,-2.32900945e-16 21.7846027,1.02779849 21.7846027,2.29565218 L21.7846027,25.2043478 C21.7846027,26.4722015 20.7568042,27.5 19.4889505,27.5 C18.2210968,27.5 17.1932983,26.4722015 17.1932983,25.2043478 L17.1929268,22.917 L10.3059268,22.917 L10.3063312,25.2043478 C10.3063312,26.4722015 9.27853273,27.5 8.01067904,27.5 C6.74282535,27.5 5.71502686,26.4722015 5.71502686,25.2043478 L5.71502686,2.29565218 C5.71502686,1.02779849 6.74282535,2.32900945e-16 8.01067904,0 C9.27853273,-2.32900945e-16 10.3063312,1.02779849 10.3063312,2.29565218 L10.3059268,4.583 L17.1929268,4.583 L17.1932983,2.29565218 C17.1932983,1.02779849 18.2210968,2.32900945e-16 19.4889505,0 Z M4.56731796,18.3337402 L4.56731796,22.9170737 L2.84159347,22.9170737 C1.5759409,22.9170737 0.549926758,21.8910595 0.549926758,20.625407 C0.549926758,19.3597544 1.5759409,18.3337402 2.84159347,18.3337402 L4.56731796,18.3337402 Z M24.6584065,18.3337402 C25.9240591,18.3337402 26.9500732,19.3597544 26.9500732,20.625407 C26.9500732,21.8910595 25.9240591,22.9170737 24.6584065,22.9170737 L24.6584065,22.9170737 L22.932682,22.9170737 L22.932682,18.3337402 Z M17.7674484,14.0368652 L9.73266602,14.0368652 L9.73266602,14.6028075 C9.73266602,16.8215514 11.5313133,18.6201987 13.7500572,18.6201987 C15.9688011,18.6201987 17.7674484,16.8215514 17.7674484,14.6028075 L17.7674484,14.6028075 L17.7674484,14.0368652 Z M10.5959038,8.88061523 C9.79988922,8.88061523 9.15863037,9.52187408 9.15863037,10.312907 C9.15863037,11.1039398 9.79988922,11.7451987 10.5909221,11.7451987 L10.5909221,11.7451987 C11.3869367,11.7451987 12.0281956,11.1039398 12.0281956,10.312907 C12.0281956,9.52187408 11.3869367,8.88061523 10.5959038,8.88061523 L10.5959038,8.88061523 Z M16.9090752,8.88061523 C16.1130606,8.88061523 15.4718018,9.52187408 15.4718018,10.312907 C15.4718018,11.1039398 16.1130606,11.7451987 16.9040935,11.7451987 L16.9040935,11.7451987 C17.7001081,11.7451987 18.3413669,11.1039398 18.3413669,10.312907 C18.3413669,9.52187408 17.7001081,8.88061523 16.9090752,8.88061523 L16.9090752,8.88061523 Z M4.56731796,4.58292633 L4.56731796,9.16625977 L2.84159347,9.16625977 C1.5759409,9.16625977 0.549926758,8.14024563 0.549926758,6.87459305 C0.549926758,5.60894047 1.5759409,4.58292633 2.84159347,4.58292633 L2.84159347,4.58292633 L4.56731796,4.58292633 Z M24.6584065,4.58292633 C25.9240591,4.58292633 26.9500732,5.60894047 26.9500732,6.87459305 C26.9500732,8.14024563 25.9240591,9.16625977 24.6584065,9.16625977 L22.932682,9.16625977 L22.932682,4.58292633 L24.6584065,4.58292633 Z" id="形状结合" fill="#198CFE"></path>
                        </g>
                    </g>
                </g>
            </g>
        </g>
    </g>
</svg>