<?xml version="1.0" encoding="UTF-8"?>
<svg width="44px" height="44px" viewBox="0 0 44 44" version="1.1" xmlns="http://www.w3.org/2000/svg" xmlns:xlink="http://www.w3.org/1999/xlink">
    <title>形状结合</title>
    <g id="页面-1" stroke="none" stroke-width="1" fill="none" fill-rule="evenodd">
        <g id="H5-不带邀请链接" transform="translate(-66.000000, -3645.000000)" fill="#FFFFFF">
            <g id="编组-8" transform="translate(32.000000, 3603.000000)">
                <g id="IP" transform="translate(24.000000, 32.000000)">
                    <g id="编组-2" transform="translate(10.000000, 10.000000)">
                        <path d="M31.1826087,0 C33.2111746,-3.7264151e-16 34.8556522,1.64447758 34.8556522,3.67304348 L34.8556522,40.3269565 C34.8556522,42.3555224 33.2111746,44 31.1826087,44 C29.1540428,44 27.5095652,42.3555224 27.5095652,40.3269565 L27.509,36.666 L16.49,36.666 L16.4904348,40.3269565 C16.4904348,42.3555224 14.8459572,44 12.8173913,44 C10.7888254,44 9.14434783,42.3555224 9.14434783,40.3269565 L9.14434783,3.67304348 C9.14434783,1.64447758 10.7888254,3.7264151e-16 12.8173913,0 C14.8459572,-3.7264151e-16 16.4904348,1.64447758 16.4904348,3.67304348 L16.49,7.333 L27.509,7.333 L27.5095652,3.67304348 C27.5095652,1.64447758 29.1540428,3.7264151e-16 31.1826087,0 Z M7.30782609,29.3333333 L7.30782609,36.6666667 L4.54666667,36.6666667 C2.52162258,36.6666667 0.88,35.0250441 0.88,33 C0.88,30.9749559 2.52162258,29.3333333 4.54666667,29.3333333 L7.30782609,29.3333333 Z M39.4533333,29.3333333 C41.4783774,29.3333333 43.12,30.9749559 43.12,33 C43.12,34.9597201 41.5825803,36.5603566 39.6480662,36.6615842 L39.4533333,36.6666667 L36.6921739,36.6666667 L36.6921739,29.3333333 L39.4533333,29.3333333 Z M28.4278261,22.4583333 L15.5721739,22.4583333 L15.5721739,23.3638406 C15.5721739,26.9138309 18.4500097,29.7916667 22,29.7916667 C25.5499903,29.7916667 28.4278261,26.9138309 28.4278261,23.3638406 L28.4278261,23.3638406 L28.4278261,22.4583333 Z M16.9535507,14.2083333 C15.6799272,14.2083333 14.653913,15.2343474 14.653913,16.5 C14.653913,17.7656526 15.6799272,18.7916667 16.9455797,18.7916667 L16.9455797,18.7916667 C18.2192033,18.7916667 19.2452174,17.7656526 19.2452174,16.5 C19.2452174,15.2343474 18.2192033,14.2083333 16.9535507,14.2083333 L16.9535507,14.2083333 Z M27.0544203,14.2083333 C25.7807967,14.2083333 24.7547826,15.2343474 24.7547826,16.5 C24.7547826,17.7656526 25.7807967,18.7916667 27.0464493,18.7916667 L27.0464493,18.7916667 C28.3200728,18.7916667 29.346087,17.7656526 29.346087,16.5 C29.346087,15.2343474 28.3200728,14.2083333 27.0544203,14.2083333 L27.0544203,14.2083333 Z M7.30782609,7.33333333 L7.30782609,14.6666667 L4.54666667,14.6666667 C2.52162258,14.6666667 0.88,13.0250441 0.88,11 C0.88,9.04027992 2.41741969,7.43964345 4.35193384,7.33841583 L4.54666667,7.33333333 L7.30782609,7.33333333 Z M39.4533333,7.33333333 C41.4783774,7.33333333 43.12,8.97495592 43.12,11 C43.12,13.0250441 41.4783774,14.6666667 39.4533333,14.6666667 L36.6921739,14.6666667 L36.6921739,7.33333333 L39.4533333,7.33333333 Z" id="形状结合"></path>
                    </g>
                </g>
            </g>
        </g>
    </g>
</svg>