<svg height="200" viewBox="0 0 1024 1024" width="200" xmlns="http://www.w3.org/2000/svg">
    <path d="m0 512a512 512 0 1 0 1024 0 512 512 0 1 0 -1024 0z" fill="#f24848" />
    <path
        d="m659.8272 613.0048c-30.72-2.2784-60.288-13.696-84.1728-34.2144-46.6432 10.2656-91.008 25.088-135.3728 43.3408-35.2512 62.72-68.2496 94.6688-96.6784 94.6688-5.696 0-12.5184-1.152-17.0624-4.5568-12.5184-5.7088-19.3408-18.2528-19.3408-30.7968 0-10.2656 2.2784-38.784 110.336-85.5552 25.024-45.6192 44.3648-92.3904 60.288-141.44-13.6448-27.3664-43.2256-94.656-22.7456-128.8832 6.8224-12.544 20.48-19.3792 35.264-18.24 11.3664 0 22.7456 5.696 29.568 14.8224 14.784 20.5312 13.6576 63.872-5.6832 127.744a343.9104 343.9104 0 0 0 70.528 91.264c23.8848-4.5696 47.7696-8 71.6544-8 53.4656 1.152 61.44 26.24 60.288 41.0624 0 38.784-37.5296 38.784-56.8704 38.784zm-318.5024 70.72 3.4176-1.152c15.9232-5.696 28.4288-17.1008 37.5296-31.9232-17.0624 6.8352-30.72 18.24-40.9472 33.0752zm151.296-342.1824h-3.4176c-1.152 0-3.4176 0-4.5568 1.1392-4.544 19.392-1.1392 39.9232 6.8352 58.176 6.8224-19.392 6.8224-39.936 1.1264-59.3152zm7.9488 165.376-1.1264 2.2912-1.152-1.152a942.1312 942.1312 0 0 1 -34.112 77.568l2.2656-1.1392v2.2784a661.0688 661.0688 0 0 1 77.3504-22.8096l-1.1264-1.1392h3.4048c-17.0624-17.1008-32.9856-36.4928-45.504-55.8848zm154.7008 60.4672c-10.24 0-19.328 0-29.568 2.2784 11.3792 5.696 22.7456 7.9872 34.1248 9.1264 7.9616 1.1392 15.9232 0 22.7456-2.2784 0-3.4304-4.544-9.1264-27.3024-9.1264z"
        fill="#fff" />
</svg>