<svg height="200" viewBox="0 0 1024 1024" width="200" xmlns="http://www.w3.org/2000/svg">
    <path
        d="m179.2 51.2h486.4l204.8 204.8v691.2a25.6 25.6 0 0 1 -25.6 25.6h-665.6a25.6 25.6 0 0 1 -25.6-25.6v-870.4a25.6 25.6 0 0 1 25.6-25.6z"
        fill="#ffb700" />
    <g fill="#fff">
        <path d="m409.6 307.2h51.2v409.6h-51.2z" />
        <path
            d="m537.6 307.2c70.6944 0 128 57.3056 128 128s-57.3056 128-128 128h-128v-256zm-76.8 204.8h76.8a76.8 76.8 0 0 0 2.88-153.5488l-2.88-.0512h-76.8z" />
    </g>
</svg>