<svg height="200" viewBox="0 0 1024 1024" width="200" xmlns="http://www.w3.org/2000/svg">
    <path
        d="m181.3376 42.6624h480l213.3248 213.3376v693.3376a32 32 0 0 1 -32 32h-661.3248a32 32 0 0 1 -32-32v-874.6752a32 32 0 0 1 32-32z"
        fill="#5562f2" />
    <g fill="#fff">
        <path
            d="m330.6624 480h362.6752q10.6624 0 10.6624 10.6624v42.6752q0 10.6624-10.6624 10.6624h-362.6752q-10.6624 0-10.6624-10.6624v-42.6752q0-10.6624 10.6624-10.6624z" />
        <path
            d="m330.6624 672h362.6752q10.6624 0 10.6624 10.6624v42.6752q0 10.6624-10.6624 10.6624h-362.6752q-10.6624 0-10.6624-10.6624v-42.6752q0-10.6624 10.6624-10.6624z" />
        <path
            d="m330.6624 288h192.0128q10.6624 0 10.6624 10.6624v42.6752q0 10.6624-10.6624 10.6624h-192.0128q-10.6624 0-10.6624-10.6624v-42.6752q0-10.6624 10.6624-10.6624z" />
    </g>
</svg>