<svg height="200" viewBox="0 0 1024 1024" width="200" xmlns="http://www.w3.org/2000/svg">
    <path
        d="m179.2 51.2h486.4l204.8 204.8v691.2a25.6 25.6 0 0 1 -25.6 25.6h-665.6a25.6 25.6 0 0 1 -25.6-25.6v-870.4a25.6 25.6 0 0 1 25.6-25.6z"
        fill="#14c79d" />
    <g fill="#fff">
        <path
            d="m512 665.6c-90.2784 0-164.9536-66.752-177.3824-153.6h51.9424c11.8656 58.432 63.5136 102.4 125.44 102.4s113.5744-43.968 125.44-102.4h51.9424c-12.416 86.848-87.104 153.6-177.3824 153.6z" />
        <path
            d="m512 307.2a76.8 76.8 0 0 1 76.8 76.8v102.4a76.8 76.8 0 1 1 -153.6 0v-102.4a76.8 76.8 0 0 1 76.8-76.8zm0 51.2a25.6 25.6 0 0 0 -25.536 23.68l-.064 1.92v102.4a25.6 25.6 0 0 0 51.136 1.92l.064-1.92v-102.4a25.6 25.6 0 0 0 -25.6-25.6z" />
        <path d="m486.4 627.2h51.2v89.6h-51.2z" />
    </g>
</svg>