<svg t="1635413232860" class="icon" viewBox="0 0 1024 1024" version="1.1"
    xmlns="http://www.w3.org/2000/svg" p-id="8583" width="200" height="200">
    <path d="M512 512m-512 0a512 512 0 1 0 1024 0 512 512 0 1 0-1024 0Z" fill="#8F959E"
        fill-opacity=".2" p-id="8584"></path>
    <path
        d="M526.4896 610.7648v-12.9536c0-15.2064 3.3792-29.2864 10.7008-41.6768 5.632-10.1376 14.08-20.2752 25.9072-30.4128 24.7808-21.9648 40.5504-36.608 46.1824-43.3664 13.5168-18.5856 20.8384-40.5504 20.8384-65.8944 0-33.792-10.7008-60.2624-31.5392-79.4112C577.1776 316.7744 547.8912 307.2 511.8464 307.2c-39.9872 0-71.5264 12.3904-94.6176 37.1712C395.264 368.0256 384 399.5648 384 438.9888h45.056c0-27.5968 6.1952-48.9984 18.0224-64.768 14.08-18.5856 34.9184-27.5968 62.5152-27.5968 23.6544 0 42.24 6.1952 55.7568 19.712 12.3904 12.3904 18.5856 29.8496 18.5856 52.3776 0 15.7696-5.632 30.4128-16.3328 44.4928-3.9424 4.5056-10.1376 11.264-19.1488 20.2752-30.4128 27.0336-49.5616 48.4352-56.8832 65.3312-7.3216 14.08-10.7008 30.4128-10.7008 48.9984v12.9536h45.6192z m-22.528 106.4448c9.0112 0 17.4592-3.3792 24.2176-9.5744 6.1952-6.1952 9.5744-14.08 9.5744-24.2176 0-9.5744-3.3792-17.4592-9.5744-23.6544-6.7584-6.7584-14.6432-9.5744-24.2176-9.5744-10.1376 0-18.0224 2.816-24.2176 9.5744-6.7584 6.1952-10.1376 14.08-10.1376 23.6544s3.3792 17.4592 10.1376 24.2176c6.1952 6.1952 14.08 9.5744 24.2176 9.5744z"
        fill="#646A73" p-id="8585"></path>
</svg>