<svg height="200" viewBox="0 0 1024 1024" width="200" xmlns="http://www.w3.org/2000/svg">
    <path
        d="m181.3376 42.6624h480l213.3248 213.3376v693.3376a32 32 0 0 1 -32 32h-661.3248a32 32 0 0 1 -32-32v-874.6752a32 32 0 0 1 32-32z"
        fill="#f24848" />
    <path
        d="m678.3104 625.6256c-34.56-2.56-67.84-15.3984-94.7072-38.4896-52.4672 11.5456-102.3744 28.224-152.2816 48.768-39.68 70.5536-76.7616 106.496-108.7616 106.496-6.4 0-14.08-1.28-19.2-5.1328-14.08-6.4128-21.76-20.5312-21.76-34.6496 0-11.5456 2.56-43.6224 124.1344-96.2304 28.16-51.328 49.9072-103.936 67.8144-159.1168-15.36-30.7968-48.6272-106.496-25.6-144.9984 7.68-14.1184 23.04-21.8112 39.68-20.5312 12.8 0 25.6 6.4128 33.28 16.6784 16.64 23.104 15.36 71.8592-6.4 143.7184 20.48 38.4896 47.3472 73.1392 79.3344 102.656 26.88-5.1328 53.76-8.9856 80.6272-8.9856 60.1344 1.28 69.0944 29.5168 67.8144 46.1952 0 43.6224-42.2272 43.6224-63.9744 43.6224zm-358.3232 79.5648 3.84-1.28c17.92-6.4256 32-19.2512 42.24-35.9296-19.2 7.6928-34.56 20.5312-46.08 37.2096zm170.2016-384.96h-3.84c-1.28 0-3.84 0-5.12 1.28-5.12 21.824-1.28 44.928 7.68 65.4464 7.68-21.8112 7.68-44.9152 1.28-66.7264zm8.96 186.0608-1.28 2.56-1.28-1.28c-11.52 29.5168-24.32 59.0336-38.4 87.2576l2.56-1.28v2.56a743.7056 743.7056 0 0 1 87.0272-25.6512l-1.28-1.28h3.84c-19.2-19.2512-37.12-41.0624-51.2-62.8864zm174.0416 68.0064c-11.52 0-21.76 0-33.28 2.5728 12.8 6.4128 25.6 8.9856 38.4 10.2656 8.96 1.28 17.92 0 25.5872-2.56 0-3.8528-5.12-10.2784-30.72-10.2784z"
        fill="#fff" />
</svg>