<?xml version="1.0" encoding="UTF-8"?>
<svg width="88px" height="88px" viewBox="0 0 88 88" version="1.1" xmlns="http://www.w3.org/2000/svg" xmlns:xlink="http://www.w3.org/1999/xlink">
    <title>手动创建</title>
    <g id="页面-1" stroke="none" stroke-width="1" fill="none" fill-rule="evenodd">
        <g id="创建服务器模板备份" transform="translate(-72.000000, -476.000000)">
            <g id="手动创建" transform="translate(72.000000, 476.000000)">
                <rect id="矩形" fill="#F5F5F8" opacity="0" x="0" y="0" width="88" height="88"></rect>
                <g id="编组-13" transform="translate(9.000000, 10.000000)">
                    <rect id="矩形备份-3" stroke="#363940" fill="#5562F2" stroke-linecap="round" stroke-linejoin="round" transform="translate(28.520792, 29.000000) rotate(-90.000000) translate(-28.520792, -29.000000) " x="4.52079152" y="22.5" width="48" height="13" rx="6.5"></rect>
                    <path d="M21.5207915,27.5 L61.5207915,27.5 L61.5207915,59.5 C61.5207915,61.709139 52.5664865,63.5 41.5207915,63.5 C30.4750965,63.5 21.5207915,61.709139 21.5207915,59.5 L21.5207915,59.5 L21.5207915,27.5 Z" id="形状结合" stroke="#363940" fill="#5562F2" stroke-linecap="round" stroke-linejoin="round"></path>
                    <g id="矩形" transform="translate(0.000000, 17.777189)">
                        <path d="M25.7347112,9.77594588 L43.0822397,9.77594588 C47.7747391,9.77594588 51.5787614,13.5799682 51.5787614,18.2724675 C51.5787614,22.9649669 47.7747391,26.7689892 43.0822397,26.7689892 L31.1871094,26.7689892 L31.1871094,26.7689892 C31.1871094,34.0568427 25.2791369,39.9648152 17.9912834,39.9648152 L17.7369214,39.9648152 C10.3633529,39.9648152 4.3858947,33.987357 4.3858947,26.6137885 L4.3858947,26.6137885 L4.3858947,26.6137885" id="蒙版" fill="#5562F2" transform="translate(27.982328, 24.870381) rotate(-150.000000) translate(-27.982328, -24.870381) "></path>
                        <path d="M13.9805122,25.9951648 L17.4446138,27.9951648 L13.8841257,34.1598707 L7.3582036,30.3925886 C5.81167773,29.4997014 4.65204631,28.1940415 3.93812571,26.6951143 C6.74369637,24.5050084 10.7086451,24.1061514 13.9805122,25.9951648 Z" id="形状结合" stroke="#363940" fill="#FFFFFF" stroke-linecap="round" stroke-linejoin="round"></path>
                    </g>
                    <path d="M25.7347112,27.5531344 L43.0822397,27.5531344 C47.7747391,27.5531344 51.5787614,31.3571568 51.5787614,36.0496561 C51.5787614,40.7421554 47.7747391,44.5461778 43.0822397,44.5461778 L31.1871094,44.5461778 L31.1871094,44.5461778 C31.1871094,51.8340312 25.2791369,57.7420038 17.9912834,57.7420038 L17.7369214,57.7420038 C10.3633529,57.7420038 4.3858947,51.7645455 4.3858947,44.3909771 L4.3858947,44.3909771 L4.3858947,44.3909771" id="路径" stroke="#363940" stroke-linecap="round" stroke-linejoin="round" transform="translate(27.982328, 42.647569) rotate(-150.000000) translate(-27.982328, -42.647569) "></path>
                    <rect id="矩形备份-6" stroke="#363940" fill="#5562F2" stroke-linecap="round" stroke-linejoin="round" transform="translate(41.520792, 21.000000) rotate(-90.000000) translate(-41.520792, -21.000000) " x="20.5207915" y="14.5" width="42" height="13" rx="6.5"></rect>
                    <rect id="矩形备份-7" stroke="#363940" fill="#5562F2" stroke-linecap="round" stroke-linejoin="round" transform="translate(54.520792, 23.500000) rotate(-90.000000) translate(-54.520792, -23.500000) " x="39.0207915" y="17" width="31" height="13" rx="6.5"></rect>
                    <g id="编组-15" transform="translate(18.520792, 10.500000)" stroke="#363940" stroke-linecap="round" stroke-linejoin="round">
                        <path d="M22.7401822,0.0429243332 L26.8565571,0.7497827 C28.6246573,1.05339849 29.8118565,2.73285614 29.5082407,4.50095635 C29.5065631,4.5107262 29.5048407,4.52048832 29.5030736,4.5302424 C29.3840681,5.1871549 29.8201279,5.81616073 30.4770404,5.93516624 C30.8251314,5.99822601 31.1833765,5.90564071 31.4573258,5.6818201 L31.4955905,5.65055724 C32.9295375,4.47900139 35.0358395,4.66331389 36.2445168,6.06611325 L38.6674237,8.87815592 C39.9099799,10.3202752 39.7482019,12.4966347 38.3060826,13.7391908 L38.236961,13.7971883 L38.236961,13.7971883 C37.6973546,14.2380468 37.6173037,15.0328706 38.0581622,15.5724769 C38.2977694,15.8657537 38.6564447,16.0358865 39.0351568,16.0359013 L39.1519202,16.0359058 C41.1705177,16.0359844 42.8068727,17.6724031 42.8068727,19.6910007 L42.8068727,23.4521105 C42.8068727,25.2309221 41.364861,26.6729337 39.5860494,26.6729337 L39.3428976,26.672923 C38.7564361,26.6728971 38.280994,27.1482971 38.2809681,27.7347587 C38.280954,28.0535047 38.4241241,28.3553981 38.6709479,28.5570837 C39.9116998,29.5709314 40.095642,31.3986455 39.0817943,32.6393975 L39.0331122,32.6974126 L39.0331122,32.6974126 L36.2444504,35.9339529 C35.0358565,37.3366554 32.9296438,37.5208163 31.4959546,36.3491471 L31.4579396,36.3180797 C30.9409781,35.8955978 30.1794088,35.9721885 29.7569268,36.48915 C29.5330552,36.7630859 29.4404175,37.1213415 29.5034377,37.469462 C29.8230684,39.2350846 28.6508603,40.9255163 26.8852377,41.245147 C26.8756145,41.2468891 26.8659835,41.2485877 26.8563449,41.2502428 L22.7401144,41.9570764 C20.9509515,42.264309 19.2484206,41.0723978 18.9248943,39.2861092 C18.8044945,38.6213452 18.1679935,38.1800508 17.5032295,38.3004505 C17.1542244,38.3636611 16.849838,38.5752426 16.6689757,38.8803475 L16.6590877,38.897028 C15.724224,40.4740916 13.7011215,41.0160612 12.1030727,40.1175404 L8.54967534,38.1196031 C6.99803003,37.2471732 6.44741713,35.282072 7.31984702,33.7304267 C7.33189756,33.7089944 7.34419295,33.6877008 7.35673077,33.6665498 C7.69312705,33.0990599 7.50578864,32.3663154 6.93829872,32.0299191 C6.63345236,31.8492125 6.26410516,31.813195 5.93009025,31.9316021 L5.87783055,31.9501279 C4.12371561,32.5719552 2.19495064,31.6728002 1.54341402,29.929502 L0.217604405,26.3820706 C-0.419880354,24.6763707 0.446079181,22.7768441 2.15177916,22.1393594 L2.17809621,22.1296511 L2.17809621,22.1296511 L2.20458456,22.1201352 C2.82329981,21.9008214 3.14707865,21.2214646 2.92776484,20.6027494 C2.80803281,20.2649684 2.54228547,19.9992423 2.2044949,19.8795373 C0.488332645,19.27137 -0.409874672,17.3871285 0.19829271,15.6709662 C0.204567831,15.6532587 0.210994198,15.6356052 0.217571105,15.6180075 L1.54344732,12.070398 C2.19498042,10.3271092 4.12367532,9.4278929 5.87783055,10.0495764 L5.93023293,10.0681482 C6.55202827,10.2885163 7.23473666,9.96309525 7.45510479,9.34129992 C7.57347795,9.00729575 7.53743987,8.63797448 7.35673077,8.33315452 C6.44906263,6.80210067 6.9544166,4.82512589 8.48547045,3.91745775 C8.506659,3.90489635 8.52799087,3.89257829 8.54946184,3.880506 L12.1030203,1.88247813 C13.7010933,0.983943729 15.7242269,1.52593337 16.6590877,3.10303094 L16.6689711,3.1197041 C17.0134601,3.70085246 17.7638375,3.89270274 18.3449859,3.5482137 C18.6500976,3.36735169 18.861684,3.06296072 18.9248943,2.71394968 C19.2484203,0.927624437 20.9509837,-0.264314428 22.7401822,0.0429243332 Z M20.8885036,14.3799328 C17.2691093,14.3799328 14.3350105,17.2373485 14.3350105,20.7621495 C14.3350105,24.2869505 17.2691093,27.1443663 20.8885036,27.1443663 C24.5078978,27.1443663 27.4419966,24.2869505 27.4419966,20.7621495 C27.4419966,17.2373485 24.5078978,14.3799328 20.8885036,14.3799328 Z" id="形状结合" fill="#FF5261"></path>
                        <path d="M26.9333095,0.0429243332 L31.0496844,0.7497827 C32.8177846,1.05339849 34.0049838,2.73285614 33.701368,4.50095635 C33.6996904,4.5107262 33.697968,4.52048832 33.696201,4.5302424 C33.5771954,5.1871549 34.0132552,5.81616073 34.6701677,5.93516624 C35.0182587,5.99822601 35.3765038,5.90564071 35.6504531,5.6818201 L35.6887178,5.65055724 C37.1226648,4.47900139 39.2289668,4.66331389 40.4376442,6.06611325 L42.8605511,8.87815592 C44.1031072,10.3202752 43.9413293,12.4966347 42.49921,13.7391908 L42.4300883,13.7971883 L42.4300883,13.7971883 C41.890482,14.2380468 41.810431,15.0328706 42.2512895,15.5724769 C42.4908967,15.8657537 42.849572,16.0358865 43.2282841,16.0359013 L43.3450475,16.0359058 C45.3636451,16.0359844 47,17.6724031 47,19.6910007 L47,23.4521105 C47,25.2309221 45.5579883,26.6729337 43.7791768,26.6729337 L43.536025,26.672923 C42.9495634,26.6728971 42.4741213,27.1482971 42.4740954,27.7347587 C42.4740813,28.0535047 42.6172514,28.3553981 42.8640752,28.5570837 C44.1048271,29.5709314 44.2887693,31.3986455 43.2749216,32.6393975 L43.2262395,32.6974126 L43.2262395,32.6974126 L40.4375777,35.9339529 C39.2289838,37.3366554 37.1227711,37.5208163 35.6890819,36.3491471 L35.6510669,36.3180797 C35.1341055,35.8955978 34.3725361,35.9721885 33.9500541,36.48915 C33.7261826,36.7630859 33.6335448,37.1213415 33.696565,37.469462 C34.0161957,39.2350846 32.8439876,40.9255163 31.078365,41.245147 C31.0687418,41.2468891 31.0591108,41.2485877 31.0494722,41.2502428 L26.9332418,41.9570764 C25.1440788,42.264309 23.441548,41.0723978 23.1180216,39.2861092 C22.9976219,38.6213452 22.3611208,38.1800508 21.6963568,38.3004505 C21.3473517,38.3636611 21.0429654,38.5752426 20.862103,38.8803475 L20.852215,38.897028 C19.9173513,40.4740916 17.8942488,41.0160612 16.2962,40.1175404 L12.7428027,38.1196031 C11.1911573,37.2471732 10.6405445,35.282072 11.5129743,33.7304267 C11.5250249,33.7089944 11.5373203,33.6877008 11.5498581,33.6665498 C11.8862544,33.0990599 11.698916,32.3663154 11.131426,32.0299191 C10.8265797,31.8492125 10.4572325,31.813195 10.1232176,31.9316021 L10.0709579,31.9501279 C8.31684292,32.5719552 6.38807796,31.6728002 5.73654134,29.929502 L4.41073172,26.3820706 C3.77324697,24.6763707 4.6392065,22.7768441 6.34490648,22.1393594 L6.37122353,22.1296511 L6.37122353,22.1296511 L6.39771188,22.1201352 C7.01642713,21.9008214 7.34020597,21.2214646 7.12089216,20.6027494 C7.00116013,20.2649684 6.73541279,19.9992423 6.39762222,19.8795373 C4.68145996,19.27137 3.78325265,17.3871285 4.39142003,15.6709662 C4.39769515,15.6532587 4.40412152,15.6356052 4.41069842,15.6180075 L5.73657464,12.070398 C6.38810774,10.3271092 8.31680264,9.4278929 10.0709579,10.0495764 L10.1233603,10.0681482 C10.7451556,10.2885163 11.427864,9.96309525 11.6482321,9.34129992 C11.7666053,9.00729575 11.7305672,8.63797448 11.5498581,8.33315452 C10.64219,6.80210067 11.1475439,4.82512589 12.6785978,3.91745775 C12.6997863,3.90489635 12.7211182,3.89257829 12.7425892,3.880506 L16.2961476,1.88247813 C17.8942207,0.983943729 19.9173542,1.52593337 20.852215,3.10303094 L20.8620984,3.1197041 C21.2065875,3.70085246 21.9569648,3.89270274 22.5381132,3.5482137 C22.8432249,3.36735169 23.0548113,3.06296072 23.1180216,2.71394968 C23.4415476,0.927624437 25.144111,-0.264314428 26.9333095,0.0429243332 Z M25.0816309,14.3799328 C21.4622366,14.3799328 18.5281378,17.2373485 18.5281378,20.7621495 C18.5281378,24.2869505 21.4622366,27.1443663 25.0816309,27.1443663 C28.7010252,27.1443663 31.6351239,24.2869505 31.6351239,20.7621495 C31.6351239,17.2373485 28.7010252,14.3799328 25.0816309,14.3799328 Z" id="形状结合备份-10" fill="#86FF6C"></path>
                    </g>
                </g>
            </g>
        </g>
    </g>
</svg>