<?xml version="1.0" encoding="UTF-8"?>
<svg width="320px" height="320px" viewBox="0 0 320 320" version="1.1" xmlns="http://www.w3.org/2000/svg" xmlns:xlink="http://www.w3.org/1999/xlink">
    <title>编组 5备份 2</title>
    <defs>
        <path d="M62.1212033,27.9141734 L76.5190847,29.1745576 C79.0098574,22.9767419 81.0611733,18.0554053 82.6730325,14.4105476 C88.6186099,0.965959161 102.511684,-0.317106691 108.445838,4.47800826 C111.43002,6.88938798 116.835988,11.4805531 117.940777,17.0701742 C118.743863,21.133342 119.604936,27.0924167 117.940777,31.9029071 C117.835453,32.2073622 117.793489,32.500255 117.800294,32.7864671 L121.363789,33.098378 C132.367452,34.0610737 140.507264,43.761724 139.544568,54.7653868 C138.726234,64.1189924 131.594063,71.4032481 122.71476,72.7862336 C123.138973,82.6274273 123.342147,92.7698676 123.342147,102.672544 C123.342147,105.022005 124.2003,108.05052 124.243373,110.254831 C124.724908,134.897898 125.059228,150.188477 106.313327,168.222632 C86.2901795,187.485538 47.7539676,185.399308 43.1466624,164.990326 C42.9853283,164.275664 42.8541568,163.549855 42.7518923,162.815863 C38.5268306,162.850304 33.7006291,162.678896 28.2749553,162.301442 C2.20182404,175.164485 -0.189075457,150.013275 4.00264435,134.664485 C5.36164257,129.688251 8.06183843,125.232189 11.2514943,122.311178 C7.43799432,101.852161 8.6272618,80.9751253 11.9394047,62.614026 C4.31421456,59.2590099 -0.68915002,51.3242679 0.0773106129,42.5635828 C1.04000636,31.55992 10.7406566,23.420108 21.7443194,24.3828037 L22.6545136,24.4624651 C24.6345834,19.4336362 26.5795258,15.2165599 28.2949899,12.0092913 C37.3206204,-4.86522128 59.8259455,-7.59788515 62.1212033,27.9141734 Z" id="path-1"></path>
        <path d="M31.2603878,0 C81.8673836,29.8137257 127.443016,36.033591 167.987286,18.6595958 C208.531556,1.28560061 200.004257,29.5754518 142.405389,103.529149 L0,69.2421344 L18.7130152,2.92973494 L31.2603878,0 Z" id="path-3"></path>
    </defs>
    <g id="页面-1" stroke="none" stroke-width="1" fill="none" fill-rule="evenodd">
        <g id="iPhone-11-Pro备份-3" transform="translate(-210.000000, -529.000000)">
            <g id="编组-5备份-2" transform="translate(210.000000, 529.000000)">
                <rect id="矩形" fill="#EAEAEA" fill-rule="nonzero" opacity="0" x="0" y="0" width="320" height="320"></rect>
                <g id="主体备份-3" transform="translate(134.189061, 62.247666)">
                    <ellipse id="椭圆形" fill="#D0D0D0" fill-rule="nonzero" cx="71.8109395" cy="164.252334" rx="63" ry="17"></ellipse>
                    <g id="身体">
                        <g id="路径-76" transform="translate(0.000000, 3.087849)">
                            <mask id="mask-2" fill="white">
                                <use xlink:href="#path-1"></use>
                            </mask>
                            <use id="蒙版" fill="#FFFFFF" xlink:href="#path-1"></use>
                            <path d="M19.8109395,87.6644848 L24.8513643,87.6644848 M29.6474699,87.6644848 L29.6484537,87.6644848 C35.2610396,87.6644848 39.8109395,92.2143847 39.8109395,97.8269706 C39.8109395,103.625384 35.4779304,108.509222 29.720789,109.19982 L24.3146964,109.848308 L24.3146964,109.848308" id="形状" stroke="#363940" stroke-width="3" stroke-linecap="round" stroke-linejoin="round" mask="url(#mask-2)"></path>
                            <g id="五官" mask="url(#mask-2)">
                                <g transform="translate(40.810939, 68.663001)">
                                    <path d="M11.1967496,0.000520541838 C11.7076045,0.883258244 12,1.9082246 12,3.00148357 C12,6.31519207 9.3137085,9.00148357 6,9.00148357 C2.6862915,9.00148357 0,6.31519207 0,3.00148357 C0,1.9082246 0.292395467,0.883258244 0.803250372,0.000520541838 Z" id="形状结合" stroke="none" fill="#363940" fill-rule="evenodd"></path>
                                    <path d="M33.1967496,0.000520541838 C33.7076045,0.883258244 34,1.9082246 34,3.00148357 C34,6.31519207 31.3137085,9.00148357 28,9.00148357 C24.6862915,9.00148357 22,6.31519207 22,3.00148357 C22,1.9082246 22.2923955,0.883258244 22.8032504,0.000520541838 Z" id="形状结合备份" stroke="none" fill="#363940" fill-rule="evenodd"></path>
                                    <path d="M9,17.9114938 C13.3395586,14.6308683 18.0911149,15.1103931 23.2546689,19.3500682" id="路径-77" stroke="#363940" stroke-width="3" fill="none" stroke-linecap="round" stroke-linejoin="round"></path>
                                </g>
                            </g>
                            <path d="M95.3525136,3.41718101 C100.648463,3.41718101 112.959276,10.4334766 112.959276,24.305493 C112.959276,31.3285399 111.590085,31.8584064 116.276619,35.595209 C120.846989,39.2393889 127.926576,36.9426862 132.000529,46.1948232 C136.074483,55.4469603 128.924163,64.1392554 119.302275,68.6630012 C110.825185,72.6485188 122.498796,115.762795 109.375768,128.061513 C92.8871335,143.51443 56.3896714,131.061513 50.2215409,127.296461 C38.7062113,120.267457 80.3423461,192.179793 43.1466624,162.301442 C28.8137029,177.786349 21.1302871,185.98146 20.0964149,186.886774 L158.638633,206.462551 L175.021026,-15.1174726 C136.235752,10.8819228 116.843115,21.7687086 116.843115,17.5428848 C116.843115,7.95891847 109.485879,5.02709891 106.214577,4.03134691 C99.32375,1.93384678 93.5227971,3.41718101 95.3525136,3.41718101 Z" id="路径-78" fill="#D0D0D0" mask="url(#mask-2)"></path>
                            <g id="裤子" mask="url(#mask-2)">
                                <g transform="translate(-28.902076, 105.135335)" id="路径-78">
                                    <mask id="mask-4" fill="white">
                                        <use xlink:href="#path-3"></use>
                                    </mask>
                                    <use id="蒙版" fill="#5562F2" xlink:href="#path-3"></use>
                                    <path d="M94.0068405,29.5291494 C89.8947535,28.8389513 86.3126808,29.617821 83.2606223,31.8657586 C79.8239703,34.3969615 75.8695133,39.0127905 72.3323137,43.5713736 C73.6164663,36.6830425 81.3302868,28.7687404 84.9173833,27.7976161 C87.308781,27.1501999 90.3386001,27.7273777 94.0068405,29.5291494 Z" id="路径-81" fill="#95BAFF" mask="url(#mask-4)"></path>
                                    <path d="M53.2167721,16.7097548 C46.0788962,14.8728996 38.9996647,20.2113542 31.9790775,32.7251188 C20.7746445,29.1015394 17.64276,22.7336269 22.583424,13.6213811 C30.0513558,18.1457423 36.3208498,18.8855678 41.3919061,15.8408575 C46.4629625,12.7961472 50.4045844,13.0857797 53.2167721,16.7097548 Z" id="路径-80" fill="#95BAFF" mask="url(#mask-4)"></path>
                                    <path d="M31.2603878,40.8644292 C33.6927383,51.6202803 38.8436141,56.4161617 46.7130152,55.2520732 C54.5824163,54.0879848 59.3386462,51.57962 60.9817049,47.7269789 L71.375249,49.8734429 L72.3323137,71.9039103 L21.4822782,61.3424565 L31.2603878,40.8644292 Z" id="路径-79" fill="#3C48ED" mask="url(#mask-4)"></path>
                                    <path d="M125.22974,-100.113129 C130.525689,-100.113129 139.730154,-93.6517133 138.221028,-78.8428669 C136.711903,-64.0340206 149.109895,-67.3312761 153.168175,-58.809527 C155.204894,-54.5327376 156.283298,-43.7879246 146.055671,-39.2853668 C138.142192,-35.8015777 135.389421,5.64104807 134.785288,20.9036399 C134.68977,23.3167622 125.22974,27.4042272 125.22974,28.2549641 C137.347914,27.5409099 140.330753,35.5561418 137.347914,40.8644292 C127.643929,58.1337247 100.998375,82.5989459 77.0521387,67.0291494 C62.7191792,82.5140559 53.3679632,87.4214857 48.9984906,81.751439 L187.540708,101.327216 L203.923101,-120.252808 C147.930227,-106.826356 121.699107,-100.113129 125.22974,-100.113129 Z" fill="#3C48ED" mask="url(#mask-4)"></path>
                                </g>
                            </g>
                            <ellipse id="椭圆形" fill="#3C48ED" mask="url(#mask-2)" transform="translate(58.936634, 155.008778) rotate(11.000000) translate(-58.936634, -155.008778) " cx="58.9366343" cy="155.008778" rx="10" ry="15"></ellipse>
                            <ellipse id="椭圆形备份-5" fill="#3C48ED" mask="url(#mask-2)" transform="translate(16.936634, 142.008778) rotate(11.000000) translate(-16.936634, -142.008778) " cx="16.9366343" cy="142.008778" rx="10" ry="15"></ellipse>
                            <path d="M42.7424343,162.747353 C40.34459,145.21717 54.3907231,123.077418 67.8109395,136.599976" id="路径" stroke="#363940" stroke-width="3" stroke-linecap="round" stroke-linejoin="round" mask="url(#mask-2)"></path>
                            <path d="M11.9394047,62.614026 C16.1510527,64.3070538 19.3922904,65.3238734 21.6631178,65.6644848" id="路径-3" stroke="#363940" stroke-width="3" stroke-linecap="round" stroke-linejoin="round" mask="url(#mask-2)"></path>
                            <path d="M28.2749553,127.401691 C22.1421927,110.865978 7.8097215,120.724138 4.00264435,134.664485" id="路径" stroke="#363940" stroke-width="3" stroke-linecap="round" stroke-linejoin="round" mask="url(#mask-2)"></path>
                        </g>
                        <path d="M11.9394047,65.7018752 C4.31421456,62.3468591 -0.68915002,54.4121172 0.0773106129,45.6514321 C1.04000636,34.6477693 10.7406566,26.5079572 21.7443194,27.4706529 M112.273676,35.5427159 L119.302275,36.0060983 L121.363789,36.1862272 C132.367452,37.148923 140.507264,46.8495732 139.544568,57.853236 C138.708519,67.4093235 131.282317,74.8054989 122.135707,75.9555621 L113.179491,76.2515923 M71.3077417,184.783655 C58.4607234,185.862685 46.9798249,180.605296 43.5874606,169.723432 M11.3250833,69.2896167 C8.49452744,86.7575405 7.68425474,106.261171 11.2514943,125.399028 C8.06183843,128.320038 5.36164257,132.7761 4.00264435,137.752334 C-0.189075457,153.101125 2.20182404,178.252334 28.2749553,165.389292 L30.1650047,165.513955 C30.4758634,165.533307 30.7846472,165.551946 31.0913556,165.569871 L32.9066997,165.668872 C33.2051055,165.683947 33.5014354,165.698308 33.7956888,165.711957 L35.536291,165.7853 C38.109812,165.882485 40.5150949,165.921946 42.7518923,165.903712 L43.5589576,169.708204" id="形状" stroke="#363940" stroke-width="3" stroke-linecap="round" stroke-linejoin="round"></path>
                        <path d="M21.3978451,36.9634221 L23.7777822,19.6378442 C25.1782422,9.44270918 34.0316584,1.93820675 44.3184856,2.22673921 C54.3844034,2.50907544 62.3978451,10.7504356 62.3978451,20.8203122 L62.3978451,27.5315459 L62.3978451,27.5315459" id="路径" stroke="#363940" stroke-width="3" stroke-linecap="round" stroke-linejoin="round" transform="translate(41.897845, 19.341529) rotate(5.000000) translate(-41.897845, -19.341529) "></path>
                        <path d="M78.2523545,34.4472282 L78.657321,25.2218895 C79.1062375,14.9953439 87.4982998,6.91884882 97.734536,6.86203587 C108.252942,6.80365682 117.244815,14.4191708 118.918792,24.8036819 L120.252355,33.0764279 L120.252355,33.0764279" id="路径备份-2" stroke="#363940" stroke-width="3" stroke-linecap="round" stroke-linejoin="round" transform="translate(99.252355, 20.603915) rotate(7.000000) translate(-99.252355, -20.603915) "></path>
                        <line x1="58.3109395" y1="30.252334" x2="82.3109395" y2="33.252334" id="路径-87" stroke="#363940" stroke-width="3" stroke-linecap="round" stroke-linejoin="round"></line>
                    </g>
                    <path d="M14.1387998,115.992393 C24.0690204,120.663616 31.5893502,123.902538 36.6997891,125.709159 M43.0855552,127.833775 C65.589287,134.857692 89.3196416,137.416748 114.276619,135.510942" id="形状" stroke="#363940" stroke-width="3" stroke-linecap="round" stroke-linejoin="round" fill-rule="nonzero"></path>
                    <path d="M121.810939,81.752334 C123.432562,96.9278795 124.243373,109.086036 124.243373,118.226802 C124.243373,121.881451 124.113761,127.619715 123.854536,135.441594 C122.943365,162.935445 100.391466,184.752334 72.8825206,184.752334 L63.8109395,184.752334 L63.8109395,184.752334" id="路径" stroke="#363940" stroke-width="3" stroke-linecap="round" stroke-linejoin="round"></path>
                    <g id="线" transform="translate(69.777226, 96.746500)" fill="#BDBBBB" stroke="#363940" stroke-linecap="round" stroke-linejoin="round" stroke-width="3">
                        <path d="M19.8178738,94.6646099 C17.53766,100.382052 13.7748737,105.649923 8.3483564,110.543027 C6.29754328,112.392251 3.13593912,112.22883 1.28671586,110.178017 C-0.562507406,108.127204 -0.399086537,104.965599 1.65172658,103.116376 C9.08755576,96.4114706 12.3098034,89.3105898 12.5253444,80.7890999 L12.5372562,80.1566974 C12.5385419,80.051728 12.5394745,79.9469512 12.5400488,79.8423331 L12.5391542,79.2162532 L12.5294157,78.5923381 C12.527042,78.4884416 12.5242896,78.3845668 12.5211534,78.2806798 L12.4976893,77.6569363 L12.4647685,77.0312569 L12.4221457,76.4020013 C12.4142198,76.2967363 12.4058794,76.1912538 12.3971195,76.0855199 L12.3394842,75.4478245 C12.3290256,75.3409477 12.3181372,75.2337511 12.3068139,75.1262004 L12.2336145,74.4763746 L12.1497328,73.8164114 L12.0549235,73.1446707 L11.9489415,72.4595121 L11.8315416,71.7592954 L11.7024788,71.0423802 L11.5615079,70.3071264 L11.4083837,69.5518936 L11.2428612,68.7750416 L10.9707944,67.5656394 L10.7732035,66.7275631 L10.4518851,65.4186357 L10.0999127,64.042612 L9.84782584,63.0852532 L9.4429249,61.5851001 L8.85179813,59.4566031 L8.02775166,56.5713438 L6.3674337,50.8560398 L5.93266514,49.3259615 L5.33850495,47.1681762 L5.05146064,46.0871729 L4.90840345,45.5383747 C2.99708076,38.1635624 2.02654633,32.1677868 2.03371751,26.3140871 C2.05169149,11.6422702 9.35255609,2.87445354 20.9766807,0.57094652 C29.2078497,-1.06019185 39.4573155,0.969547352 44.4246254,4.55359682 C46.6639927,6.16936138 47.1695226,9.29456325 45.5537581,11.5339306 C43.9841582,13.709316 40.9901424,14.248525 38.7674836,12.7963714 L38.5734243,12.6630633 C35.914929,10.7448865 28.4950965,9.27550989 22.9205414,10.3801975 C15.9491838,11.761684 12.04581,16.449357 12.03371,26.3263378 C12.0279646,31.0161709 12.8130544,36.0350668 14.4080312,42.3253694 L14.7245282,43.5510227 L15.2024815,45.3335907 L15.7315375,47.2283636 L16.4896536,49.8641294 L17.6582113,53.8762892 L18.1957324,55.7493832 L18.8571186,58.101426 L19.457011,60.3003181 L19.7344821,61.3467778 L19.9972817,62.360284 L20.245644,63.3426147 L20.4798028,64.2955479 L20.6999923,65.2208618 L20.9064464,66.1203344 L21.0993991,66.9957437 L21.2790845,67.8488678 L21.4457365,68.6814847 L21.5995892,69.4953724 C21.6241777,69.6295584 21.6482426,69.7630381 21.6717889,69.8958485 L21.8068814,70.6849764 L21.9297595,71.4598203 L22.0406573,72.2221582 L22.1398089,72.9737681 L22.2274481,73.7164283 L22.3038091,74.4519166 C22.3156091,74.5739991 22.3269489,74.6958568 22.3378333,74.8175269 L22.3977157,75.5455913 L22.4469048,76.270929 L22.4856346,76.9953181 C22.4968273,77.2368205 22.5063159,77.4784612 22.5141392,77.7205365 L22.5326526,78.4483624 C22.5349185,78.5699828 22.536778,78.6917859 22.5382357,78.8138088 L22.542201,79.5488796 L22.5367601,80.2910031 L22.5221471,81.0419571 C22.4347351,84.4978209 21.9584915,87.807751 21.0653201,90.9833485" id="路径-83"></path>
                    </g>
                    <g id="右手" transform="translate(67.997232, 103.292318)" fill="#FFFFFF">
                        <path d="M29.5614881,7.78498771 L14.6982865,0.945083975 C10.7588142,-0.86782362 6.26722683,0.0173393726 3.3034205,2.83166795 C2.38205203,3.70656776 1.60833176,4.76790649 1.04474706,5.99258352 C0.851626416,6.41223725 0.686976038,6.84441592 0.551912702,7.28618818 C-1.38544984,13.6230155 1.92871667,20.3756013 8.12664141,22.7196327 L20.5611077,27.4223003" id="路径备份-3"></path>
                        <path d="M29.5614881,7.78498771 L14.6982865,0.945083975 C10.7588142,-0.86782362 6.26722683,0.0173393726 3.3034205,2.83166795 M1.04474706,5.99258352 C0.851626416,6.41223725 0.686976038,6.84441592 0.551912702,7.28618818 C-1.38544984,13.6230155 1.92871667,20.3756013 8.12664141,22.7196327 L20.5611077,27.4223003" id="形状" stroke="#363940" stroke-width="3" stroke-linecap="round" stroke-linejoin="round"></path>
                    </g>
                </g>
                <g id="编组" transform="translate(39.376625, 228.000000)">
                    <path d="M4.53752548,58.5288324 L60.2579114,83.7126907 C69.8406383,88.0437813 81.0421387,86.6403379 89.2601438,80.0789819 L112.125072,61.823343 C114.283052,60.1003852 114.635707,56.9542636 112.91275,54.7962835 C112.31444,54.0469089 111.51326,53.4853896 110.604714,53.1786615 L97.9526383,48.9072775 L97.9526383,48.9072775 L4.53752548,58.5288324 Z" id="路径-89" fill="#D0D0D0" fill-rule="nonzero"></path>
                    <rect id="矩形" stroke="#363940" stroke-width="3" fill="#FFFFFF" stroke-linecap="round" stroke-linejoin="round" x="4.62337482" y="0" width="5" height="49"></rect>
                    <g id="线" transform="translate(122.498875, 64.061477) scale(-1, 1) translate(-122.498875, -64.061477) translate(93.910360, 43.648129)" fill="#BDBBBB" stroke="#363940" stroke-linecap="round" stroke-linejoin="round" stroke-width="3">
                        <path d="M31.6374266,2.27694046 C37.2603076,-0.166349049 44.4935999,-0.641680263 53.1085121,0.843152326 C55.7725656,1.30231817 57.5622995,3.84772894 57.1059948,6.5284864 C56.64969,9.20924386 54.1201399,11.0101997 51.4560864,10.5510339 C38.0809758,8.24575208 31.2038061,11.293785 28.8019127,19.6262243 L28.3677049,21.1853431 L28.1288987,22.0218601 L27.8921329,22.8322168 L27.6570618,23.6169511 L27.4233398,24.3766012 L27.1906213,25.1117051 L26.9585606,25.8228007 C26.9199195,25.9393459 26.8812914,26.0549131 26.842669,26.1695136 L26.6109472,26.8456057 L26.3790191,27.4990346 C26.340328,27.6060808 26.301614,27.712205 26.2628698,27.8174186 L26.0299844,28.4378616 L25.7960288,29.0369866 C25.5223219,29.7237395 25.2457243,30.3680664 24.9637662,30.9738121 L24.7207175,31.4836639 C23.4168418,34.1534381 21.9861971,36.0398991 20.1928395,37.5103419 C18.036917,39.2780656 15.9502186,40.1772879 12.9144027,40.5704554 L12.4136278,40.6298337 C12.3287252,40.6390098 12.243089,40.6478306 12.1566992,40.6563033 L11.6291565,40.703018 C11.4501873,40.717235 11.2680428,40.7301165 11.0825622,40.7417198 L10.5159514,40.772752 L9.92835908,40.7964581 L9.31882018,40.8131816 L8.68636973,40.823266 C8.57899842,40.8244125 8.47063224,40.8252967 8.36125111,40.8259258 L7.69262395,40.8266954 L6.99867272,40.8216845 L6.27843242,40.8112365 L5.53093805,40.795695 L4.75522459,40.7754033 C2.05346177,40.69829 -0.074626509,38.4318328 0.0020063809,35.7131295 C0.0786392708,32.9944263 2.33097401,30.8529946 5.03273684,30.9301079 L6.22240545,30.9592138 L7.04028086,30.9722764 L7.79765149,30.977576 L8.27039421,30.9766855 L8.93341581,30.9685488 L9.34596428,30.9584935 L9.73594992,30.9446562 L10.1042384,30.9269704 L10.4516952,30.90537 L10.7791861,30.8797884 L11.0875768,30.8501593 L11.3777327,30.8164165 L11.6505197,30.7784934 L11.9068032,30.7363239 L12.147449,30.6898415 C12.2251542,30.6736212 12.3003973,30.656671 12.3733227,30.6389799 L12.5852898,30.5836727 L12.7842161,30.5238536 L12.9709672,30.4594562 L13.1464087,30.3904142 L13.3114063,30.3166612 L13.4668255,30.2381308 C13.4919786,30.2246407 13.5167687,30.2109487 13.5412138,30.1970534 L13.6838886,30.1112327 L13.8191492,30.0204688 L13.9478612,29.9246953 C13.9688155,29.9083119 13.9895331,29.891717 14.010032,29.8749092 C14.1353403,29.772164 14.2604888,29.6557753 14.3857892,29.5246283 L14.5362426,29.3600965 L14.6869618,29.1809688 C14.7121105,29.149874 14.7372752,29.1181533 14.7624584,29.0857976 L14.9138008,28.8839731 L15.0657082,28.6664825 C15.0910799,28.6289048 15.1164801,28.5906565 15.1419113,28.5517286 L15.2948912,28.3099361 L15.4487356,28.0514073 L15.6035645,27.7757141 C15.629458,27.7283111 15.6553976,27.680175 15.6813856,27.6312971 L15.8379157,27.3290547 L15.9957297,27.0085777 C16.0221457,26.9536216 16.0486201,26.8978878 16.0751556,26.8413675 L16.23512,26.4927362 L16.3966678,26.1248001 L16.5599187,25.7371313 C16.5872758,25.6708517 16.6147088,25.603732 16.6422203,25.5357634 L16.8082505,25.1176929 L16.9762833,24.6788195 L17.1464386,24.2187151 L17.3188359,23.7369517 L17.4935953,23.2331013 L17.6708364,22.7067357 L17.850679,22.1574269 L18.1255828,21.2895089 L18.3124534,20.6809694 L18.5984605,19.7221987 L18.9910749,18.355796 L19.2945134,17.2630897 C20.9008903,11.3987582 23.9161127,7.03189165 28.1892947,4.15734953" id="路径-54"></path>
                    </g>
                    <path d="M32.9983333,63.9309383 C40.9377353,65.7045157 52.8468383,68.3648817 68.7256423,71.9120364 C72.4281225,72.7391308 76.307007,72.1027797 79.5511468,70.1360562 L97.8110203,59.0662123 C99.0667423,58.3049449 99.833685,56.943122 99.833685,55.4746651 L99.833685,40.4145782 L34.527199,40.0503952 C34.3542803,40.0494309 34.1813921,40.0454155 34.008615,40.038351 L4.53752548,38.8333254 L4.53752548,54.2078137 C4.53752548,56.1745993 5.90238446,57.8779937 7.82185947,58.3067838 L29.1448412,63.0701095" id="路径" stroke="#363940" stroke-width="3" fill="#BDBBBB" stroke-linecap="round" stroke-linejoin="round"></path>
                    <ellipse id="椭圆形" stroke="#363940" stroke-width="3" fill="#FFFFFF" stroke-linecap="round" stroke-linejoin="round" cx="55" cy="60" rx="3" ry="4"></ellipse>
                    <ellipse id="椭圆形备份-12" stroke="#363940" stroke-width="3" fill="#FFFFFF" stroke-linecap="round" stroke-linejoin="round" cx="37" cy="56" rx="3" ry="4"></ellipse>
                    <ellipse id="椭圆形备份-13" stroke="#363940" stroke-width="3" fill="#FFFFFF" stroke-linecap="round" stroke-linejoin="round" cx="19" cy="52" rx="3" ry="4"></ellipse>
                    <path d="M29.0243429,26.3527516 L5.7438759,37.030766 C4.68967819,37.5142932 4.22705831,38.7608655 4.71058548,39.8150632 C4.98671983,40.4170981 5.53069426,40.8535768 6.17825816,40.9927067 L69.1204072,54.5159049 C72.5765091,55.2584526 76.1844514,54.730716 79.2830876,53.0294013 L98.7163492,42.3595161 C99.732989,41.8013273 100.104637,40.5246764 99.5464481,39.5080365 C99.2546308,38.9765443 98.7473305,38.597123 98.1550416,38.4673724 L38.298546,25.3548271 C35.1807851,24.6718305 31.9254323,25.0221136 29.0243429,26.3527516 Z" id="路径-56" stroke="#363940" stroke-width="3" fill="#FFFFFF" stroke-linecap="round" stroke-linejoin="round"></path>
                </g>
            </g>
        </g>
    </g>
</svg>