<?xml version="1.0" encoding="UTF-8"?>
<svg width="320px" height="320px" viewBox="0 0 320 320" version="1.1" xmlns="http://www.w3.org/2000/svg" xmlns:xlink="http://www.w3.org/1999/xlink">
    <title>pin</title>
    <defs>
        <rect id="path-1" x="0" y="0" width="158" height="158" rx="12"></rect>
        <path d="M102.969303,0 C112.493212,-1.74951377e-15 120.582195,6.97168205 121.98756,16.3913318 C122.539825,20.0929774 122.971209,23.2935041 123.28171,25.9929119 C125.489507,26.2010184 127.697175,26.4251785 129.904842,26.6634713 C140.276934,27.7830117 148.138498,36.5388074 148.138498,46.9711442 C148.138498,57.2424954 140.186118,65.7603618 129.938955,66.4648592 C128.805699,66.5427691 127.672155,66.6180965 126.538324,66.6908413 C127.784274,83.5779242 128.407026,95.9570935 128.407026,103.828378 C128.407026,114.573638 128.274837,125.696539 128.010459,137.197082 C107.721316,135.764956 88.800221,135.048893 71.2471743,135.048893 C53.6941276,135.048893 37.4418973,131.961509 22.4904834,125.786741 C21.1485266,129.609625 20.4775482,123.336567 20.4775482,106.967566 C20.4775482,95.2982857 21.067343,81.6859367 22.2469325,66.130519 C20.7459576,66.0193734 19.2449527,65.9024341 17.744451,65.7809725 C7.72102402,64.9696249 1.23153063e-15,56.5983501 0,46.5421394 C2.305812e-15,36.3604146 7.6681255,27.8127779 17.7901207,26.7115361 C19.2223251,26.5557178 20.6545294,26.4058474 22.0867338,26.2619251 C22.235126,24.0168834 22.4082048,21.7709247 22.6060156,19.5252208 C23.4886728,9.50474843 31.8809146,1.81923542 41.9401865,1.81923542 C51.6917931,1.81923542 59.7741794,9.37824152 60.4260262,19.1080374 C60.5386202,20.7886081 60.641308,22.3607613 60.7340897,23.8244969 C65.1788781,23.7073582 69.6240636,23.6500605 74.0692491,23.6500605 C77.9583302,23.6500605 81.8474113,23.6939187 85.7364924,23.7816352 L86.0119853,16.3416451 C86.349394,7.22030281 93.8417222,1.67670937e-15 102.969303,0 Z" id="path-3"></path>
        <path d="M0,27.1825929 L1.54912447,13.2418672 C2.32492441,6.26036611 8.61345939,1.22965135 15.5949605,2.00545129 C15.7905335,2.0271838 15.9855759,2.053452 16.17993,2.08423467 C23.1179203,3.18310437 27.8514627,9.69826662 26.752593,16.6362568 C26.7218103,16.830611 26.6865215,17.0242246 26.6467549,17.2169414 L23.8121387,30.9540651 L23.8121387,30.9540651" id="path-5"></path>
        <polygon id="path-7" points="41.6 0 41.6 14.4 0 7.2"></polygon>
        <path d="M4.63920728,0 L24.6392073,0 L24.6392073,16 L4.63920728,16 C1.54640243,14.2606641 0,11.5939974 0,8 C0,4.40600259 1.54640243,1.73933593 4.63920728,0 Z" id="path-9"></path>
    </defs>
    <g id="页面-1" stroke="none" stroke-width="1" fill="none" fill-rule="evenodd">
        <g id="iPhone-11-Pro备份-6" transform="translate(-215.000000, -526.000000)">
            <g id="pin" transform="translate(215.000000, 526.000000)">
                <rect id="矩形" fill="#FFEAEA" fill-rule="nonzero" opacity="0" x="0" y="0" width="320" height="320"></rect>
                <g id="编组" transform="translate(63.000000, 35.000000)">
                    <g id="编组-3">
                        <g id="编组-9" transform="translate(96.954148, 105.000000) rotate(-7.000000) translate(-96.954148, -105.000000) translate(9.954148, 18.000000)">
                            <rect id="矩形" stroke="#363940" stroke-width="3" fill="#FFFFFF" opacity="0" stroke-linecap="round" stroke-linejoin="round" x="0" y="1.13686838e-13" width="174" height="174" rx="20"></rect>
                            <g id="身体备份" transform="translate(8.000000, 8.000000)">
                                <mask id="mask-2" fill="white">
                                    <use xlink:href="#path-1"></use>
                                </mask>
                                <use id="蒙版" fill="#FFFFFF" xlink:href="#path-1"></use>
                                <g mask="url(#mask-2)">
                                    <g transform="translate(4.448338, 35.000000)">
                                        <g id="路径" stroke="none" stroke-width="1" fill-rule="evenodd">
                                            <mask id="mask-4" fill="white">
                                                <use xlink:href="#path-3"></use>
                                            </mask>
                                            <use id="蒙版" fill="#D0D0D0" xlink:href="#path-3"></use>
                                            <path d="M95.9693028,0.326117491 C105.492918,0.326117491 113.581529,7.29446658 114.986348,16.7093253 L115.303568,18.8724328 L115.498903,20.2475732 L115.767688,22.2098868 C115.976976,25.7677502 118.767681,28.6318405 122.318914,28.9333957 C122.522934,28.9507198 122.715214,28.9691238 122.895754,28.9886079 C133.273106,30.1085549 141.138498,37.8646621 141.138498,48.2972617 C141.138498,57.6438196 134.550688,61.0356789 125.63969,62.2818244 C125.63969,62.2818244 125.63969,62.2818244 125.63969,62.2818244 C122.328473,62.7448768 119.921877,65.6641712 120.098967,69.002916 L120.153203,70.0253521 L120.153203,70.0253521 L120.238558,73.0351756 C121.167249,79.1545234 121.803235,87.3229592 122.146517,97.5404831 C122.661439,112.866769 123.799937,126.577639 109.624222,137.5232 C98.5058395,146.108088 87.5256849,146.60323 72.5739769,146.60323 C55.0209302,146.60323 29.2897969,132.459773 15.2183463,128.214891 L15.1807085,128.290524 L15.106667,128.421809 L15.0342709,128.526453 C14.8553372,128.754764 14.6918289,128.733319 14.5437459,128.462117 L14.4853354,128.340316 C14.4757374,128.317796 14.466208,128.294166 14.4567471,128.269426 L14.4008047,128.107664 L14.3465076,127.919261 L14.268147,127.586706 L14.2179633,127.331702 L14.169425,127.050058 L14.0997026,126.577639 L14.0552776,126.229393 L13.9917254,125.657072 L13.9318751,125.02481 L13.8578336,124.088552 L13.7745369,122.768376 L13.729495,121.896348 L13.662652,120.309765 L13.6165817,118.920616 L13.5517954,116.233188 L13.5071648,113.219413 L13.4907112,111.350732 L13.4777539,107.824125 L13.4775482,107.293683 C13.4775482,96.4724702 13.9847312,78.854404 14.9990972,66.4394846 C13.5838126,66.3328369 12.1682799,66.2223283 10.7531947,66.1077977 C0.724757312,65.2961179 -7,56.9246336 -7,46.8682569 C-7,36.6862601 0.671865812,28.1383046 10.7990123,27.0366863 C12.2283261,26.881207 13.65764,26.7316517 15.0869538,26.5880204 C15.235305,24.3402453 15.408659,22.0911298 15.6068145,19.8422699 C16.4892826,9.82696287 24.8812287,2.14535291 34.9401865,2.14535291 C40.1675249,2.14535291 53.476683,-10.2674633 60.0679872,-4.44662059 C65.7726132,0.591188325 65.0070578,23.976178 67.0692491,23.976178 C70.9584942,23.976178 74.8477394,24.0200399 78.7369845,24.1077638 L79.0122785,16.6598364 C79.3495218,7.54296408 86.841768,0.326117491 95.9693028,0.326117491 Z" fill="#FFFFFF" mask="url(#mask-4)"></path>
                                            <g id="五官备份-2" mask="url(#mask-4)" fill-rule="nonzero">
                                                <g transform="translate(60.007454, 64.878131)">
                                                    <ellipse id="椭圆形" stroke="none" fill="#363940" cx="22.7122524" cy="5.45770626" rx="5.45094058" ry="5.45770626"></ellipse>
                                                    <ellipse id="椭圆形备份" stroke="none" fill="#363940" cx="5.45094058" cy="5.45770626" rx="5.45094058" ry="5.45770626"></ellipse>
                                                    <path d="M10.0613686,15.4286743 C11.2726887,16.0350861 12.4840088,16.338292 13.695329,16.338292 C14.9066491,16.338292 16.1179692,16.0350861 17.3292893,15.4286743" id="路径-98" stroke="#363940" stroke-width="3" fill="none" stroke-linecap="round" stroke-linejoin="round"></path>
                                                </g>
                                            </g>
                                        </g>
                                        <path d="M29.8612248,6.03374688 C25.829003,9.2404092 23.0903961,14.0278872 22.6068145,19.5161524 C22.408659,21.7650123 22.235305,24.0141278 22.0869538,26.2619029 M55.2662356,23.5577437 C62.0855833,23.6344126 68.9076997,23.7919121 75.7325848,24.0302424 C81.1445916,24.2192338 86.5548574,24.4589316 91.9633821,24.7493356 M118.85362,26.8756522 C119.957304,26.9737919 123.260772,27.2775525 128.764022,27.786934 C139.376397,28.7691852 147.366908,37.8804088 146.95638,48.5302326 C146.542339,59.2427818 137.928874,67.8190978 127.214619,68.1863011 C124.342739,68.2847237 122.685351,68.3385133 122.242455,68.3476698 M21.427633,64.5430037 C10.6924364,63.5106257 2.62758485,54.2813839 3.04300267,43.5046667 C3.44722043,33.0465042 11.7406324,24.6602127 22.114349,24.0674257 M33.3785426,3.80567461 C35.9677719,2.5317395 38.8766677,1.81923542 41.9401865,1.81923542 C51.6916693,1.81923542 59.7738834,9.37461475 60.4254595,19.099579 C60.5456319,20.9393384 60.6357612,22.319158 60.6958474,23.2390377 M85.7369845,23.7816463 L86.0122785,16.3337189 C86.3495218,7.21684659 93.841768,0 102.969303,0 C112.492918,0 120.581529,6.96834909 121.986348,16.3832079 L122.303568,18.5463154 L122.498903,19.9214557 L122.767688,21.8837693 L122.930732,23.125047 L123.15108,24.8865666 L123.281833,26.9939818 M127.119695,71.1837363 C128.58334,82.6353388 129.315163,93.1635812 129.315163,102.768464 C129.315163,109.462068 129.01245,119.381114 128.407026,132.525602 C107.372383,136.770484 84.9083806,135.939776 69.6550923,135.256097 M21.6559796,70.5463444 C20.8703587,81.30391 20.4775482,97.4443171 20.4775482,106.967566 L20.4775482,107.498008 L20.4907112,111.024615 L20.5071648,112.893296 L20.5517954,115.907071 L20.6165817,118.594498 L20.662652,119.983647 L20.729495,121.57023 L20.7745369,122.442258 L20.8578336,123.762435 L20.9318751,124.698693 C38.1878334,130.531752 52.9081714,134.034677 65.0928891,135.207465" id="形状" stroke="#363940" stroke-width="3" stroke-linecap="round" stroke-linejoin="round"></path>
                                        <path d="M21.7669006,31.8903974 C21.9634719,27.7647896 22.2434432,23.6400413 22.6068145,19.5161524" id="路径" stroke="#363940" stroke-width="3" stroke-linecap="round" stroke-linejoin="round"></path>
                                    </g>
                                </g>
                            </g>
                            <path d="M8,30.8884739 L8,20 C8,13.372583 13.372583,8 20,8 L154,8 C160.627417,8 166,13.372583 166,20 L166,154 C166,160.627417 160.627417,166 154,166 L20,166 C13.372583,166 8,160.627417 8,154 C8,102.098131 8,63.17173 8,37.2207958" id="路径" stroke="#363940" stroke-width="3" stroke-linecap="round" stroke-linejoin="round"></path>
                        </g>
                        <g id="编组-7备份" transform="translate(138.954148, 0.000000)" stroke-linecap="round" stroke-linejoin="round">
                            <g id="编组-6">
                                <circle id="椭圆形" stroke="#363940" stroke-width="3" fill="#FFFFFF" cx="22" cy="22" r="22"></circle>
                                <circle id="椭圆形" stroke="#363940" stroke-width="2.1" fill="#5562F2" cx="22" cy="22" r="13.6552753"></circle>
                                <path d="M9.6105494,31.9740055 L18.5245101,18.8727883 C20.2114265,16.3934575 23.5888372,15.7510786 26.068168,17.437995 C26.205467,17.5314121 26.3384082,17.6310788 26.4665722,17.7366808 L27.4348814,18.5345288 C29.4823202,20.221536 29.8901788,23.1984549 28.3719348,25.3739857 C26.9413604,27.4238924 24.1198729,27.9259604 22.0699662,26.495386 C22.0239869,26.4632982 21.9786077,26.4303588 21.9338523,26.3965849 L19.6811433,24.6966183 L19.6811433,24.6966183" id="路径-75" stroke="#FFFFFF" stroke-width="4"></path>
                            </g>
                        </g>
                        <g id="路径-2" transform="translate(131.558842, 140.402875)">
                            <mask id="mask-6" fill="white">
                                <use xlink:href="#path-5"></use>
                            </mask>
                            <use id="蒙版" fill="#FFFFFF" xlink:href="#path-5"></use>
                            <path d="M11.6897371,2.08246291 C20.8578821,6.87560838 24.0298801,16.4994758 21.2057311,30.9540651 C31.7485452,31.1483526 37.269804,25.9893418 37.7695075,15.4770326 L24.7296223,-8.38543159 L11.6897371,2.08246291 Z" fill="#D0D0D0" mask="url(#mask-6)"></path>
                        </g>
                        <path d="M131.558842,167.585468 L133.107967,153.644742 C133.883767,146.663241 140.172302,141.632526 147.153803,142.408326 C147.349376,142.430059 147.544418,142.456327 147.738772,142.48711 C154.676763,143.585979 159.410305,150.101142 158.311435,157.039132 C158.280653,157.233486 158.245364,157.4271 158.205597,157.619816 L155.370981,171.35694 L155.370981,171.35694" id="路径备份" stroke="#363940" stroke-width="3" stroke-linecap="round" stroke-linejoin="round"></path>
                        <path d="M78.7557073,166.212114 L79.894349,180.192156 C80.4646456,187.194158 75.2507182,193.332719 68.2487162,193.903015 C68.0529913,193.918957 67.8569235,193.930364 67.6606705,193.937227 C60.641181,194.182706 54.7517607,188.691285 54.5062819,181.671795 C54.4993905,181.474733 54.497083,181.277538 54.4993614,181.080368 L54.6614339,167.054716 L54.6614339,167.054716" id="路径备份-3" stroke="#363940" stroke-width="3" fill="#FFFFFF" stroke-linecap="round" stroke-linejoin="round"></path>
                    </g>
                    <g id="编组-3" transform="translate(104.328350, 221.647584)">
                        <ellipse id="椭圆形" fill="#D0D0D0" fill-rule="nonzero" cx="42.447733" cy="28.7305385" rx="38.5" ry="5"></ellipse>
                        <g id="编组备份-2" transform="translate(36.000000, 16.000000) scale(-1, 1) translate(-36.000000, -16.000000) ">
                            <g id="路径-5" transform="translate(0.000000, 9.600000)">
                                <mask id="mask-8" fill="white">
                                    <use xlink:href="#path-7"></use>
                                </mask>
                                <use id="蒙版" fill="#FFFFFF" xlink:href="#path-7"></use>
                            </g>
                            <polyline id="路径" stroke="#363940" stroke-width="3" stroke-linecap="round" stroke-linejoin="round" points="8.49515272 15.3296851 41.6 9.6 41.6 24 0 16.8"></polyline>
                            <ellipse id="椭圆形" stroke="#363940" stroke-width="3" fill="#FFFFFF" stroke-linecap="round" stroke-linejoin="round" cx="43.2" cy="16" rx="8.8" ry="16"></ellipse>
                            <g id="路径-3" transform="translate(39.360793, 8.800000)">
                                <mask id="mask-10" fill="white">
                                    <use xlink:href="#path-9"></use>
                                </mask>
                                <use id="蒙版" fill="#FFFFFF" xlink:href="#path-9"></use>
                                <path d="M20.2450089,-1.51789301 L9.98577049,22.8544738 C22.1143432,18.2848246 28.1786296,16 28.1786296,16 C28.1786296,16 25.5340894,10.1607023 20.2450089,-1.51789301 Z" stroke="#363940" stroke-width="3" fill="#363940" stroke-linecap="round" stroke-linejoin="round" mask="url(#mask-10)"></path>
                            </g>
                            <path d="M44,8.8 L64,8.8 L64,24.8 L44,24.8 C40.9071951,23.0606641 39.3607927,20.3939974 39.3607927,16.8 C39.3607927,13.2060026 40.9071951,10.5393359 44,8.8 Z" id="矩形" stroke="#363940" stroke-width="3" stroke-linecap="round" stroke-linejoin="round"></path>
                            <ellipse id="椭圆形备份-2" stroke="#363940" stroke-width="3" fill="#FFFFFF" stroke-linecap="round" stroke-linejoin="round" cx="64.8" cy="16" rx="7.2" ry="12.8"></ellipse>
                        </g>
                    </g>
                </g>
            </g>
        </g>
    </g>
</svg>