<?xml version="1.0" encoding="UTF-8"?>
<svg width="32px" height="32px" viewBox="0 0 32 32" version="1.1" xmlns="http://www.w3.org/2000/svg" xmlns:xlink="http://www.w3.org/1999/xlink">
    <title>回复消息</title>
    <g id="文字消息" stroke="none" stroke-width="1" fill="none" fill-rule="evenodd">
        <g id="新消息识别" transform="translate(-622.000000, -764.000000)">
            <g id="频道列表" transform="translate(144.000000, 512.000000)">
                <g id="萌新求助" transform="translate(0.000000, 228.000000)">
                    <g id="回复消息" transform="translate(478.000000, 24.000000)">
                        <rect id="矩形" x="0" y="0" width="32" height="32"></rect>
                        <path d="M18.6666667,27.3333333 C18.6666667,28.7494481 17.5628322,29.9077485 16.1686442,29.9947537 L16,30 C14.5838853,30 13.4255849,28.8961656 13.3385797,27.5019775 L13.3333333,27.3333333 L18.6666667,27.3333333 Z M22.7521092,11.1338975 L6.10050506,27.785113 C5.57980601,28.3058121 4.73558604,28.3058121 4.21488698,27.785113 C3.72890119,27.2991272 3.69650214,26.5313188 4.11768982,26.0077566 L4.12356882,26.0005007 C4.15198426,25.9656791 4.18242364,25.9319583 4.21488698,25.8994949 L25.8994949,4.21488698 C26.420194,3.69418792 27.264414,3.69418792 27.785113,4.21488698 C28.3058121,4.73558604 28.3058121,5.57980601 27.785113,6.10050506 L22.7521092,11.1338975 Z M25.7753168,11.8822385 C25.9225006,12.5648481 26,13.2733736 26,14 L26,22.6666667 L28,24 L28,26 L11.6555688,26 L14.3225688,23.333 L23.333,23.333 L23.3325688,14.324 L25.7753168,11.8822385 Z M16,2 C17.1045695,2 18,2.8954305 18,4 L18.0009807,4.20023535 C19.0744754,4.41825574 20.0855118,4.80824145 21.004082,5.34018452 L19.0255179,7.31790309 C18.1723774,6.93100565 17.2320185,6.70269217 16.2420649,6.67058643 L16,6.66666667 C12.0309136,6.66666667 8.79830321,9.81989533 8.67058643,13.7579351 L8.66666667,14 L8.66656882,17.676 L5.99956882,20.343 L6,14 C6,9.16207743 9.43552894,5.12656564 14.0000191,4.20003235 L14,4 C14,2.8954305 14.8954305,2 16,2 Z" id="形状结合" fill="#8F959E" fill-rule="nonzero"></path>
                    </g>
                </g>
            </g>
        </g>
    </g>
</svg>