<?xml version="1.0" encoding="UTF-8"?>
<svg width="320px" height="320px" viewBox="0 0 320 320" version="1.1" xmlns="http://www.w3.org/2000/svg" xmlns:xlink="http://www.w3.org/1999/xlink">
    <title>编组 3</title>
    <defs>
        <path d="M61.0766022,6.33755086 L63.893072,19.5879995 C64.3488301,21.7321729 62.9800992,23.8398337 60.8359258,24.2955918 L59.8879994,24.4970798 C58.3252317,24.8292564 56.7881254,23.8791568 56.3714521,22.3577341 L56.3298215,22.1863721 L41.657,25.899 L62.8355876,27.9071772 C66.9428733,28.2966612 70.0803549,31.7457376 70.0803549,35.8714489 L70.0803549,51.9354222 C70.0803549,54.1274976 68.3033267,55.9045259 66.1112512,55.9045259 L65.6593889,55.9045259 C63.7816208,55.9045259 62.2475377,54.4330351 62.1473519,52.5802657 L62.1421476,52.3872845 L10.0803549,55.7321121 L10.08,33.888 L5.82152734,34.9669226 L-4.96935826e-13,7.57878981 L52.1123351,0.0823544803 C56.281134,-0.517333311 60.2009383,2.21787586 61.0766022,6.33755086 Z" id="path-1"></path>
        <path d="M0,28 L0,0 L52,0 C59.7319865,0 66,6.2680135 66,14 C66,21.7319865 59.7319865,28 52,28 L24.580856,28 L24.580856,28" id="path-3"></path>
        <path d="M50.4125406,0.0623635636 C61.3436999,0.860042749 69.5585085,10.3681449 68.7608293,21.2993041 C68.7426238,21.5487867 68.719703,21.7979027 68.692079,22.0465187 L68.1021669,27.3508527 C70.4195623,27.4091687 72.7407312,27.4789212 75.0656736,27.5601099 C77.7679937,27.654477 80.4698082,27.7640988 83.1711172,27.8889751 C83.2467507,26.9785521 83.3138613,26.0625665 83.3732488,25.1431911 C84.2096337,12.1952084 95.1543917,2.2379397 108.123556,2.62598077 C120.205622,2.98747962 129.70702,13.0749825 129.345521,25.157049 C129.327142,25.7713313 129.282897,26.3845669 129.21288,26.9951224 C129.039182,28.5103427 128.884276,29.9961126 128.748165,31.4524322 C129.324131,31.5120942 129.898531,31.5760015 130.472908,31.6406014 C141.848212,32.9199555 150.321903,42.7397779 149.922408,54.1798258 C149.521314,65.6656473 140.41717,74.9447074 128.941062,75.5643158 L127.865,75.62 L124.575212,111.684354 C122.273802,136.914625 100.759979,156.012062 75.4348186,155.305402 L63.644837,154.97642 C37.1454832,154.236997 16.2629341,132.155604 17.002358,105.656251 C17.026739,104.782488 17.0749828,103.909555 17.1470356,103.038428 L18.9233654,81.5623636 L19.401,71.823 L19.1319994,71.787005 C7.88065,70.1800096 -0.384223644,60.3423538 0.0137841684,48.9449013 C0.413995501,37.4843482 9.56130306,28.2592433 21.0180569,27.7620123 C22.0745495,27.7161577 23.1318626,27.6727897 24.1899961,27.6319084 L25.9133355,18.7917603 C28.1636384,7.24857674 38.6832462,-0.793557924 50.4125406,0.0623635636 Z" id="path-5"></path>
        <path d="M6.09901951,0 L21.9009805,0 C24.6624042,-4.73625913e-15 26.9009805,2.23857625 26.9009805,5 C26.9009805,5.32925993 26.868457,5.65771475 26.8038839,5.98058068 L26.5,7.5 C25.6278139,11.8609303 21.7987644,15 17.3514707,15 L10.6485293,15 C6.20123557,15 2.37218605,11.8609303 1.5,7.5 L1.19611614,5.98058068 C0.654556382,3.27278191 2.41064007,0.638656375 5.11843884,0.0970966215 C5.44130476,0.0325234372 5.76975959,-1.71587277e-15 6.09901951,0 Z" id="path-7"></path>
    </defs>
    <g id="页面-1" stroke="none" stroke-width="1" fill="none" fill-rule="evenodd">
        <g id="iPhone-11-Pro备份-4" transform="translate(-242.000000, -529.000000)">
            <g id="编组" transform="translate(242.000000, 529.000000)">
                <rect id="矩形备份-6" fill="#EAEAEA" fill-rule="nonzero" opacity="0" x="0" y="0" width="320" height="320"></rect>
                <g id="编组-13" transform="translate(58.000000, 4.000000)">
                    <g id="路径-65" transform="translate(114.382033, 181.009495)">
                        <mask id="mask-2" fill="white">
                            <use xlink:href="#path-1"></use>
                        </mask>
                        <use id="蒙版" fill="#5562F2" fill-rule="nonzero" xlink:href="#path-1"></use>
                        <path d="M68.8619718,32.9905051 C68.8058345,40.1138389 66.2407467,44.0534209 61.1667086,44.8092512 C56.0926705,45.5650814 48.7906596,45.5650814 39.260676,44.8092512 C46.1107234,54.7240559 49.5357471,59.6814583 49.5357471,59.6814583 C49.5357471,59.6814583 79.8464586,59.6814583 79.8464586,59.6814583 C79.8464586,59.6814583 76.184963,50.7844739 68.8619718,32.9905051 Z" fill="#3C48ED" fill-rule="nonzero" mask="url(#mask-2)"></path>
                        <path d="M62.5791204,-0.27119062 C61.9932681,8.08652192 60.1729994,12.5528993 57.1183143,13.1279417 C54.0636293,13.702984 48.1549204,15.2029071 39.3921879,17.627711 L41.6179666,25.5245793 L66.4867935,23.129239 L62.5791204,-0.27119062 Z" id="路径-4" fill="#3C48ED" fill-rule="nonzero" mask="url(#mask-2)"></path>
                    </g>
                    <path d="M149.757042,183.499538 C153.476448,182.964496 159.055557,182.161933 166.494369,181.091849 C170.663167,180.492162 174.582972,183.227371 175.458636,187.347046 L178.275105,200.597494 C178.730864,202.741668 177.362133,204.849329 175.217959,205.305087 L174.270033,205.506575 C172.707265,205.838751 171.170159,204.888652 170.753486,203.367229 L170.711855,203.195867 L156.039033,206.908495 L177.217621,208.916672 C181.324907,209.306156 184.462388,212.755233 184.462388,216.880944 C184.462388,220.56871 184.462388,223.334534 184.462388,225.178417 L184.462388,229.337182 C184.462388,230.053381 184.462388,231.255959 184.462388,232.944917 C184.462388,235.136993 182.68536,236.914021 180.493285,236.914021 L180.041422,236.914021 C178.163654,236.914021 176.629571,235.44253 176.529385,233.589761 L176.524181,233.396779 L124.462388,236.741607 L124.462033,214.897495 L120.203561,215.976418 L114.382033,188.588285" id="路径" stroke="#363940" stroke-width="3" stroke-linecap="round" stroke-linejoin="round" fill-rule="nonzero"></path>
                    <path d="M155.532232,199.534074 C156.509075,205.502632 155.857261,210.169299 153.57679,213.534074" id="路径-2" stroke="#363940" stroke-width="3" stroke-linecap="round" fill-rule="nonzero" transform="translate(154.774221, 206.534074) rotate(-22.000000) translate(-154.774221, -206.534074) "></path>
                    <g id="路径备份-5" transform="translate(96.000000, 216.000000)">
                        <mask id="mask-4" fill="white">
                            <use xlink:href="#path-3"></use>
                        </mask>
                        <use id="蒙版" fill="#D0D0D0" fill-rule="nonzero" xlink:href="#path-3"></use>
                        <path d="M0,22 L0,-6 L52,-6 C59.7319865,-6 66,0.268013502 66,8 C66,15.7319865 59.7319865,22 52,22 L24.580856,22 L24.580856,22" fill="#FFFFFF" fill-rule="nonzero" mask="url(#mask-4)"></path>
                    </g>
                    <path d="M96,244 L96,216 L148,216 C155.731986,216 162,222.268014 162,230 C162,237.731986 155.731986,244 148,244 L120.580856,244 L120.580856,244" id="路径" stroke="#363940" stroke-width="3" stroke-linecap="round" fill-rule="nonzero"></path>
                    <g id="形状结合备份-2" transform="translate(19.031904, 90.437636)">
                        <mask id="mask-6" fill="white">
                            <use xlink:href="#path-5"></use>
                        </mask>
                        <use id="蒙版" fill="#D0D0D0" fill-rule="nonzero" xlink:href="#path-5"></use>
                        <path d="M44.9680962,-4.67460394 C55.8992554,-3.87692476 87.1543917,2.2379397 100.123556,2.62598077 C112.205622,2.98747962 121.70702,13.0749825 121.345521,25.157049 C121.242196,28.6103821 125.478298,32.1387881 126.887868,32.6025024 C135.965741,35.5889013 142.268209,44.2773835 141.922408,54.1798258 C141.563619,64.454217 134.240816,71.362439 124.485692,73.1488947 C123.909653,73.2543846 121.637984,74.306346 120.461191,76.2979554 C119.288223,78.2830901 119.2094,81.2055875 119.078537,82.719742 C118.522242,89.1563224 117.687801,98.811193 116.575212,111.684354 C114.676419,132.500752 99.699387,149.142418 80.2938373,153.93115 C76.1791181,154.946544 73.3987363,159.610799 68.968263,159.487174 L55.644837,154.97642 C29.1454832,154.236997 8.26293407,132.155604 9.00235797,105.656251 C9.02673896,104.782488 9.07498283,103.909555 9.14703559,103.038428 L10.9233654,81.5623636 L11.401,71.823 L11.1319994,71.787005 C-0.11935,70.1800096 -8.38422364,60.3423538 -7.98621583,48.9449013 C-7.5860045,37.4843482 1.56130306,28.2592433 13.0180569,27.7620123 C14.0745495,27.7161577 15.1318626,27.6727897 16.1899961,27.6319084 L17.9133355,18.7917603 C20.1636384,7.24857674 33.2388017,-5.53052543 44.9680962,-4.67460394 Z" id="路径" fill="#FFFFFF" fill-rule="nonzero" mask="url(#mask-6)"></path>
                    </g>
                    <ellipse id="椭圆形备份-10" fill="#D0D0D0" fill-rule="nonzero" cx="119" cy="309" rx="51" ry="7"></ellipse>
                    <path d="M69.4444444,90.5 C80.3756037,91.2976792 88.5904123,100.805781 87.7927331,111.736941 C87.7745276,111.986423 87.7516068,112.235539 87.7239828,112.484155 L87.1340707,117.788489 C89.4514661,117.846805 91.7726351,117.916558 94.0975774,117.997746 C96.7998975,118.092113 99.501712,118.201735 102.203021,118.326612 L102.310179,116.957077 L102.405153,115.580828 C103.241537,102.632845 114.186296,92.6755761 127.15546,93.0636172 C139.237526,93.4251161 148.738924,103.512619 148.377425,115.594685 C148.359045,116.208968 148.314801,116.822203 148.244784,117.432759 C148.071085,118.947979 147.91618,120.433749 147.780068,121.890069 C148.356034,121.949731 148.930434,122.013638 149.504811,122.078238 C160.880116,123.357592 169.353807,133.177414 168.954312,144.617462 C168.553218,156.103284 159.449074,165.382344 147.972966,166.001952 L146.896904,166.057636 M146.380288,171.721051 C145.764027,178.476815 144.839637,188.610462 143.607116,202.12199 C141.305706,227.352262 119.791882,246.449698 94.4667224,245.743038 M89.0615271,245.592215 C87.6426857,245.552624 85.5144236,245.493238 82.6767408,245.414057 C70.0426025,245.061521 58.6852264,239.857718 50.3391802,231.636795 M46.7026802,227.62927 C39.7432663,219.037859 35.7016841,208.012753 36.0342618,196.093887 C36.0586428,195.220125 36.1068866,194.347192 36.1789394,193.476064 L37.9552692,172 L38.4329038,162.260636 L38.1639032,162.224641 C26.9125538,160.617646 18.6476802,150.77999 19.045688,139.382538 C19.4458993,127.921985 28.5932069,118.69688 40.0499607,118.199649 C41.1064533,118.153794 42.1637664,118.110426 43.2218999,118.069545 L44.9452393,109.229397 C46.8713848,99.3490157 54.8560312,92.0336759 64.472016,90.667899 M88.6165796,245.584961 L93.9998873,245.762028" id="形状" stroke="#363940" stroke-width="3" stroke-linecap="round" stroke-linejoin="round" fill-rule="nonzero"></path>
                    <path d="M138.975848,119.461821 C140.134072,119.535461 143.49746,119.808235 149.066013,120.280145 M149.09382,163.997768 C145.187213,164.384101 142.894745,164.604106 142.216415,164.657784 M79.0038782,118.152107 C83.74604,118.056819 88.5057884,118.009175 93.2831235,118.009175 C97.8595624,118.009175 102.436079,118.052896 107.012674,118.140338" id="形状" stroke="#363940" stroke-width="3" stroke-linecap="round" fill-rule="nonzero" transform="translate(94.017721, 141.333479) rotate(2.000000) translate(-94.017721, -141.333479) "></path>
                    <path d="M87.7927331,111.736941 C87.7745276,111.986423 87.7516068,112.235539 87.7239828,112.484155 M41.8535513,125.08856 L44.9452393,109.229397" id="形状" stroke="#363940" stroke-width="3" fill="#EAEAEA" fill-rule="nonzero" stroke-linecap="round"></path>
                    <path d="M36.0342618,196.093887 C36.0586428,195.220125 36.1068866,194.347192 36.1789394,193.476064 M37.9552692,172 L38.8315515,154.143193" id="形状" stroke="#363940" stroke-width="3" stroke-linecap="round" stroke-linejoin="round" fill-rule="nonzero"></path>
                    <circle id="椭圆形" stroke="#363940" stroke-width="3" fill="#EAEAEA" fill-rule="nonzero" cx="74" cy="205" r="10"></circle>
                    <path d="M86.0001668,213.748025 C82.9719352,211.569679 81,208.015125 81,204 C81,199.984875 82.9719352,196.430321 86.0001668,194.251975" id="路径" stroke="#363940" stroke-width="3" fill="#FFFFFF" fill-rule="nonzero" stroke-linecap="round"></path>
                    <path d="M68.0001668,213.748025 C64.9719352,211.569679 63,208.015125 63,204 C63,199.984875 64.9719352,196.430321 68.0001668,194.251975" id="路径备份-4" stroke="#363940" stroke-width="3" fill="#FFFFFF" fill-rule="nonzero" stroke-linecap="round" transform="translate(65.500083, 204.000000) scale(-1, 1) translate(-65.500083, -204.000000) "></path>
                    <path d="M21.5922892,102.586634 C21.2929589,94.1129726 20.8439634,91.4024802 20.2453028,74.455157 C20.1478169,71.6954546 22.3059698,69.3792458 25.0656722,69.2817599 C27.7527509,69.1868394 30.0193706,71.2304019 30.226796,73.885538 L30.2390694,74.1021293 L33.5136051,156.800081 C34.2864128,178.677288 50.6812907,196.78945 72.3018971,199.784636 L72.9586558,199.87076 L73.6140999,199.951876 C76.3546168,200.291034 78.3013028,202.787604 77.9621448,205.528121 C77.631912,208.196519 75.2563214,210.112317 72.601715,209.898219 L72.3859001,209.876166 L71.730456,209.79505 C45.1775366,206.508942 24.8832687,184.606382 23.5542922,157.961953 L23.5198384,157.153109 C22.6394985,132.231803 22.0591872,115.803924 21.7789043,107.869472" id="路径-64" stroke="#363940" stroke-width="3" fill="#BDBBBB" stroke-linecap="round" stroke-linejoin="round"></path>
                    <path d="M71.3181818,147.681818 L108.840909,147.681818 C122.735891,147.681818 134,158.945927 134,172.840909 L134,174.764407 C134,183.373679 127.020806,190.352873 118.411534,190.352873 C116.384051,190.352873 114.376039,189.957357 112.5,189.188485 L111.913507,188.948118 C98.4101821,183.413944 83.3820086,182.846831 69.5,187.347576 C60.8671545,190.146467 51.5999007,185.417113 48.8010094,176.784267 C48.2702973,175.147349 48,173.437228 48,171.716426 L48,171 C48,158.121724 58.4399056,147.681818 71.3181818,147.681818 Z" id="矩形备份-4" stroke="#363940" stroke-width="3" fill="#D0D0D0" fill-rule="nonzero"></path>
                    <path d="M64.3181818,147.681818 L101.840909,147.681818 C115.735891,147.681818 127,158.945927 127,172.840909 L127,174.764407 C127,183.373679 120.020806,190.352873 111.411534,190.352873 C109.384051,190.352873 107.376039,189.957357 105.5,189.188485 L104.913507,188.948118 C91.4101821,183.413944 76.3820086,182.846831 62.5,187.347576 C53.8671545,190.146467 44.5999007,185.417113 41.8010094,176.784267 C41.2702973,175.147349 41,173.437228 41,171.716426 L41,171 C41,158.121724 51.4399056,147.681818 64.3181818,147.681818 Z" id="矩形" stroke="#363940" stroke-width="3" fill="#FFFFFF" fill-rule="nonzero"></path>
                    <circle id="椭圆形" fill="#363940" fill-rule="nonzero" cx="62" cy="168" r="6"></circle>
                    <circle id="椭圆形备份-3" fill="#363940" fill-rule="nonzero" cx="85" cy="169" r="6"></circle>
                    <circle id="椭圆形" stroke="#363940" stroke-width="3" fill="#FFFFFF" fill-rule="nonzero" cx="19" cy="45" r="6"></circle>
                    <circle id="椭圆形备份-4" stroke="#363940" stroke-width="3" fill="#FFFFFF" fill-rule="nonzero" cx="45" cy="37" r="4"></circle>
                    <circle id="椭圆形备份-6" stroke="#363940" stroke-width="3" fill="#FFFFFF" fill-rule="nonzero" cx="27" cy="17" r="5"></circle>
                    <circle id="椭圆形备份-7" stroke="#363940" stroke-width="3" fill="#FFFFFF" fill-rule="nonzero" cx="66" cy="4" r="4"></circle>
                    <path d="M25.5,77 C27.9852814,77 30,75.4329966 30,73.5 C30,71.5670034 27.9852814,70 25.5,70 C23.0147186,70 21,71.5670034 21,73.5 C21,75.4329966 23.0147186,77 25.5,77 Z" id="椭圆形" stroke="#363940" stroke-width="3" fill="#FFFFFF" fill-rule="nonzero"></path>
                    <g id="编组-10" transform="translate(0.000000, 275.000000)">
                        <ellipse id="椭圆形备份-9" fill="#D0D0D0" fill-rule="nonzero" cx="26" cy="34" rx="24" ry="7"></ellipse>
                        <g id="编组-8" fill-rule="nonzero" stroke="#363940" stroke-linejoin="round" stroke-width="3">
                            <g id="编组-5" transform="translate(41.545493, 10.545493) rotate(-45.000000) translate(-41.545493, -10.545493) translate(30.978904, 6.198503)">
                                <line x1="11.1331787" y1="4.34699053" x2="0" y2="4.34699053" id="路径-66" stroke-linecap="round"></line>
                                <path d="M15.6536645,8.69398106 C17.9159841,8.69398106 19.909208,7.92589038 21.0785935,6.75953735 C21.7706382,6.06928732 15.6536645,5.23955403 15.6536645,4.34699053 C15.6536645,3.44507647 21.7621395,2.60731595 21.0567489,1.91279639 C19.8844826,0.75859625 17.9019583,0 15.6536645,0 C12.0524997,0 9.13317872,1.94621395 9.13317872,4.34699053 C9.13317872,6.74776711 12.0524997,8.69398106 15.6536645,8.69398106 Z" id="椭圆形" fill="#FFFFFF"></path>
                            </g>
                            <g id="编组-5备份" transform="translate(10.545493, 10.545493) scale(-1, 1) rotate(-45.000000) translate(-10.545493, -10.545493) translate(-0.021096, 6.198503)">
                                <line x1="11.1331787" y1="4.34699053" x2="0" y2="4.34699053" id="路径-66" stroke-linecap="round"></line>
                                <path d="M15.6536645,8.69398106 C17.9159841,8.69398106 19.909208,7.92589038 21.0785935,6.75953735 C21.7706382,6.06928732 15.6536645,5.23955403 15.6536645,4.34699053 C15.6536645,3.44507647 21.7621395,2.60731595 21.0567489,1.91279639 C19.8844826,0.75859625 17.9019583,0 15.6536645,0 C12.0524997,0 9.13317872,1.94621395 9.13317872,4.34699053 C9.13317872,6.74776711 12.0524997,8.69398106 15.6536645,8.69398106 Z" id="椭圆形" fill="#FFFFFF"></path>
                            </g>
                        </g>
                        <ellipse id="椭圆形" stroke="#363940" stroke-width="3" fill="#FFFFFF" fill-rule="nonzero" stroke-linejoin="round" cx="30.5" cy="13" rx="3.5" ry="4"></ellipse>
                        <ellipse id="椭圆形备份-8" stroke="#363940" stroke-width="3" fill="#FFFFFF" fill-rule="nonzero" stroke-linejoin="round" cx="19.5" cy="13" rx="3.5" ry="4"></ellipse>
                        <g id="编组-7" transform="translate(9.000000, 20.000000)" fill-rule="nonzero" stroke="#363940" stroke-linecap="round" stroke-linejoin="round" stroke-width="3">
                            <g id="编组-6">
                                <polyline id="路径-88" points="5.14821571 -4.54747351e-13 1.21204263 1.59362176 0 6.13136212"></polyline>
                                <polyline id="路径-88备份" points="7.14821571 5 3.21204263 6.59362176 2 11.1313621"></polyline>
                                <polyline id="路径-88备份-2" points="10.1482157 8 6.21204263 9.59362176 5 14.1313621"></polyline>
                            </g>
                            <g id="编组-6备份" transform="translate(29.222324, 7.065681) scale(-1, 1) translate(-29.222324, -7.065681) translate(24.148216, 0.000000)">
                                <polyline id="路径-88" points="5.14821571 -4.54747351e-13 1.21204263 1.59362176 0 6.13136212"></polyline>
                                <polyline id="路径-88备份" points="7.14821571 5 3.21204263 6.59362176 2 11.1313621"></polyline>
                                <polyline id="路径-88备份-2" points="10.1482157 8 6.21204263 9.59362176 5 14.1313621"></polyline>
                            </g>
                        </g>
                        <g id="矩形备份-5" transform="translate(12.000000, 14.000000)">
                            <mask id="mask-8" fill="white">
                                <use xlink:href="#path-7"></use>
                            </mask>
                            <use id="蒙版" fill="#D0D0D0" fill-rule="nonzero" xlink:href="#path-7"></use>
                            <path d="M0.0990195136,-3 L15.9009805,-3 C18.6624042,-3 20.9009805,-0.761423749 20.9009805,2 C20.9009805,2.32925993 20.868457,2.65771475 20.8038839,2.98058068 L20.5,4.5 C19.6278139,8.86093026 15.7987644,12 11.3514707,12 L4.64852927,12 C0.201235567,12 -3.62781395,8.86093026 -4.5,4.5 L-4.80388386,2.98058068 C-5.34544362,0.27278191 -3.58935993,-2.36134363 -0.881561162,-2.90290338 C-0.558695241,-2.96747656 -0.230240413,-3 0.0990195136,-3 Z" fill="#FFFFFF" fill-rule="nonzero" mask="url(#mask-8)"></path>
                        </g>
                        <path d="M18.0990195,14 L33.9009805,14 C36.6624042,14 38.9009805,16.2385763 38.9009805,19 C38.9009805,19.3292599 38.868457,19.6577148 38.8038839,19.9805807 L38.5,21.5 C37.6278139,25.8609303 33.7987644,29 29.3514707,29 L22.6485293,29 C18.2012356,29 14.3721861,25.8609303 13.5,21.5 L13.1961161,19.9805807 C12.6545564,17.2727819 14.4106401,14.6386564 17.1184388,14.0970966 C17.4413048,14.0325234 17.7697596,14 18.0990195,14 Z" id="矩形" stroke="#363940" stroke-width="3" stroke-linejoin="round" fill-rule="nonzero"></path>
                    </g>
                    <g id="编组-12" transform="translate(189.090987, 267.000000)" fill-rule="nonzero">
                        <ellipse id="椭圆形" fill="#D0D0D0" cx="13" cy="43" rx="13" ry="4"></ellipse>
                        <path d="M13,0 L13,42 L13,0 Z" id="矩形" stroke="#363940" stroke-width="3" stroke-linecap="round" stroke-linejoin="round"></path>
                        <path d="M13,0 L15.5763403,0 C19.7365452,-1.65239566e-15 23.1090576,3.37251241 23.1090576,7.53271729 C23.1090576,8.55284891 22.9018495,9.56235109 22.5,10.5 L21.1142055,13.7335205 C19.1081182,18.4143909 18.8895673,23.668702 20.5,28.5 C21.4951608,31.4854824 19.8816863,34.7124314 16.8962039,35.7075922 C16.3151886,35.901264 15.7067498,36 15.0943058,36 L13,36 L13,36 L13,0 Z" id="矩形" stroke="#363940" stroke-width="3" fill="#FFFFFF" stroke-linecap="round" stroke-linejoin="round"></path>
                        <path d="M2,5 L4.63290851,5 C7.57698012,5 9.96362171,7.38664159 9.96362171,10.3307132 C9.96362171,11.1090359 9.79318454,11.8779173 9.46428571,12.5833333 L8.36337068,14.9445551 C6.80418925,18.2886581 6.63498021,22.1146424 7.89285714,25.5833333 C8.65342603,27.6806597 7.56977001,29.9974415 5.47244368,30.7580104 C5.03095599,30.9181103 4.56493234,31 4.09531189,31 L2,31 L2,31 L2,5 Z" id="矩形" stroke="#363940" stroke-width="3" fill="#D0D0D0" stroke-linecap="round" stroke-linejoin="round" transform="translate(7.500000, 18.000000) scale(-1, 1) translate(-7.500000, -18.000000) "></path>
                    </g>
                </g>
            </g>
        </g>
    </g>
</svg>