<?xml version="1.0" encoding="utf-8"?>
<svg xmlns="http://www.w3.org/2000/svg" viewBox="0 0 1024 1024" version="1.1" width="200"
    height="200">
    <path
        d="M716.16 100.885333l61.589333 152.448 152.490667 61.632a32 32 0 0 1 17.664 41.642667l-64.213333 158.933333 64.213333 158.954667a32 32 0 0 1-17.664 41.664l-152.490667 61.589333-61.589333 152.490667a32 32 0 0 1-41.664 17.664l-158.933333-64.213333-158.933334 64.213333a32 32 0 0 1-41.664-17.664l-61.632-152.490667L100.906667 716.16a32 32 0 0 1-17.706667-41.664l64.213333-158.933333-64.213333-158.933334a32 32 0 0 1 17.706667-41.664l152.448-61.632 61.632-152.448a32 32 0 0 1 41.642666-17.706666l158.933334 64.213333 158.954666-64.213333a32 32 0 0 1 41.664 17.706666z"
        fill="#5562F2" />
    <path
        d="M419.053773 368.87098c86.237699-56.003417 200.524782-33.052657 255.28497 51.270637l-97.580998 63.369841c-20.065954-30.89886-61.462134-39.805843-93.504497-20.599826L481.017719 464.28709 324.877388 565.685807 262.913442 470.269697 419.053773 368.87098z"
        fill="#FFFFFF" />
    <path
        d="M204.354108 508.298573m38.162865-24.783254l40.775045-26.479624q38.162866-24.783255 62.94612 13.379611l12.397437 19.090378q24.783255 38.162866-13.379611 62.946121l-40.775044 26.479623q-38.162866 24.783255-62.946121-13.379611l-12.397436-19.090378q-24.783255-38.162866 13.37961-62.94612Z"
        fill="#FFFFFF" />
    <path
        d="M640.592174 496.339631m38.162866-24.783254l40.775044-26.479624q38.162866-24.783255 62.946121 13.379611l12.397436 19.090378q24.783255 38.162866-13.37961 62.946121l-40.775045 26.479623q-38.162866 24.783255-62.94612-13.379611l-12.397437-19.090378q-24.783255-38.162866 13.379611-62.94612Z"
        fill="#FFFFFF" />
    <path
        d="M604.957231 655.137201c-86.237699 56.003417-200.524782 33.052657-255.28497-51.270637l97.580998-63.369841c20.065954 30.89886 61.462134 39.805843 93.504497 20.599826l2.235529-1.375458 156.140331-101.398717L761.097562 553.738484 604.957231 655.137201z"
        fill="#FFFFFF" />
</svg>
