<?xml version="1.0" standalone="no"?><!DOCTYPE svg PUBLIC "-//W3C//DTD SVG 1.1//EN" "http://www.w3.org/Graphics/SVG/1.1/DTD/svg11.dtd"><svg t="1588930267983" class="icon" viewBox="0 0 1024 1024" version="1.1" xmlns="http://www.w3.org/2000/svg" p-id="3936" xmlns:xlink="http://www.w3.org/1999/xlink" width="48" height="48"><path d="M517.333333 128c5.098667 0.042667 10.176 2.389333 12.736 7.125333l122.410667 224.490667a14.976 14.976 0 0 0 10.453333 7.594667l253.781334 46.72a13.802667 13.802667 0 0 1 7.381333 23.253333l-189.44 198.058667 6.634667 0.042666a597.610667 597.610667 0 0 0 55.189333-1.962666c10.048-0.981333 12.010667 5.482667 12.010667 5.482666a668.8 668.8 0 0 1-69.269334 23.744l38.4 231.765334a13.802667 13.802667 0 0 1-19.541333 14.592L523.797333 797.44a14.933333 14.933333 0 0 0-12.906666 0l-234.261334 111.466667a13.802667 13.802667 0 0 1-19.562666-14.592L299.264 640a15.018667 15.018667 0 0 0-4.053333-12.714667l-184.618667-190.122666a13.802667 13.802667 0 0 1 7.424-23.253334l253.76-46.72a14.976 14.976 0 0 0 10.410667-7.594666l122.410666-224.490667A14.357333 14.357333 0 0 1 517.354667 128z m26.24 278.826667c-98.112-0.768-194.474667 26.837333-236.757333 49.237333-10.048 5.333333-4.032 19.328 6.250667 17.770667 150.037333-22.997333 248.106667 11.605333 252.224 15.168 2.986667 2.56 2.816 6.250667-0.469334 8.832-2.730667 2.197333-182.058667 130.56-235.946666 175.850666-8.490667 7.125333-6.250667 22.058667 7.616 24.597334 12.906667 2.346667 35.989333 4.928 59.221333 5.717333 141.269333 4.842667 263.210667-18.261333 343.509333-41.450667l-4.565333-27.306666h-3.562667c-65.984-0.853333-157.866667-8.490667-219.52-32.106667-4.693333-1.813333-6.272-6.890667-1.962666-10.176 36.565333-28.117333 141.312-100.821333 178.176-132.074667 7.210667-6.101333 9.109333-14.08 0.405333-20.544-16.832-12.373333-76.032-32.96-144.597333-33.493333z" fill="#FFCD00" p-id="3937"></path></svg>