<?xml version="1.0" standalone="no"?><!DOCTYPE svg PUBLIC "-//W3C//DTD SVG 1.1//EN" "http://www.w3.org/Graphics/SVG/1.1/DTD/svg11.dtd"><svg t="1605664669670" class="icon" viewBox="0 0 1024 1024" version="1.1" xmlns="http://www.w3.org/2000/svg" p-id="6835" xmlns:xlink="http://www.w3.org/1999/xlink" width="200" height="200"><defs><style type="text/css"></style></defs><path d="M255.573333 195.2L512 451.626667 768.426667 195.2a21.333333 21.333333 0 0 1 28.16-1.749333l2.026666 1.770666 30.165334 30.165334a21.333333 21.333333 0 0 1 0 30.165333L572.373333 512l256.426667 256.469333a21.333333 21.333333 0 0 1 0 30.165334l-30.165333 30.165333a21.333333 21.333333 0 0 1-30.165334 0L512 572.373333l-256.426667 256.426667a21.333333 21.333333 0 0 1-28.16 1.770667l-2.026666-1.770667-30.165334-30.165333a21.333333 21.333333 0 0 1 0-30.165334L451.626667 512 195.2 255.573333a21.333333 21.333333 0 0 1 0-30.186666l30.165333-30.165334a21.333333 21.333333 0 0 1 30.165334 0z" p-id="6836"></path></svg>