<?xml version="1.0" encoding="UTF-8"?>
<svg width="104px" height="104px" viewBox="0 0 104 104" version="1.1" xmlns="http://www.w3.org/2000/svg" xmlns:xlink="http://www.w3.org/1999/xlink">
    <title>编组 22备份 2</title>
    <defs>
        <rect id="path-1" x="0" y="0" width="104" height="104"></rect>
    </defs>
    <g id="任务（创建/操作）" stroke="none" stroke-width="1" fill="none" fill-rule="evenodd">
        <g id="强制任务卡片频道内展示备份-2" transform="translate(-32.000000, -1432.000000)">
            <g id="编组-15" transform="translate(0.000000, 1412.000000)">
                <g id="编组-22备份-2" transform="translate(32.000000, 20.000000)">
                    <mask id="mask-2" fill="white">
                        <use xlink:href="#path-1"></use>
                    </mask>
                    <g id="蒙版"></g>
                    <g mask="url(#mask-2)">
                        <g transform="translate(54.653966, 51.437549) rotate(-360.000000) translate(-54.653966, -51.437549) translate(0.969872, -0.708842)">
                            <g id="编组-17" transform="translate(53.684094, 52.146392) rotate(-30.000000) translate(-53.684094, -52.146392) translate(12.846908, 15.510285)">
                                <path d="M43.5278889,5.88322039 L44.3698803,32 L44.3698803,32 L49.3147909,11.6152371 C50.0933178,8.40585902 53.2151711,6.33998234 56.4735102,6.87797686 C59.6130001,7.39634783 61.7378369,10.36163 61.2194659,13.5011199 C61.2143576,13.5320581 61.2089968,13.5629541 61.2033841,13.5938048 L56.4608572,39.66131 C56.2631455,40.7480408 56.9838379,41.7892872 58.0705688,41.9869989 C58.4966705,42.0645206 58.9364231,42.0016318 59.3237168,41.8077867 L69.3986325,36.7651726 C72.4436763,35.2410922 76.1435543,36.1257668 78.1698127,38.8624418 C80.1582022,41.547971 79.7839842,45.3040699 77.3048242,47.5444997 L59.1730955,63.9302368 C52.5590561,69.9073784 43.825409,72.9844118 34.9253879,72.4731748 C26.3285349,71.9793524 18.661394,66.9006814 14.853233,59.1774922 L2.48631165,34.0966007 C1.08553799,31.2557439 2.11905512,27.8153455 4.85347494,26.2167267 C7.54784723,24.6415207 11.0074813,25.5155241 12.6304315,28.1814102 L18.3016748,37.4970931 L18.3016748,37.4970931 L13.8397134,14.192665 C13.2384522,11.0523311 15.2967773,8.01916897 18.4371112,7.41790776 C18.4571006,7.4140805 18.4771101,7.41035868 18.4971387,7.40674246 C21.7355158,6.82204496 24.8716163,8.85176536 25.6645154,12.0455512 L30.3884074,31.0733178 L30.3884074,31.0733178 L31.342813,5.88205708 C31.4672312,2.59807394 34.1656007,9.10098392e-13 37.4519398,9.09494702e-13 C40.7330789,9.08891966e-13 43.4221616,2.60378521 43.5278889,5.88322039 Z" id="路径备份-2" fill="#FED836"></path>
                                <path d="M43.5278889,5.88322039 L44.3698803,32 L44.3698803,32 L49.3147909,11.6152371 C50.0933178,8.40585902 53.2151711,6.33998234 56.4735102,6.87797686 C59.6130001,7.39634783 61.7378369,10.36163 61.2194659,13.5011199 C61.2143576,13.5320581 61.2089968,13.5629541 61.2033841,13.5938048 L56.4608572,39.66131 C56.2631455,40.7480408 56.9838379,41.7892872 58.0705688,41.9869989 C58.4966705,42.0645206 58.9364231,42.0016318 59.3237168,41.8077867 L69.3986325,36.7651726 C72.4436763,35.2410922 76.1435543,36.1257668 78.1698127,38.8624418 C80.1582022,41.547971 79.7839842,45.3040699 77.3048242,47.5444997 L59.1730955,63.9302368 C52.5590561,69.9073784 43.825409,72.9844118 34.9253879,72.4731748 C26.3285349,71.9793524 18.661394,66.9006814 14.853233,59.1774922 L2.48631165,34.0966007 C1.08553799,31.2557439 2.11905512,27.8153455 4.85347494,26.2167267 C7.54784723,24.6415207 11.0074813,25.5155241 12.6304315,28.1814102 L18.3016748,37.4970931 L18.3016748,37.4970931 L13.8397134,14.192665 C13.2384522,11.0523311 15.2967773,8.01916897 18.4371112,7.41790776 C18.4571006,7.4140805 18.4771101,7.41035868 18.4971387,7.40674246 C21.7355158,6.82204496 24.8716163,8.85176536 25.6645154,12.0455512 L30.3884074,31.0733178 L30.3884074,31.0733178 L31.342813,5.88205708 C31.4672312,2.59807394 34.1656007,6.03690713e-16 37.4519398,0 C40.7330789,-6.02735461e-16 43.4221616,2.60378521 43.5278889,5.88322039 Z" id="路径备份-2" stroke="#363940" stroke-width="3" fill="#FED836" stroke-linejoin="round"></path>
                                <circle id="椭圆形备份-4" fill="#363940" cx="30.5582198" cy="44" r="3"></circle>
                                <circle id="椭圆形备份-5" fill="#363940" cx="40.5582198" cy="44" r="3"></circle>
                                <path d="M27.5582198,50 C27.5582198,54.418278 31.1399418,58 35.5582198,58 C39.9764978,58 43.5582198,54.418278 43.5582198,50 L27.5582198,50 Z" id="路径备份-3" stroke="#363940" stroke-width="3" fill="#FFFFFF" stroke-linecap="round" stroke-linejoin="round"></path>
                            </g>
                            <g id="编组-19备份" transform="translate(9.030128, 11.910884)">
                                <g id="编组-17备份" transform="translate(64.000000, 9.797959) rotate(-345.000000) translate(-64.000000, -9.797959) translate(56.000000, 1.797959)">
                                    <path d="M16,16 C16,7.163444 8.836556,0 0,0" id="路径"></path>
                                    <path d="M9,16 C9,11.0294373 4.97056275,7 0,7" id="路径"></path>
                                </g>
                                <g id="编组-17备份" transform="translate(64.000000, 9.797959) rotate(-345.000000) translate(-64.000000, -9.797959) translate(56.000000, 1.797959)" stroke="#363940" stroke-linecap="round" stroke-linejoin="round" stroke-width="3">
                                    <path d="M16,16 C16,7.163444 8.836556,0 0,0" id="路径"></path>
                                    <path d="M9,16 C9,11.0294373 4.97056275,7 0,7" id="路径"></path>
                                </g>
                                <g id="编组-17备份-2" transform="translate(8.000000, 70.797959) rotate(-180.000000) translate(-8.000000, -70.797959) translate(0.000000, 62.797959)">
                                    <path d="M16,16 C16,7.163444 8.836556,0 0,0" id="路径"></path>
                                    <path d="M9,16 C9,11.0294373 4.97056275,7 0,7" id="路径"></path>
                                </g>
                                <g id="编组-17备份-2" transform="translate(8.000000, 70.797959) rotate(-180.000000) translate(-8.000000, -70.797959) translate(0.000000, 62.797959)" stroke="#363940" stroke-linecap="round" stroke-linejoin="round" stroke-width="3">
                                    <path d="M16,16 C16,7.163444 8.836556,0 0,0" id="路径"></path>
                                    <path d="M9,16 C9,11.0294373 4.97056275,7 0,7" id="路径"></path>
                                </g>
                            </g>
                        </g>
                    </g>
                </g>
            </g>
        </g>
    </g>
</svg>