<?xml version="1.0" encoding="UTF-8"?>
<svg xmlns:xlink="http://www.w3.org/1999/xlink" height="112px" version="1.1" viewBox="0 0 113 112" width="113px" xmlns="http://www.w3.org/2000/svg">
    <title>编组@2x</title>
    <g fill="none" fill-rule="evenodd" id="文件收发/服务器文档" stroke="none" stroke-width="1">
        <g id="文档详情页-文档被删除" transform="translate(-319.000000, -630.000000)">
            <g id="编组" transform="translate(319.500000, 630.000000)">
                <rect height="112" id="矩形" opacity="0.5" width="112" x="0" y="0"></rect>
                <path d="M102,34 C103.054362,34 103.918165,34.8158778 103.994514,35.8507377 L104,36 L104,98 C104,102.418278 100.418278,106 96,106 L16,106 C11.581722,106 8,102.418278 8,98 L8,36 L8.00548574,35.8507377 C8.08183488,34.8158778 8.9456382,34 10,34 C11.0543618,34 11.9181651,34.8158778 11.9945143,35.8507377 L12,36 L12,98 C12,100.142195 13.6839685,101.891079 15.8003597,101.995105 L16,102 L96,102 C98.1421954,102 99.8910789,100.316032 99.9951047,98.1996403 L100,98 L100,36 L100.005486,35.8507377 C100.081835,34.8158778 100.945638,34 102,34 Z M6,30 C4.8954305,30 4,29.1045695 4,28 L4,14 C4,9.581722 7.581722,6 12,6 L100,6 C104.418278,6 108,9.581722 108,14 L108,28 C108,29.1045695 107.104569,30 106,30 L6,30 Z M100,10 L12,10 C9.85780461,10 8.10892112,11.6839685 8.00489531,13.8003597 L8,14 L8,26 L104,26 L104,14 C104,11.8578046 102.316032,10.1089211 100.19964,10.0048953 L100,10 Z" fill="#5C6273" fill-rule="nonzero" id="形状结合"></path>
            </g>
        </g>
    </g>
</svg>