<?xml version="1.0" standalone="no"?><!DOCTYPE svg PUBLIC "-//W3C//DTD SVG 1.1//EN" "http://www.w3.org/Graphics/SVG/1.1/DTD/svg11.dtd"><svg t="1594967301974" class="icon" viewBox="0 0 1024 1024" version="1.1" xmlns="http://www.w3.org/2000/svg" p-id="9044" xmlns:xlink="http://www.w3.org/1999/xlink" width="200" height="200"><path d="M213.328 42.672A42.672 42.672 0 0 1 256 85.328c0 115.68 92.896 210.208 207.968 213.264l4.944 0.08h108.368c50.096 0 78.272 25.056 95.52 42.176L838.64 507.04a42.592 42.592 0 0 1-0.032 60.192 42.544 42.544 0 0 1-58.032 2l-2.128-2L640 428.8V896a42.672 42.672 0 0 1-85.248 2.704L554.672 896V682.672h-85.344V896a42.672 42.672 0 0 1-85.248 2.704L384 896V371.632c-121.44-36.56-210.592-148.032-213.28-280.192l-0.048-6.112 0.08-2.688a42.672 42.672 0 0 1 42.576-39.968zM512 85.328A85.328 85.328 0 1 1 512 256a85.328 85.328 0 0 1 0-170.672z" p-id="9045"></path></svg>