<?xml version="1.0" encoding="UTF-8"?>
<svg width="32px" height="32px" viewBox="0 0 32 32" version="1.1" xmlns="http://www.w3.org/2000/svg" xmlns:xlink="http://www.w3.org/1999/xlink">
    <title>icon_视频窗控制_视频_启用</title>
    <g id="页面-1" stroke="none" stroke-width="1" fill="none" fill-rule="evenodd">
        <g id="视频窗状态" transform="translate(-215.000000, -1130.000000)">
            <g id="icon_视频窗控制_视频_启用" transform="translate(215.000000, 1130.000000)">
                <rect id="矩形" x="0" y="0" width="32" height="32"></rect>
                <path d="M20.6666667,5.33333333 C21.4030463,5.33333333 22,5.930287 22,6.66666667 L22,25.3333333 C22,26.069713 21.4030463,26.6666667 20.6666667,26.6666667 L2,26.6666667 C1.26362033,26.6666667 0.666666667,26.069713 0.666666667,25.3333333 L0.666666667,6.66666667 C0.666666667,5.930287 1.26362033,5.33333333 2,5.33333333 L20.6666667,5.33333333 Z M31.1433239,9.66892616 C31.2676562,9.8761467 31.3333333,10.1132619 31.3333333,10.3549205 L31.3333333,21.6450795 C31.3333333,22.3814592 30.7363797,22.9784128 30,22.9784128 C29.7583414,22.9784128 29.5212262,22.9127357 29.3140057,22.7884034 L24.6666667,20 L24.6666667,12 L29.3140057,9.2115966 C29.945446,8.83273239 30.7644597,9.03748581 31.1433239,9.66892616 Z M10,10.6666667 L6,10.6666667 L6,14.6666667 L10,14.6666667 L10,10.6666667 Z" id="形状结合" fill="#FFFFFF"></path>
            </g>
        </g>
    </g>
</svg>