<?xml version="1.0" encoding="UTF-8"?>
<svg width="32px" height="32px" viewBox="0 0 32 32" version="1.1" xmlns="http://www.w3.org/2000/svg" xmlns:xlink="http://www.w3.org/1999/xlink">
    <title>icon_视频窗控制_上页_启用</title>
    <g id="页面-1" stroke="none" stroke-width="1" fill="none" fill-rule="evenodd">
        <g id="视频窗状态" transform="translate(-311.000000, -1051.000000)">
            <g id="icon_视频窗控制_上页_启用" transform="translate(311.000000, 1051.000000)">
                <rect id="矩形" opacity="0.5" x="0" y="0" width="32" height="32"></rect>
                <path d="M19.117291,3.26192881 C19.3776405,3.00157928 19.7997505,3.00157928 20.0601,3.26192881 L20.0601,3.26192881 L21.002909,4.20473785 C21.2632586,4.46508738 21.2632586,4.88719737 21.002909,5.1475469 L21.002909,5.1475469 L10.1504978,15.9996667 L21.002909,26.8517797 C21.2632586,27.1121292 21.2632586,27.5342392 21.002909,27.7945887 L20.0601,28.7373978 C19.7997505,28.9977473 19.3776405,28.9977473 19.117291,28.7373978 L6.86077342,16.4808802 C6.72830145,16.3484083 6.66323434,16.1740563 6.66557208,16.0004434 C6.66298385,15.8259423 6.7280462,15.6511736 6.86077342,15.5184464 L6.86077342,15.5184464 Z" id="形状结合" fill="#FFFFFF"></path>
            </g>
        </g>
    </g>
</svg>