<?xml version="1.0" encoding="UTF-8"?>
<svg width="24px" height="24px" viewBox="0 0 24 24" version="1.1" xmlns="http://www.w3.org/2000/svg" xmlns:xlink="http://www.w3.org/1999/xlink">
    <title>昵称</title>
    <g id="页面-1" stroke="none" stroke-width="1" fill="none" fill-rule="evenodd">
        <g id="视频窗状态" transform="translate(-395.000000, -667.000000)">
            <rect fill="#181D4D" x="0" y="0" width="750" height="1624"></rect>
            <g id="全关权限" transform="translate(383.000000, 539.000000)">
                <g id="毛玻璃背板">
                    <rect id="模糊" x="0" y="0" width="160" height="160" rx="16"></rect>
                    <rect id="背板" fill="#000000" opacity="0.5" x="0" y="0" width="160" height="160" rx="16"></rect>
                </g>
                <g id="昵称" transform="translate(4.000000, 124.000000)">
                    <path d="M12,0 L105,0 C111.627417,-1.21743675e-15 117,5.372583 117,12 L117,20 C117,26.627417 111.627417,32 105,32 L12,32 C5.372583,32 -2.74108918e-15,26.627417 0,20 L0,12 C-8.11624501e-16,5.372583 5.372583,1.21743675e-15 12,0 Z" id="矩形" fill="#1F2126" opacity="0.75"></path>
                    <g id="icon_视频位_关闭麦克风" transform="translate(8.000000, 4.000000)">
                        <polygon id="路径" points="0 0 24 0 24 24 0 24"></polygon>
                        <path d="M19,10.5 C19.5128358,10.5 19.9355072,10.8860402 19.9932723,11.3833789 L20,11.5 C20,15.5792885 16.9468043,18.945465 13.0009551,19.4379871 L13,22.5 C13,22.7761424 12.7761424,23 12.5,23 L11.5,23 C11.2238576,23 11,22.7761424 11,22.5 L11.0000487,19.4381123 C10.3871073,19.3616834 9.79569952,19.2159142 9.23392283,19.0089021 L10.8534218,17.3905789 C11.2245551,17.4623858 11.6078849,17.5 12,17.5 C15.2627284,17.5 17.9171964,14.8957278 17.9981001,11.6524874 L18,11.5 C18.0005467,10.9471688 18.4480524,10.5 19,10.5 Z M5,10.5 C5.55228475,10.5 6,10.9477153 6,11.5 L5.99998168,11.5061171 C5.99998543,12.1819329 6.112135,12.8318108 6.31886836,13.4381365 L4.78927026,14.9691264 C4.28346305,13.9197032 4,12.7429548 4,11.5 L4.00672773,11.3833789 C4.06449284,10.8860402 4.48716416,10.5 5,10.5 Z M13.6650425,14.5793405 L15.0793405,13.1650425 C14.7554895,13.7627128 14.2627128,14.2554895 13.6650425,14.5793405 Z M12,1 C13.8542449,1 15.3717108,2.44192254 15.4922784,4.26564851 L8.5,11.257 L8.5,4.5 C8.5,2.56700338 10.0670034,1 12,1 Z" id="形状结合" fill="#FFFFFF" fill-rule="nonzero"></path>
                        <rect id="矩形" fill="#F24848" fill-rule="nonzero" transform="translate(12.000000, 12.000000) rotate(-315.000000) translate(-12.000000, -12.000000) " x="11" y="-0.5" width="2" height="25" rx="0.5"></rect>
                    </g>
                </g>
            </g>
        </g>
    </g>
</svg>