<?xml version="1.0" encoding="UTF-8"?>
<svg width="32px" height="32px" viewBox="0 0 32 32" version="1.1" xmlns="http://www.w3.org/2000/svg" xmlns:xlink="http://www.w3.org/1999/xlink">
    <title>icon_视频窗控制_展开</title>
    <g id="页面-1" stroke="none" stroke-width="1" fill="none" fill-rule="evenodd">
        <g id="视频窗状态" transform="translate(-503.000000, -1130.000000)">
            <g id="icon_视频窗控制_展开" transform="translate(503.000000, 1130.000000)">
                <rect id="矩形" x="0" y="0" width="32" height="32"></rect>
                <path d="M12.2426407,18.8145503 L13.1854497,19.7573593 C13.4457993,20.0177088 13.4457993,20.4398188 13.1854497,20.7001684 L7.21766667,26.6666667 L12.6666667,26.6666667 C13.0348565,26.6666667 13.3333333,26.9651435 13.3333333,27.3333333 L13.3333333,28.6666667 C13.3333333,29.0348565 13.0348565,29.3333333 12.6666667,29.3333333 L3.33333333,29.3333333 C2.9651435,29.3333333 2.66666667,29.0348565 2.66666667,28.6666667 L2.66666667,19.3333333 C2.66666667,18.9651435 2.9651435,18.6666667 3.33333333,18.6666667 L4.66666667,18.6666667 C5.0348565,18.6666667 5.33333333,18.9651435 5.33333333,19.3333333 L5.33266667,24.7806667 L11.2998316,18.8145503 C11.5601812,18.5542007 11.9822912,18.5542007 12.2426407,18.8145503 Z M28.6666667,2.66666667 C29.0348565,2.66666667 29.3333333,2.9651435 29.3333333,3.33333333 L29.3333333,12.6666667 C29.3333333,13.0348565 29.0348565,13.3333333 28.6666667,13.3333333 L27.3333333,13.3333333 C26.9651435,13.3333333 26.6666667,13.0348565 26.6666667,12.6666667 L26.6666667,7.21766667 L20.7001684,13.1854497 C20.4398188,13.4457993 20.0177088,13.4457993 19.7573593,13.1854497 L18.8145503,12.2426407 C18.5542007,11.9822912 18.5542007,11.5601812 18.8145503,11.2998316 L24.7806667,5.33266667 L19.3333333,5.33333333 C18.9651435,5.33333333 18.6666667,5.0348565 18.6666667,4.66666667 L18.6666667,3.33333333 C18.6666667,2.9651435 18.9651435,2.66666667 19.3333333,2.66666667 L28.6666667,2.66666667 Z" id="形状结合" fill="#FFFFFF"></path>
            </g>
        </g>
    </g>
</svg>