<?xml version="1.0" standalone="no"?><!DOCTYPE svg PUBLIC "-//W3C//DTD SVG 1.1//EN" "http://www.w3.org/Graphics/SVG/1.1/DTD/svg11.dtd"><svg class="icon" width="200px" height="200.00px" viewBox="0 0 1024 1024" version="1.1" xmlns="http://www.w3.org/2000/svg"><path d="M938.666667 128a42.666667 42.666667 0 0 1 42.666666 42.666667v298.666666h-85.333333V213.333333H128v597.333334h341.333333v85.333333H85.333333a42.666667 42.666667 0 0 1-42.666666-42.666667V170.666667a42.666667 42.666667 0 0 1 42.666666-42.666667h853.333334z m0 426.666667a42.666667 42.666667 0 0 1 42.666666 42.666666v256a42.666667 42.666667 0 0 1-42.666666 42.666667H597.333333a42.666667 42.666667 0 0 1-42.666666-42.666667V597.333333a42.666667 42.666667 0 0 1 42.666666-42.666666h341.333334z m-42.666667 85.333333H640v170.666667h256v-170.666667zM272.725333 297.962667l2.026667 1.770666 109.226667 109.226667L384 320a21.333333 21.333333 0 0 1 21.333333-21.333333h42.666667a21.333333 21.333333 0 0 1 21.333333 21.333333v213.333333a21.333333 21.333333 0 0 1-18.837333 21.184L448 554.666667H234.666667a21.333333 21.333333 0 0 1-21.333334-21.333334v-42.666666a21.333333 21.333333 0 0 1 21.333334-21.333334h88.96l-109.226667-109.248a21.333333 21.333333 0 0 1-1.770667-28.16l1.770667-2.026666 30.165333-30.165334a21.333333 21.333333 0 0 1 28.16-1.770666z" fill="#ffffff" /></svg>