<?xml version="1.0" encoding="UTF-8"?>
<svg width="32px" height="32px" viewBox="0 0 32 32" version="1.1" xmlns="http://www.w3.org/2000/svg" xmlns:xlink="http://www.w3.org/1999/xlink">
    <title>icon_视频窗控制_视频_禁用</title>
    <g id="页面-1" stroke="none" stroke-width="1" fill="none" fill-rule="evenodd">
        <g id="视频窗状态" transform="translate(-215.000000, -1051.000000)">
            <g id="icon_视频窗控制_视频_禁用" transform="translate(215.000000, 1051.000000)">
                <rect id="矩形" x="0" y="0" width="32" height="32"></rect>
                <path d="M21.9996667,15.6563333 L22,25.3333333 C22,26.069713 21.4030463,26.6666667 20.6666667,26.6666667 L10.9896667,26.6663333 L21.9996667,15.6563333 Z M20.6666667,5.33333333 C20.7722729,5.33333333 20.8750115,5.34561101 20.973533,5.36881683 L1.85786438,24.4852814 C1.38199026,24.9611555 1.08007934,25.5451165 0.952131607,26.1581386 C0.773554708,25.9315663 0.666666667,25.6449323 0.666666667,25.3333333 L0.666666667,6.66666667 C0.666666667,5.930287 1.26362033,5.33333333 2,5.33333333 L20.6666667,5.33333333 Z M31.1433239,9.66892616 C31.2676562,9.8761467 31.3333333,10.1132619 31.3333333,10.3549205 L31.3333333,21.6450795 C31.3333333,22.3814592 30.7363797,22.9784128 30,22.9784128 C29.7583414,22.9784128 29.5212262,22.9127357 29.3140057,22.7884034 L24.6666667,20 L24.6666667,12.9893333 L27.1416667,10.5143333 L29.3140057,9.2115966 C29.945446,8.83273239 30.7644597,9.03748581 31.1433239,9.66892616 Z M10,10.6666667 L6,10.6666667 L6,14.6666667 L10,14.6666667 L10,10.6666667 Z" id="形状结合" fill="#FFFFFF" fill-rule="nonzero"></path>
                <rect id="矩形" fill="#F24848" fill-rule="nonzero" transform="translate(16.000000, 16.000000) rotate(-315.000000) translate(-16.000000, -16.000000) " x="14.6666667" y="-0.666666667" width="2.66666667" height="33.3333333" rx="0.666666667"></rect>
            </g>
        </g>
    </g>
</svg>