<?xml version="1.0" standalone="no"?><!DOCTYPE svg PUBLIC "-//W3C//DTD SVG 1.1//EN" "http://www.w3.org/Graphics/SVG/1.1/DTD/svg11.dtd"><svg class="icon" width="200px" height="200.00px" viewBox="0 0 1024 1024" version="1.1" xmlns="http://www.w3.org/2000/svg"><path d="M750.890667 687.04c72.490667 7.530667 126.144 24.042667 165.717333 43.946667l5.546667 2.88 8.362666 4.586666c6.101333 3.456 11.818667 7.018667 17.152 10.624l5.248 3.626667 6.613334 4.842667 3.136 2.453333 3.050666 2.453333 5.824 4.906667 2.773334 2.474667 2.645333 2.453333 5.056 4.906667 4.693333 4.906666 2.24 2.432 2.133334 2.410667 4.010666 4.8 3.712 4.736 3.370667 4.672 3.093333 4.565333 2.816 4.458667 2.517334 4.330667 3.306666 6.250666 1.92 3.968 1.642667 3.797334 2.090667 5.333333 1.642666 4.885333 1.216 4.352 0.853334 3.818667 0.490666 3.2 0.213334 2.538667L1024 981.333333l-0.106667 3.2a42.666667 42.666667 0 0 1-39.210666 39.338667L981.333333 1024h-135.296c2.986667-8.384 5.098667-17.194667 6.250667-26.304l0.704-6.890667 0.170667-3.242666 0.106666-3.2L853.333333 981.333333v-42.688H938.666667V861.226667l-1.258667-2.624-2.346667-4.245334c-5.226667-8.682667-13.44-18.026667-25.28-27.370666-18.133333-14.336-41.856-26.666667-71.722666-36.266667l-1.28-2.816-1.898667-3.968-1.578667-3.136-3.306666-6.250667-1.706667-3.072-2.538667-4.330666-1.472-2.432-4.373333-6.848-3.072-4.565334-5.056-7.018666-1.749333-2.304-3.690667-4.736-1.834667-2.261334-5.44-6.464-5.333333-5.952-6.186667-6.485333-7.146666-6.997333-4.266667-3.968-3.84-3.456-7.466667-6.357334-4.736-3.84-4.266666-3.328-4.096-3.008-0.853334-0.085333zM448 682.666667c2.581333 0 5.056 0.469333 7.338667 1.28l11.626666 0.704 11.306667 0.853333 16.618667 1.536c72.490667 7.530667 126.144 24.042667 165.717333 43.946667l5.546667 2.88 8.362666 4.586666c6.101333 3.456 11.818667 7.018667 17.152 10.624l5.248 3.626667 6.613334 4.842667 3.136 2.453333 3.050666 2.453333 5.824 4.906667 2.773334 2.474667 2.645333 2.453333 5.056 4.906667 4.693333 4.906666 2.24 2.432 2.133334 2.410667 4.010666 4.8 3.712 4.736 3.370667 4.672 3.093333 4.565333 2.816 4.458667 2.517334 4.330667 3.306666 6.250666 1.92 3.968 1.642667 3.797334 2.090667 5.333333 1.642666 4.885333 1.216 4.352 0.853334 3.818667 0.490666 3.2 0.213334 2.538667L768 981.333333l-0.106667 3.2a42.666667 42.666667 0 0 1-39.210666 39.338667L725.333333 1024H128a42.666667 42.666667 0 0 1-42.56-39.466667L85.333333 981.333333v-128.682666l0.213334-2.56 0.533333-3.2 0.853333-3.797334 1.194667-4.352 1.642667-4.885333 2.090666-5.333333 1.664-3.797334 1.898667-3.968 3.306667-6.250666 2.517333-4.330667 2.816-4.48 3.093333-4.544 3.392-4.672 3.690667-4.736 4.010667-4.8c1.408-1.6 2.858667-3.221333 4.373333-4.842667l4.693333-4.906666 5.056-4.906667c1.749333-1.642667 3.562667-3.285333 5.44-4.906667l5.802667-4.928c2.005333-1.642667 4.053333-3.264 6.186667-4.906666l6.613333-4.864c6.826667-4.842667 14.293333-9.6 22.4-14.229334l8.362667-4.586666c40.042667-21.184 95.317333-38.954667 171.285333-46.826667l16.576-1.536c7.466667-0.618667 15.104-1.130667 22.933333-1.536 1.536-0.554667 3.157333-0.96 4.821334-1.152L405.333333 682.666667H448z m-21.333333 85.333333v0.234667c-111.488 2.56-184.618667 25.173333-227.114667 58.752-11.861333 9.344-20.053333 18.688-25.301333 27.370666l-2.346667 4.245334-1.258667 2.624v77.418666h256V938.666667h0.042667v-0.021334h256V861.226667l-1.258667-2.624-2.346666-4.245334c-5.226667-8.682667-13.44-18.026667-25.28-27.370666-41.173333-32.533333-111.104-54.784-216.789334-58.453334l-10.325333-0.298666L426.666667 768z m124.586666-444.778667a192 192 0 1 1-333.162666 82.133334h89.450666a106.666667 106.666667 0 1 0 182.336-22.4 171.434667 171.434667 0 0 0 61.376-59.733334zM661.333333 256a192 192 0 0 1 4.565334 383.957333 489.173333 489.173333 0 0 0-46.293334-15.872 277.248 277.248 0 0 0 41.813334-69.397333A106.688 106.688 0 0 0 661.376 341.333333a277.12 277.12 0 0 0-49.877333-78.805333A191.744 191.744 0 0 1 661.333333 256zM405.333333 0a85.333333 85.333333 0 0 1 85.333334 85.333333v149.333334c0 21.76-8.149333 41.621333-21.546667 56.704l-0.426667 0.426666a73.109333 73.109333 0 0 1-2.709333 2.88l-0.789333 0.789334a73.024 73.024 0 0 1-2.56 2.432l-0.746667 0.64a84.906667 84.906667 0 0 1-10.986667 8.298666l-0.576 0.341334a80.085333 80.085333 0 0 1-11.008 5.781333 85.013333 85.013333 0 0 1-25.514666 6.613333l-4.202667 0.32L405.333333 320H128l-42.666667 106.666667-85.333333-106.666667V85.333333a85.333333 85.333333 0 0 1 85.333333-85.333333h320zM128 128H106.666667a21.333333 21.333333 0 0 0-21.184 18.837333L85.333333 149.333333v21.333334a21.333333 21.333333 0 0 0 18.837334 21.184L106.666667 192h21.333333a21.333333 21.333333 0 0 0 21.184-18.837333L149.333333 170.666667V149.333333a21.333333 21.333333 0 0 0-21.333333-21.333333z m128 0h-21.333333a21.333333 21.333333 0 0 0-21.184 18.837333L213.333333 149.333333v21.333334a21.333333 21.333333 0 0 0 18.837334 21.184L234.666667 192h21.333333a21.333333 21.333333 0 0 0 21.184-18.837333L277.333333 170.666667V149.333333a21.333333 21.333333 0 0 0-21.333333-21.333333z m128 0h-21.333333a21.333333 21.333333 0 0 0-21.184 18.837333L341.333333 149.333333v21.333334a21.333333 21.333333 0 0 0 18.837334 21.184L362.666667 192h21.333333a21.333333 21.333333 0 0 0 21.184-18.837333L405.333333 170.666667V149.333333a21.333333 21.333333 0 0 0-21.333333-21.333333z" fill="#ffffff" /></svg>