<?xml version="1.0" encoding="UTF-8"?>
<svg width="32px" height="32px" viewBox="0 0 32 32" version="1.1" xmlns="http://www.w3.org/2000/svg" xmlns:xlink="http://www.w3.org/1999/xlink">
    <title>icon_视频窗控制_收起</title>
    <g id="页面-1" stroke="none" stroke-width="1" fill="none" fill-rule="evenodd">
        <g id="视频窗状态" transform="translate(-503.000000, -1051.000000)">
            <g id="icon_视频窗控制_收起" transform="translate(503.000000, 1051.000000)">
                <rect id="矩形" x="0" y="0" width="32" height="32"></rect>
                <path d="M13.3333333,18 C13.7015232,18 14,18.2984768 14,18.6666667 L14,28 C14,28.3681898 13.7015232,28.6666667 13.3333333,28.6666667 L12,28.6666667 C11.6318102,28.6666667 11.3333333,28.3681898 11.3333333,28 L11.3314305,22.5534305 L5.17157288,28.7140452 C4.65087382,29.2347443 3.80665385,29.2347443 3.28595479,28.7140452 C2.76525574,28.1933462 2.76525574,27.3491262 3.28595479,26.8284271 L9.4484305,20.6654305 L4,20.6666667 C3.63181017,20.6666667 3.33333333,20.3681898 3.33333333,20 L3.33333333,18.6666667 C3.33333333,18.2984768 3.63181017,18 4,18 L13.3333333,18 Z M28.7140452,3.28595479 C29.2347443,3.80665385 29.2347443,4.65087382 28.7140452,5.17157288 L22.5524305,11.3324305 L28,11.3333333 C28.3681898,11.3333333 28.6666667,11.6318102 28.6666667,12 L28.6666667,13.3333333 C28.6666667,13.7015232 28.3681898,14 28,14 L18.6666667,14 C18.2984768,14 18,13.7015232 18,13.3333333 L18,4 C18,3.63181017 18.2984768,3.33333333 18.6666667,3.33333333 L20,3.33333333 C20.3681898,3.33333333 20.6666667,3.63181017 20.6666667,4 L20.6654305,9.4484305 L26.8284271,3.28595479 C27.3491262,2.76525574 28.1933462,2.76525574 28.7140452,3.28595479 Z" id="形状结合" fill="#FFFFFF"></path>
            </g>
        </g>
    </g>
</svg>