<?xml version="1.0" encoding="UTF-8"?>
<svg width="56px" height="56px" viewBox="0 0 56 56" version="1.1" xmlns="http://www.w3.org/2000/svg" xmlns:xlink="http://www.w3.org/1999/xlink">
    <title>编组 9</title>
    <g id="邀请链接" stroke="none" stroke-width="1" fill="none" fill-rule="evenodd">
        <g id="生成海报备份-4" transform="translate(-196.000000, -1344.000000)" fill="#06C160" fill-rule="nonzero">
            <g id="编组-14备份" transform="translate(0.000000, 1268.000000)">
                <g id="分享外部渠道" transform="translate(0.000000, 16.000000)">
                    <g id="微信" transform="translate(196.000000, 60.000000)">
                        <g id="微信LOGO_轮廓@2x" transform="translate(0.000000, 5.358491)">
                            <path d="M40.0377358,14.216811 C39.5068525,14.1764201 38.9691675,14.1557828 38.4257355,14.1557828 C28.6971473,14.1557828 20.8105684,20.7697286 20.8105684,28.9284443 C20.8105684,30.6108455 21.1459229,32.2275598 21.7636305,33.7341382 C21.2295594,33.7697562 20.6896222,33.7879059 20.1446302,33.7879059 C17.4990625,33.7879059 15.7996457,33.3130996 13.4852483,32.5356723 C12.891659,32.363159 10.9291205,33.3538422 7.59763264,35.5077217 C7.3521526,35.6296195 7.10471136,35.607131 6.85530898,35.4402563 C6.60590657,35.2733816 6.53948943,35.0188895 6.65605758,34.67678 C7.55234925,31.7569675 7.80712679,30.1363562 7.42039026,29.8149462 C2.68992562,26.7235364 0,22.3129755 0,16.8939529 C0,7.56368038 9.01905815,0 20.1446302,0 C30.1838846,0 38.5079083,6.15873309 40.0377358,14.216811 Z M13.4852483,14.3140882 C15.0483452,14.3140882 16.3154856,13.0472649 16.3154856,11.4845591 C16.3154856,9.9218534 15.0483452,8.65503008 13.4852483,8.65503008 C11.9221514,8.65503008 10.655011,9.9218534 10.655011,11.4845591 C10.655011,13.0472649 11.9221514,14.3140882 13.4852483,14.3140882 Z M26.9704966,14.3140882 C28.5335935,14.3140882 29.8007339,13.0472649 29.8007339,11.4845591 C29.8007339,9.9218534 28.5335935,8.65503008 26.9704966,8.65503008 C25.4073997,8.65503008 24.1402593,9.9218534 24.1402593,11.4845591 C24.1402593,13.0472649 25.4073997,14.3140882 26.9704966,14.3140882 Z" id="Combined-Shape"></path>
                            <path d="M39.1509434,43.7775789 C36.938179,43.7775789 35.5167794,43.3798091 33.5810073,42.7285177 C33.0845267,42.5839947 31.4430509,43.4139411 28.6565799,45.2183577 C28.4512593,45.3204781 28.2442984,45.3016381 28.0356971,45.1618385 C27.8270958,45.0220389 27.7715443,44.8088377 27.8690424,44.5222351 C28.6187046,42.0761566 28.8318017,40.7184864 28.5083336,40.4492245 C24.5517523,37.8593902 22.3018868,34.1644347 22.3018868,29.6246385 C22.3018868,21.8081854 29.8454664,15.4716981 39.1509434,15.4716981 C48.4564204,15.4716981 56,21.8081854 56,29.6246385 C56,37.4410917 48.4564204,43.7775789 39.1509434,43.7775789 Z M33.5810073,27.4633521 C34.8883884,27.4633521 35.9482302,26.4020685 35.9482302,25.0929088 C35.9482302,23.7837492 34.8883884,22.7224656 33.5810073,22.7224656 C32.2736263,22.7224656 31.2137845,23.7837492 31.2137845,25.0929088 C31.2137845,26.4020685 32.2736263,27.4633521 33.5810073,27.4633521 Z M44.8601279,27.4633521 C46.1675091,27.4633521 47.2273506,26.4020685 47.2273506,25.0929088 C47.2273506,23.7837492 46.1675091,22.7224656 44.8601279,22.7224656 C43.5527468,22.7224656 42.4929049,23.7837492 42.4929049,25.0929088 C42.4929049,26.4020685 43.5527468,27.4633521 44.8601279,27.4633521 Z" id="Combined-Shape-Copy-4" transform="translate(39.150943, 30.377358) scale(-1, 1) translate(-39.150943, -30.377358) "></path>
                        </g>
                    </g>
                </g>
            </g>
        </g>
    </g>
</svg>