<?xml version="1.0" standalone="no"?><!DOCTYPE svg PUBLIC "-//W3C//DTD SVG 1.1//EN" "http://www.w3.org/Graphics/SVG/1.1/DTD/svg11.dtd"><svg t="1588930263658" class="icon" viewBox="0 0 1024 1024" version="1.1" xmlns="http://www.w3.org/2000/svg" p-id="3797" xmlns:xlink="http://www.w3.org/1999/xlink" width="48" height="48"><path d="M921.962667 472.064a32.362667 32.362667 0 1 1-61.738667-19.370667 163.2 163.2 0 0 0-33.28-158.016 158.186667 158.186667 0 0 0-151.978667-49.642666c-8.469333 1.813333-16.938667 0-24.213333-4.842667a36.992 36.992 0 0 1-14.506667-21.781333 32.085333 32.085333 0 0 1 24.810667-38.741334c75.669333-16.362667 157.994667 7.253333 213.696 70.208 55.68 61.76 70.826667 147.114667 47.210667 222.186667z" fill="#FF9933" p-id="3798"></path><path d="M696.768 349.162667c-7.253333 1.813333-14.506667 0-21.184-3.626667a30.08 30.08 0 0 1-12.117333-17.557333c-3.008-15.146667 6.058667-30.272 21.205333-33.28 38.122667-8.490667 78.08 4.821333 104.106667 33.877333 27.264 30.293333 34.517333 72.042667 23.018666 108.373333-2.432 7.253333-7.253333 13.312-13.930666 16.341334a28.522667 28.522667 0 0 1-39.338667-34.496 55.146667 55.146667 0 0 0-10.901333-53.290667 51.946667 51.946667 0 0 0-50.858667-16.341333z" fill="#FF9933" p-id="3799"></path><path d="M721.6 509.589333c48.426667 15.146667 102.912 52.053333 102.912 117.461334 0 107.733333-153.173333 243.968-383.808 243.968C265.130667 871.018667 85.333333 784.426667 85.333333 642.176c0-74.453333 46.613333-160.426667 126.506667-241.557333 106.56-108.373333 231.274667-157.397333 277.888-110.165334 20.586667 21.184 22.4 57.514667 9.685333 100.48-7.253333 22.4 19.370667 10.304 19.370667 10.304 86.570667-36.928 161.642667-38.741333 188.885333 1.216 14.528 21.184 13.312 50.837333-0.597333 85.333334-5.461333 15.765333 2.410667 18.176 14.506667 21.802666z" fill="#E6162D" p-id="3800"></path><path d="M440.704 819.562667c140.437333-13.930667 246.997333-101.12 237.312-194.944-8.490667-93.226667-129.557333-157.397333-270.016-143.466667-140.437333 13.909333-246.4 101.098667-237.312 194.922667 9.088 93.226667 130.154667 157.397333 270.016 143.488z" fill="#FFFFFF" p-id="3801"></path><path d="M455.232 553.173333c69.013333 18.176 104.106667 84.16 76.266667 148.330667-28.458667 65.984-110.784 100.48-181.013334 77.482667-67.797333-21.781333-96.256-89.6-66.581333-150.741334 29.056-58.709333 104.106667-92.608 171.306667-75.072z" fill="#1A1A1A" p-id="3802"></path><path d="M403.776 708.757333c13.312-22.4 6.037333-47.808-15.744-56.896-21.205333-9.088-49.642667 0-62.976 21.184-13.312 21.184-7.253333 47.232 14.549333 56.917334 21.781333 10.282667 50.837333 0.597333 64.170667-21.205334z" fill="#FFFFFF" p-id="3803"></path></svg>