<?xml version="1.0" standalone="no"?><!DOCTYPE svg PUBLIC "-//W3C//DTD SVG 1.1//EN" "http://www.w3.org/Graphics/SVG/1.1/DTD/svg11.dtd"><svg xmlns:xlink="http://www.w3.org/1999/xlink" class="icon" height="200" p-id="6987" t="1642226442616" version="1.1" viewBox="0 0 1024 1024" width="200" xmlns="http://www.w3.org/2000/svg"><defs><style type="text/css"></style></defs><path d="M533.333333 128a21.333333 21.333333 0 0 1 21.333334 21.333333v320h320a21.333333 21.333333 0 0 1 21.333333 21.333334v42.666666a21.333333 21.333333 0 0 1-21.333333 21.333334H554.666667v320a21.333333 21.333333 0 0 1-21.333334 21.333333h-42.666666a21.333333 21.333333 0 0 1-21.333334-21.333333V554.666667H149.333333a21.333333 21.333333 0 0 1-21.333333-21.333334v-42.666666a21.333333 21.333333 0 0 1 21.333333-21.333334h320V149.333333a21.333333 21.333333 0 0 1 21.333334-21.333333h42.666666z" fill="#1F2126" p-id="6988"></path></svg>