<?xml version="1.0" encoding="UTF-8"?>
<svg width="132px" height="34px" viewBox="0 0 132 34" version="1.1" xmlns="http://www.w3.org/2000/svg" xmlns:xlink="http://www.w3.org/1999/xlink">
    <!-- Generator: Sketch 61.1 (89650) - https://sketch.com -->
    <title>4</title>
    <desc>Created with Sketch.</desc>
    <g id="页面-1" stroke="none" stroke-width="1" fill="none" fill-rule="evenodd">
        <g id="画板" transform="translate(-213.000000, -236.000000)" fill="#FFFFFF">
            <path d="M216,244 C217.656854,244 219,245.343146 219,247 L219,267 C219,268.656854 217.656854,270 216,270 C214.343146,270 213,268.656854 213,267 L213,247 C213,245.343146 214.343146,244 216,244 Z M230,240 C231.656854,240 233,241.343146 233,243 L233,267 C233,268.656854 231.656854,270 230,270 C228.343146,270 227,268.656854 227,267 L227,243 C227,241.343146 228.343146,240 230,240 Z M244,252 C245.656854,252 247,253.343146 247,255 L247,267 C247,268.656854 245.656854,270 244,270 C242.343146,270 241,268.656854 241,267 L241,255 C241,253.343146 242.343146,252 244,252 Z M258,236 C259.656854,236 261,237.343146 261,239 L261,267 C261,268.656854 259.656854,270 258,270 C256.343146,270 255,268.656854 255,267 L255,239 C255,237.343146 256.343146,236 258,236 Z M272,249 C273.656854,249 275,250.343146 275,252 L275,267 C275,268.656854 273.656854,270 272,270 C270.343146,270 269,268.656854 269,267 L269,252 C269,250.343146 270.343146,249 272,249 Z M286,257 C287.656854,257 289,258.343146 289,260 L289,267 C289,268.656854 287.656854,270 286,270 C284.343146,270 283,268.656854 283,267 L283,260 C283,258.343146 284.343146,257 286,257 Z M300,253 C301.656854,253 303,254.343146 303,256 L303,267 C303,268.656854 301.656854,270 300,270 C298.343146,270 297,268.656854 297,267 L297,256 C297,254.343146 298.343146,253 300,253 Z M314,247 C315.656854,247 317,248.343146 317,250 L317,267 C317,268.656854 315.656854,270 314,270 C312.343146,270 311,268.656854 311,267 L311,250 C311,248.343146 312.343146,247 314,247 Z M328,257 C329.656854,257 331,258.343146 331,260 L331,267 C331,268.656854 329.656854,270 328,270 C326.343146,270 325,268.656854 325,267 L325,260 C325,258.343146 326.343146,257 328,257 Z M342,244 C343.656854,244 345,245.343146 345,247 L345,267 C345,268.656854 343.656854,270 342,270 C340.343146,270 339,268.656854 339,267 L339,247 C339,245.343146 340.343146,244 342,244 Z" id="4"></path>
        </g>
    </g>
</svg>