<?xml version="1.0" encoding="UTF-8"?>
<svg width="132px" height="30px" viewBox="0 0 132 30" version="1.1" xmlns="http://www.w3.org/2000/svg" xmlns:xlink="http://www.w3.org/1999/xlink">
    <!-- Generator: Sketch 61.1 (89650) - https://sketch.com -->
    <title>5</title>
    <desc>Created with Sketch.</desc>
    <g id="页面-1" stroke="none" stroke-width="1" fill="none" fill-rule="evenodd">
        <g id="画板" transform="translate(-59.000000, -240.000000)" fill="#FFFFFF">
            <path d="M62,262 C63.6568542,262 65,263.343146 65,265 L65,267 C65,268.656854 63.6568542,270 62,270 C60.3431458,270 59,268.656854 59,267 L59,265 C59,263.343146 60.3431458,262 62,262 Z M76,240 C77.6568542,240 79,241.343146 79,243 L79,267 C79,268.656854 77.6568542,270 76,270 C74.3431458,270 73,268.656854 73,267 L73,243 C73,241.343146 74.3431458,240 76,240 Z M90,262 C91.6568542,262 93,263.343146 93,265 L93,267 C93,268.656854 91.6568542,270 90,270 C88.3431458,270 87,268.656854 87,267 L87,265 C87,263.343146 88.3431458,262 90,262 Z M104,244 C105.656854,244 107,245.343146 107,247 L107,267 C107,268.656854 105.656854,270 104,270 C102.343146,270 101,268.656854 101,267 L101,247 C101,245.343146 102.343146,244 104,244 Z M118,252 C119.656854,252 121,253.343146 121,255 L121,267 C121,268.656854 119.656854,270 118,270 C116.343146,270 115,268.656854 115,267 L115,255 C115,253.343146 116.343146,252 118,252 Z M132,249 C133.656854,249 135,250.343146 135,252 L135,267 C135,268.656854 133.656854,270 132,270 C130.343146,270 129,268.656854 129,267 L129,252 C129,250.343146 130.343146,249 132,249 Z M146,258 C147.656854,258 149,259.343146 149,261 L149,267 C149,268.656854 147.656854,270 146,270 C144.343146,270 143,268.656854 143,267 L143,261 C143,259.343146 144.343146,258 146,258 Z M160,257 C161.656854,257 163,258.343146 163,260 L163,267 C163,268.656854 161.656854,270 160,270 C158.343146,270 157,268.656854 157,267 L157,260 C157,258.343146 158.343146,257 160,257 Z M174,262 C175.656854,262 177,263.343146 177,265 L177,267 C177,268.656854 175.656854,270 174,270 C172.343146,270 171,268.656854 171,267 L171,265 C171,263.343146 172.343146,262 174,262 Z M188,247 C189.656854,247 191,248.343146 191,250 L191,267 C191,268.656854 189.656854,270 188,270 C186.343146,270 185,268.656854 185,267 L185,250 C185,248.343146 186.343146,247 188,247 Z" id="5"></path>
        </g>
    </g>
</svg>