<?xml version="1.0" encoding="UTF-8"?>
<svg width="132px" height="34px" viewBox="0 0 132 34" version="1.1" xmlns="http://www.w3.org/2000/svg" xmlns:xlink="http://www.w3.org/1999/xlink">
    <!-- Generator: Sketch 61.1 (89650) - https://sketch.com -->
    <title>1</title>
    <desc>Created with Sketch.</desc>
    <g id="页面-1" stroke="none" stroke-width="1" fill="none" fill-rule="evenodd">
        <g id="画板" transform="translate(-59.000000, -131.000000)" fill="#FFFFFF">
            <path d="M62,153 C63.6568542,153 65,154.343146 65,156 L65,162 C65,163.656854 63.6568542,165 62,165 C60.3431458,165 59,163.656854 59,162 L59,156 C59,154.343146 60.3431458,153 62,153 Z M76,146 C77.6568542,146 79,147.343146 79,149 L79,162 C79,163.656854 77.6568542,165 76,165 C74.3431458,165 73,163.656854 73,162 L73,149 C73,147.343146 74.3431458,146 76,146 Z M90,138 C91.6568542,138 93,139.343146 93,141 L93,162 C93,163.656854 91.6568542,165 90,165 C88.3431458,165 87,163.656854 87,162 L87,141 C87,139.343146 88.3431458,138 90,138 Z M104,153 C105.656854,153 107,154.343146 107,156 L107,162 C107,163.656854 105.656854,165 104,165 C102.343146,165 101,163.656854 101,162 L101,156 C101,154.343146 102.343146,153 104,153 Z M118,141 C119.656854,141 121,142.343146 121,144 L121,162 C121,163.656854 119.656854,165 118,165 C116.343146,165 115,163.656854 115,162 L115,144 C115,142.343146 116.343146,141 118,141 Z M132,149 C133.656854,149 135,150.343146 135,152 L135,162 C135,163.656854 133.656854,165 132,165 C130.343146,165 129,163.656854 129,162 L129,152 C129,150.343146 130.343146,149 132,149 Z M146,131 C147.656854,131 149,132.343146 149,134 L149,162 C149,163.656854 147.656854,165 146,165 C144.343146,165 143,163.656854 143,162 L143,134 C143,132.343146 144.343146,131 146,131 Z M160,141 C161.656854,141 163,142.343146 163,144 L163,162 C163,163.656854 161.656854,165 160,165 C158.343146,165 157,163.656854 157,162 L157,144 C157,142.343146 158.343146,141 160,141 Z M174,153 C175.656854,153 177,154.343146 177,156 L177,162 C177,163.656854 175.656854,165 174,165 C172.343146,165 171,163.656854 171,162 L171,156 C171,154.343146 172.343146,153 174,153 Z M188,146 C189.656854,146 191,147.343146 191,149 L191,162 C191,163.656854 189.656854,165 188,165 C186.343146,165 185,163.656854 185,162 L185,149 C185,147.343146 186.343146,146 188,146 Z" id="1"></path>
        </g>
    </g>
</svg>