<?xml version="1.0" standalone="no"?><!DOCTYPE svg PUBLIC "-//W3C//DTD SVG 1.1//EN" "http://www.w3.org/Graphics/SVG/1.1/DTD/svg11.dtd"><svg t="1589786248215" class="icon" viewBox="0 0 1024 1024" version="1.1" xmlns="http://www.w3.org/2000/svg" p-id="2667" xmlns:xlink="http://www.w3.org/1999/xlink" width="200" height="200"><defs><style type="text/css"></style></defs><path d="M594.784 87.904c-21.76 21.76-23.904 56.32-4.288 79.776 163.84 199.264 163.84 488.544 0.448 688.224-19.648 23.872-17.92 58.88 3.84 80.64a60.576 60.576 0 0 0 89.6-4.288c199.232-243.616 199.232-596.032 0-840.096-22.208-27.744-64-29.856-89.6-4.256zM263.68 418.976l-62.72 62.72c-16.64 16.64-16.64 43.52 0 60.16l62.72 62.72c20.064 20.064 54.624 15.808 67.84-9.792a182.656 182.656 0 0 0 0-166.848c-13.216-24.32-47.776-28.992-67.84-8.96z m159.136-159.136c-20.896 20.896-23.04 53.76-5.536 78.08a301.376 301.376 0 0 1 0 348.16c-17.056 24.32-15.36 57.184 5.536 78.08l0.448 0.416c25.6 25.6 69.12 23.904 90.016-5.536 106.24-146.784 106.24-346.88 0-494.08-21.344-29.44-64.416-31.136-90.464-5.12z" p-id="2668"></path></svg>