<?xml version="1.0" encoding="UTF-8"?>
<svg width="132px" height="35px" viewBox="0 0 132 35" version="1.1" xmlns="http://www.w3.org/2000/svg" xmlns:xlink="http://www.w3.org/1999/xlink">
    <!-- Generator: Sketch 61.1 (89650) - https://sketch.com -->
    <title>3</title>
    <desc>Created with Sketch.</desc>
    <g id="页面-1" stroke="none" stroke-width="1" fill="none" fill-rule="evenodd">
        <g id="画板" transform="translate(-207.000000, -184.000000)" fill="#FFFFFF">
            <path d="M210,195 C211.656854,195 213,196.343146 213,198 L213,216 C213,217.656854 211.656854,219 210,219 C208.343146,219 207,217.656854 207,216 L207,198 C207,196.343146 208.343146,195 210,195 Z M224,205 C225.656854,205 227,206.343146 227,208 L227,216 C227,217.656854 225.656854,219 224,219 C222.343146,219 221,217.656854 221,216 L221,208 C221,206.343146 222.343146,205 224,205 Z M238,202 C239.656854,202 241,203.343146 241,205 L241,216 C241,217.656854 239.656854,219 238,219 C236.343146,219 235,217.656854 235,216 L235,205 C235,203.343146 236.343146,202 238,202 Z M252,205 C253.656854,205 255,206.343146 255,208 L255,216 C255,217.656854 253.656854,219 252,219 C250.343146,219 249,217.656854 249,216 L249,208 C249,206.343146 250.343146,205 252,205 Z M266,211 C267.656854,211 269,212.343146 269,214 L269,216 C269,217.656854 267.656854,219 266,219 C264.343146,219 263,217.656854 263,216 L263,214 C263,212.343146 264.343146,211 266,211 Z M280,200 C281.656854,200 283,201.343146 283,203 L283,216 C283,217.656854 281.656854,219 280,219 C278.343146,219 277,217.656854 277,216 L277,203 C277,201.343146 278.343146,200 280,200 Z M294,209 C295.656854,209 297,210.343146 297,212 L297,216 C297,217.656854 295.656854,219 294,219 C292.343146,219 291,217.656854 291,216 L291,212 C291,210.343146 292.343146,209 294,209 Z M308,184 C309.656854,184 311,185.343146 311,187 L311,216 C311,217.656854 309.656854,219 308,219 C306.343146,219 305,217.656854 305,216 L305,187 C305,185.343146 306.343146,184 308,184 Z M322,198 C323.656854,198 325,199.343146 325,201 L325,216 C325,217.656854 323.656854,219 322,219 C320.343146,219 319,217.656854 319,216 L319,201 C319,199.343146 320.343146,198 322,198 Z M336,207 C337.656854,207 339,208.343146 339,210 L339,216 C339,217.656854 337.656854,219 336,219 C334.343146,219 333,217.656854 333,216 L333,210 C333,208.343146 334.343146,207 336,207 Z" id="3"></path>
        </g>
    </g>
</svg>