<?xml version="1.0" encoding="UTF-8"?>
<svg width="132px" height="34px" viewBox="0 0 132 34" version="1.1" xmlns="http://www.w3.org/2000/svg" xmlns:xlink="http://www.w3.org/1999/xlink">
    <!-- Generator: Sketch 61.1 (89650) - https://sketch.com -->
    <title>2</title>
    <desc>Created with Sketch.</desc>
    <g id="页面-1" stroke="none" stroke-width="1" fill="none" fill-rule="evenodd">
        <g id="画板" transform="translate(-207.000000, -131.000000)" fill="#FFFFFF">
            <path d="M210,148 C211.656854,148 213,149.343146 213,151 L213,162 C213,163.656854 211.656854,165 210,165 C208.343146,165 207,163.656854 207,162 L207,151 C207,149.343146 208.343146,148 210,148 Z M224,156 C225.656854,156 227,157.343146 227,159 L227,162 C227,163.656854 225.656854,165 224,165 C222.343146,165 221,163.656854 221,162 L221,159 C221,157.343146 222.343146,156 224,156 Z M238,135 C239.656854,135 241,136.343146 241,138 L241,162 C241,163.656854 239.656854,165 238,165 C236.343146,165 235,163.656854 235,162 L235,138 C235,136.343146 236.343146,135 238,135 Z M252,148 C253.656854,148 255,149.343146 255,151 L255,162 C255,163.656854 253.656854,165 252,165 C250.343146,165 249,163.656854 249,162 L249,151 C249,149.343146 250.343146,148 252,148 Z M266,131 C267.656854,131 269,132.343146 269,134 L269,162 C269,163.656854 267.656854,165 266,165 C264.343146,165 263,163.656854 263,162 L263,134 C263,132.343146 264.343146,131 266,131 Z M280,139 C281.656854,139 283,140.343146 283,142 L283,162 C283,163.656854 281.656854,165 280,165 C278.343146,165 277,163.656854 277,162 L277,142 C277,140.343146 278.343146,139 280,139 Z M294,153 C295.656854,153 297,154.343146 297,156 L297,162 C297,163.656854 295.656854,165 294,165 C292.343146,165 291,163.656854 291,162 L291,156 C291,154.343146 292.343146,153 294,153 Z M308,158 C309.656854,158 311,159.343146 311,161 L311,162 C311,163.656854 309.656854,165 308,165 C306.343146,165 305,163.656854 305,162 L305,161 C305,159.343146 306.343146,158 308,158 Z M322,144 C323.656854,144 325,145.343146 325,147 L325,162 C325,163.656854 323.656854,165 322,165 C320.343146,165 319,163.656854 319,162 L319,147 C319,145.343146 320.343146,144 322,144 Z M336,150 C337.656854,150 339,151.343146 339,153 L339,162 C339,163.656854 337.656854,165 336,165 C334.343146,165 333,163.656854 333,162 L333,153 C333,151.343146 334.343146,150 336,150 Z" id="2"></path>
        </g>
    </g>
</svg>