<?xml version="1.0" standalone="no"?><!DOCTYPE svg PUBLIC "-//W3C//DTD SVG 1.1//EN" "http://www.w3.org/Graphics/SVG/1.1/DTD/svg11.dtd"><svg t="1623208313401" class="icon" viewBox="0 0 1024 1024" version="1.1" xmlns="http://www.w3.org/2000/svg" p-id="5863" xmlns:xlink="http://www.w3.org/1999/xlink" width="24" height="24"><defs><style type="text/css"></style></defs><path d="M816 880a16 16 0 0 1 16 16v48a16 16 0 0 1-16 16H112a16 16 0 0 1-16-16v-48a16 16 0 0 1 16-16h704zM465.936 242.4L669.6 446.08l-350.72 350.72-161.696 8.512a48 48 0 0 1-50.528-47.424l0.064-3.04 8.512-161.696 350.72-350.72z m237.6-147.072l113.12 113.136a64 64 0 0 1 0 90.512l-90.496 90.512-203.648-203.648 90.512-90.512a64 64 0 0 1 90.512 0z" fill="#6179F2" p-id="5864"></path></svg>