<?xml version="1.0" standalone="no"?><!DOCTYPE svg PUBLIC "-//W3C//DTD SVG 1.1//EN" "http://www.w3.org/Graphics/SVG/1.1/DTD/svg11.dtd"><svg t="1624845694428" class="icon" viewBox="0 0 1024 1024" version="1.1" xmlns="http://www.w3.org/2000/svg" p-id="5859" xmlns:xlink="http://www.w3.org/1999/xlink" width="200" height="200"><defs><style type="text/css"></style></defs><path d="M298.666667 163.733333v103.125334A340.693333 340.693333 0 0 0 170.666667 533.333333c0 188.522667 152.810667 341.333333 341.333333 341.333334s341.333333-152.810667 341.333333-341.333334a340.693333 340.693333 0 0 0-128-266.453333V163.733333C852.885333 237.525333 938.666667 375.402667 938.666667 533.333333c0 235.648-191.018667 426.666667-426.666667 426.666667S85.333333 768.981333 85.333333 533.333333c0-157.930667 85.802667-295.829333 213.333334-369.6zM533.333333 64a21.333333 21.333333 0 0 1 21.333334 21.333333v298.666667a21.333333 21.333333 0 0 1-21.333334 21.333333h-42.666666a21.333333 21.333333 0 0 1-21.333334-21.333333V85.333333a21.333333 21.333333 0 0 1 21.333334-21.333333h42.666666z" fill="#F24848" p-id="5860"></path></svg>