<?xml version="1.0" standalone="no"?><!DOCTYPE svg PUBLIC "-//W3C//DTD SVG 1.1//EN" "http://www.w3.org/Graphics/SVG/1.1/DTD/svg11.dtd"><svg t="1591946344417" class="icon" viewBox="0 0 1024 1024" version="1.1" xmlns="http://www.w3.org/2000/svg" p-id="9297" xmlns:xlink="http://www.w3.org/1999/xlink" width="200" height="200"><defs><style type="text/css"></style></defs><path d="M486.4 128.832c-203.946667 13.226667-358.4 192-358.4 396.373333v285.44c0 70.826667 57.173333 128 128 128h42.666667c46.933333 0 85.333333-38.4 85.333333-85.333333v-170.666667c0-46.933333-38.4-85.333333-85.333333-85.333333h-85.333334v-72.96c0-163.84 126.293333-306.346667 289.706667-311.04 169.386667-4.693333 307.626667 130.56 307.626667 298.666667v85.333333h-85.333334c-46.933333 0-85.333333 38.4-85.333333 85.333333v170.666667c0 46.933333 38.4 85.333333 85.333333 85.333333h42.666667c70.826667 0 128-57.173333 128-128v-298.666666c0-220.586667-186.026667-397.653333-409.6-383.146667z" p-id="9298"></path></svg>