<?xml version="1.0" standalone="no"?><!DOCTYPE svg PUBLIC "-//W3C//DTD SVG 1.1//EN" "http://www.w3.org/Graphics/SVG/1.1/DTD/svg11.dtd"><svg t="1591946261332" class="icon" viewBox="0 0 1024 1024" version="1.1" xmlns="http://www.w3.org/2000/svg" p-id="8687" xmlns:xlink="http://www.w3.org/1999/xlink" width="200" height="200"><defs><style type="text/css"></style></defs><path d="M508.629333 618.666667c70.826667 0 128-57.173333 128-128V234.666667c0-70.826667-57.173333-128-128-128s-128 57.173333-128 128v256c0 70.826667 57.173333 128 128 128z m252.16-128c-20.906667 0-38.4 15.36-41.813333 36.266666-17.493333 100.266667-104.96 177.066667-210.346667 177.066667-105.386667 0-192.853333-76.8-210.346666-177.066667-3.413333-20.906667-20.906667-36.266667-41.813334-36.266666-26.026667 0-46.506667 23.04-42.666666 48.64 20.906667 128 123.306667 228.266667 252.16 246.613333V874.666667c0 23.466667 19.2 42.666667 42.666666 42.666666s42.666667-19.2 42.666667-42.666666v-88.746667c128.853333-18.346667 231.253333-118.613333 252.16-246.613333 4.266667-25.6-16.64-48.64-42.666667-48.64z" p-id="8688"></path></svg>