<?xml version="1.0" standalone="no"?><!DOCTYPE svg PUBLIC "-//W3C//DTD SVG 1.1//EN" "http://www.w3.org/Graphics/SVG/1.1/DTD/svg11.dtd"><svg class="icon" width="200px" height="200.00px" viewBox="0 0 1024 1024" version="1.1" xmlns="http://www.w3.org/2000/svg"><path d="M594.773333 87.893333c-21.76 21.76-23.893333 56.32-4.266666 79.786667 163.84 199.253333 163.84 488.533333 0.426666 688.213333-19.626667 23.893333-17.92 58.88 3.84 80.64 25.173333 25.173333 66.986667 23.466667 89.6-4.266666 199.253333-243.626667 199.253333-596.053333 0-840.106667-22.186667-27.733333-64-29.866667-89.6-4.266667zM263.68 418.986667l-62.72 62.72c-16.64 16.64-16.64 43.52 0 60.16l62.72 62.72c20.053333 20.053333 54.613333 15.786667 67.84-9.813334a182.634667 182.634667 0 0 0 0-166.826666c-13.226667-24.32-47.786667-29.013333-67.84-8.96z m159.146667-159.146667c-20.906667 20.906667-23.04 53.76-5.546667 78.08a301.376 301.376 0 0 1 0 348.16c-17.066667 24.32-15.36 57.173333 5.546667 78.08l0.426666 0.426667c25.6 25.6 69.12 23.893333 90.026667-5.546667 106.24-146.773333 106.24-346.88 0-494.08-21.333333-29.44-64.426667-31.146667-90.453333-5.12z" /></svg>