<?xml version="1.0" standalone="no"?><!DOCTYPE svg PUBLIC "-//W3C//DTD SVG 1.1//EN" "http://www.w3.org/Graphics/SVG/1.1/DTD/svg11.dtd"><svg t="1591946496313" class="icon" viewBox="0 0 1024 1024" version="1.1" xmlns="http://www.w3.org/2000/svg" p-id="10152" xmlns:xlink="http://www.w3.org/1999/xlink" width="200" height="200"><defs><style type="text/css"></style></defs><path d="M894.890667 256a42.666667 42.666667 0 0 1 42.552889 39.480889l0.113777 3.185778v85.333333c0 94.250667-76.401778 170.666667-170.666666 170.666667H229.916444l139.406223 139.420444a42.666667 42.666667 0 1 1-60.344889 60.344889L97.792 543.232a42.524444 42.524444 0 0 1-12.458667-28.444444v-5.589334a42.510222 42.510222 0 0 1 9.671111-25.372444l2.787556-3.072 211.2-211.185778a42.666667 42.666667 0 0 1 62.819556 57.628444l-2.488889 2.702223L229.873778 469.333333h537.031111a85.333333 85.333333 0 0 0 85.219555-81.066666l0.099556-4.266667v-85.333333l0.113778-3.185778A42.666667 42.666667 0 0 1 894.890667 256z" p-id="10153"></path></svg>