<?xml version="1.0" standalone="no"?><!DOCTYPE svg PUBLIC "-//W3C//DTD SVG 1.1//EN" "http://www.w3.org/Graphics/SVG/1.1/DTD/svg11.dtd"><svg t="1591946337715" class="icon" viewBox="0 0 1024 1024" version="1.1" xmlns="http://www.w3.org/2000/svg" p-id="9053" xmlns:xlink="http://www.w3.org/1999/xlink" width="200" height="200"><defs><style type="text/css"></style></defs><path d="M640 452.266667V213.333333c0-70.826667-57.173333-128-128-128-65.706667 0-119.04 49.493333-126.293333 113.066667L640 452.266667z m131.413333 17.066666c-17.493333 0-32.853333 12.8-35.413333 30.293334-2.133333 13.653333-5.12 27.306667-9.386667 39.68l54.186667 54.186666c12.8-25.6 22.186667-53.333333 26.88-82.773333 2.986667-21.76-14.08-41.386667-36.266667-41.386667zM158.293333 151.893333c-16.64 16.64-16.64 43.52 0 60.16L384 438.186667v18.346666c0 50.773333 25.6 98.986667 69.546667 124.16 32 18.346667 60.16 18.773333 86.186666 13.226667l70.826667 70.826667c-30.293333 14.08-64 22.186667-98.56 22.186666-108.373333 0-208.213333-75.52-224-187.306666-2.56-17.493333-17.92-30.293333-35.413333-30.293334-22.186667 0-39.253333 19.626667-36.266667 41.386667 19.626667 126.293333 126.293333 226.133333 253.013333 245.333333V853.333333c0 23.466667 19.2 42.666667 42.666667 42.666667s42.666667-19.2 42.666667-42.666667v-97.28c38.826667-5.546667 75.52-19.2 108.8-38.4l148.906666 148.906667c16.64 16.64 43.52 16.64 60.16 0 16.64-16.64 16.64-43.52 0-60.16L218.453333 151.893333c-16.64-16.64-43.52-16.64-60.16 0z" p-id="9054"></path></svg>