<?xml version="1.0" standalone="no"?><!DOCTYPE svg PUBLIC "-//W3C//DTD SVG 1.1//EN" "http://www.w3.org/Graphics/SVG/1.1/DTD/svg11.dtd"><svg t="1591946333648" class="icon" viewBox="0 0 1024 1024" version="1.1" xmlns="http://www.w3.org/2000/svg" p-id="8931" xmlns:xlink="http://www.w3.org/1999/xlink" width="200" height="200"><defs><style type="text/css"></style></defs><path d="M439.04 247.210667c26.88-26.88 72.96-7.68 72.96 30.293333v476.586667c0 37.973333-46.08 57.173333-72.96 30.293333L298.666667 644.010667H170.666667c-23.466667 0-42.666667-19.2-42.666667-42.666667v-170.666667c0-23.466667 19.2-42.666667 42.666667-42.666666h128z m231.125333 127.957333l75.434667 75.413333 75.413333-75.413333a42.666667 42.666667 0 0 1 60.352 60.330667l-75.434666 75.434666 75.434666 75.413334a42.666667 42.666667 0 1 1-60.352 60.352l-75.413333-75.434667-75.434667 75.434667a42.666667 42.666667 0 0 1-60.330666-60.352l75.413333-75.413334-75.413333-75.434666a42.666667 42.666667 0 0 1 60.330666-60.330667z" p-id="8932"></path></svg>