<?xml version="1.0" standalone="no"?><!DOCTYPE svg PUBLIC "-//W3C//DTD SVG 1.1//EN" "http://www.w3.org/Graphics/SVG/1.1/DTD/svg11.dtd"><svg t="1624412465914" class="icon" viewBox="0 0 1084 1024" version="1.1" xmlns="http://www.w3.org/2000/svg" p-id="5660" xmlns:xlink="http://www.w3.org/1999/xlink" width="211.71875" height="200"><defs><style type="text/css"></style></defs><path d="M0 0h646.095238v646.095238H0z" fill="#D6DAE1" p-id="5661"></path><path d="M0 646.095238h243.809524L0 889.904762z" fill="#B5BEC8" p-id="5662"></path><path d="M54.857143 73.142857h231.619047v12.190476H54.857143zM54.857143 152.380952h231.619047v12.190477H54.857143zM54.857143 231.619048h231.619047v12.190476H54.857143z" fill="#FFFFFF" p-id="5663"></path><path d="M438.857143 134.095238h646.095238v646.095238H438.857143z" fill="#F4F5F8" p-id="5664"></path><path d="M609.52381 292.571429m-109.714286 0a109.714286 109.714286 0 1 0 219.428571 0 109.714286 109.714286 0 1 0-219.428571 0Z" fill="#FFC200" p-id="5665"></path><path d="M841.142857 780.190476h243.809524v243.809524z" fill="#D6DAE1" p-id="5666"></path><path d="M518.095238 444.952381h457.142857v12.190476H518.095238zM518.095238 518.095238h225.52381v12.190476H518.095238z" fill="#18263C" p-id="5667"></path></svg>