<?xml version="1.0" standalone="no"?><!DOCTYPE svg PUBLIC "-//W3C//DTD SVG 1.1//EN" "http://www.w3.org/Graphics/SVG/1.1/DTD/svg11.dtd"><svg t="1591946328228" class="icon" viewBox="0 0 1024 1024" version="1.1" xmlns="http://www.w3.org/2000/svg" p-id="8809" xmlns:xlink="http://www.w3.org/1999/xlink" width="200" height="200"><defs><style type="text/css"></style></defs><path d="M128 426.666667v170.666666c0 23.466667 19.2 42.666667 42.666667 42.666667h128l140.373333 140.373333c26.88 26.88 72.96 7.68 72.96-30.293333V273.493333c0-37.973333-46.08-57.173333-72.96-30.293333L298.666667 384H170.666667c-23.466667 0-42.666667 19.2-42.666667 42.666667z m576 85.333333c0-75.52-43.52-140.373333-106.666667-171.946667v343.466667c63.146667-31.146667 106.666667-96 106.666667-171.52zM597.333333 189.866667v8.533333c0 16.213333 10.666667 30.293333 25.6 36.266667 110.08 43.946667 187.733333 151.893333 187.733334 277.333333s-77.653333 233.386667-187.733334 277.333333c-15.36 5.973333-25.6 20.053333-25.6 36.266667v8.533333c0 26.88 26.88 45.653333 51.626667 36.266667C793.6 815.36 896 675.84 896 512c0-163.84-102.4-303.36-247.04-358.4-24.746667-9.813333-51.626667 9.386667-51.626667 36.266667z" p-id="8810"></path></svg>