<?xml version="1.0" standalone="no"?><!DOCTYPE svg PUBLIC "-//W3C//DTD SVG 1.1//EN" "http://www.w3.org/Graphics/SVG/1.1/DTD/svg11.dtd"><svg t="1587472456575" class="icon" viewBox="0 0 1024 1024" version="1.1" xmlns="http://www.w3.org/2000/svg" p-id="2936" xmlns:xlink="http://www.w3.org/1999/xlink" width="200" height="200"><defs><style type="text/css"></style></defs><path d="M255.616 160a85.568 85.568 0 0 1 85.088 75.68l12.384 107.744a85.12 85.12 0 0 1-24.352 70.08L249.6 492.64a643.2 643.2 0 0 0 281.76 281.76l78.656-78.688a85.12 85.12 0 0 1 70.112-24.352l108.576 12.384c43.2 5.12 75.68 41.472 75.264 84.672v73.952c0 48.32-40.192 88.512-88.512 85.504-364.672-22.656-656.672-314.24-679.36-679.36C93.184 200.192 133.376 160 181.696 160z m595.328 13.056c16.32 16.32 17.344 42.08 3.072 59.584l-3.072 3.392L766.976 320l83.968 83.968a44.544 44.544 0 1 1-62.976 62.976L704 382.976l-83.968 83.968c-16.32 16.32-42.112 17.344-59.616 3.072l-3.36-3.072a44.544 44.544 0 0 1-3.072-59.584l3.072-3.392L641.024 320l-83.968-83.968a44.544 44.544 0 1 1 62.976-62.976L704 257.024l83.968-83.968a44.544 44.544 0 0 1 62.976 0z" p-id="2937"></path></svg>