<?xml version="1.0" standalone="no"?><!DOCTYPE svg PUBLIC "-//W3C//DTD SVG 1.1//EN" "http://www.w3.org/Graphics/SVG/1.1/DTD/svg11.dtd"><svg class="icon" width="200px" height="200.00px" viewBox="0 0 1024 1024" version="1.1" xmlns="http://www.w3.org/2000/svg"><path d="M853.333333 896V128h42.666667a42.666667 42.666667 0 0 1 42.666667 42.666667v768a42.666667 42.666667 0 0 1-42.666667 42.666666H213.333333a128 128 0 0 1-128-128V170.666667a128 128 0 0 1 128-128h554.666667a42.666667 42.666667 0 0 1 42.666667 42.666666v640a42.666667 42.666667 0 0 1-39.466667 42.56L768 768H213.333333a42.666667 42.666667 0 0 0-42.56 39.466667L170.666667 810.666667v42.666666a42.666667 42.666667 0 0 0 39.466666 42.56L213.333333 896h640zM725.333333 128H213.333333a42.666667 42.666667 0 0 0-42.56 39.466667L170.666667 170.666667v519.296l0.533333-0.192a127.594667 127.594667 0 0 1 37.248-7.018667L213.333333 682.666667h512V128z" fill="#1F2126" /></svg>