<?xml version="1.0" standalone="no"?><!DOCTYPE svg PUBLIC "-//W3C//DTD SVG 1.1//EN" "http://www.w3.org/Graphics/SVG/1.1/DTD/svg11.dtd"><svg class="icon" width="200px" height="200.00px" viewBox="0 0 1024 1024" version="1.1" xmlns="http://www.w3.org/2000/svg"><path d="M512 0a90.352941 90.352941 0 0 1 30.117647 175.555765V240.941176h90.352941c216.244706 0 391.529412 175.284706 391.529412 391.529412s-175.284706 391.529412-391.529412 391.529412h-240.941176C175.284706 1024 0 848.715294 0 632.470588S175.284706 240.941176 391.529412 240.941176h90.352941V175.585882A90.383059 90.383059 0 0 1 512 0z m120.470588 301.176471h-240.941176C208.564706 301.176471 60.235294 449.505882 60.235294 632.470588c0 180.073412 143.661176 326.565647 322.620235 331.173647L391.529412 963.764706h240.941176c182.964706 0 331.294118-148.329412 331.294118-331.294118 0-180.073412-143.661176-326.565647-322.620235-331.173647z m0 90.352941a240.941176 240.941176 0 1 1 0 481.882353h-240.941176a240.941176 240.941176 0 1 1 0-481.882353z m0 60.235294h-240.941176a180.705882 180.705882 0 0 0-6.776471 361.291294L391.529412 813.176471h240.941176a180.705882 180.705882 0 0 0 6.776471-361.291295z m-256 90.352941a45.176471 45.176471 0 0 1 45.176471 45.176471v90.352941a45.176471 45.176471 0 0 1-90.352941 0v-90.352941a45.176471 45.176471 0 0 1 45.17647-45.176471z m271.058824 0a45.176471 45.176471 0 0 1 45.17647 45.176471v90.352941a45.176471 45.176471 0 0 1-90.352941 0v-90.352941a45.176471 45.176471 0 0 1 45.176471-45.176471zM512 60.235294a30.117647 30.117647 0 1 0 0 60.235294 30.117647 30.117647 0 0 0 0-60.235294z" /></svg>