<?xml version="1.0" standalone="no"?><!DOCTYPE svg PUBLIC "-//W3C//DTD SVG 1.1//EN" "http://www.w3.org/Graphics/SVG/1.1/DTD/svg11.dtd"><svg class="icon" width="200px" height="200.00px" viewBox="0 0 1024 1024" version="1.1" xmlns="http://www.w3.org/2000/svg"><path d="M455.111111 56.888889v85.333333h-170.666667a142.222222 142.222222 0 0 0-142.08 136.049778L142.222222 284.444444v455.111112a142.222222 142.222222 0 0 0 136.049778 142.08L284.444444 881.777778h455.111112a142.222222 142.222222 0 0 0 142.08-136.049778L881.777778 739.555556v-170.666667h85.333333v170.666667a227.555556 227.555556 0 0 1-227.555555 227.555555H284.444444a227.555556 227.555556 0 0 1-227.555555-227.555555V284.444444a227.555556 227.555556 0 0 1 227.555555-227.555555h170.666667z m469.333333 0A42.666667 42.666667 0 0 1 967.111111 99.555556v256a42.666667 42.666667 0 0 1-85.333333 0V202.524444L505.799111 578.531556a42.666667 42.666667 0 0 1-57.088 2.929777l-3.242667-2.929777a42.666667 42.666667 0 0 1 0-60.330667L821.418667 142.222222H668.444444a42.666667 42.666667 0 0 1 0-85.333333h256z" /></svg>