<?xml version="1.0" standalone="no"?><!DOCTYPE svg PUBLIC "-//W3C//DTD SVG 1.1//EN" "http://www.w3.org/Graphics/SVG/1.1/DTD/svg11.dtd"><svg t="1639985980980" class="icon" viewBox="0 0 1024 1024" version="1.1" xmlns="http://www.w3.org/2000/svg" p-id="8139" xmlns:xlink="http://www.w3.org/1999/xlink" width="200" height="200"><defs><style type="text/css">@font-face { font-family: element-icons; src: url("chrome-extension://moombeodfomdpjnpocobemoiaemednkg/fonts/element-icons.woff") format("woff"), url("chrome-extension://moombeodfomdpjnpocobemoiaemednkg/fonts/element-icons.ttf ") format("truetype"); }
</style></defs><path d="M512 42.666667c131.221333 0 262.442667 36.330667 393.664 108.970666A64 64 0 0 1 938.666667 207.616V661.333333c0 213.333333-336.853333 320-426.666667 320-89.813333 0-426.666667-106.666667-426.666667-320V207.616a64 64 0 0 1 33.002667-55.978667C249.557333 78.997333 380.778667 42.666667 512 42.666667z m53.333333 330.666666h-106.666666a181.333333 181.333333 0 1 0 0 362.666667h106.666666a181.333333 181.333333 0 1 0 0-362.666667z m-144 128c20.608 0 37.333333 16.725333 37.333334 37.333334v32l-0.128 3.072A37.333333 37.333333 0 0 1 384 570.666667v-32l0.128-3.072A37.333333 37.333333 0 0 1 421.333333 501.333333z m181.333334 0c20.608 0 37.333333 16.725333 37.333333 37.333334v32l-0.128 3.072a37.333333 37.333333 0 0 1-74.538667-3.072v-32l0.128-3.072A37.333333 37.333333 0 0 1 602.666667 501.333333zM512 288a42.666667 42.666667 0 1 0 0 85.333333 42.666667 42.666667 0 0 0 0-85.333333z" fill="#363940" p-id="8140"></path></svg>