<?xml version="1.0" standalone="no"?><!DOCTYPE svg PUBLIC "-//W3C//DTD SVG 1.1//EN" "http://www.w3.org/Graphics/SVG/1.1/DTD/svg11.dtd"><svg class="icon" width="200px" height="200.00px" viewBox="0 0 1024 1024" version="1.1" xmlns="http://www.w3.org/2000/svg"><path d="M682.666667 85.333333c141.376 0 256 114.624 256 256v341.333334c0 141.376-114.624 256-256 256H341.333333C199.957333 938.666667 85.333333 824.042667 85.333333 682.666667V341.333333C85.333333 199.957333 199.957333 85.333333 341.333333 85.333333h341.333334z m0 85.333334H341.333333a170.666667 170.666667 0 0 0-170.581333 165.333333L170.666667 341.333333v341.333334a170.666667 170.666667 0 0 0 165.333333 170.581333L341.333333 853.333333h341.333334a170.666667 170.666667 0 0 0 170.581333-165.333333L853.333333 682.666667V341.333333a170.666667 170.666667 0 0 0-165.333333-170.581333L682.666667 170.666667zM373.333333 533.333333a117.333333 117.333333 0 1 1 0 234.666667 117.333333 117.333333 0 0 1 0-234.666667z m277.333334 0a117.333333 117.333333 0 1 1 0 234.666667 117.333333 117.333333 0 0 1 0-234.666667z m-277.333334 85.333334a32 32 0 1 0 0 64 32 32 0 0 0 0-64z m277.333334 0a32 32 0 1 0 0 64 32 32 0 0 0 0-64z m-277.333334-362.666667a117.333333 117.333333 0 1 1 0 234.666667 117.333333 117.333333 0 0 1 0-234.666667z m277.333334 0a117.333333 117.333333 0 1 1 0 234.666667 117.333333 117.333333 0 0 1 0-234.666667z m-277.333334 85.333333a32 32 0 1 0 0 64 32 32 0 0 0 0-64z m277.333334 0a32 32 0 1 0 0 64 32 32 0 0 0 0-64z" /></svg>