<?xml version="1.0" standalone="no"?><!DOCTYPE svg PUBLIC "-//W3C//DTD SVG 1.1//EN" "http://www.w3.org/Graphics/SVG/1.1/DTD/svg11.dtd"><svg class="icon" width="200px" height="200.00px" viewBox="0 0 1024 1024" version="1.1" xmlns="http://www.w3.org/2000/svg"><path d="M917.333333 85.333333a21.333333 21.333333 0 0 1 21.333334 21.333334v298.666666a21.333333 21.333333 0 0 1-21.333334 21.333334h-42.666666a21.333333 21.333333 0 0 1-21.333334-21.333334l-0.021333-174.314666-193.536 193.557333A318.592 318.592 0 0 1 725.333333 618.666667c0 176.725333-143.274667 320-320 320-176.725333 0-320-143.274667-320-320 0-176.725333 143.274667-320 320-320 72.96 0 140.245333 24.426667 194.090667 65.557333L792.96 170.666667H618.666667a21.333333 21.333333 0 0 1-21.333334-21.333334V106.666667a21.333333 21.333333 0 0 1 21.333334-21.333334h298.666666zM405.333333 384c-129.6 0-234.666667 105.066667-234.666666 234.666667s105.066667 234.666667 234.666666 234.666666 234.666667-105.066667 234.666667-234.666666-105.066667-234.666667-234.666667-234.666667z" fill="#1F2126" /></svg>