<?xml version="1.0" standalone="no"?><!DOCTYPE svg PUBLIC "-//W3C//DTD SVG 1.1//EN" "http://www.w3.org/Graphics/SVG/1.1/DTD/svg11.dtd"><svg t="1621410929027" class="icon" viewBox="0 0 1024 1024" version="1.1" xmlns="http://www.w3.org/2000/svg" p-id="6202" xmlns:xlink="http://www.w3.org/1999/xlink" width="200" height="200"><defs><style type="text/css"></style></defs><path d="M526.613333 504.533333l241.365334 241.365334a21.333333 21.333333 0 0 1 0 30.165333l-15.082667 15.082667a21.333333 21.333333 0 0 1-30.186667 0l-211.178666-211.178667-211.2 211.2a21.333333 21.333333 0 0 1-28.16 1.749333l-2.005334-1.770666-15.082666-15.082667a21.333333 21.333333 0 0 1 0-30.165333L496.448 504.533333a21.248 21.248 0 0 1 13.824-6.208h2.517333c5.034667 0.298667 9.984 2.346667 13.824 6.208z m0-271.530666l241.365334 241.365333a21.333333 21.333333 0 0 1 0 30.165333l-15.082667 15.082667a21.333333 21.333333 0 0 1-30.186667 0l-211.178666-211.178667-211.2 211.2a21.333333 21.333333 0 0 1-28.16 1.749334l-2.005334-1.770667-15.082666-15.082667a21.333333 21.333333 0 0 1 0-30.165333l241.365333-241.365333a21.248 21.248 0 0 1 13.824-6.208h2.517333c5.034667 0.298667 9.984 2.346667 13.824 6.208z" fill="#363940" p-id="6203"></path></svg>