<?xml version="1.0" standalone="no"?><!DOCTYPE svg PUBLIC "-//W3C//DTD SVG 1.1//EN" "http://www.w3.org/Graphics/SVG/1.1/DTD/svg11.dtd"><svg t="1591945628165" class="icon" viewBox="0 0 1024 1024" version="1.1" xmlns="http://www.w3.org/2000/svg" p-id="6225" xmlns:xlink="http://www.w3.org/1999/xlink" width="200" height="200"><defs><style type="text/css"></style></defs><path d="M529.0752 170.6752a34.1248 34.1248 0 0 1 2.56 68.1728l-2.56 0.0768h-259.584c-16.0512 0-29.184 12.3392-30.464 28.032l-0.1024 2.5088v485.0688c0 16.0256 12.3392 29.1584 28.032 30.4384l2.5088 0.1024h485.0688c16.0256 0 29.1584-12.3392 30.4384-28.032l0.1024-2.5088V494.8224a34.1248 34.1248 0 0 1 68.1728-2.56l0.0768 2.56v259.712a98.816 98.816 0 0 1-95.0016 98.7392l-3.7888 0.0512H269.4656a98.816 98.816 0 0 1-98.7392-95.0016l-0.0512-3.7888V269.4656a98.816 98.816 0 0 1 95.0016-98.7392l3.7888-0.0512h259.584z m310.8352 9.984c13.312 13.312 13.312 34.944 0 48.2816l-337.92 337.92a34.1248 34.1248 0 1 1-48.256-48.2816l337.92-337.92c13.312-13.312 34.9184-13.312 48.256 0z" p-id="6226"></path></svg>