<?xml version="1.0" standalone="no"?><!DOCTYPE svg PUBLIC "-//W3C//DTD SVG 1.1//EN" "http://www.w3.org/Graphics/SVG/1.1/DTD/svg11.dtd"><svg t="1593584537628" class="icon" viewBox="0 0 1024 1024" version="1.1" xmlns="http://www.w3.org/2000/svg" p-id="1917" xmlns:xlink="http://www.w3.org/1999/xlink" width="48" height="48"><defs><style type="text/css">@font-face { font-family: element-icons; src: url("chrome-extension://moombeodfomdpjnpocobemoiaemednkg/fonts/element-icons.woff") format("woff"), url("chrome-extension://moombeodfomdpjnpocobemoiaemednkg/fonts/element-icons.ttf ") format("truetype"); }
</style></defs><path d="M512 102.4c127.232 0 230.4 96.7168 230.4 216.0128V409.6h25.6a102.4 102.4 0 0 1 102.4 102.4v307.2a102.4 102.4 0 0 1-102.4 102.4H256a102.4 102.4 0 0 1-102.4-102.4V512a102.4 102.4 0 0 1 102.4-102.4h25.6v-91.2128C281.6 199.0912 384.768 102.4 512 102.4z m256 384H256a25.6 25.6 0 0 0-25.4208 22.6048L230.4 512v307.2a25.6 25.6 0 0 0 22.6048 25.4208L256 844.8h512a25.6 25.6 0 0 0 25.4208-22.6048L793.6 819.2V512a25.6 25.6 0 0 0-22.6048-25.4208L768 486.4z m-256 51.2a76.8 76.8 0 0 1 25.6 149.2224V768a25.6 25.6 0 0 1-51.2 0v-81.152A76.8256 76.8256 0 0 1 512 537.6z m0-358.4c-83.8912 0-150.4512 60.544-153.4976 133.9392l-0.1024 5.2736V409.6h307.2v-91.2128c0-73.9584-64.5888-136.2176-147.6352-139.0848L512 179.2z" p-id="1918"></path></svg>