<?xml version="1.0" standalone="no"?><!DOCTYPE svg PUBLIC "-//W3C//DTD SVG 1.1//EN" "http://www.w3.org/Graphics/SVG/1.1/DTD/svg11.dtd"><svg t="1629979481898" class="icon" viewBox="0 0 1024 1024" version="1.1" xmlns="http://www.w3.org/2000/svg" p-id="6198" xmlns:xlink="http://www.w3.org/1999/xlink" width="200" height="200"><defs><style type="text/css"></style></defs><path d="M916.693333 669.909333l0.149334 1.557334 0.085333 1.002666 0.106667 1.472 0.128 2.133334 0.064 1.173333c0.064 1.792 0.106667 3.605333 0.106666 5.418667v42.666666h42.666667a21.333333 21.333333 0 0 1 21.333333 21.333334v213.333333a21.333333 21.333333 0 0 1-21.333333 21.333333H618.666667a21.333333 21.333333 0 0 1-18.453334-10.624V970.666667l-0.256-0.426667a21.248 21.248 0 0 1-0.789333-1.6l1.024 2.026667a21.248 21.248 0 0 1-2.666667-7.808l-0.021333-0.213334A21.546667 21.546667 0 0 1 597.333333 960V746.666667a21.333333 21.333333 0 0 1 21.333334-21.333334h42.666666v-42.666666a128 128 0 0 1 213.333334-95.381334v-0.042666l0.917333 0.853333 1.92 1.792 0.298667 0.277333 2.026666 1.984 2.56 2.624 0.362667 0.384c3.584 3.84 6.954667 7.893333 10.069333 12.16l0.938667 1.322667 3.114667 4.586667 0.64 1.002666a128 128 0 0 1 2.069333 3.370667l0.597333 1.024 0.682667 1.194667c1.066667 1.877333 2.090667 3.797333 3.050667 5.738666l0.448 0.917334 0.576 1.152 0.938666 2.026666 0.426667 0.938667 0.426667 0.938667 1.130666 2.709333 0.213334 0.554667 0.298666 0.725333 0.938667 2.474667 0.448 1.216 0.426667 1.130666 0.768 2.304 0.32 1.045334 0.64 2.005333c0.938667 3.114667 1.749333 6.272 2.453333 9.450667l0.213333 0.896 0.597334 3.114666 0.64 3.84 0.128 0.746667c0.298667 2.048 0.554667 4.096 0.768 6.165333zM358.08 52.629333l2.026667 1.770667 148.245333 148.266667h7.317333l148.266667-148.266667a21.333333 21.333333 0 0 1 30.186667 0l30.165333 30.165333a21.333333 21.333333 0 0 1 0 30.186667l-87.936 87.893333L917.333333 202.666667a42.666667 42.666667 0 0 1 42.666667 42.666666V554.666667a214.101333 214.101333 0 0 0-85.333333-67.584V288H149.333333v597.333333h362.666667V960l0.106667 4.629333c0.085333 2.026667 0.213333 4.053333 0.426666 6.058667L106.666667 970.666667a42.666667 42.666667 0 0 1-42.666667-42.666667v-682.666667a42.666667 42.666667 0 0 1 42.666667-42.666666h280.981333l-87.893333-87.914667a21.333333 21.333333 0 0 1-1.792-28.16l1.770666-2.026667 30.165334-30.165333a21.333333 21.333333 0 0 1 28.16-1.770667zM448 434.56a21.333333 21.333333 0 0 1 11.84 3.562667l164.309333 109.568a212.864 212.864 0 0 0-43.925333 92.522666l-1.365333 7.466667-3.712 1.6-4.266667 2.005333a107.157333 107.157333 0 0 0-42.112 37.973334l-68.928 45.994666A21.333333 21.333333 0 0 1 426.666667 717.44V455.893333a21.333333 21.333333 0 0 1 21.333333-21.333333zM789.333333 640a42.666667 42.666667 0 0 0-42.56 39.466667L746.666667 682.666667v42.666666h85.333333v-42.666666a42.666667 42.666667 0 0 0-39.466667-42.56L789.333333 640z" fill="#363940" p-id="6199"></path></svg>