<?xml version="1.0" standalone="no"?><!DOCTYPE svg PUBLIC "-//W3C//DTD SVG 1.1//EN" "http://www.w3.org/Graphics/SVG/1.1/DTD/svg11.dtd"><svg t="1591945656376" class="icon" viewBox="0 0 1024 1024" version="1.1" xmlns="http://www.w3.org/2000/svg" p-id="6713" xmlns:xlink="http://www.w3.org/1999/xlink" width="200" height="200"><defs><style type="text/css"></style></defs><path d="M184.544 213.344c37.024 0 68.736 27.2 74.688 63.552l0.576 4.096 11.008 95.744a76.128 76.128 0 0 1-18.496 58.976l-3.168 3.36-70.304 70.304c53.088 104.64 137.6 190.4 240.704 245.376l9.728 5.056L499.2 689.92a75.52 75.52 0 0 1 48.512-22.016l4.576-0.16c1.536 0 3.072 0.032 4.608 0.128l4.64 0.384 96.544 11.008c36.992 4.032 65.536 34.56 67.2 70.816l0.064 4.064v65.728c0 40.288-31.424 74.176-70.72 76.064l-3.968 0.096-4-0.128c-324.16-20.16-583.68-279.36-603.84-603.872-2.56-41.6 30.848-76.416 72-78.56l4-0.096h65.728z m371.712 540.16l-33.664 33.664 7.04 2.144c33.952 9.92 69.216 16.736 105.504 20.096l4.864 0.384v-46.72l-83.744-9.6zM853.344 384c0 23.552-19.104 42.656-42.688 42.656h-256A42.656 42.656 0 0 1 512 384V170.656C512 147.104 531.104 128 554.656 128h256c23.584 0 42.688 19.104 42.688 42.656v42.688l97.12-48.576a21.312 21.312 0 0 1 6.976-2.112l2.368-0.128a21.344 21.344 0 0 1 21.536 21.312v186.976a21.344 21.344 0 0 1-18.88 21.184l-2.464 0.16a21.344 21.344 0 0 1-9.536-2.24l-97.12-48.576V384zM175.936 298.656H128.864l0.416 4.864c3.328 36.288 10.144 71.584 20.064 105.536l2.112 7.008 34.048-34.08-9.568-83.328zM768 213.344h-170.656v128H768v-128z" p-id="6714"></path></svg>