<?xml version="1.0" standalone="no"?><!DOCTYPE svg PUBLIC "-//W3C//DTD SVG 1.1//EN" "http://www.w3.org/Graphics/SVG/1.1/DTD/svg11.dtd"><svg t="1621410951125" class="icon" viewBox="0 0 1024 1024" version="1.1" xmlns="http://www.w3.org/2000/svg" p-id="6844" xmlns:xlink="http://www.w3.org/1999/xlink" width="200" height="200"><defs><style type="text/css"></style></defs><path d="M512 42.666667c259.2 0 469.333333 210.133333 469.333333 469.333333 0 256.618667-205.952 465.130667-461.568 469.269333L512 981.333333H81.536a21.333333 21.333333 0 0 1-18.005333-32.789333l87.168-136.96A467.413333 467.413333 0 0 1 42.666667 512C42.666667 252.8 252.8 42.666667 512 42.666667z m149.333333 533.333333H362.666667a21.333333 21.333333 0 0 0-21.333334 21.333333v42.666667a21.333333 21.333333 0 0 0 21.333334 21.333333h298.666666a21.333333 21.333333 0 0 0 21.333334-21.333333v-42.666667a21.333333 21.333333 0 0 0-21.333334-21.333333z m0-213.333333H362.666667a21.333333 21.333333 0 0 0-21.333334 21.333333v42.666667a21.333333 21.333333 0 0 0 21.333334 21.333333h298.666666a21.333333 21.333333 0 0 0 21.333334-21.333333v-42.666667a21.333333 21.333333 0 0 0-21.333334-21.333333z" fill="#8F959E" p-id="6845"></path></svg>