<?xml version="1.0" standalone="no"?><!DOCTYPE svg PUBLIC "-//W3C//DTD SVG 1.1//EN" "http://www.w3.org/Graphics/SVG/1.1/DTD/svg11.dtd"><svg t="1611199323499" class="icon" viewBox="0 0 1024 1024" version="1.1" xmlns="http://www.w3.org/2000/svg" p-id="7862" xmlns:xlink="http://www.w3.org/1999/xlink" width="200" height="200"><defs><style type="text/css"></style></defs><path d="M682.656 192A85.344 85.344 0 0 1 768 277.344v89.568l100.352-70.24A67.04 67.04 0 0 1 928 288c19.104 6.4 32 24.256 32 44.384v359.232c0 20.16-12.896 38.016-32 44.384-20.16 6.72-42.24 3.52-59.648-8.672L768 657.056v89.6A85.344 85.344 0 0 1 682.656 832H149.344A85.344 85.344 0 0 1 64 746.656V277.344A85.344 85.344 0 0 1 149.344 192h533.312z m0 85.344H149.344v469.312h533.312V277.344z m192 119.04L768 471.04v81.92l106.656 74.656v-231.2z" fill="#8F959E" opacity=".65" p-id="7863"></path></svg>