<?xml version="1.0" standalone="no"?><!DOCTYPE svg PUBLIC "-//W3C//DTD SVG 1.1//EN" "http://www.w3.org/Graphics/SVG/1.1/DTD/svg11.dtd"><svg t="1591945579769" class="icon" viewBox="0 0 1024 1024" version="1.1" xmlns="http://www.w3.org/2000/svg" p-id="5371" xmlns:xlink="http://www.w3.org/1999/xlink" width="200" height="200"><defs><style type="text/css"></style></defs><path d="M883.2 768a38.4 38.4 0 0 1 0 76.8h-486.4a38.4 38.4 0 0 1 0-76.8h486.4z m-665.6 0a38.4 38.4 0 0 1 0 76.8h-76.8a38.4 38.4 0 0 1 0-76.8h76.8z m665.6-281.6a38.4 38.4 0 0 1 0 76.8h-486.4a38.4 38.4 0 0 1 0-76.8h486.4z m-665.6 0a38.4 38.4 0 0 1 0 76.8h-76.8a38.4 38.4 0 0 1 0-76.8h76.8z m665.6-281.6a38.4 38.4 0 0 1 0 76.8h-486.4a38.4 38.4 0 0 1 0-76.8h486.4z m-665.6 0a38.4 38.4 0 0 1 0 76.8h-76.8a38.4 38.4 0 0 1 0-76.8h76.8z" p-id="5372"></path></svg>