<?xml version="1.0" standalone="no"?><!DOCTYPE svg PUBLIC "-//W3C//DTD SVG 1.1//EN" "http://www.w3.org/Graphics/SVG/1.1/DTD/svg11.dtd"><svg t="1606891663605" class="icon" viewBox="0 0 1024 1024" version="1.1" xmlns="http://www.w3.org/2000/svg" p-id="5028" xmlns:xlink="http://www.w3.org/1999/xlink" width="200" height="200"><defs><style type="text/css"></style></defs><path d="M832 544a128 128 0 0 1 128 128v32h16a48 48 0 0 1 48 48v192a48 48 0 0 1-48 48h-288a48 48 0 0 1-48-48v-192a48 48 0 0 1 48-48h16v-32a128 128 0 0 1 128-128zM640 224a64 64 0 0 1 64 64v102.4l127.072-76.256A64 64 0 0 1 928 369.024V448h-32c-21.856 0-43.232 1.984-64 5.792v-28.256L687.904 512l3.072 1.856A354.016 354.016 0 0 0 608 597.568V320H192v384h365.248c-7.392 26.144-11.84 53.536-12.96 81.792L544 800H160a64 64 0 0 1-64-64V288a64 64 0 0 1 64-64h480z m192 400a48 48 0 0 0-47.776 43.392L784 672v32h96v-32a48 48 0 0 0-43.392-47.776L832 624z" p-id="5029"></path></svg>