<?xml version="1.0" standalone="no"?><!DOCTYPE svg PUBLIC "-//W3C//DTD SVG 1.1//EN" "http://www.w3.org/Graphics/SVG/1.1/DTD/svg11.dtd"><svg t="1638770770732" class="icon" viewBox="0 0 1024 1024" version="1.1" xmlns="http://www.w3.org/2000/svg" p-id="7164" xmlns:xlink="http://www.w3.org/1999/xlink" width="48" height="48"><defs><style type="text/css"></style></defs><path d="M789.333333 384a21.333333 21.333333 0 0 1 21.333334 21.333333v326.848l50.944-50.901333a21.333333 21.333333 0 0 1 30.165333 0l30.165333 30.165333a21.333333 21.333333 0 0 1 0 30.165334l-114.048 114.112A32 32 0 0 1 778.666667 874.666667H746.666667a21.333333 21.333333 0 0 1-21.333334-21.333334V405.333333a21.333333 21.333333 0 0 1 21.333334-21.333333h42.666666zM576 768a21.333333 21.333333 0 0 1 21.333333 21.333333v42.666667a21.333333 21.333333 0 0 1-21.333333 21.333333H149.333333a21.333333 21.333333 0 0 1-21.333333-21.333333v-42.666667a21.333333 21.333333 0 0 1 21.333333-21.333333h426.666667z m0-298.666667a21.333333 21.333333 0 0 1 21.333333 21.333334v42.666666a21.333333 21.333333 0 0 1-21.333333 21.333334H149.333333a21.333333 21.333333 0 0 1-21.333333-21.333334v-42.666666a21.333333 21.333333 0 0 1 21.333333-21.333334h426.666667zM874.666667 170.666667a21.333333 21.333333 0 0 1 21.333333 21.333333v42.666667a21.333333 21.333333 0 0 1-21.333333 21.333333H149.333333a21.333333 21.333333 0 0 1-21.333333-21.333333V192a21.333333 21.333333 0 0 1 21.333333-21.333333h725.333334z" fill="#1F2126" p-id="7165"></path></svg>