<?xml version="1.0" standalone="no"?><!DOCTYPE svg PUBLIC "-//W3C//DTD SVG 1.1//EN" "http://www.w3.org/Graphics/SVG/1.1/DTD/svg11.dtd"><svg t="1625557743028" class="icon" viewBox="0 0 1024 1024" version="1.1" xmlns="http://www.w3.org/2000/svg" p-id="5862" xmlns:xlink="http://www.w3.org/1999/xlink" width="200" height="200"><defs><style type="text/css"></style></defs><path d="M915.946667 663.744l0.085333 0.533333 0.256 1.941334-0.256-1.92c0.256 1.856 0.490667 3.733333 0.682667 5.610666l0.128 1.557334 0.085333 0.981333 0.106667 1.450667 0.128 2.154666 0.064 1.194667c0.064 1.792 0.106667 3.605333 0.106666 5.418667v42.666666h42.666667a21.333333 21.333333 0 0 1 21.333333 21.333334v213.333333a21.333333 21.333333 0 0 1-21.333333 21.333333H618.666667a21.333333 21.333333 0 0 1-21.333334-21.333333V746.666667a21.333333 21.333333 0 0 1 21.333334-21.333334h42.666666v-42.666666c0-1.856 0.042667-3.733333 0.128-5.568l0.042667-1.002667 0.085333-1.429333a128.853333 128.853333 0 0 1 0.362667-4.629334l-0.448 6.058667a128.917333 128.917333 0 0 1 1.216-12.352l0.085333-0.490667a127.658667 127.658667 0 0 1 1.109334-6.293333l0.256-1.237333 0.789333-3.413334 0.256-1.024 0.106667-0.469333c1.322667-5.184 2.986667-10.24 4.906666-15.146667l-2.069333 5.674667a127.082667 127.082667 0 0 1 12.352-26.112l0.704-1.088c5.546667-8.789333 12.16-16.853333 19.648-23.978667l0.618667-0.597333 0.32-0.298667a128.362667 128.362667 0 0 1 27.392-19.626666l0.32-0.170667c1.92-1.024 3.882667-1.984 5.866666-2.901333l2.538667-1.152c1.706667-0.746667 3.285333-1.408 4.864-2.026667l0.96-0.362667 2.944-1.088a126.997333 126.997333 0 0 1 5.504-1.813333l4.266667-1.194667A128.426667 128.426667 0 0 1 789.333333 554.666667c40.170667 0 76.010667 18.496 99.477334 47.445333l2.773333 3.52 2.261333 3.114667 3.029334 4.48 0.448 0.704a128 128 0 0 1 2.261333 3.669333l0.597333 1.024 0.682667 1.194667c1.045333 1.834667 2.048 3.712 2.986667 5.610666l0.512 1.045334 0.576 1.152 1.109333 2.389333 0.256 0.576 0.213333 0.533333c0.981333 2.176 1.877333 4.394667 2.709334 6.613334l0.533333 1.472 0.469333 1.28 0.682667 2.069333 0.362667 1.130667 0.64 2.005333c0.938667 3.136 1.770667 6.336 2.474666 9.557333l0.170667 0.789334 0.618667 3.114666 0.64 3.84 0.128 0.746667zM502.613333 97.301333A32 32 0 0 1 512 119.893333V904.106667a32 32 0 0 1-54.613333 22.613333L213.333333 682.666667H64a21.333333 21.333333 0 0 1-21.333333-21.333334V362.666667a21.333333 21.333333 0 0 1 21.333333-21.333334h149.333333L457.386667 97.28a32 32 0 0 1 45.226666 0zM426.666667 248.661333L248.682667 426.666667H128v170.666666h120.682667L426.666667 775.317333V248.661333zM789.333333 640a42.666667 42.666667 0 0 0-42.56 39.466667L746.666667 682.666667v42.666666h84.650666l0.704-1.024L832 682.666667a42.666667 42.666667 0 0 0-39.466667-42.56L789.333333 640zM618.666667 54.826667c207.829333 48.32 362.666667 234.666667 362.666666 457.173333 0 23.125333-1.664 45.866667-4.906666 68.096a214.229333 214.229333 0 0 0-80.682667-82.368C889.557333 328.938667 774.485333 187.946667 618.666667 143.018667V54.826667z m0 224.384a256.341333 256.341333 0 0 1 146.026666 191.530666c-29.866667 3.434667-57.813333 13.013333-82.602666 27.477334a170.282667 170.282667 0 0 0-63.402667-119.424v-99.584z" fill="#363940" p-id="5863"></path></svg>