<?xml version="1.0" standalone="no"?><!DOCTYPE svg PUBLIC "-//W3C//DTD SVG 1.1//EN" "http://www.w3.org/Graphics/SVG/1.1/DTD/svg11.dtd"><svg t="1606362242857" class="icon" viewBox="0 0 1024 1024" version="1.1" xmlns="http://www.w3.org/2000/svg" p-id="4745" xmlns:xlink="http://www.w3.org/1999/xlink" width="200" height="200"><defs><style type="text/css"></style></defs><path d="M597.333333 874.666667a85.333333 85.333333 0 0 1-81.066666 85.226666L512 960a85.333333 85.333333 0 0 1-85.226667-81.066667L426.666667 874.666667h170.666666z m234.666667-426.666667v277.333333l64 42.666667v64H373.013333l85.333334-85.333333H746.666667V458.346667l78.144-78.122667C829.504 402.069333 832 424.746667 832 448zM512 64a64 64 0 0 1 64 64v6.4c34.346667 6.976 66.709333 19.456 96.106667 36.48l-63.253334 63.253333a232.874667 232.874667 0 0 0-43.84-14.805333l-5.973333-1.28L512 208.448l-47.018667 9.557333c-106.389333 21.589333-184.704 114.346667-187.562666 223.765334L277.333333 448v117.653333l-85.333333 85.333334V448c0-154.816 109.952-283.946667 256-313.6V128a64 64 0 0 1 60.245333-63.893333L512 64z" fill="#1F2125" p-id="4746"></path><path d="M858.953727 104.706494m30.16989 30.169889l0 0q30.169889 30.169889 0 60.339779l-693.907455 693.907455q-30.169889 30.169889-60.339779 0l0 0q-30.169889-30.169889 0-60.339779l693.907455-693.907455q30.169889-30.169889 60.339779 0Z" fill="#F24848" p-id="4747"></path></svg>