<?xml version="1.0" standalone="no"?><!DOCTYPE svg PUBLIC "-//W3C//DTD SVG 1.1//EN" "http://www.w3.org/Graphics/SVG/1.1/DTD/svg11.dtd"><svg t="1629979475651" class="icon" viewBox="0 0 1024 1024" version="1.1" xmlns="http://www.w3.org/2000/svg" p-id="6060" xmlns:xlink="http://www.w3.org/1999/xlink" width="200" height="200"><defs><style type="text/css"></style></defs><path d="M512 42.666667c259.2 0 469.333333 210.133333 469.333333 469.333333 0 23.146667-1.664 45.866667-4.906666 68.117333a214.122667 214.122667 0 0 0-80.661334-82.389333C888.213333 292.266667 719.296 128 512 128 299.925333 128 128 299.925333 128 512s171.925333 384 384 384v64l0.106667 4.629333c0.234667 5.696 0.917333 11.285333 2.026666 16.704H512C252.8 981.333333 42.666667 771.2 42.666667 512S252.8 42.666667 512 42.666667z m403.968 621.226666l0.362667 2.624c0.149333 1.173333 0.277333 2.346667 0.384 3.541334l0.128 1.408 0.064 0.725333 0.128 1.706667 0.128 2.154666 0.064 1.194667c0.064 1.792 0.106667 3.605333 0.106666 5.418667v42.666666h42.666667a21.333333 21.333333 0 0 1 21.333333 21.333334v213.333333a21.333333 21.333333 0 0 1-21.333333 21.333333H618.666667a21.333333 21.333333 0 0 1-18.474667-10.645333l1.429333 2.090667A21.056 21.056 0 0 1 597.333333 960V746.666667a21.333333 21.333333 0 0 1 21.333334-21.333334h42.666666v-42.666666a128 128 0 0 1 224.810667-83.754667l0.384 0.469333 0.384 0.426667 1.92 2.304 2.730667 3.52 2.282666 3.114667 3.029334 4.48c0.981333 1.514667 1.834667 2.901333 2.666666 4.309333l0.64 1.088 0.384 0.661333c1.024 1.813333 2.026667 3.626667 2.986667 5.504l0.810667 1.685334 0.618666 1.28 0.896 1.92 0.426667 0.917333 0.362667 0.853333c0.917333 2.090667 1.792 4.224 2.581333 6.378667l0.512 1.386667 0.426667 1.173333 0.725333 2.154667 0.362667 1.152 0.64 2.005333c0.938667 3.136 1.770667 6.336 2.474666 9.557333l0.170667 0.789334 0.618667 3.114666c0.298667 1.557333 0.554667 3.157333 0.789333 4.736z m-554.816-212.224a42.666667 42.666667 0 0 1 2.496 57.6l-2.496 2.730667A106.666667 106.666667 0 1 0 512 512l60.330667-60.330667a191.104 191.104 0 0 1 52.053333 95.765334 212.586667 212.586667 0 0 0-44.16 92.736l-1.365333 7.488-3.712 1.6-4.266667 2.005333a106.666667 106.666667 0 0 0-58.773333 90.432L512 746.666667v17.365333a192.064 192.064 0 0 1-211.2-312.362667l2.346667-2.176a42.666667 42.666667 0 0 1 58.005333 2.176zM789.333333 640a42.666667 42.666667 0 0 0-42.56 39.466667L746.666667 682.666667v42.666666h84.650666l0.704-1.024L832 682.666667a42.666667 42.666667 0 0 0-39.466667-42.56L789.333333 640z m-66.133333-339.2a191.786667 191.786667 0 0 1 53.354667 168.917333 211.946667 211.946667 0 0 0-103.893334 34.346667l-6.357333 4.309333 0.213333-0.213333a106.666667 106.666667 0 1 0-158.186666 0L512 512l-60.330667 60.330667a192 192 0 1 1 271.509334-271.509334z" fill="#363940" p-id="6061"></path></svg>