<?xml version="1.0" standalone="no"?><!DOCTYPE svg PUBLIC "-//W3C//DTD SVG 1.1//EN" "http://www.w3.org/Graphics/SVG/1.1/DTD/svg11.dtd"><svg t="1597728768915" class="icon" viewBox="0 0 1024 1024" version="1.1" xmlns="http://www.w3.org/2000/svg" p-id="4192" xmlns:xlink="http://www.w3.org/1999/xlink" width="200" height="200"><defs><style type="text/css"></style></defs><path d="M464 544c141.392 0 256 114.608 256 256v80a64 64 0 0 1-64 64H112a64 64 0 0 1-64-64v-80c0-141.392 114.608-256 256-256h160z m352-200a40 40 0 0 1 40 40v80h80a40 40 0 1 1 0 80h-80v80a40 40 0 1 1-80 0v-80h-80a40 40 0 1 1 0-80h80v-80a40 40 0 0 1 40-40zM384 80c106.032 0 192 85.968 192 192s-85.968 192-192 192-192-85.968-192-192S277.968 80 384 80z" p-id="4193"></path></svg>