<?xml version="1.0" standalone="no"?><!DOCTYPE svg PUBLIC "-//W3C//DTD SVG 1.1//EN" "http://www.w3.org/Graphics/SVG/1.1/DTD/svg11.dtd"><svg t="1634873416354" class="icon" viewBox="0 0 1024 1024" version="1.1" xmlns="http://www.w3.org/2000/svg" p-id="6970" xmlns:xlink="http://www.w3.org/1999/xlink" width="48" height="48"><defs><style type="text/css"></style></defs><path d="M346.069333 300.714667L512 466.666667l165.930667-165.952a10.666667 10.666667 0 0 1 13.610666-1.216l1.493334 1.216 30.144 30.186666a10.666667 10.666667 0 0 1 0 15.082667l-165.930667 165.930667 165.930667 165.930666a10.666667 10.666667 0 0 1 0 15.082667l-30.165334 30.165333a10.666667 10.666667 0 0 1-15.082666 0L512 557.162667l-165.930667 165.930666a10.666667 10.666667 0 0 1-13.610666 1.237334l-1.493334-1.237334-30.144-30.165333a10.666667 10.666667 0 0 1 0-15.082667l165.930667-165.930666-165.930667-165.930667a10.666667 10.666667 0 0 1 0-15.082667l30.165334-30.186666a10.666667 10.666667 0 0 1 15.082666 0z" fill="#363940" p-id="6971"></path></svg>