<?xml version="1.0" standalone="no"?><!DOCTYPE svg PUBLIC "-//W3C//DTD SVG 1.1//EN" "http://www.w3.org/Graphics/SVG/1.1/DTD/svg11.dtd"><svg t="1597728723512" class="icon" viewBox="0 0 1024 1024" version="1.1" xmlns="http://www.w3.org/2000/svg" p-id="3912" xmlns:xlink="http://www.w3.org/1999/xlink" width="200" height="200"><defs><style type="text/css"></style></defs><path d="M512 64c247.424 0 448 200.576 448 448S759.424 960 512 960H144a80 80 0 0 1-80-80V512C64 264.576 264.576 64 512 64z m0 256a40 40 0 0 0-40 40v112h-112a40 40 0 1 0 0 80h112v112a40 40 0 1 0 80 0v-112h112a40 40 0 1 0 0-80h-112v-112A40 40 0 0 0 512 320z" p-id="3913"></path></svg>