<?xml version="1.0" standalone="no"?><!DOCTYPE svg PUBLIC "-//W3C//DTD SVG 1.1//EN" "http://www.w3.org/Graphics/SVG/1.1/DTD/svg11.dtd"><svg t="1600416008138" class="icon" viewBox="0 0 1024 1024" version="1.1" xmlns="http://www.w3.org/2000/svg" p-id="4587" xmlns:xlink="http://www.w3.org/1999/xlink" width="200" height="200"><defs><style type="text/css"></style></defs><path d="M505.429333 85.333333c232.021333 0 420.117333 188.096 420.117334 420.096 0 229.589333-184.149333 416.149333-412.8 420.053334l-7.317334 0.064H165.013333a52.522667 52.522667 0 0 1-43.925333-81.28l52.864-80.704A418.282667 418.282667 0 0 1 85.333333 505.429333C85.333333 273.429333 273.429333 85.333333 505.429333 85.333333z m0 85.333334C320.554667 170.666667 170.666667 320.554667 170.666667 505.429333c0 72.64 23.104 141.546667 65.216 198.592l5.376 7.04 37.546666 48.170667-53.056 80.96h278.954667l6.592-0.042667c182.4-3.114667 328.917333-152 328.917333-334.72C840.213333 320.554667 690.325333 170.666667 505.429333 170.666667z" p-id="4588"></path><path d="M618.666667 554.666667a42.666667 42.666667 0 1 1 0 85.333333H405.333333a42.666667 42.666667 0 1 1 0-85.333333h213.333334z m0-170.666667a42.666667 42.666667 0 1 1 0 85.333333H405.333333a42.666667 42.666667 0 1 1 0-85.333333h213.333334z" p-id="4589"></path></svg>