<?xml version="1.0" standalone="no"?><!DOCTYPE svg PUBLIC "-//W3C//DTD SVG 1.1//EN" "http://www.w3.org/Graphics/SVG/1.1/DTD/svg11.dtd"><svg t="1625557748040" class="icon" viewBox="0 0 1024 1024" version="1.1" xmlns="http://www.w3.org/2000/svg" p-id="5989" xmlns:xlink="http://www.w3.org/1999/xlink" width="200" height="200"><defs><style type="text/css"></style></defs><path d="M618.666667 54.826667c207.829333 48.32 362.666667 234.666667 362.666666 457.173333s-154.837333 408.853333-362.666666 457.173333v-88.192C778.88 834.773333 896 687.061333 896 512S778.858667 189.226667 618.666667 143.018667V54.826667z m-116.053334 42.453333A32 32 0 0 1 512 119.936V904.106667a32 32 0 0 1-54.613333 22.613333L213.333333 682.666667H64a21.333333 21.333333 0 0 1-21.333333-21.333334V362.666667a21.333333 21.333333 0 0 1 21.333333-21.333334h149.333333L457.386667 97.28a32 32 0 0 1 45.226666 0zM426.666667 248.682667L248.682667 426.666667H128v170.666666h120.682667L426.666667 775.317333V248.661333z m192 30.549333c88.128 40.469333 149.333333 129.493333 149.333333 232.789333 0 103.317333-61.205333 192.32-149.333333 232.789334l0.021333-99.584A170.346667 170.346667 0 0 0 682.666667 512a170.346667 170.346667 0 0 0-63.978667-133.205333v-99.584z" fill="#363940" p-id="5990"></path></svg>