<?xml version="1.0" standalone="no"?><!DOCTYPE svg PUBLIC "-//W3C//DTD SVG 1.1//EN" "http://www.w3.org/Graphics/SVG/1.1/DTD/svg11.dtd"><svg t="1610543489067" class="icon" viewBox="0 0 1024 1024" version="1.1" xmlns="http://www.w3.org/2000/svg" p-id="10529" xmlns:xlink="http://www.w3.org/1999/xlink" width="48" height="48"><defs><style type="text/css"></style></defs><path d="M128 42.666667m85.333333 0l597.333334 0q85.333333 0 85.333333 85.333333l0 768q0 85.333333-85.333333 85.333333l-597.333334 0q-85.333333 0-85.333333-85.333333l0-768q0-85.333333 85.333333-85.333333Z" fill="#F24848" p-id="10530"></path><path d="M896 128v178.151619c-30.378667 35.328-67.876571 66.267429-110.762667 91.428571l-13.360762 7.558096a523.190857 523.190857 0 0 1-142.214095 52.028952h-235.349333a523.190857 523.190857 0 0 1-142.189714-52.028952l-13.360762-7.558096c-42.910476-25.185524-80.408381-56.124952-110.811429-91.452952L128 128c0-5.510095 0.512-10.898286 1.511619-16.091429C146.870857 260.949333 308.540952 384 512 384c203.483429 0 365.153524-123.050667 382.464-272.164571 0.999619 5.241905 1.536 10.630095 1.536 16.164571z" fill="#FFFFFF" p-id="10531"></path><path d="M512 426.666667m-170.666667 0a170.666667 170.666667 0 1 0 341.333334 0 170.666667 170.666667 0 1 0-341.333334 0Z" fill="#FFFFFF" p-id="10532"></path><path d="M512 426.666667m-85.333333 0a85.333333 85.333333 0 1 0 170.666666 0 85.333333 85.333333 0 1 0-170.666666 0Z" fill="#F24848" p-id="10533"></path></svg>