<?xml version="1.0" standalone="no"?><!DOCTYPE svg PUBLIC "-//W3C//DTD SVG 1.1//EN" "http://www.w3.org/Graphics/SVG/1.1/DTD/svg11.dtd"><svg t="1598945405309" class="icon" viewBox="0 0 1024 1024" version="1.1" xmlns="http://www.w3.org/2000/svg" p-id="13342" xmlns:xlink="http://www.w3.org/1999/xlink" width="200" height="200"><defs><style type="text/css"></style></defs><path d="M210.304 149.973333L874.026667 813.674667a42.666667 42.666667 0 1 1-60.352 60.352L149.973333 210.304a42.666667 42.666667 0 0 1 60.352-60.352z m52.330667 293.653334l72.512 72.512-56.021334 11.2 196.906667 196.906666 11.2-56.021333 72.512 72.533333-23.466667 117.482667a21.333333 21.333333 0 0 1-36.032 10.901333l-152.832-152.832-120.661333 120.682667A42.666667 42.666667 0 0 1 166.4 776.661333l120.682667-120.704-152.832-152.810666a21.333333 21.333333 0 0 1 10.88-36.010667l117.504-23.509333z m311.061333-345.813334l331.861333 331.882667a42.666667 42.666667 0 1 1-60.330666 60.352l-30.186667-30.186667-87.082667 87.082667-60.330666-60.330667 87.082666-87.082666-150.869333-150.869334-87.082667 87.082667-60.330666-60.330667 87.082666-87.082666-30.144-30.165334a42.666667 42.666667 0 1 1 60.330667-60.330666z" p-id="13343"></path></svg>