<?xml version="1.0" standalone="no"?><!DOCTYPE svg PUBLIC "-//W3C//DTD SVG 1.1//EN"
    "http://www.w3.org/Graphics/SVG/1.1/DTD/svg11.dtd">
<svg class="icon" height="200.00px" version="1.1" viewBox="0 0 1024 1024" width="200px"
    xmlns="http://www.w3.org/2000/svg">
    <path
        d="M967.146667 449.066667a21.333333 21.333333 0 0 1 0 30.165333L936.96 509.44a21.333333 21.333333 0 0 1-30.165333 0l-45.248-45.269333-211.2 211.2-28.906667 144.512a21.333333 21.333333 0 0 1-5.824 10.901333l-40.682667 40.682667a21.333333 21.333333 0 0 1-30.165333 0l-165.952-165.930667L212.906667 871.466667a21.333333 21.333333 0 0 1-30.165334 0l-30.165333-30.165334a21.333333 21.333333 0 0 1 0-30.165333l165.930667-165.930667-165.930667-165.952a21.333333 21.333333 0 0 1 0-30.165333l40.682667-40.682667a21.333333 21.333333 0 0 1 10.901333-5.824l144.512-28.906666 211.2-211.2-45.269333-45.248a21.333333 21.333333 0 0 1 0-30.165334l30.186666-30.186666a21.333333 21.333333 0 0 1 30.165334 0L967.146667 449.066667z m-165.952-45.248l-181.013334-181.013334L390.72 452.266667l-120.405333 24.064 277.333333 277.333333 24.106667-120.384 229.44-229.461333z"
        fill="#363940" />
</svg>