<?xml version="1.0" standalone="no"?><!DOCTYPE svg PUBLIC "-//W3C//DTD SVG 1.1//EN" "http://www.w3.org/Graphics/SVG/1.1/DTD/svg11.dtd"><svg t="1599458350638" class="icon" viewBox="0 0 1024 1024" version="1.1" xmlns="http://www.w3.org/2000/svg" p-id="16001" xmlns:xlink="http://www.w3.org/1999/xlink" width="200" height="200"><defs><style type="text/css"></style></defs><path d="M530.261333 98.048c5.781333 0 11.370667 2.133333 15.68 6.016l396.48 356.565333a46.933333 46.933333 0 0 1 0 69.781334L545.92 886.976a23.466667 23.466667 0 0 1-39.146667-17.450667V649.514667c-22.186667-2.325333-43.690667-2.325333-68.906666-2.325334A356.138667 356.138667 0 0 0 147.584 796.16c-6.570667 9.6-21.610667 16.597333-34.026667 15.701333-23.573333-1.706667-31.04-21.909333-27.306666-51.754666 28.778667-216.576 202.069333-387.882667 420.544-415.296V121.514667a23.466667 23.466667 0 0 1 23.466666-23.466667z m53.312 143.168v171.370667l-67.221333 8.426666a410.026667 410.026667 0 0 0-308.714667 210.282667l-4.032 7.552 2.496-1.578667a433.322667 433.322667 0 0 1 223.104-66.773333l8.682667-0.106667 28.565333 0.149334c14.293333 0.170667 24.149333 0.597333 35.989334 1.493333l6.186666 0.490667 6.101334 0.597333 68.842666 7.168v169.536L866.346667 495.509333l-282.773334-254.293333z" p-id="16002"></path></svg>