<?xml version="1.0" standalone="no"?><!DOCTYPE svg PUBLIC "-//W3C//DTD SVG 1.1//EN" "http://www.w3.org/Graphics/SVG/1.1/DTD/svg11.dtd"><svg t="1598864757105" class="icon" viewBox="0 0 1024 1024" version="1.1" xmlns="http://www.w3.org/2000/svg" p-id="4172" xmlns:xlink="http://www.w3.org/1999/xlink" width="48" height="48"><defs><style type="text/css">@font-face { font-family: element-icons; src: url("chrome-extension://moombeodfomdpjnpocobemoiaemednkg/fonts/element-icons.woff") format("woff"), url("chrome-extension://moombeodfomdpjnpocobemoiaemednkg/fonts/element-icons.ttf ") format("truetype"); }
</style></defs><path d="M905.557333 429.696a42.666667 42.666667 0 0 1-60.330666 60.330667l-30.165334-30.165334-248.917333 248.917334-29.866667 149.461333a21.333333 21.333333 0 0 1-36.010666 10.922667l-152.832-152.874667-120.704 120.704A42.666667 42.666667 0 0 1 166.4 776.661333l120.661333-120.704-152.832-152.832a21.333333 21.333333 0 0 1 10.922667-35.968l149.461333-29.909333 248.917334-248.917333-30.165334-30.165334a42.666667 42.666667 0 1 1 60.330667-60.330666l331.861333 331.861333z" p-id="4173"></path></svg>