<?xml version="1.0" standalone="no"?><!DOCTYPE svg PUBLIC "-//W3C//DTD SVG 1.1//EN" "http://www.w3.org/Graphics/SVG/1.1/DTD/svg11.dtd"><svg t="1591945766819" class="icon" viewBox="0 0 1024 1024" version="1.1" xmlns="http://www.w3.org/2000/svg" p-id="7201" xmlns:xlink="http://www.w3.org/1999/xlink" width="200" height="200"><defs><style type="text/css"></style></defs><path d="M709.504 170.976l271.52 271.52c4.192 4.224 7.68 8.864 10.464 13.76a64 64 0 0 1 0 111.488 63.2 63.2 0 0 1-6.496 9.408l-3.968 4.352-271.52 271.52a64 64 0 0 1-94.272-86.432l3.744-4.096L805.472 576 64 576a64 64 0 1 1 0-128h741.472l-186.496-186.496a64 64 0 1 1 90.528-90.528z" p-id="7202"></path></svg>