<?xml version="1.0" standalone="no"?><!DOCTYPE svg PUBLIC "-//W3C//DTD SVG 1.1//EN" "http://www.w3.org/Graphics/SVG/1.1/DTD/svg11.dtd"><svg t="1591944825299" class="icon" viewBox="0 0 1024 1024" version="1.1" xmlns="http://www.w3.org/2000/svg" p-id="3907" xmlns:xlink="http://www.w3.org/1999/xlink" width="200" height="200"><defs><style type="text/css"></style></defs><path d="M853.333333 256a42.666667 42.666667 0 1 1 0 85.333333h-42.666666v512a85.333333 85.333333 0 0 1-85.333334 85.333334H298.666667a85.333333 85.333333 0 0 1-85.333334-85.333334V341.333333H170.666667a42.666667 42.666667 0 1 1 0-85.333333h682.666666z m-128 85.333333H298.666667v512h426.666666V341.333333z m-298.666666 85.333334a42.666667 42.666667 0 0 1 42.666666 42.666666v256a42.666667 42.666667 0 0 1-39.466666 42.56L426.666667 768a42.666667 42.666667 0 0 1-42.666667-42.666667V469.333333a42.666667 42.666667 0 0 1 39.466667-42.56L426.666667 426.666667z m170.666666 0a42.666667 42.666667 0 0 1 42.666667 42.666666v256a42.666667 42.666667 0 0 1-39.466667 42.56L597.333333 768a42.666667 42.666667 0 0 1-42.666666-42.666667V469.333333a42.666667 42.666667 0 0 1 39.466666-42.56L597.333333 426.666667z m42.666667-341.333334a42.666667 42.666667 0 1 1 0 85.333334H384a42.666667 42.666667 0 1 1 0-85.333334h256z" p-id="3908"></path></svg>