<?xml version="1.0" standalone="no"?><!DOCTYPE svg PUBLIC "-//W3C//DTD SVG 1.1//EN" "http://www.w3.org/Graphics/SVG/1.1/DTD/svg11.dtd"><svg t="1609137329883" class="icon" viewBox="0 0 1024 1024" version="1.1" xmlns="http://www.w3.org/2000/svg" p-id="9928" xmlns:xlink="http://www.w3.org/1999/xlink" width="200" height="200"><defs><style type="text/css"></style></defs><path d="M554.666667 650.325333V917.333333a21.333333 21.333333 0 0 1-21.333334 21.333334h-42.666666a21.333333 21.333333 0 0 1-21.333334-21.333334v-181.674666l85.333334-85.333334z m177.365333-177.344l66.581333 66.602667a21.333333 21.333333 0 0 1 0 30.165333l-30.165333 30.165334a21.333333 21.333333 0 0 1-30.165333 0L671.68 533.333333l60.352-60.330666z m-204.949333-204.928l23.936 23.914667-301.717334 301.696-23.914666-23.893333a21.333333 21.333333 0 0 1-1.770667-28.16l1.770667-2.026667 271.530666-271.530667a21.333333 21.333333 0 0 1 30.165334 0z m230.570666-182.741333l-85.333333 85.333333L192 170.666667a21.333333 21.333333 0 0 1-21.333333-21.333334V106.666667a21.333333 21.333333 0 0 1 21.333333-21.333334h565.653333z" p-id="9929"></path><path d="M904.213333 149.973333a21.333333 21.333333 0 0 1 0 30.165334L180.138667 904.192a21.333333 21.333333 0 0 1-30.186667 0l-30.165333-30.144a21.333333 21.333333 0 0 1 0-30.186667l724.074666-724.053333a21.333333 21.333333 0 0 1 30.186667 0l30.165333 30.144z" p-id="9930"></path></svg>