<?xml version="1.0" standalone="no"?><!DOCTYPE svg PUBLIC "-//W3C//DTD SVG 1.1//EN" "http://www.w3.org/Graphics/SVG/1.1/DTD/svg11.dtd"><svg t="1591944822201" class="icon" viewBox="0 0 1024 1024" version="1.1" xmlns="http://www.w3.org/2000/svg" p-id="3785" xmlns:xlink="http://www.w3.org/1999/xlink" width="200" height="200"><defs><style type="text/css"></style></defs><path d="M894.890667 256a42.666667 42.666667 0 0 1 42.56 39.466667l0.106666 3.2v85.333333a170.666667 170.666667 0 0 1-170.666666 170.666667H229.909333l139.413334 139.434666a42.666667 42.666667 0 1 1-60.330667 60.330667l-211.2-211.2A42.517333 42.517333 0 0 1 85.333333 514.794667v-5.589334c0.362667-9.045333 3.584-18.005333 9.685334-25.386666l2.773333-3.050667 211.2-211.2a42.666667 42.666667 0 0 1 62.826667 57.621333l-2.496 2.709334L229.866667 469.333333h537.024a85.333333 85.333333 0 0 0 85.226666-81.066666l0.106667-4.266667v-85.333333l0.128-3.2A42.666667 42.666667 0 0 1 894.890667 256z" p-id="3786"></path></svg>