<?xml version="1.0" standalone="no"?><!DOCTYPE svg PUBLIC "-//W3C//DTD SVG 1.1//EN" "http://www.w3.org/Graphics/SVG/1.1/DTD/svg11.dtd"><svg t="1609137336374" class="icon" viewBox="0 0 1024 1024" version="1.1" xmlns="http://www.w3.org/2000/svg" p-id="10054" xmlns:xlink="http://www.w3.org/1999/xlink" width="200" height="200"><defs><style type="text/css"></style></defs><path d="M496.917333 268.053333a21.333333 21.333333 0 0 1 30.165334 0l271.530666 271.530667a21.333333 21.333333 0 0 1 0 30.165333l-30.165333 30.165334a21.333333 21.333333 0 0 1-30.165333 0L512 373.653333 285.717333 599.893333a21.333333 21.333333 0 0 1-28.309333 1.664l-1.856-1.664-30.165333-30.165333a21.333333 21.333333 0 0 1 0-30.165333l271.530666-271.530667z" p-id="10055"></path><path d="M469.333333 341.333333m21.333334 0l42.666666 0q21.333333 0 21.333334 21.333334l0 554.666666q0 21.333333-21.333334 21.333334l-42.666666 0q-21.333333 0-21.333334-21.333334l0-554.666666q0-21.333333 21.333334-21.333334Z" p-id="10056"></path><path d="M170.666667 85.333333m21.333333 0l640 0q21.333333 0 21.333333 21.333334l0 42.666666q0 21.333333-21.333333 21.333334l-640 0q-21.333333 0-21.333333-21.333334l0-42.666666q0-21.333333 21.333333-21.333334Z" p-id="10057"></path></svg>