<?xml version="1.0" standalone="no"?><!DOCTYPE svg PUBLIC "-//W3C//DTD SVG 1.1//EN" "http://www.w3.org/Graphics/SVG/1.1/DTD/svg11.dtd"><svg t="1651739612205" class="icon" viewBox="0 0 1024 1024" version="1.1" xmlns="http://www.w3.org/2000/svg" p-id="7641" xmlns:xlink="http://www.w3.org/1999/xlink" width="200" height="200"><defs><style type="text/css">@font-face { font-family: feedback-iconfont; src: url("//at.alicdn.com/t/font_1031158_u69w8yhxdu.woff2?t=1630033759944") format("woff2"), url("//at.alicdn.com/t/font_1031158_u69w8yhxdu.woff?t=1630033759944") format("woff"), url("//at.alicdn.com/t/font_1031158_u69w8yhxdu.ttf?t=1630033759944") format("truetype"); }
</style></defs><path d="M341.33376 341.333333c188.522667 0 341.333333 152.810667 341.333333 341.333334 0 181.376-141.44 329.706667-320.064 340.693333L362.667093 1024H21.291093a10.666667 10.666667 0 0 1-8.533333-17.066667l73.194667-97.792A340.053333 340.053333 0 0 1 0.000427 682.666667c0-188.522667 152.810667-341.333333 341.333333-341.333334z m0 85.333334C199.95776 426.666667 85.33376 541.290667 85.33376 682.666667c0 60.906667 21.248 118.293333 59.370667 163.946666l5.077333 5.888 46.186667 52.053334L170.411093 938.666667h178.645334l8.32-0.490667c132.309333-8.128 236.586667-116.565333 239.872-249.088L597.33376 682.666667c0-141.376-114.624-256-256-256zM682.667093 0c188.522667 0 341.333333 152.810667 341.333334 341.333333 0 83.904-30.293333 160.746667-80.490667 220.16l-5.461333 6.314667 73.194666 97.813333a10.666667 10.666667 0 0 1-6.613333 16.853334l-1.92 0.192H768.000427c0-29.226667-2.944-57.749333-8.533334-85.333334h94.101334l-25.536-34.112 46.186666-52.053333A254.677333 254.677333 0 0 0 938.667093 341.333333c0-141.376-114.624-256-256-256-115.498667 0-213.141333 76.501333-245.013333 181.589334a426.048 426.048 0 0 0-85.589333-10.794667C389.888427 108.842667 523.584427 0 682.667093 0z" fill="#363940" p-id="7642"></path></svg>