<?xml version="1.0" standalone="no"?><!DOCTYPE svg PUBLIC "-//W3C//DTD SVG 1.1//EN"
    "http://www.w3.org/Graphics/SVG/1.1/DTD/svg11.dtd">
<svg t="1591945764298" class="icon" viewBox="0 0 1024 1024" version="1.1"
    xmlns="http://www.w3.org/2000/svg" p-id="7079" xmlns:xlink="http://www.w3.org/1999/xlink"
    width="200" height="200">
    <defs>
        <style type="text/css"></style>
    </defs>
    <path
        d="M448 64c66.304 0 129.28 14.4 185.888 40.256a270.976 270.976 0 0 0-45.12 85.056A350.464 350.464 0 0 0 448 160C253.6 160 96 317.6 96 512s157.6 352 352 352c185.12 0 336.864-142.912 350.944-324.416a272.288 272.288 0 0 0 96.192 0.32C880.736 774.368 686.048 960 448 960 200.576 960 0 759.424 0 512S200.576 64 448 64z m160 512a160 160 0 0 1-320 0h320zM288 352a64 64 0 1 1 0 128 64 64 0 0 1 0-128z m320 0a64 64 0 1 1 0 128 64 64 0 0 1 0-128z m240-256A48 48 0 0 1 896 144V224h80a48 48 0 0 1 0 96H896v80a48 48 0 0 1-96 0V320h-80a48 48 0 0 1 0-96H800V144A48 48 0 0 1 848 96z"
        p-id="7080"></path>
</svg>