<?xml version="1.0" standalone="no"?><!DOCTYPE svg PUBLIC "-//W3C//DTD SVG 1.1//EN" "http://www.w3.org/Graphics/SVG/1.1/DTD/svg11.dtd"><svg t="1591945760725" class="icon" viewBox="0 0 1024 1024" version="1.1" xmlns="http://www.w3.org/2000/svg" p-id="6957" xmlns:xlink="http://www.w3.org/1999/xlink" width="200" height="200"><defs><style type="text/css"></style></defs><path d="M771.072 636.928a48 48 0 0 0-67.872 0L560 780.16 560 112a48 48 0 0 0-96 0v668.16l-143.2-143.232a48 48 0 0 0-64.224-3.296l-3.648 3.296A48 48 0 0 0 249.6 701.12l3.296 3.648 216.48 216.576a48.064 48.064 0 0 0 42.592 23.744 47.84 47.84 0 0 0 42.56-23.744l216.512-216.576a48 48 0 0 0 0-67.872z" p-id="6958"></path></svg>