<?xml version="1.0" standalone="no"?><!DOCTYPE svg PUBLIC "-//W3C//DTD SVG 1.1//EN" "http://www.w3.org/Graphics/SVG/1.1/DTD/svg11.dtd"><svg t="1591944817912" class="icon" viewBox="0 0 1024 1024" version="1.1" xmlns="http://www.w3.org/2000/svg" p-id="3663" xmlns:xlink="http://www.w3.org/1999/xlink" width="200" height="200"><defs><style type="text/css"></style></defs><path d="M640 256a85.333333 85.333333 0 0 1 85.333333 85.333333v512a85.333333 85.333333 0 0 1-85.333333 85.333334H213.333333a85.333333 85.333333 0 0 1-85.333333-85.333334V341.333333a85.333333 85.333333 0 0 1 85.333333-85.333333h426.666667z m0 85.333333H213.333333v512h426.666667V341.333333z m170.666667-256a85.333333 85.333333 0 0 1 85.333333 85.333334v512a85.333333 85.333333 0 0 1-85.333333 85.333333V170.666667H298.666667a85.333333 85.333333 0 0 1 85.333333-85.333334h426.666667z" p-id="3664"></path></svg>