<?xml version="1.0" standalone="no"?><!DOCTYPE svg PUBLIC "-//W3C//DTD SVG 1.1//EN" "http://www.w3.org/Graphics/SVG/1.1/DTD/svg11.dtd"><svg class="icon" width="200px" height="200.00px" viewBox="0 0 1024 1024" version="1.1" xmlns="http://www.w3.org/2000/svg"><path d="M533.333333 71.253333a21.333333 21.333333 0 0 1 14.741334 5.930667l430.421333 411.690667a32 32 0 0 1 3.136 42.773333l-2.624 2.986667-430.933333 412.181333A21.333333 21.333333 0 0 1 512 931.413333V704h-192c-103.317333 0-192.32 61.184-232.768 149.312h-44.586667V789.333333C42.666667 530.133333 252.8 320 512 320V92.586667a21.333333 21.333333 0 0 1 21.333333-21.333334z m64 171.114667V405.333333h-85.333333c-167.296 0-309.610667 106.986667-362.24 256.298667l-1.088 3.093333 4.672-2.645333a340.565333 340.565333 0 0 1 159.189333-43.328L320 618.666667l277.333333-0.021334-0.021333 162.965334 281.877333-269.632L597.333333 242.368z" fill="#1F2126" /></svg>