<?xml version="1.0" standalone="no"?><!DOCTYPE svg PUBLIC "-//W3C//DTD SVG 1.1//EN"
    "http://www.w3.org/Graphics/SVG/1.1/DTD/svg11.dtd">
<svg xmlns:xlink="http://www.w3.org/1999/xlink" class="icon" height="200" p-id="6913"
    t="1641991605155" version="1.1" viewBox="0 0 1024 1024"
    width="200" xmlns="http://www.w3.org/2000/svg">
    <defs>
        <style type="text/css"></style>
    </defs>
    <path
        d="M127.957333 339.306667a501.546667 501.546667 0 0 0 102.805334 66.965333l11.52 5.546667 13.589333 6.08a609.066667 609.066667 0 0 0 109.162667 35.392 149.354667 149.354667 0 0 0 293.930666 0 613.546667 613.546667 0 0 0 98.816-31.018667l10.346667-4.373333 13.568-6.101334c42.709333-19.882667 81.216-44.352 114.325333-72.469333L896 917.333333a64 64 0 0 1-64 64H192a64 64 0 0 1-64-64l-0.042667-578.026666z m451.157334 34.666666l0.853333 1.066667a85.632 85.632 0 0 1 13.141333 25.002667c2.730667 8.384 4.224 17.322667 4.224 26.624 0 20.074667-6.933333 38.549333-18.56 53.12a82.602667 82.602667 0 0 1-5.717333 6.485333l-0.917333 0.938667a71.381333 71.381333 0 0 1-4.544 4.202666 96.426667 96.426667 0 0 1-7.808 5.973334l-0.832 0.533333a80.213333 80.213333 0 0 1-12.202667 6.72 83.669333 83.669333 0 0 1-25.984 6.912c-2.88 0.298667-5.802667 0.448-8.768 0.448l-4.266667-0.106667a85.973333 85.973333 0 0 1-30.485333-7.253333 84.693333 84.693333 0 0 1-25.194667-17.258667 85.845333 85.845333 0 0 1-16.256-22.272A84.949333 84.949333 0 0 1 426.666667 426.666667c0-10.538667 1.92-20.629333 5.397333-29.952l-1.152 3.349333a84.693333 84.693333 0 0 1 3.072-8.021333l0.106667-0.213334-0.106667 0.213334a85.589333 85.589333 0 0 1 69.44-50.282667 86.4 86.4 0 0 1 40.149333 5.610667 84.842667 84.842667 0 0 1 27.349334 17.578666l2.688 2.666667c1.92 2.026667 3.776 4.138667 5.504 6.357333zM832 42.666667a64 64 0 0 1 64 64v142.442666c-53.866667 64-138.24 114.24-239.68 139.093334a149.354667 149.354667 0 0 0-288.64 0.021333C266.24 363.349333 181.845333 313.130667 128 249.109333V106.666667a64 64 0 0 1 64-64h640z"
        fill="#F35D4C" p-id="6914"></path>
</svg>