<?xml version="1.0" standalone="no"?><!DOCTYPE svg PUBLIC "-//W3C//DTD SVG 1.1//EN" "http://www.w3.org/Graphics/SVG/1.1/DTD/svg11.dtd"><svg t="1599040498265" class="icon" viewBox="0 0 1024 1024" version="1.1" xmlns="http://www.w3.org/2000/svg" p-id="4219" xmlns:xlink="http://www.w3.org/1999/xlink" width="200" height="200"><defs><style type="text/css"></style></defs><path d="M980.906667 384C817.066667 220.16 588.8 160.426667 377.173333 203.946667L484.693333 311.466667c148.053333-7.253333 298.24 44.8 410.88 157.866666l85.333334-85.333333z m-170.666667 170.666667C755.2 499.626667 689.066667 463.786667 618.666667 445.44l150.613333 150.613333L810.24 554.666667zM85.333333 130.133333l130.986667 130.133334C153.6 290.986667 94.72 331.946667 42.666667 384l84.906666 85.333333a530.464 530.464 0 0 1 179.2-118.186666l95.573334 95.573333A413.173333 413.173333 0 0 0 213.333333 554.666667v0.426666L298.24 640c58.026667-58.026667 133.973333-87.04 209.92-87.893333L809.813333 853.333333 864 799.573333 140.373333 76.373333 85.333333 130.133333zM384 725.333333l128 128 128-128c-70.4-70.826667-185.173333-70.826667-256 0z" p-id="4220"></path></svg>