<?xml version="1.0" standalone="no"?><!DOCTYPE svg PUBLIC "-//W3C//DTD SVG 1.1//EN" "http://www.w3.org/Graphics/SVG/1.1/DTD/svg11.dtd"><svg t="1652951917619" class="icon" viewBox="0 0 1024 1024" version="1.1" xmlns="http://www.w3.org/2000/svg" p-id="9004" xmlns:xlink="http://www.w3.org/1999/xlink" width="200" height="200"><defs><style type="text/css">@font-face { font-family: feedback-iconfont; src: url("//at.alicdn.com/t/font_1031158_u69w8yhxdu.woff2?t=1630033759944") format("woff2"), url("//at.alicdn.com/t/font_1031158_u69w8yhxdu.woff?t=1630033759944") format("woff"), url("//at.alicdn.com/t/font_1031158_u69w8yhxdu.ttf?t=1630033759944") format("truetype"); }
</style></defs><path d="M362.666667 341.333333c176.725333 0 320 143.274667 320 320 0 174.506667-139.669333 316.373333-313.301334 319.936L362.666667 981.333333H62.933333a10.666667 10.666667 0 0 1-8.789333-16.704l65.450667-95.168A318.741333 318.741333 0 0 1 42.666667 661.333333c0-176.725333 143.274667-320 320-320z m0 85.333334c-129.6 0-234.666667 105.066667-234.666667 234.666666 0 54.250667 18.389333 105.472 51.541333 146.773334l4.842667 5.824 42.666667 49.813333L204.885333 896h156.928l5.824-0.042667C495.104 893.333333 597.333333 789.098667 597.333333 661.333333c0-129.6-105.066667-234.666667-234.666666-234.666666zM661.333333 42.666667c176.725333 0 320 143.274667 320 320 0 79.466667-28.970667 152.170667-76.928 208.128l65.450667 95.146666a10.666667 10.666667 0 0 1-6.890667 16.554667l-1.92 0.170667h-193.6a411.946667 411.946667 0 0 0-4.48-85.333334h56.149334l-22.186667-32.256 42.688-49.813333A233.386667 233.386667 0 0 0 896 362.666667c0-127.552-101.76-231.317333-228.522667-234.581334L661.333333 128c-94.72 0-176.362667 56.149333-213.418666 136.96A407.594667 407.594667 0 0 0 362.666667 256h-3.136C403.477333 131.733333 522.026667 42.666667 661.333333 42.666667z" fill="#1F2126" p-id="9005"></path></svg>