<?xml version="1.0" standalone="no"?><!DOCTYPE svg PUBLIC "-//W3C//DTD SVG 1.1//EN" "http://www.w3.org/Graphics/SVG/1.1/DTD/svg11.dtd"><svg t="1601386505360" class="icon" viewBox="0 0 1024 1024" version="1.1" xmlns="http://www.w3.org/2000/svg" p-id="4493" xmlns:xlink="http://www.w3.org/1999/xlink" width="48" height="48"><defs><style type="text/css">@font-face { font-family: element-icons; src: url("chrome-extension://moombeodfomdpjnpocobemoiaemednkg/fonts/element-icons.woff") format("woff"), url("chrome-extension://moombeodfomdpjnpocobemoiaemednkg/fonts/element-icons.ttf ") format("truetype"); }
</style></defs><path d="M149.333333 896a21.333333 21.333333 0 0 1-21.333333-21.333333V576a21.333333 21.333333 0 0 1 21.333333-21.333333h42.666667a21.333333 21.333333 0 0 1 21.333333 21.333333v234.666667h234.666667a21.333333 21.333333 0 0 1 21.333333 21.333333v42.666667a21.333333 21.333333 0 0 1-21.333333 21.333333H149.333333zM874.666667 128a21.333333 21.333333 0 0 1 21.333333 21.333333v298.666667a21.333333 21.333333 0 0 1-21.333333 21.333333h-42.666667a21.333333 21.333333 0 0 1-21.333333-21.333333V213.333333H576a21.333333 21.333333 0 0 1-21.333333-21.333333V149.333333a21.333333 21.333333 0 0 1 21.333333-21.333333h298.666667z" p-id="4494"></path></svg>