<?xml version="1.0" standalone="no"?><!DOCTYPE svg PUBLIC "-//W3C//DTD SVG 1.1//EN" "http://www.w3.org/Graphics/SVG/1.1/DTD/svg11.dtd"><svg t="1591945873419" class="icon" viewBox="0 0 1024 1024" version="1.1" xmlns="http://www.w3.org/2000/svg" p-id="7689" xmlns:xlink="http://www.w3.org/1999/xlink" width="200" height="200"><defs><style type="text/css"></style></defs><path d="M512 0C229.376 0 0 229.376 0 512s229.376 512 512 512 512-229.376 512-512S794.624 0 512 0z" fill="#F24848" p-id="7690"></path><path d="M512 682.666667a56.888889 56.888889 0 1 1 0 113.777777 56.888889 56.888889 0 0 1 0-113.777777z m0-455.111111a56.888889 56.888889 0 0 1 56.888889 56.888888v227.555556a56.888889 56.888889 0 1 1-113.777778 0v-227.555556a56.888889 56.888889 0 0 1 56.888889-56.888888z" fill="#FFFFFF" p-id="7691"></path></svg>