<?xml version="1.0" standalone="no"?><!DOCTYPE svg PUBLIC "-//W3C//DTD SVG 1.1//EN" "http://www.w3.org/Graphics/SVG/1.1/DTD/svg11.dtd"><svg t="1609137322857" class="icon" viewBox="0 0 1024 1024" version="1.1" xmlns="http://www.w3.org/2000/svg" p-id="9803" xmlns:xlink="http://www.w3.org/1999/xlink" width="200" height="200"><defs><style type="text/css"></style></defs><path d="M592.5632 162.8672a25.6 25.6 0 0 1 4.7616 14.8736v668.5184a25.6 25.6 0 0 1-40.448 20.8384l-258.2016-184.4224H110.9248a25.6 25.6 0 0 1-25.6-25.6V366.9248a25.6 25.6 0 0 1 25.6-25.6h187.7504L556.8512 156.928a25.6 25.6 0 0 1 35.712 5.9648z m169.6256 496.3072l114.6368 114.6368a25.6 25.6 0 0 1 0 36.224l-24.1408 24.1152a25.6 25.6 0 0 1-36.1984 0l-114.6368-114.6368a25.6 25.6 0 0 1 0-36.1984l24.1152-24.1408a25.6 25.6 0 0 1 36.224 0z m150.8864-189.8496a25.6 25.6 0 0 1 25.6 25.6v34.1504a25.6 25.6 0 0 1-25.6 25.6h-162.1504a25.6 25.6 0 0 1-25.6-25.6v-34.1504a25.6 25.6 0 0 1 25.6-25.6h162.1504zM852.6848 189.8496l24.1408 24.1152a25.6 25.6 0 0 1 0 36.224l-114.6368 114.6368a25.6 25.6 0 0 1-36.224 0l-24.1152-24.1408a25.6 25.6 0 0 1 0-36.1984l114.6368-114.6368a25.6 25.6 0 0 1 36.1984 0z" p-id="9804"></path></svg>