<?xml version="1.0" standalone="no"?><!DOCTYPE svg PUBLIC "-//W3C//DTD SVG 1.1//EN" "http://www.w3.org/Graphics/SVG/1.1/DTD/svg11.dtd"><svg t="1599040502483" class="icon" viewBox="0 0 1024 1024" version="1.1" xmlns="http://www.w3.org/2000/svg" p-id="4359" xmlns:xlink="http://www.w3.org/1999/xlink" width="200" height="200"><defs><style type="text/css"></style></defs><path d="M714.666667 304.597333h-162.133334v78.805334h162.133334c69.304889 0 125.653333 57.671111 125.653333 128.597333 0 59.306667-39.722667 109.084444-93.639111 123.619556l59.192889 60.558222A206.776889 206.776889 0 0 0 917.333333 512c0-114.488889-90.794667-207.402667-202.666666-207.402667zM674.133333 470.513778h-88.775111l81.066667 82.972444h7.708444v-82.972444zM106.666667 191.345778l126.051555 129.009778C158.961778 351.047111 106.666667 425.315556 106.666667 512c0 114.488889 90.794667 207.402667 202.666666 207.402667h162.133334v-78.805334h-162.133334c-69.304889 0-125.653333-57.671111-125.653333-128.597333 0-65.948444 49.038222-120.291556 111.872-127.345778l83.911111 85.859556H349.866667v82.972444h110.648889l92.017777 94.151111v71.765334h70.115556L785.208889 885.333333l51.072-52.266666L158.151111 138.666667 106.666667 191.345778z" p-id="4360"></path></svg>