<?xml version="1.0" standalone="no"?><!DOCTYPE svg PUBLIC "-//W3C//DTD SVG 1.1//EN" "http://www.w3.org/Graphics/SVG/1.1/DTD/svg11.dtd"><svg class="icon" width="200px" height="200.00px" viewBox="0 0 1024 1024" version="1.1" xmlns="http://www.w3.org/2000/svg"><path d="M234.666667 384v576H128a64 64 0 0 1-64-64V448a64 64 0 0 1 64-64h106.666667zM559.786667 79.936L576 85.333333a80.853333 80.853333 0 0 1 54.464 88.106667L603.434667 362.666667h233.578666a106.666667 106.666667 0 0 1 105.6 121.749333l-52.266666 365.696A128 128 0 0 1 763.669333 960H320V371.2l165.290667-264.469333a64 64 0 0 1 74.517333-26.794667z" fill="#5562F2" /></svg>