<?xml version="1.0" encoding="UTF-8"?>
<svg width="44px" height="44px" viewBox="0 0 44 44" version="1.1" xmlns="http://www.w3.org/2000/svg" xmlns:xlink="http://www.w3.org/1999/xlink">
    <title>ic编辑</title>
    <g id="圈子改版" stroke="none" stroke-width="1" fill="none" fill-rule="evenodd">
        <g id="置顶消息展开" transform="translate(-644.000000, -1450.000000)" fill="#FFFFFF">
            <g id="发布动态" transform="translate(614.000000, 1420.000000)">
                <g id="编辑" transform="translate(30.000000, 30.000000)">
                    <g id="编组-4" transform="translate(5.000000, 0.857864)">
                        <path d="M25.3580666,0.468953686 L25.4852814,0.585786438 L32.5563492,7.65685425 C33.2962899,8.39679501 33.3352342,9.57227917 32.6731819,10.3580666 L32.5563492,10.4852814 L10,33.04 L10,33.1421356 L2,33.1421356 C0.8954305,33.1421356 0,32.2467051 0,31.1421356 L0,23.1421356 L0.1,23.142 L22.6568542,0.585786438 C23.3556872,-0.113046506 24.4430141,-0.186607868 25.2236352,0.36510235 L25.3580666,0.468953686 Z M24.07,4.828 L4,24.898 L4,29.142 L8.24,29.142 L28.313,9.071 L24.07,4.828 Z" id="形状结合" fill-rule="nonzero"></path>
                        <rect id="矩形" transform="translate(21.000000, 12.142136) rotate(45.000000) translate(-21.000000, -12.142136) " x="15" y="10.1421356" width="12" height="4"></rect>
                        <path d="M1,37.1421356 L33,37.1421356 C33.5522847,37.1421356 34,37.5898509 34,38.1421356 L34,40.1421356 C34,40.6944204 33.5522847,41.1421356 33,41.1421356 L1,41.1421356 C0.44771525,41.1421356 6.76353751e-17,40.6944204 0,40.1421356 L0,38.1421356 C-6.76353751e-17,37.5898509 0.44771525,37.1421356 1,37.1421356 Z" id="矩形"></path>
                    </g>
                </g>
            </g>
        </g>
    </g>
</svg>