<?xml version="1.0" standalone="no"?><!DOCTYPE svg PUBLIC "-//W3C//DTD SVG 1.1//EN" "http://www.w3.org/Graphics/SVG/1.1/DTD/svg11.dtd"><svg t="1602838841218" class="icon" viewBox="0 0 1024 1024" version="1.1" xmlns="http://www.w3.org/2000/svg" p-id="9276" xmlns:xlink="http://www.w3.org/1999/xlink" width="128" height="128"><defs><style type="text/css"></style></defs><path d="M884.363636 884.363636a23.272727 23.272727 0 0 1 23.272728 23.272728v46.545454a23.272727 23.272727 0 0 1-23.272728 23.272727H139.636364a23.272727 23.272727 0 0 1-23.272728-23.272727v-46.545454a23.272727 23.272727 0 0 1 23.272728-23.272728h744.727272zM703.394909 28.462545l3.118546 2.420364 2.955636 2.722909 164.561454 164.538182a46.545455 46.545455 0 0 1 2.72291 62.882909l-2.72291 2.955636L349.090909 788.898909V791.272727H162.909091a46.545455 46.545455 0 0 1-46.545455-46.545454v-186.181818h2.327273L643.653818 33.605818a46.545455 46.545455 0 0 1 59.741091-5.143273z m-180.619636 257.582546L209.454545 599.412364V698.181818h98.676364l313.390546-313.390545-98.746182-98.746182z m153.762909-153.716364l-87.947637 87.901091 98.746182 98.746182 87.947637-87.901091-98.746182-98.746182z" p-id="9277"></path></svg>