<?xml version="1.0" standalone="no"?><!DOCTYPE svg PUBLIC "-//W3C//DTD SVG 1.1//EN" "http://www.w3.org/Graphics/SVG/1.1/DTD/svg11.dtd"><svg class="icon" width="200px" height="200.00px" viewBox="0 0 1024 1024" version="1.1" xmlns="http://www.w3.org/2000/svg"><path d="M128 960a64 64 0 0 1-64-64V448a64 64 0 0 1 64-64h141.333333L441.6 108.373333a64 64 0 0 1 76.736-26.005333L554.666667 96a112.170667 112.170667 0 0 1 71.466666 122.069333L607.168 341.333333 837.610667 341.333333a106.666667 106.666667 0 0 1 105.664 121.237334L889.92 849.493333A128 128 0 0 1 763.093333 960H128zM504.704 168.384L341.333333 429.76v444.864L763.093333 874.666667a42.666667 42.666667 0 0 0 41.706667-33.557334l0.576-3.285333 53.376-386.901333a21.333333 21.333333 0 0 0-18.666667-24.106667L837.610667 426.666667l-329.92-0.021334 34.112-221.546666a26.837333 26.837333 0 0 0-14.634667-28.117334l-2.453333-1.066666-20.010667-7.530667zM256 469.290667L149.333333 469.333333v405.333334h106.666667v-405.333334z" fill="#363940" /></svg>