<?xml version="1.0" standalone="no"?><!DOCTYPE svg PUBLIC "-//W3C//DTD SVG 1.1//EN" "http://www.w3.org/Graphics/SVG/1.1/DTD/svg11.dtd"><svg class="icon" width="200px" height="200.00px" viewBox="0 0 1024 1024" version="1.1" xmlns="http://www.w3.org/2000/svg"><path d="M128 170.666667m21.333333 0l725.333334 0q21.333333 0 21.333333 21.333333l0 42.666667q0 21.333333-21.333333 21.333333l-725.333334 0q-21.333333 0-21.333333-21.333333l0-42.666667q0-21.333333 21.333333-21.333333Z" fill="#363940" /><path d="M128 469.333333m21.333333 0l725.333334 0q21.333333 0 21.333333 21.333334l0 42.666666q0 21.333333-21.333333 21.333334l-725.333334 0q-21.333333 0-21.333333-21.333334l0-42.666666q0-21.333333 21.333333-21.333334Z" fill="#363940" /><path d="M128 768m21.333333 0l725.333334 0q21.333333 0 21.333333 21.333333l0 42.666667q0 21.333333-21.333333 21.333333l-725.333334 0q-21.333333 0-21.333333-21.333333l0-42.666667q0-21.333333 21.333333-21.333333Z" fill="#363940" /></svg>