<?xml version="1.0" standalone="no"?><!DOCTYPE svg PUBLIC "-//W3C//DTD SVG 1.1//EN" "http://www.w3.org/Graphics/SVG/1.1/DTD/svg11.dtd"><svg t="1606393360710" class="icon" viewBox="0 0 1024 1024" version="1.1" xmlns="http://www.w3.org/2000/svg" p-id="4819" xmlns:xlink="http://www.w3.org/1999/xlink" width="128" height="128"><defs><style type="text/css"></style></defs><path d="M512 0c282.7776 0 512 229.2224 512 512s-229.2224 512-512 512S0 794.7776 0 512 229.2224 0 512 0z m0 51.2C257.5104 51.2 51.2 257.5104 51.2 512s206.3104 460.8 460.8 460.8 460.8-206.3104 460.8-460.8S766.4896 51.2 512 51.2z" fill="#FFFFFF" p-id="4820"></path><path d="M435.8144 331.2128l258.3552 158.976a25.6 25.6 0 0 1 0 43.6224l-258.3552 158.976a25.6 25.6 0 0 1-39.0144-21.8112V353.024a25.6 25.6 0 0 1 39.0144-21.8112z" fill="#FFFFFF" p-id="4821"></path></svg>