<?xml version="1.0" standalone="no"?><!DOCTYPE svg PUBLIC "-//W3C//DTD SVG 1.1//EN" "http://www.w3.org/Graphics/SVG/1.1/DTD/svg11.dtd">
<svg class="icon" height="200" p-id="7414" t="1647927876865" version="1.1" viewBox="0 0 1024 1024"
    width="200" xmlns="http://www.w3.org/2000/svg"><defs><style type="text/css">@font-face { font-family: feedback-iconfont; src: url("//at.alicdn.com/t/font_1031158_u69w8yhxdu.woff2?t=1630033759944") format("woff2"), url("//at.alicdn.com/t/font_1031158_u69w8yhxdu.woff?t=1630033759944") format("woff"), url("//at.alicdn.com/t/font_1031158_u69w8yhxdu.ttf?t=1630033759944") format("truetype"); }
</style></defs><path d="M512 0c282.769067 0 512 229.230933 512 512s-229.230933 512-512 512S0 794.769067 0 512 229.230933 0 512 0z m0 17.066667C238.651733 17.066667 17.066667 238.651733 17.066667 512s221.585067 494.933333 494.933333 494.933333 494.933333-221.585067 494.933333-494.933333S785.348267 17.066667 512 17.066667z m85.333333 324.266666c65.979733 0 119.466667 53.486933 119.466667 119.466667 0 33.339733-13.653333 63.488-35.669333 85.162667a34.133333 34.133333 0 0 1-5.5296 7.236266L518.033067 710.766933a8.533333 8.533333 0 0 1-12.066134 0L348.398933 553.198933a34.167467 34.167467 0 0 1-5.563733-7.287466A119.057067 119.057067 0 0 1 307.2 460.8c0-65.979733 53.486933-119.466667 119.466667-119.466667 33.4336 0 63.658667 13.738667 85.333333 35.8656A119.057067 119.057067 0 0 1 597.333333 341.333333z m0 25.6a93.4144 93.4144 0 0 0-64.981333 26.1376l-2.048 2.039467L512 413.781333l-18.286933-18.670933A93.4912 93.4912 0 0 0 426.666667 366.933333c-51.84 0-93.866667 42.026667-93.866667 93.866667 0 24.5248 9.4208 47.496533 25.975467 64.810667l2.0224 2.048 2.542933 2.5088 1.757867 3.0976c0.256 0.4352 0.5376 0.853333 0.8704 1.2544l0.5376 0.580266L512 680.593067l145.493333-145.493334a8.507733 8.507733 0 0 0 0.981334-1.169066l0.401066-0.648534 1.757867-3.080533 2.5344-2.491733A93.482667 93.482667 0 0 0 691.2 460.8c0-51.84-42.026667-93.866667-93.866667-93.866667z" fill="#198CFE" p-id="7415"></path></svg>