<?xml version="1.0" standalone="no"?><!DOCTYPE svg PUBLIC "-//W3C//DTD SVG 1.1//EN" "http://www.w3.org/Graphics/SVG/1.1/DTD/svg11.dtd"><svg t="1603195451688" class="icon" viewBox="0 0 1024 1024" version="1.1" xmlns="http://www.w3.org/2000/svg" p-id="4914" xmlns:xlink="http://www.w3.org/1999/xlink" width="128" height="128"><defs><style type="text/css"></style></defs><path d="M277.333333 426.666667v469.333333h-64a85.333333 85.333333 0 0 1-85.333333-85.333333V512a85.333333 85.333333 0 0 1 85.333333-85.333333h64zM544.810667 170.666667a77.077333 77.077333 0 0 1 47.808 77.824l-11.392 136.704 6.72-1.194667h187.221333a106.666667 106.666667 0 0 1 105.834667 119.893333l-34.986667 279.978667A128 128 0 0 1 718.997333 896H362.666667V405.76l104.064-205.845333A61.546667 61.546667 0 0 1 544.810667 170.666667z" p-id="4915"></path></svg>