<?xml version="1.0" standalone="no"?><!DOCTYPE svg PUBLIC "-//W3C//DTD SVG 1.1//EN" "http://www.w3.org/Graphics/SVG/1.1/DTD/svg11.dtd"><svg t="1602838994358" class="icon" viewBox="0 0 1024 1024" version="1.1" xmlns="http://www.w3.org/2000/svg" p-id="9711" xmlns:xlink="http://www.w3.org/1999/xlink" width="128" height="128"><defs><style type="text/css"></style></defs><path d="M864 768a32 32 0 0 1 32 32v64a32 32 0 0 1-32 32H160a32 32 0 0 1-32-32v-64a32 32 0 0 1 32-32h704z m0-320a32 32 0 0 1 32 32v64a32 32 0 0 1-32 32H160a32 32 0 0 1-32-32v-64a32 32 0 0 1 32-32h704z m0-320a32 32 0 0 1 32 32v64a32 32 0 0 1-32 32H160a32 32 0 0 1-32-32V160a32 32 0 0 1 32-32h704z" p-id="9712"></path></svg>