<?xml version="1.0" standalone="no"?><!DOCTYPE svg PUBLIC "-//W3C//DTD SVG 1.1//EN" "http://www.w3.org/Graphics/SVG/1.1/DTD/svg11.dtd"><svg t="1610184278996" class="icon" viewBox="0 0 1024 1024" version="1.1" xmlns="http://www.w3.org/2000/svg" p-id="8125" xmlns:xlink="http://www.w3.org/1999/xlink" width="48" height="48"><defs><style type="text/css"></style></defs><path d="M352 128a32 32 0 0 1 32 32v704a32 32 0 0 1-32 32l-14.464 0.032a32 32 0 0 1-40.96-3.584L115.52 711.424a32 32 0 0 1 0-45.248l22.624-22.624a32 32 0 0 1 45.248 0L288 748.064 288 160a32 32 0 0 1 32-32h32z m334.496-0.064a32 32 0 0 1 40.96 3.616l180.992 181.024a32 32 0 0 1 0 45.248l-22.624 22.624a32 32 0 0 1-45.248 0l-104.608-104.576L736 864a32 32 0 0 1-32 32h-32a32 32 0 0 1-32-32V160a32 32 0 0 1 32-32z" p-id="8126"></path></svg>