<svg height="128" viewBox="0 0 1024 1024" width="128" xmlns="http://www.w3.org/2000/svg">
    <path
        d="m213.333333 896a85.333333 85.333333 0 0 1 -85.333333-85.333333v-298.666667a85.333333 85.333333 0 0 1 85.333333-85.333333h118.954667l134.976-233.92a64 64 0 0 1 73.194667-29.504l37.888 10.944a85.333333 85.333333 0 0 1 61.653333 81.984v127.829333h135.168a106.666667 106.666667 0 0 1 105.834667 119.893333l-34.986667 279.978667a128 128 0 0 1 -127.018667 112.128zm106.666667-384h-106.666667v298.666667h106.666667zm212.821333-262.144-127.488 220.928v339.861333l313.664.021334a42.666667 42.666667 0 0 0 41.813334-34.048l.533333-3.328 34.986667-279.978667a21.333333 21.333333 0 0 0 -18.666667-23.829333l-2.496-.149334h-220.501333v-213.162666z" />
</svg>