<?xml version="1.0" standalone="no"?><!DOCTYPE svg PUBLIC "-//W3C//DTD SVG 1.1//EN" "http://www.w3.org/Graphics/SVG/1.1/DTD/svg11.dtd"><svg t="1603195446072" class="icon" viewBox="0 0 1024 1024" version="1.1" xmlns="http://www.w3.org/2000/svg" p-id="4774" xmlns:xlink="http://www.w3.org/1999/xlink" width="128" height="128"><defs><style type="text/css"></style></defs><path d="M512 128c212.074667 0 384 171.925333 384 384 0 209.706667-168.106667 380.16-376.96 383.936L512 896H184.384a42.666667 42.666667 0 0 1-35.989333-65.578667L204.586667 742.186667A382.293333 382.293333 0 0 1 128 512c0-212.074667 171.925333-384 384-384z m0 85.333333c-164.949333 0-298.666667 133.717333-298.666667 298.666667 0 62.72 19.285333 122.282667 54.613334 172.224l4.906666 6.741333 35.413334 47.232L262.122667 810.666667h249.109333l6.293333-0.042667C680.106667 807.68 810.666667 674.901333 810.666667 512c0-164.949333-133.717333-298.666667-298.666667-298.666667z" p-id="4775"></path></svg>