<?xml version="1.0" encoding="UTF-8"?>
<svg width="36px" height="36px" viewBox="0 0 36 36" version="1.1" xmlns="http://www.w3.org/2000/svg" xmlns:xlink="http://www.w3.org/1999/xlink">
    <title>ic分享</title>
    <g id="圈子改版" stroke="none" stroke-width="1" fill="none" fill-rule="evenodd">
        <g id="动态列表页(置顶消息)" transform="translate(-682.000000, -1697.000000)" fill="#8F959E" fill-rule="nonzero">
            <g id="动态" transform="translate(0.000000, 834.000000)">
                <g id="互动图标" transform="translate(465.000000, 863.000000)">
                    <g id="ic分享" transform="translate(217.000000, 0.000000)">
                        <path d="M19.125,1.76715211 C19.4403447,1.76715211 19.7412122,1.89950426 19.9542984,2.1319619 L33.5708786,16.9864131 C34.0965704,17.5598949 34.0965704,18.4401051 33.5708786,19.0135869 L19.9542984,33.8680381 C19.5344569,34.326047 18.8228187,34.3569878 18.3648098,33.9371463 C18.1323522,33.7240601 18,33.4231926 18,33.1078479 L17.999,24.7491521 L10.5,24.75 C6.86760917,24.75 3.73781727,26.9018818 2.31588824,30.0003815 L1.5,30 L1.5,27.75 C1.5,18.6376356 8.88676015,11.2505415 17.9989981,11.25 L18,2.89215211 C18,2.27083176 18.5036797,1.76715211 19.125,1.76715211 Z M31.108,18 L20.499,6.426 L20.4986984,13.7498515 L17.9991466,13.75 C11.737593,13.7503721 6.43631234,17.8613973 4.64673714,23.5315376 L4.531,23.918 L4.77015639,23.7774533 C6.38799193,22.8474256 8.24101672,22.3059239 10.191034,22.2540988 L10.4997173,22.25 L20.4987009,22.2488695 L20.499,29.573 L31.108,18 Z" id="形状结合"></path>
                    </g>
                </g>
            </g>
        </g>
    </g>
</svg>