<?xml version="1.0" standalone="no"?><!DOCTYPE svg PUBLIC "-//W3C//DTD SVG 1.1//EN" "http://www.w3.org/Graphics/SVG/1.1/DTD/svg11.dtd"><svg t="1631693557563" class="icon" viewBox="0 0 1068 1024" version="1.1" xmlns="http://www.w3.org/2000/svg" p-id="8659" xmlns:xlink="http://www.w3.org/1999/xlink" width="208.59375" height="200"><defs><style type="text/css"></style></defs><path d="M913.045333 68.288c65.429333 65.429333 72.533333 176.234667 30.933334 300.458667h0.021333c10.453333 38.912 16 79.765333 16 121.92 0 259.2-210.133333 469.333333-469.333333 469.333333-42.432 0-83.541333-5.632-122.645334-16.192l0.682667 0.192c-124.202667 41.578667-234.986667 34.474667-300.416-30.954667s-72.533333-176.213333-30.954667-300.437333l0.362667 1.365333C27.029333 574.677333 21.333333 533.333333 21.333333 490.666667 21.333333 231.466667 231.466667 21.333333 490.666667 21.333333c43.093333 0 84.821333 5.802667 124.437333 16.682667l-2.496-0.682667C736.810667-4.266667 847.616 2.858667 913.045333 68.266667zM96.149333 747.562667c-1.536 45.162667 9.109333 81.770667 32.469334 105.152 23.786667 23.786667 61.269333 34.368 107.52 32.384l3.818666 2.389333a469.802667 469.802667 0 0 1-3.797333-2.410667 471.850667 471.850667 0 0 1-136.682667-134.997333l-3.2-4.906667-0.128 2.389334z m777.536-229.269334l7.850667-13.290666a938.666667 938.666667 0 0 1-42.624 66.901333l-10.538667 14.805333a1086.378667 1086.378667 0 0 1-111.424 130.24 1086.378667 1086.378667 0 0 1-130.24 111.424l-14.805333 10.538667a949.482667 949.482667 0 0 1-53.610667 34.773333c190.058667-13.504 341.888-165.333333 355.413334-355.413333z m-20.970666-389.674666c-23.786667-23.786667-61.269333-34.368-107.52-32.384a472.32 472.32 0 0 1 65.216 50.858666c2.154667 31.381333-2.986667 68.650667-15.232 109.568C724.949333 165.44 614.677333 106.666667 490.666667 106.666667 278.592 106.666667 106.666667 278.592 106.666667 490.666667c0 168.746667 108.864 312.106667 260.181333 363.605333l5.12-2.026667 12.949333-5.397333 13.098667-5.802667a709.141333 709.141333 0 0 0 33.237333-16.234666l13.482667-7.189334 13.568-7.594666c6.784-3.882667 13.610667-7.936 20.458667-12.117334l13.717333-8.554666a918.613333 918.613333 0 0 0 68.906667-48.64l13.76-10.88a1019.882667 1019.882667 0 0 0 81.450666-73.237334 1019.882667 1019.882667 0 0 0 73.216-81.450666l10.88-13.76a918.613333 918.613333 0 0 0 48.64-68.906667l8.576-13.717333c4.181333-6.826667 8.234667-13.653333 12.117334-20.48l7.594666-13.546667 7.189334-13.482667c5.824-11.178667 11.242667-22.272 16.234666-33.237333l5.802667-13.098667 5.397333-12.949333c3.477333-8.576 6.677333-17.066667 9.6-25.450667l4.181334-12.458666c10.858667-33.706667 17.173333-65.344 18.858666-93.781334l0.192-4.117333c2.005333-46.272-8.576-83.754667-32.362666-107.52z" fill="#363940" p-id="8660"></path></svg>