<?xml version="1.0" standalone="no"?><!DOCTYPE svg PUBLIC "-//W3C//DTD SVG 1.1//EN" "http://www.w3.org/Graphics/SVG/1.1/DTD/svg11.dtd"><svg class="icon" width="200px" height="200.00px" viewBox="0 0 1024 1024" version="1.1" xmlns="http://www.w3.org/2000/svg"><path d="M512 42.666667c259.2 0 469.333333 210.133333 469.333333 469.333333 0 256.618667-205.952 465.130667-461.568 469.269333l-10.346666 0.064H77.184a21.333333 21.333333 0 0 1-19.072-30.869333L136.533333 793.642667A467.264 467.264 0 0 1 42.666667 512C42.666667 252.8 252.8 42.666667 512 42.666667z m0 85.333333C299.925333 128 128 299.925333 128 512c0 81.258667 25.216 158.464 71.338667 222.997333l5.418666 7.381334 31.701334 42.218666L180.736 896H512c212.074667 0 384-171.925333 384-384S724.074667 128 512 128z" fill="#363940" /></svg>