<?xml version="1.0" standalone="no"?><!DOCTYPE svg PUBLIC "-//W3C//DTD SVG 1.1//EN"
    "http://www.w3.org/Graphics/SVG/1.1/DTD/svg11.dtd">
<svg class="icon" height="200" p-id="16549" t="1632713743265" version="1.1" viewBox="0 0 1024 1024"
    width="200" xmlns="http://www.w3.org/2000/svg">
    <defs>
        <style type="text/css"></style>
    </defs>
    <path
        d="M810.666667 106.666667a42.666667 42.666667 0 0 1 42.666666 42.666666v720.298667a42.666667 42.666667 0 0 1-61.738666 38.165333L512 768l-279.594667 139.797333A42.666667 42.666667 0 0 1 170.666667 869.610667V149.333333a42.666667 42.666667 0 0 1 42.666666-42.666666h597.333334z m-42.666667 85.333333H256v608.597333l256-128 256 128V192z m-234.666667 106.666667a21.333333 21.333333 0 0 1 21.333334 21.333333v85.333333h85.333333a21.333333 21.333333 0 0 1 21.333333 21.333334v42.666666a21.333333 21.333333 0 0 1-21.333333 21.333334h-85.333333v85.333333a21.333333 21.333333 0 0 1-21.333334 21.333333h-42.666666a21.333333 21.333333 0 0 1-21.333334-21.333333v-85.333333h-85.333333a21.333333 21.333333 0 0 1-21.333333-21.333334v-42.666666a21.333333 21.333333 0 0 1 21.333333-21.333334h85.333333v-85.333333a21.333333 21.333333 0 0 1 21.333334-21.333333h42.666666z"
        fill="#363940" p-id="16550"></path>
</svg>