<?xml version="1.0" standalone="no"?><!DOCTYPE svg PUBLIC "-//W3C//DTD SVG 1.1//EN"
        "http://www.w3.org/Graphics/SVG/1.1/DTD/svg11.dtd">
<svg xmlns:xlink="http://www.w3.org/1999/xlink" t="1602838930788" class="icon" viewBox="0 0 1024 1024" version="1.1"
     xmlns="http://www.w3.org/2000/svg" p-id="9571" width="128" height="128">
    <defs>
        <style type="text/css"></style>
    </defs>
    <path d="M597.333333 874.666667a85.333333 85.333333 0 0 1-81.066666 85.226666L512 960a85.333333 85.333333 0 0 1-85.226667-81.066667L426.666667 874.666667h170.666666zM512 64a64 64 0 0 1 64 64v6.4c146.069333 29.653333 256 158.784 256 313.6v277.333333l64 42.666667v64H128v-64l64-42.666667V448c0-154.816 109.930667-283.946667 256-313.6V128a64 64 0 0 1 64-64z m0 149.333333c-127.552 0-231.317333 101.76-234.581333 228.522667L277.333333 448v298.666667h469.333334V448c0-127.552-101.76-231.317333-228.522667-234.581333L512 213.333333z"
          p-id="9572"></path>
</svg>