<?xml version="1.0" standalone="no"?><!DOCTYPE svg PUBLIC "-//W3C//DTD SVG 1.1//EN" "http://www.w3.org/Graphics/SVG/1.1/DTD/svg11.dtd"><svg t="1652411524076" class="icon" viewBox="0 0 1024 1024" version="1.1" xmlns="http://www.w3.org/2000/svg" p-id="9550" xmlns:xlink="http://www.w3.org/1999/xlink" width="200" height="200"><defs><style type="text/css">@font-face { font-family: feedback-iconfont; src: url("//at.alicdn.com/t/font_1031158_u69w8yhxdu.woff2?t=1630033759944") format("woff2"), url("//at.alicdn.com/t/font_1031158_u69w8yhxdu.woff?t=1630033759944") format("woff"), url("//at.alicdn.com/t/font_1031158_u69w8yhxdu.ttf?t=1630033759944") format("truetype"); }
</style></defs><path d="M981.354667 512c0-259.2-210.133333-469.333333-469.333334-469.333333s-469.333333 210.133333-469.333333 469.333333 210.133333 469.333333 469.333333 469.333333 469.333333-210.133333 469.333334-469.333333z m-853.333334 0C128 299.925333 299.946667 128 512 128c212.053333 0 384 171.925333 384 384 0 212.053333-171.946667 384-384 384-212.074667 0-384-171.946667-384-384z" fill="#1F2126" p-id="9551"></path><path d="M426.666667 371.221333a16 16 0 0 1 24.874666-13.312l211.157334 140.778667a16 16 0 0 1 0 26.624l-211.157334 140.778667A16 16 0 0 1 426.666667 652.778667V371.2z" fill="#1F2126" p-id="9552"></path></svg>