<?xml version="1.0" standalone="no"?><!DOCTYPE svg PUBLIC "-//W3C//DTD SVG 1.1//EN" "http://www.w3.org/Graphics/SVG/1.1/DTD/svg11.dtd"><svg t="1631693566662" class="icon" viewBox="0 0 1024 1024" version="1.1" xmlns="http://www.w3.org/2000/svg" p-id="8913" xmlns:xlink="http://www.w3.org/1999/xlink" width="200" height="200"><defs><style type="text/css"></style></defs><path d="M661.333333 170.666667a42.666667 42.666667 0 0 1 42.666667 42.666666v597.333334a42.666667 42.666667 0 0 1-42.666667 42.666666H64a42.666667 42.666667 0 0 1-42.666667-42.666666V213.333333a42.666667 42.666667 0 0 1 42.666667-42.666666h597.333333z m-42.666666 85.333333H106.666667v512h512V256z m377.92 53.397333a42.666667 42.666667 0 0 1 6.08 21.973334v361.28a42.666667 42.666667 0 0 1-64.618667 36.586666L789.333333 640V384l148.714667-89.237333a42.666667 42.666667 0 0 1 58.538667 14.634666zM917.333333 406.698667l-42.666666 25.578666v159.424l42.666666 25.578667v-210.581333zM320 341.333333v128H192v-128h128z" fill="#2B2F36" p-id="8914"></path></svg>