<?xml version="1.0" standalone="no"?><!DOCTYPE svg PUBLIC "-//W3C//DTD SVG 1.1//EN" "http://www.w3.org/Graphics/SVG/1.1/DTD/svg11.dtd"><svg xmlns:xlink="http://www.w3.org/1999/xlink" class="icon" height="200" p-id="8994" t="1652928920354" version="1.1" viewBox="0 0 1024 1024" width="200" xmlns="http://www.w3.org/2000/svg"><defs><style type="text/css">@font-face { font-family: feedback-iconfont; src: url("//at.alicdn.com/t/font_1031158_u69w8yhxdu.woff2?t=1630033759944") format("woff2"), url("//at.alicdn.com/t/font_1031158_u69w8yhxdu.woff?t=1630033759944") format("woff"), url("//at.alicdn.com/t/font_1031158_u69w8yhxdu.ttf?t=1630033759944") format("truetype"); }
</style></defs><path d="M512 42.666667c259.2 0 469.333333 210.133333 469.333333 469.333333s-210.133333 469.333333-469.333333 469.333333S42.666667 771.2 42.666667 512 252.8 42.666667 512 42.666667z m208.746667 311.232a12.458667 12.458667 0 0 0-15.872 1.429333L454.592 605.589333l-126.336-126.336a12.437333 12.437333 0 0 0-17.6 0l-26.389333 26.389334a12.437333 12.437333 0 0 0 0 17.6l158.4 158.4a12.437333 12.437333 0 0 0 13.525333 2.709333 12.437333 12.437333 0 0 0 11.093333-3.434667l281.578667-281.6 1.429333-1.706666a12.458667 12.458667 0 0 0-1.429333-15.872l-26.389333-26.410667z" fill="#198CFE" p-id="8995"></path></svg>