<?xml version="1.0" standalone="no"?><!DOCTYPE svg PUBLIC "-//W3C//DTD SVG 1.1//EN" "http://www.w3.org/Graphics/SVG/1.1/DTD/svg11.dtd"><svg t="1630328969463" class="icon" viewBox="0 0 1024 1024" version="1.1" xmlns="http://www.w3.org/2000/svg" p-id="6766" xmlns:xlink="http://www.w3.org/1999/xlink" width="200" height="200"><defs><style type="text/css"></style></defs><path d="M842.602667 178.88c183.296 183.274667 183.296 480.426667 0 663.722667-183.274667 183.296-480.426667 183.296-663.722667 0-183.296-183.274667-183.296-480.426667 0-663.722667 183.274667-183.296 480.426667-183.296 663.722667 0z m-60.330667 60.330667c-149.973333-149.973333-393.088-149.973333-543.061333 0-149.973333 149.973333-149.973333 393.109333 0 543.061333 149.973333 149.973333 393.109333 149.973333 543.061333 0 149.973333-149.973333 149.973333-393.088 0-543.061333z m-105.6 135.765333a21.333333 21.333333 0 0 1 0 30.165333l-105.6 105.6 105.6 105.6a21.333333 21.333333 0 0 1 0 30.165334l-30.165333 30.165333a21.333333 21.333333 0 0 1-30.165334 0l-105.6-105.6-105.6 105.6a21.333333 21.333333 0 0 1-30.165333 0l-30.165333-30.165333a21.333333 21.333333 0 0 1 0-30.165334l105.6-105.6-105.6-105.6a21.333333 21.333333 0 0 1 0-30.165333l30.165333-30.165333a21.333333 21.333333 0 0 1 30.165333 0l105.6 105.6 105.6-105.6a21.333333 21.333333 0 0 1 30.165334 0l30.165333 30.165333z" fill="#5562F2" p-id="6767"></path></svg>