<?xml version="1.0" standalone="no"?><!DOCTYPE svg PUBLIC "-//W3C//DTD SVG 1.1//EN" "http://www.w3.org/Graphics/SVG/1.1/DTD/svg11.dtd"><svg width="48" height="48" viewBox="0 0 48 48" version="1.1" xmlns="http://www.w3.org/2000/svg" xmlns:xlink="http://www.w3.org/1999/xlink"><defs><style type="text/css"></style></defs><path d="M32,4 C38.627417,4 44,9.372583 44,16 L44,32 C44,38.627417 38.627417,44 32,44 L16,44 C9.372583,44 4,38.627417 4,32 L4,16 C4,9.372583 9.372583,4 16,4 L32,4 Z M32,8 L16,8 C11.6650857,8 8.13545713,11.4478378 8.00380682,15.7508207 L8,16 L8,32 C8,36.3349143 11.4478378,39.8645429 15.7508207,39.9961932 L16,40 L32,40 C36.3349143,40 39.8645429,36.5521622 39.9961932,32.2491793 L40,32 L40,16 C40,11.6650857 36.5521622,8.13545713 32.2491793,8.00380682 L32,8 Z M30,13.6076952 C30.9565852,14.1599799 31.2843356,15.3831607 30.7320508,16.339746 L20.7320508,33.660254 C20.1797661,34.6168393 18.9565852,34.9445896 18,34.3923048 C17.0434148,33.8400201 16.7156644,32.6168393 17.2679492,31.660254 L27.2679492,14.339746 C27.8202339,13.3831607 29.0434148,13.0554104 30,13.6076952 Z" id="形状结合" fill="#1F2125" fill-rule="nonzero"></path></svg>