<?xml version="1.0" standalone="no"?><!DOCTYPE svg PUBLIC "-//W3C//DTD SVG 1.1//EN" "http://www.w3.org/Graphics/SVG/1.1/DTD/svg11.dtd"><svg xmlns:xlink="http://www.w3.org/1999/xlink" class="icon" height="200" p-id="7976" t="1651042268533" version="1.1" viewBox="0 0 1024 1024" width="200" xmlns="http://www.w3.org/2000/svg"><defs><style type="text/css">@font-face { font-family: element-icons; src: url("chrome-extension://moombeodfomdpjnpocobemoiaemednkg/fonts/element-icons.woff") format("woff"), url("chrome-extension://moombeodfomdpjnpocobemoiaemednkg/fonts/element-icons.ttf ") format("truetype"); }
</style></defs><path d="M530.88 100.821333a42.666667 42.666667 0 0 1 19.370667 19.370667l112.213333 227.370667L913.386667 384a42.666667 42.666667 0 0 1 23.637333 72.768l-181.546667 176.981333 42.858667 249.898667a42.666667 42.666667 0 0 1-61.909333 44.992L512 810.666667l-224.426667 117.973333a42.666667 42.666667 0 0 1-61.909333-44.970667l42.88-249.898666-181.568-176.981334a42.666667 42.666667 0 0 1 23.637333-72.768l250.922667-36.48 112.213333-227.349333a42.666667 42.666667 0 0 1 57.130667-19.370667z m74.922667 324.736L512 235.477333l-93.802667 190.08-209.749333 30.464 151.765333 147.968-35.84 208.896L512 714.261333l187.605333 98.624-35.84-208.896 151.765334-147.968-209.706667-30.464z" fill="#1F2126" p-id="7977"></path></svg>