<?xml version="1.0" standalone="no"?><!DOCTYPE svg PUBLIC "-//W3C//DTD SVG 1.1//EN" "http://www.w3.org/Graphics/SVG/1.1/DTD/svg11.dtd"><svg t="1591946425071" class="icon" viewBox="0 0 1024 1024" version="1.1" xmlns="http://www.w3.org/2000/svg" p-id="9541" xmlns:xlink="http://www.w3.org/1999/xlink" width="200" height="200"><defs><style type="text/css"></style></defs><path d="M540.1856 160.704a54.1568 54.1568 0 0 1 20.1216 18.7264l392.064 625.4848c15.5648 24.832 6.5536 56.704-20.1344 71.1936A59.1616 59.1616 0 0 1 904.064 883.2H119.936C89.0496 883.2 64 859.904 64 831.1424c0-9.216 2.624-18.2656 7.616-26.24l392.064-625.472c15.5648-24.832 49.8176-33.216 76.5056-18.7264z m-28.1984 86.2464L161.3184 806.4h701.3504L511.9872 246.9504zM512 678.4a38.4 38.4 0 1 1 0 76.8 38.4 38.4 0 0 1 0-76.8z m0-281.6a38.4 38.4 0 0 1 38.4 38.4v153.6a38.4 38.4 0 0 1-76.8 0V435.2a38.4 38.4 0 0 1 38.4-38.4z" p-id="9542"></path></svg>