<?xml version="1.0" standalone="no"?><!DOCTYPE svg PUBLIC "-//W3C//DTD SVG 1.1//EN" "http://www.w3.org/Graphics/SVG/1.1/DTD/svg11.dtd"><svg t="1591946621614" class="icon" viewBox="0 0 1024 1024" version="1.1" xmlns="http://www.w3.org/2000/svg" p-id="3263" xmlns:xlink="http://www.w3.org/1999/xlink" width="200" height="200"><defs><style type="text/css"></style></defs><path d="M661.942857 146.285714a183.698286 183.698286 0 0 0 0 73.142857H182.857143a36.571429 36.571429 0 0 0-36.48 33.828572L146.285714 256v585.142857a36.571429 36.571429 0 0 0 33.828572 36.48L182.857143 877.714286h585.142857a36.571429 36.571429 0 0 0 36.48-33.828572L804.571429 841.142857V362.057143a183.698286 183.698286 0 0 0 73.161142 0L877.714286 841.142857a109.714286 109.714286 0 0 1-109.714286 109.714286H182.857143a109.714286 109.714286 0 0 1-109.714286-109.714286V256a109.714286 109.714286 0 0 1 109.714286-109.714286h479.085714zM841.142857 73.142857a109.714286 109.714286 0 1 1 0 219.428572 109.714286 109.714286 0 0 1 0-219.428572z" p-id="3264"></path></svg>