<?xml version="1.0" standalone="no"?><!DOCTYPE svg PUBLIC "-//W3C//DTD SVG 1.1//EN" "http://www.w3.org/Graphics/SVG/1.1/DTD/svg11.dtd"><svg class="icon" width="200px" height="200.00px" viewBox="0 0 1024 1024" version="1.1" xmlns="http://www.w3.org/2000/svg"><path d="M426.666667 42.666667c212.074667 0 384 171.925333 384 384 0 90.666667-31.424 173.994667-83.968 239.68l234.816 234.837333a21.333333 21.333333 0 0 1 0 30.165333l-30.165334 30.165334a21.333333 21.333333 0 0 1-30.165333 0L666.346667 726.698667A382.378667 382.378667 0 0 1 426.666667 810.666667c-212.074667 0-384-171.925333-384-384S214.592 42.666667 426.666667 42.666667z m0 85.333333C261.717333 128 128 261.717333 128 426.666667s133.717333 298.666667 298.666667 298.666666 298.666667-133.717333 298.666666-298.666666S591.616 128 426.666667 128z" fill="#363940" /></svg>