<?xml version="1.0" standalone="no"?><!DOCTYPE svg PUBLIC "-//W3C//DTD SVG 1.1//EN" "http://www.w3.org/Graphics/SVG/1.1/DTD/svg11.dtd"><svg t="1606361379866" class="icon" viewBox="0 0 1024 1024" version="1.1" xmlns="http://www.w3.org/2000/svg" p-id="5057" xmlns:xlink="http://www.w3.org/1999/xlink" width="200" height="200"><defs><style type="text/css"></style></defs><path d="M426.666667 85.333333c188.522667 0 341.333333 152.810667 341.333333 341.333334 0 79.957333-27.498667 153.493333-73.557333 211.690666 4.8 2.048 9.301333 5.034667 13.226666 8.96l181.013334 181.013334a42.666667 42.666667 0 1 1-60.352 60.352l-181.013334-181.013334a42.56 42.56 0 0 1-8.981333-13.226666A339.776 339.776 0 0 1 426.666667 768c-188.522667 0-341.333333-152.810667-341.333334-341.333333S238.144 85.333333 426.666667 85.333333z m0 85.333334C285.290667 170.666667 170.666667 285.290667 170.666667 426.666667s114.624 256 256 256 256-114.624 256-256S568.042667 170.666667 426.666667 170.666667z" p-id="5058"></path></svg>