<?xml version="1.0" standalone="no"?><!DOCTYPE svg PUBLIC "-//W3C//DTD SVG 1.1//EN" "http://www.w3.org/Graphics/SVG/1.1/DTD/svg11.dtd"><svg t="1607655959702" class="icon" viewBox="0 0 1024 1024" version="1.1" xmlns="http://www.w3.org/2000/svg" p-id="5057" xmlns:xlink="http://www.w3.org/1999/xlink" width="128" height="128"><defs><style type="text/css"></style></defs><path d="M848.597333 462.293333L1024 646.954667v237.418666A139.626667 139.626667 0 0 1 884.373333 1024H139.626667A139.626667 139.626667 0 0 1 0 884.373333V512.896l174.634667 182.954667 221.013333-232.661334L615.872 695.04l232.746667-232.746667zM884.373333 0A139.626667 139.626667 0 0 1 1024 139.626667V511.786667l-173.696-182.826667-232.746667 232.746667-221.909333-233.642667L174.464 560.853333 0 378.090667V139.626667A139.626667 139.626667 0 0 1 139.648 0h744.725333z" p-id="5058"></path></svg>