<?xml version="1.0" standalone="no"?><!DOCTYPE svg PUBLIC "-//W3C//DTD SVG 1.1//EN" "http://www.w3.org/Graphics/SVG/1.1/DTD/svg11.dtd"><svg t="1591946434326" class="icon" viewBox="0 0 1024 1024" version="1.1" xmlns="http://www.w3.org/2000/svg" p-id="9785" xmlns:xlink="http://www.w3.org/1999/xlink" width="200" height="200"><defs><style type="text/css"></style></defs><path d="M853.3376 85.3376a85.3376 85.3376 0 0 1 85.3248 85.3248v256C938.6624 615.1808 785.8432 768 597.3376 768H320L173.184 914.816a54.5792 54.5792 0 0 1-55.8464 13.184 46.7968 46.7968 0 0 1-32-44.4032V426.6624c0-188.5056 152.8192-341.3248 341.3248-341.3248h426.6752z m0 85.3248H426.6624c-139.2 0-252.4672 111.1168-255.9104 249.4976l-0.0896 6.5024v369.9712l113.9968-113.9712h312.6784c139.2 0 252.4672-111.104 255.9104-249.4848l0.0896-6.5152v-256z" p-id="9786"></path><path d="M533.3376 277.3376A42.6624 42.6624 0 0 1 576 320v213.3376a42.6624 42.6624 0 0 1-85.3376 0v-64h-85.3376v64a42.6624 42.6624 0 0 1-85.3248 0V320a42.6624 42.6624 0 1 1 85.3376 0l-0.0128 64h85.3376v-64a42.6624 42.6624 0 0 1 42.6752-42.6624z m128 128A42.6624 42.6624 0 0 1 704 448v85.3376a42.6624 42.6624 0 0 1-85.3376 0V448a42.6624 42.6624 0 0 1 42.6752-42.6624z m0-128a42.6624 42.6624 0 1 1 0 85.3248 42.6624 42.6624 0 0 1 0-85.3248z" p-id="9787"></path></svg>