<?xml version="1.0" standalone="no"?><!DOCTYPE svg PUBLIC "-//W3C//DTD SVG 1.1//EN" "http://www.w3.org/Graphics/SVG/1.1/DTD/svg11.dtd"><svg t="1591946431665" class="icon" viewBox="0 0 1024 1024" version="1.1" xmlns="http://www.w3.org/2000/svg" p-id="9663" xmlns:xlink="http://www.w3.org/1999/xlink" width="200" height="200"><defs><style type="text/css"></style></defs><path d="M87.8976 429.2224c21.76 21.76 56.32 23.8976 79.7824 4.2752 199.2576-163.84 488.5376-163.84 688.2176-0.4352a60.1984 60.1984 0 0 0 80.64-3.84c25.1648-25.1648 23.4624-66.9824-4.2752-89.6-243.6224-199.2448-596.0448-199.2448-840.1024 0-27.7376 22.1952-29.8624 64-4.2624 89.6zM418.9824 760.32l62.72 62.72c16.64 16.64 43.52 16.64 60.16 0l62.72-62.72c20.0576-20.0576 15.7952-54.6176-9.8048-67.84-52.0576-26.88-114.3552-26.88-166.8352 0-24.32 13.2224-29.0048 47.7824-8.96 67.84zM259.84 601.1776c20.9024 20.9024 53.76 23.04 78.08 5.5424 104.1024-73.8176 244.0576-73.8176 348.16 0 24.32 17.0624 57.1776 15.36 78.08-5.5424l0.4224-0.4352c25.6-25.6 23.8976-69.12-5.5424-90.0224-146.7776-106.24-346.88-106.24-494.08 0-29.44 21.3376-31.1424 64.4224-5.12 90.4576z" p-id="9664"></path></svg>