<?xml version="1.0" standalone="no"?><!DOCTYPE svg PUBLIC "-//W3C//DTD SVG 1.1//EN" "http://www.w3.org/Graphics/SVG/1.1/DTD/svg11.dtd"><svg t="1591946570159" class="icon" viewBox="0 0 1024 1024" version="1.1" xmlns="http://www.w3.org/2000/svg" p-id="10763" xmlns:xlink="http://www.w3.org/1999/xlink" width="200" height="200"><defs><style type="text/css"></style></defs><path d="M512 85.333333c235.648 0 426.666667 191.018667 426.666667 426.666667s-191.018667 426.666667-426.666667 426.666667S85.333333 747.648 85.333333 512 276.352 85.333333 512 85.333333z m0 85.333334C323.477333 170.666667 170.666667 323.477333 170.666667 512s152.810667 341.333333 341.333333 341.333333 341.333333-152.810667 341.333333-341.333333S700.522667 170.666667 512 170.666667z m163.413333 242.922666c13.888 13.866667 13.888 36.394667 0 50.282667l-176 176a35.562667 35.562667 0 0 1-48 2.069333l-2.261333-2.069333-100.565333-100.565333a35.562667 35.562667 0 0 1 50.282666-50.282667l75.413334 75.392 150.848-150.826667c13.888-13.866667 36.394667-13.866667 50.282666 0z" p-id="10764"></path></svg>