<?xml version="1.0" standalone="no"?><!DOCTYPE svg PUBLIC "-//W3C//DTD SVG 1.1//EN" "http://www.w3.org/Graphics/SVG/1.1/DTD/svg11.dtd"><svg class="icon" width="200px" height="200.00px" viewBox="0 0 1024 1024" version="1.1" xmlns="http://www.w3.org/2000/svg"><path d="M853.333333 856.362667a21.333333 21.333333 0 0 1 21.333334 21.333333v42.666667a21.333333 21.333333 0 0 1-21.333334 21.333333H170.666667a21.333333 21.333333 0 0 1-21.333334-21.333333v-42.666667a21.333333 21.333333 0 0 1 21.333334-21.333333h682.666666zM687.445333 71.786667l2.858667 2.218666 2.709333 2.496 150.848 150.826667a42.666667 42.666667 0 0 1 2.496 57.642667l-2.496 2.709333L362.666667 768.853333v2.176H192a42.666667 42.666667 0 0 1-42.666667-42.666666v-170.666667h2.133334L632.682667 76.501333a42.666667 42.666667 0 0 1 54.762666-4.693333z m-165.568 236.117333L234.666667 595.157333v90.538667h90.453333l287.274667-287.274667-90.517334-90.517333z m140.949334-140.906667l-80.618667 80.576 90.517333 90.517334 80.618667-80.576-90.517333-90.517334z" fill="#363940" /></svg>