<?xml version="1.0" standalone="no"?><!DOCTYPE svg PUBLIC "-//W3C//DTD SVG 1.1//EN"
    "http://www.w3.org/Graphics/SVG/1.1/DTD/svg11.dtd">
<svg t="1653895252466" class="icon" viewBox="0 0 1024 1024" version="1.1"
    xmlns="http://www.w3.org/2000/svg" p-id="9193" xmlns:xlink="http://www.w3.org/1999/xlink"
    width="200" height="200">
    <defs>
        <style type="text/css">@font-face { font-family: feedback-iconfont; src:
            url("//at.alicdn.com/t/font_1031158_u69w8yhxdu.woff2?t=1630033759944") format("woff2"),
            url("//at.alicdn.com/t/font_1031158_u69w8yhxdu.woff?t=1630033759944") format("woff"),
            url("//at.alicdn.com/t/font_1031158_u69w8yhxdu.ttf?t=1630033759944") format("truetype");
            }
        </style>
    </defs>
    <path
        d="M673.834667 64a21.333333 21.333333 0 0 1 15.082666 6.250667l200.832 200.832a21.333333 21.333333 0 0 1 6.250667 15.082666V554.666667a21.333333 21.333333 0 0 1-21.333333 21.333333h-42.666667a21.333333 21.333333 0 0 1-21.333333-21.333333V320h-149.333334a21.333333 21.333333 0 0 1-21.333333-21.333333V149.333333H213.333333v725.333334h277.333334a21.333333 21.333333 0 0 1 21.333333 21.333333v42.666667a21.333333 21.333333 0 0 1-21.333333 21.333333H170.666667a42.666667 42.666667 0 0 1-42.666667-42.666667V106.666667a42.666667 42.666667 0 0 1 42.666667-42.666667h503.168z m-2.602667 610.901333l75.456 75.413334 75.413333-75.413334a21.333333 21.333333 0 0 1 30.165334 0l30.165333 30.165334a21.333333 21.333333 0 0 1 0 30.165333L806.997333 810.666667l75.434667 75.434666a21.333333 21.333333 0 0 1 0 30.165334l-30.165333 30.165333a21.333333 21.333333 0 0 1-30.165334 0L746.666667 870.997333l-75.434667 75.434667a21.333333 21.333333 0 0 1-30.165333 0l-30.165334-30.165333a21.333333 21.333333 0 0 1 0-30.165334L686.336 810.666667l-75.434667-75.434667a21.333333 21.333333 0 0 1 0-30.165333l30.165334-30.165334a21.333333 21.333333 0 0 1 30.165333 0z"
        p-id="9194"></path>
</svg>