<?xml version="1.0" standalone="no"?><!DOCTYPE svg PUBLIC "-//W3C//DTD SVG 1.1//EN"
    "http://www.w3.org/Graphics/SVG/1.1/DTD/svg11.dtd">
<svg class="icon" height="200.00px" version="1.1" viewBox="0 0 1024 1024" width="200px"
    xmlns="http://www.w3.org/2000/svg">
    <path
        d="M426.6752 554.6752c23.552 0 42.6496 19.0976 42.6496 42.6496V896c0 23.552-19.0976 42.6752-42.6496 42.6752H128c-23.552 0-42.6752-19.1232-42.6752-42.6752V597.3248c0-23.552 19.1232-42.6496 42.6752-42.6496h298.6752z m192 0c11.776 0 21.3248 9.5488 21.3248 21.3248v341.3248c0 11.776-9.5488 21.3504-21.3248 21.3504H576a21.3248 21.3248 0 0 1-21.3248-21.3504V576c0-11.776 9.5488-21.3248 21.3248-21.3248h42.6752z m298.6496 0c11.776 0 21.3504 9.5488 21.3504 21.3248v341.3248c0 11.776-9.5488 21.3504-21.3504 21.3504h-42.6496a21.3248 21.3248 0 0 1-21.3504-21.3504V576c0-11.776 9.5488-21.3248 21.3504-21.3248h42.6496z m-149.3248 0c11.776 0 21.3248 9.5488 21.3248 21.3248v341.3248c0 11.776-9.5488 21.3504-21.3248 21.3504h-42.6752a21.3248 21.3248 0 0 1-21.3248-21.3504V576c0-11.776 9.5488-21.3248 21.3248-21.3248H768zM384 640H170.6496v213.3248H384V640z m42.6752-554.6752c23.552 0 42.6496 19.1232 42.6496 42.6752v298.6752c0 23.552-19.0976 42.6496-42.6496 42.6496H128c-23.552 0-42.6752-19.0976-42.6752-42.6496V128c0-23.552 19.1232-42.6752 42.6752-42.6752h298.6752z m469.3248 0c23.552 0 42.6752 19.1232 42.6752 42.6752v298.6752c0 23.552-19.1232 42.6496-42.6752 42.6496H597.3248c-23.552 0-42.6496-19.0976-42.6496-42.6496V128c0-23.552 19.0976-42.6752 42.6496-42.6752H896zM384 170.6496H170.6496V384H384V170.6496z m469.3248 0H640V384h213.3248V170.6496z"
        fill="#363940" />
</svg>