<svg t="1635834297162" class="icon" viewBox="0 0 1024 1024" version="1.1"
    xmlns="http://www.w3.org/2000/svg" p-id="6860" width="200" height="200">
    <path
        d="M512 42.666667c259.2 0 469.333333 210.133333 469.333333 469.333333s-210.133333 469.333333-469.333333 469.333333S42.666667 771.2 42.666667 512 252.8 42.666667 512 42.666667z m0 42.666666C276.352 85.333333 85.333333 276.352 85.333333 512s191.018667 426.666667 426.666667 426.666667 426.666667-191.018667 426.666667-426.666667S747.648 85.333333 512 85.333333z m-120.682667 260.736L512 466.730667l120.704-120.661334a10.666667 10.666667 0 0 1 15.082667 0l30.165333 30.165334a10.666667 10.666667 0 0 1 0 15.082666L557.248 512l120.682667 120.704a10.666667 10.666667 0 0 1 0 15.082667l-30.165334 30.165333a10.666667 10.666667 0 0 1-15.082666 0l-120.704-120.682667-120.661334 120.682667a10.666667 10.666667 0 0 1-15.082666 0l-30.165334-30.165333a10.666667 10.666667 0 0 1 0-15.082667l120.661334-120.704-120.661334-120.661333a10.666667 10.666667 0 0 1 0-15.082667l30.165334-30.165333a10.666667 10.666667 0 0 1 15.082666 0z"
        fill="#646A73" p-id="6861"></path>
</svg>