<?xml version="1.0" standalone="no"?><!DOCTYPE svg PUBLIC "-//W3C//DTD SVG 1.1//EN"
    "http://www.w3.org/Graphics/SVG/1.1/DTD/svg11.dtd">
<svg class="icon" height="200" p-id="6955" t="1642139450236" version="1.1" viewBox="0 0 1024 1024"
    width="200" xmlns="http://www.w3.org/2000/svg">
    <defs>
        <style type="text/css"></style>
    </defs>
    <path
        d="M554.666667 597.333333c26.112 0 50.389333 1.002667 72.96 2.837334l16.576 1.536c75.946667 7.893333 131.242667 25.642667 171.306666 46.826666l8.341334 4.586667c8.106667 4.629333 15.573333 9.386667 22.4 14.229333l6.613333 4.864c2.133333 1.642667 4.181333 3.264 6.186667 4.906667l5.802666 4.906667c1.877333 1.642667 3.690667 3.285333 5.44 4.928l5.056 4.906666 4.693334 4.906667c1.514667 1.621333 2.986667 3.242667 4.373333 4.842667l4.010667 4.8 3.690666 4.736 3.413334 4.672 3.072 4.565333 2.816 4.458667 2.517333 4.330666 3.306667 6.250667 1.92 3.968 1.642666 3.797333 2.090667 5.333334 1.642667 4.885333 1.216 4.352 0.853333 3.818667 0.490667 3.2 0.213333 2.538666V896l-0.085333 3.2A42.666667 42.666667 0 0 1 874.666667 938.666667H149.333333a42.666667 42.666667 0 0 1-42.56-39.466667L106.666667 896v-128.682667l0.213333-2.56 0.533333-3.2 0.853334-3.797333 1.194666-4.352 1.642667-4.885333 2.090667-5.333334 1.664-3.797333 1.898666-3.968 3.306667-6.250667 2.517333-4.330666 2.816-4.48 3.093334-4.544 3.392-4.672 3.690666-4.736 4.010667-4.8c1.408-1.6 2.858667-3.221333 4.373333-4.842667l4.693334-4.906667 5.056-4.906666c1.749333-1.642667 3.562667-3.285333 5.44-4.906667l5.802666-4.928c2.005333-1.642667 4.053333-3.264 6.186667-4.906667l6.613333-4.864c6.826667-4.842667 14.293333-9.6 22.4-14.229333l8.362667-4.586667c40.042667-21.184 95.317333-38.954667 171.285333-46.826666l16.576-1.536A898.048 898.048 0 0 1 469.333333 597.333333z m0 85.333334h-85.333334v170.666666h85.333334v-170.666666z m-85.653334 0l-10.154666 0.064c-117.632 1.28-194.112 24.277333-237.973334 58.922666-11.861333 9.344-20.053333 18.688-25.301333 27.370667l-2.346667 4.245333-1.258666 2.624v77.418667h277.333333V682.666667h-0.298667zM554.666667 682.666667v170.645333h277.333333V775.893333l-1.258667-2.624-2.346666-4.245333c-5.226667-8.682667-13.44-18.026667-25.301334-27.370667-43.861333-34.645333-120.341333-57.642667-237.973333-58.922666L554.986667 682.666667h-0.298667zM512 85.333333c117.824 0 213.333333 95.509333 213.333333 213.333334s-95.509333 213.333333-213.333333 213.333333-213.333333-95.509333-213.333333-213.333333S394.176 85.333333 512 85.333333z m0 85.333334a128 128 0 1 0 0 256 128 128 0 0 0 0-256z"
        fill="#2B2F36" p-id="6956"></path>
</svg>