<?xml version="1.0" standalone="no"?><!DOCTYPE svg PUBLIC "-//W3C//DTD SVG 1.1//EN" "http://www.w3.org/Graphics/SVG/1.1/DTD/svg11.dtd"><svg class="icon" width="200px" height="200.00px" viewBox="0 0 1024 1024" version="1.1" xmlns="http://www.w3.org/2000/svg"><path d="M533.333333 42.666667a21.333333 21.333333 0 0 1 21.333334 21.333333v64h213.333333c117.824 0 213.333333 95.509333 213.333333 213.333333v426.666667a170.666667 170.666667 0 0 1-170.666666 170.666667h-128a42.666667 42.666667 0 0 1-42.666667-42.666667v-85.333333H384v85.333333a42.666667 42.666667 0 0 1-42.666667 42.666667h-128a170.666667 170.666667 0 0 1-170.666666-170.666667V341.333333C42.666667 223.509333 138.176 128 256 128h213.333333V64a21.333333 21.333333 0 0 1 21.333334-21.333333h42.666666z m234.666667 170.666666H256a128 128 0 0 0-127.914667 123.2L128 341.333333v426.666667a85.333333 85.333333 0 0 0 81.066667 85.226667L213.333333 853.333333h85.333334v-128h426.666666v128h85.333334a85.333333 85.333333 0 0 0 85.226666-81.066666L896 768V341.333333a128 128 0 0 0-123.2-127.914666L768 213.333333z m-405.333333 128a21.333333 21.333333 0 0 1 21.333333 21.333334v64h64a21.333333 21.333333 0 0 1 21.333333 21.333333v42.666667a21.333333 21.333333 0 0 1-21.333333 21.333333h-64v64a21.333333 21.333333 0 0 1-21.333333 21.333333h-42.666667a21.333333 21.333333 0 0 1-21.333333-21.333333v-64h-64a21.333333 21.333333 0 0 1-21.333334-21.333333v-42.666667a21.333333 21.333333 0 0 1 21.333334-21.333333h64v-64a21.333333 21.333333 0 0 1 21.333333-21.333334h42.666667z m394.666666 149.333334a53.333333 53.333333 0 1 1 0 106.666666 53.333333 53.333333 0 0 1 0-106.666666z m-149.333333-149.333334a53.333333 53.333333 0 1 1 0 106.666667 53.333333 53.333333 0 0 1 0-106.666667z" fill="#1F2126" /></svg>