<?xml version="1.0" standalone="no"?><!DOCTYPE svg PUBLIC "-//W3C//DTD SVG 1.1//EN" "http://www.w3.org/Graphics/SVG/1.1/DTD/svg11.dtd"><svg class="icon" width="200px" height="200.00px" viewBox="0 0 1024 1024" version="1.1" xmlns="http://www.w3.org/2000/svg"><path d="M512 42.666667c176.725333 0 320 143.274667 320 320 0 162.261333-120.768 296.32-277.333333 317.184L554.666667 768H725.333333a21.333333 21.333333 0 0 1 21.333334 21.333333v42.666667a21.333333 21.333333 0 0 1-21.333334 21.333333h-170.666666v106.666667a21.333333 21.333333 0 0 1-21.333334 21.333333h-42.666666a21.333333 21.333333 0 0 1-21.333334-21.333333v-106.666667h-170.666666a21.333333 21.333333 0 0 1-21.333334-21.333333v-42.666667a21.333333 21.333333 0 0 1 21.333334-21.333333h170.645333v-88.149333C312.768 658.986667 192 524.928 192 362.666667 192 185.941333 335.274667 42.666667 512 42.666667z m0 85.333333c-129.6 0-234.666667 105.066667-234.666667 234.666667s105.066667 234.666667 234.666667 234.666666 234.666667-105.066667 234.666667-234.666666S641.6 128 512 128z" fill="#1F2126" /></svg>