<?xml version="1.0" standalone="no"?><!DOCTYPE svg PUBLIC "-//W3C//DTD SVG 1.1//EN" "http://www.w3.org/Graphics/SVG/1.1/DTD/svg11.dtd"><svg xmlns:xlink="http://www.w3.org/1999/xlink" class="icon" height="200" p-id="10632" t="1647398663777" version="1.1" viewBox="0 0 1024 1024" width="200" xmlns="http://www.w3.org/2000/svg"><defs><style type="text/css">@font-face { font-family: element-icons; src: url("chrome-extension://moombeodfomdpjnpocobemoiaemednkg/fonts/element-icons.woff") format("woff"), url("chrome-extension://moombeodfomdpjnpocobemoiaemednkg/fonts/element-icons.ttf ") format("truetype"); }
</style></defs><path d="M512 42.666667c259.2 0 469.333333 210.133333 469.333333 469.333333s-210.133333 469.333333-469.333333 469.333333S42.666667 771.2 42.666667 512 252.8 42.666667 512 42.666667z m0 85.333333C299.925333 128 128 299.925333 128 512s171.925333 384 384 384 384-171.925333 384-384S724.074667 128 512 128z m32 576a10.666667 10.666667 0 0 1 10.666667 10.666667v64a10.666667 10.666667 0 0 1-10.666667 10.666666h-64a10.666667 10.666667 0 0 1-10.666667-10.666666v-64a10.666667 10.666667 0 0 1 10.666667-10.666667h64z m-139.584-432.789333c44.586667-34.709333 104.426667-45.610667 161.002667-28.736 53.845333 16.064 96.277333 58.794667 111.082666 110.933333 17.898667 62.933333-3.712 126.506667-58.090666 172.714667-41.770667 35.541333-60.458667 52.650667-63.274667 83.712-0.469333 5.077333-5.248 8.832-10.581333 8.832H480.426667c-6.037333 0-11.093333-4.906667-10.752-10.666667 4.010667-68.16 46.336-104.170667 91.093333-142.208 17.856-15.210667 44.949333-45.909333 33.92-88.746667-7.274667-28.309333-31.210667-51.242667-60.8-58.090666-27.562667-6.378667-54.528-0.704-75.648 15.744-20.053333 15.637333-31.573333 38.784-31.573333 63.530666v9.792a10.666667 10.666667 0 0 1-10.666667 10.666667H352a10.666667 10.666667 0 0 1-10.666667-10.666667v-9.792c0-49.493333 22.976-95.765333 63.082667-127.018666z" fill="#1F2126" p-id="10633"></path></svg>