<?xml version="1.0" standalone="no"?><!DOCTYPE svg PUBLIC "-//W3C//DTD SVG 1.1//EN"
    "http://www.w3.org/Graphics/SVG/1.1/DTD/svg11.dtd">
<svg xmlns:xlink="http://www.w3.org/1999/xlink" class="icon" height="200" p-id="6981"
    t="1642144281770" version="1.1" viewBox="0 0 1024 1024"
    width="200" xmlns="http://www.w3.org/2000/svg">
    <defs>
        <style type="text/css"></style>
    </defs>
    <path
        d="M209.685333 916.416V425.429333h268.138667V128H128v788.416h81.685333z m602.858667-12.416c55.637333 0 83.456-27.242667 83.456-81.706667V128H542.634667v297.429333H814.293333v375.573334c0 18.346667-10.069333 27.52-30.186666 27.52l-88.789334-3.541334 20.416 79.018667h96.789334z m1.770667-657.024h-193.557334V193.706667h193.557334v53.269333z m-415.509334 0H209.685333V193.706667h189.12v53.269333zM814.293333 358.826667h-193.557333v-56.832h193.557333v56.832z m-415.509333 0H209.685333v-56.832h189.12v56.832zM319.786667 899.541333c91.136-50.304 138.197333-116.010667 141.162666-197.098666h102.997334v189.12h74.581333v-189.12h126.08V632.32h-126.08v-89.664h99.413333V474.24h-455.466666v68.373333h106.56v89.664h-133.184v70.144h126.976c-6.528 53.866667-41.152 97.365333-103.893334 130.517334-5.333333 2.965333-11.84 6.506667-19.52 10.666666l60.373334 55.914667zM563.946667 632.32h-100.330667v-89.664h100.330667v89.664z"
        fill="#D73A32" p-id="6982"></path>
</svg>