<?xml version="1.0" standalone="no"?><!DOCTYPE svg PUBLIC "-//W3C//DTD SVG 1.1//EN"
    "http://www.w3.org/Graphics/SVG/1.1/DTD/svg11.dtd">
<svg xmlns:xlink="http://www.w3.org/1999/xlink" class="icon" height="200" p-id="6981"
    t="1642146391230" version="1.1" viewBox="0 0 1024 1024"
    width="200" xmlns="http://www.w3.org/2000/svg">
    <defs>
        <style type="text/css"></style>
    </defs>
    <path
        d="M853.333333 42.666667a42.666667 42.666667 0 0 1 42.666667 42.666666v853.333334a42.666667 42.666667 0 0 1-42.666667 42.666666H170.666667a42.666667 42.666667 0 0 1-42.666667-42.666666V85.333333a42.666667 42.666667 0 0 1 42.666667-42.666666h682.666666z m-171.498666 400.746666l-0.448 4.266667a170.688 170.688 0 0 1-338.773334 0l-0.469333-4.266667a501.013333 501.013333 0 0 1-128.810667-61.866666V896h597.333334V381.546667a501.141333 501.141333 0 0 1-128.832 61.866666zM512 341.333333a85.333333 85.333333 0 1 0 0 170.666667 85.333333 85.333333 0 0 0 0-170.666667zM810.666667 128H213.333333v144.341333c37.76 36.48 86.4 66.176 142.357334 85.76l0.554666-1.322666a170.709333 170.709333 0 0 1 312.085334 1.301333c55.957333-19.562667 104.576-49.258667 142.357333-85.76L810.666667 128z"
        fill="#FFFFFF" p-id="6982"></path>
</svg>