<?xml version="1.0" standalone="no"?><!DOCTYPE svg PUBLIC "-//W3C//DTD SVG 1.1//EN"
    "http://www.w3.org/Graphics/SVG/1.1/DTD/svg11.dtd">
<svg xmlns:xlink="http://www.w3.org/1999/xlink" class="icon" height="200" p-id="7184"
    t="1641817519121" version="1.1" viewBox="0 0 1024 1024"
    width="200" xmlns="http://www.w3.org/2000/svg">
    <defs>
        <style type="text/css"></style>
    </defs>
    <path
        d="M853.333333 42.666667a128 128 0 0 1 128 128v682.666666a128 128 0 0 1-128 128H170.666667a128 128 0 0 1-128-128V170.666667a128 128 0 0 1 128-128h682.666666z m-133.845333 128c-7.658667 15.573333-18.645333 36.544-32.981333 62.848a1462.314667 1462.314667 0 0 1-35.797334 62.293333l-5.76 9.344h-99.626666l45.866666-31.424a2271.552 2271.552 0 0 0-56.405333-82.346667l-14.549333-19.989333-52.309334 33.621333c13.994667 17.962667 34.581333 48.725333 61.781334 92.309334l4.864 7.829333h-99.626667v64.32h58.773333v154.944h-80.256l-4.309333-30.698667-5.013333-33.621333-56.618667 20.48V373.12h62.357333v-66.496H347.52V182.357333h-64.490667v124.266667H208.490667v66.496h74.538666v129.386667c-35.285333 12.138667-63.850667 21.162667-85.717333 27.093333L192 530.986667l15.786667 73.088 75.242666-29.226667v156.394667c0 15.104-2.389333 25.216-7.168 30.336-4.309333 4.608-12.672 7.146667-25.109333 7.594666l-4.266667 0.085334H197.717333l12.885334 68.693333h54.485333c28.181333-0.96 48.96-7.04 62.336-18.261333 12.501333-10.453333 19.157333-27.925333 19.989333-52.394667l0.085334-5.333333V551.466667l65.92-23.381334V590.933333h78.144c-2.389333 34.133333-7.168 62.741333-14.336 85.888a218.965333 218.965333 0 0 1-32.256 64.32c-13.013333 17.92-30.997333 38.4-53.909334 61.376l-7.018666 6.954667L440.682667 853.333333c26.773333-27.306667 47.786667-52.757333 63.082666-76.373333a293.632 293.632 0 0 0 35.477334-79.317333c7.594667-26.581333 12.928-58.389333 16-95.424l0.853333-11.285334h118.954667v255.082667h66.645333V590.933333H832v-66.517333h-90.304V369.493333h79.573333v-64.32h-101.781333a3714.752 3714.752 0 0 0 53.184-88.064l9.173333-15.722666L719.466667 170.666667z m-44.437333 198.826666v154.922667H558.933333V369.493333h116.117334z"
        fill="#F2B561" p-id="7185"></path>
</svg>