<?xml version="1.0" encoding="UTF-8"?>
<svg width="32px" height="32px" viewBox="0 0 32 32" version="1.1" xmlns="http://www.w3.org/2000/svg" xmlns:xlink="http://www.w3.org/1999/xlink">
    <title>icon_虚拟社区</title>
    <g id="页面-1" stroke="none" stroke-width="1" fill="none" fill-rule="evenodd">
        <g id="0-虚拟频道入口" transform="translate(-328.000000, -411.000000)" fill="#198CFE" fill-rule="nonzero">
            <g id="编组" transform="translate(128.000000, 367.000000)">
                <g id="邀请成员按钮" transform="translate(24.000000, 24.000000)">
                    <g id="icon_虚拟社区" transform="translate(176.000000, 20.000000)">
                        <path d="M20.0387692,2.28459905 C23.8166878,0.866027112 27.081365,0.989334296 29.0486098,2.95657906 C31.0158545,4.92382382 31.1391617,8.18850099 29.7147654,11.9816474 L29.7147654,11.9816474 L29.5465803,12.4131733 C29.3059655,13.0096859 29.028507,13.6161407 28.7098135,14.2408236 L28.7098135,14.2408236 L28.4756267,14.6884518 C28.2422651,15.1239123 27.9918909,15.5614525 27.7236428,16.0021901 C27.885203,16.2684404 28.0413361,16.5346835 28.1920323,16.8016535 L28.4819096,17.3286044 L28.7160728,17.7764838 C28.9503984,18.235907 29.1650503,18.6918937 29.3617234,19.1490908 L29.5524664,19.6068635 L29.7205898,20.0387692 C31.1391617,23.8166878 31.0158545,27.081365 29.0486098,29.0486098 C27.1392252,30.9579944 24.0076053,31.1303133 20.3568398,29.8364234 L20.0235415,29.7147654 L19.5920155,29.5465803 C19.1446311,29.3661192 18.6916541,29.1649335 18.2295891,28.9411706 L17.7643653,28.7098135 L17.3167371,28.4756267 C16.8812765,28.2422651 16.4437363,27.9918909 16.0029987,27.7236428 C15.562168,27.9914121 15.1206913,28.2439629 14.6765844,28.4819096 L14.6765844,28.4819096 L14.228705,28.7160728 C13.6161407,29.028507 13.0096859,29.3059655 12.3983253,29.5524664 L12.3983253,29.5524664 L11.9664196,29.7205898 C8.18850099,31.1391617 4.92382382,31.0158545 2.95657906,29.0486098 C0.989334296,27.081365 0.866027112,23.8166878 2.2904234,20.0235415 L2.2904234,20.0235415 L2.45860852,19.5920155 C2.69922331,18.9955029 2.97668188,18.3890481 3.29537536,17.7643653 L3.29537536,17.7643653 L3.52956212,17.3167371 C3.76292372,16.8812765 4.01329792,16.4437363 4.28154604,16.0029987 C4.11998584,15.7367484 3.96385274,15.4705053 3.81315651,15.2035353 L3.52327919,14.6765844 L3.28911607,14.228705 C3.05479042,13.7692818 2.84013857,13.3132952 2.64346545,12.856098 L2.45272246,12.3983253 L2.28459905,11.9664196 C0.866027112,8.18850099 0.989334296,4.92382382 2.95657906,2.95657906 C4.86596368,1.04719444 7.9975835,0.874875577 11.648349,2.16876544 L11.9816474,2.2904234 L12.4131733,2.45860852 C12.8605578,2.63906961 13.3135347,2.84025533 13.7755997,3.06401818 L14.2408236,3.29537536 L14.6884518,3.52956212 C14.6891174,3.52991883 14.689783,3.53027557 14.6904487,3.53063236 L14.5023228,3.65091803 L14.0360895,3.96024056 L13.5500919,4.29480439 L13.0648175,4.64145571 L12.5001229,5.06116485 C12.4061856,5.13241006 12.3125066,5.20418155 12.219085,5.27648369 L11.8207726,5.10042309 L11.8207726,5.10042309 L11.4304675,4.93754889 L11.0290173,4.78107418 C8.1239225,3.69023914 5.91055607,3.77383821 4.84219714,4.84219714 C3.81067818,5.8737161 3.69717553,7.97263802 4.66716845,10.7172702 L4.77524983,11.0137896 L4.93166283,11.4156195 C5.08971306,11.8074448 5.2669509,12.2064341 5.46007684,12.60577 L5.65837659,13.0049691 L5.87999749,13.4288627 L5.94230157,13.5465086 C6.62853168,12.6247316 7.37865173,11.7141841 8.19038028,10.8199582 L8.19038028,10.8199582 L8.60239742,10.3734154 C8.88668269,10.0702031 9.17721284,9.77016746 9.47369015,9.47369015 C9.77016746,9.17721284 10.0702031,8.88668269 10.3812826,8.59508057 L10.3812826,8.59508057 L10.8279164,8.1830978 C11.8061653,7.29515629 12.8122244,6.47486691 13.8405716,5.72588336 L13.8405716,5.72588336 L14.3069117,5.39253 L14.7734257,5.07114696 L15.2296888,4.76837787 C15.926974,4.31450779 16.6244834,3.90053816 17.3286044,3.52327919 L17.3286044,3.52327919 L17.7764838,3.28911607 C18.3890481,2.97668188 18.9955029,2.69922331 19.5920155,2.45860852 L19.5920155,2.45860852 Z M5.94433333,18.4573333 L5.88628042,18.5644589 L5.66463588,18.9881012 C5.38724143,19.531966 5.14239646,20.0671356 4.93754889,20.5747213 L4.93754889,20.5747213 L4.78107418,20.9761715 C3.69023914,23.8812663 3.77383821,26.0946328 4.84219714,27.1629917 C5.91055607,28.2313506 8.1239225,28.3149497 11.0137896,27.229939 L11.0137896,27.229939 L11.4156195,27.073526 C11.9380533,26.8627924 12.4732229,26.6179474 13.0049691,26.3468122 L13.0049691,26.3468122 L13.4288627,26.1251913 C13.4680712,26.1041796 13.5073106,26.0830079 13.5465769,26.0616784 L13.831305,26.2726164 C13.0160406,25.6787808 12.2091098,25.0350285 11.41401,24.3429263 L10.8199582,23.8148085 L10.3734154,23.4027914 C10.0702031,23.1185061 9.77016746,22.827976 9.47369015,22.5314987 L9.03255717,22.0831783 L9.03255717,22.0831783 L8.59508057,21.6239062 L8.1830978,21.1772725 C7.4727446,20.3946733 6.80568875,19.5942756 6.18380096,18.7789068 L5.94433333,18.4573333 Z M26.06249,18.4592138 C25.3763676,19.3808087 24.6263805,20.2911773 23.8148085,21.1852307 L23.8148085,21.1852307 L23.4027914,21.6317735 C23.1185061,21.9349857 22.827976,22.2350214 22.5314987,22.5314987 C22.2350214,22.827976 21.9349857,23.1185061 21.6239062,23.4101083 L21.6239062,23.4101083 L21.1772725,23.822091 C20.1990235,24.7100325 19.1929644,25.5303219 18.1646173,26.2793055 L18.4583333,26.0593333 L18.5644589,26.1189084 L18.9881012,26.3405529 C19.3959998,26.5485988 19.7990073,26.7383355 20.1891552,26.9066211 L20.5747213,27.0676399 L20.9761715,27.2241146 C23.8812663,28.3149497 26.0946328,28.2313506 27.1629917,27.1629917 C28.1945107,26.1314727 28.3080133,24.0325508 27.3380204,21.2879186 L27.229939,20.9913993 L27.073526,20.5895693 C26.9154758,20.197744 26.7382379,19.7987548 26.545112,19.3994188 L26.3468122,19.0002197 L26.1251913,18.5763262 Z M27.1629917,4.84219714 C26.0946328,3.77383821 23.8812663,3.69023914 20.9913993,4.77524983 L20.9913993,4.77524983 L20.5895693,4.93166283 C20.0671356,5.14239646 19.531966,5.38724143 19.0002197,5.65837659 L19.0002197,5.65837659 L18.5763262,5.87999749 C17.9516471,6.21476053 17.3191535,6.59014357 16.694391,6.99674411 L16.694391,6.99674411 L16.2675818,7.27977896 L15.8394857,7.57468326 L15.4013463,7.88804955 C14.4600739,8.57366882 13.5281402,9.33352011 12.6281479,10.1503704 L12.6281479,10.1503704 L12.1973396,10.5477538 C11.9150167,10.8124537 11.6355482,11.0830683 11.3593082,11.3593082 C11.0830683,11.6355482 10.8124537,11.9150167 10.5550707,12.1894723 L10.5550707,12.1894723 L10.1576528,12.6201896 C9.33352011,13.5281402 8.57366882,14.4600739 7.89473866,15.3920798 L7.89473866,15.3920798 L7.58798121,15.8205514 L7.46133333,16.0023333 L7.57468326,16.1657032 L7.88804955,16.6038425 C8.43654497,17.3568605 9.03254888,18.1039016 9.66723795,18.8333934 L10.1503704,19.377041 L10.5477538,19.8078492 C10.8124537,20.0901721 11.0830683,20.3696407 11.3593082,20.6458806 L11.7750594,21.0550707 L11.7750594,21.0550707 L12.1894723,21.4501182 L12.6201896,21.847536 C13.3465501,22.5068422 14.0882597,23.1250082 14.8330762,23.6935146 L15.3920798,24.1104502 L15.8205514,24.4172076 L16.0023333,24.5423333 L16.1657032,24.4305056 L16.6038425,24.1171393 C17.5451149,23.43152 18.4770487,22.6716687 19.377041,21.8548185 L19.377041,21.8548185 L19.8078492,21.457435 C20.0901721,21.1927352 20.3696407,20.9221205 20.6458806,20.6458806 C20.9221205,20.3696407 21.1927352,20.0901721 21.4501182,19.8157165 L21.4501182,19.8157165 L21.847536,19.3849992 C22.6716687,18.4770487 23.43152,17.5451149 24.1104502,16.613109 L24.1104502,16.613109 L24.4172076,16.1846374 L24.5423333,16.0013333 L24.4305056,15.8394857 L24.1171393,15.4013463 C23.5686439,14.6483284 22.97264,13.9012872 22.3379509,13.1717954 L21.8548185,12.6281479 L21.457435,12.1973396 C21.1927352,11.9150167 20.9221205,11.6355482 20.6458806,11.3593082 L20.2301294,10.9501181 L20.2301294,10.9501181 L19.8157165,10.5550707 L19.3849992,10.1576528 C18.6586388,9.49834666 17.9169291,8.8801806 17.1721126,8.31167418 L17.0093333,8.19033333 L17.1493333,8.29434941 L17.4317273,8.1076505 L17.8720529,7.82755599 C18.1671294,7.64410611 18.4647257,7.46754566 18.7616462,7.2998539 L19.2061207,7.05521517 L19.6134021,6.84027076 C19.9659177,7.12627346 20.3164337,7.42168991 20.6646554,7.72638813 L21.1852307,8.19038028 L21.6317735,8.60239742 C21.9349857,8.88668269 22.2350214,9.17721284 22.5314987,9.47369015 L22.9726317,9.92201056 L22.9726317,9.92201056 L23.4101083,10.3812826 L23.822091,10.8279164 C24.5324442,11.6105155 25.1995001,12.4109132 25.8213879,13.226282 L26.0603333,13.5463333 L26.1189084,13.44073 L26.3405529,13.0170876 C26.6179474,12.4732229 26.8627924,11.9380533 27.0676399,11.4304675 L27.0676399,11.4304675 L27.2241146,11.0290173 C28.3149497,8.1239225 28.2313506,5.91055607 27.1629917,4.84219714 Z M16.1714876,14.1714876 C17.2760571,14.1714876 18.1714876,15.0669181 18.1714876,16.1714876 C18.1714876,17.2760571 17.2760571,18.1714876 16.1714876,18.1714876 C15.0669181,18.1714876 14.1714876,17.2760571 14.1714876,16.1714876 C14.1714876,15.0669181 15.0669181,14.1714876 16.1714876,14.1714876 Z" id="形状结合"></path>
                    </g>
                </g>
            </g>
        </g>
    </g>
</svg>