<?xml version="1.0" standalone="no"?><!DOCTYPE svg PUBLIC "-//W3C//DTD SVG 1.1//EN" "http://www.w3.org/Graphics/SVG/1.1/DTD/svg11.dtd"><svg t="1611913631402" class="icon" viewBox="0 0 1024 1024" version="1.1" xmlns="http://www.w3.org/2000/svg" p-id="41101" xmlns:xlink="http://www.w3.org/1999/xlink" width="200" height="200"><defs><style type="text/css"></style></defs><path d="M641.755429 85.321143l-36.937143 63.981714H106.642286v536.813714l209.188571-202.422857a21.339429 21.339429 0 0 1 29.677714 0l42.496 41.124572L149.083429 938.660571H85.339429A42.660571 42.660571 0 0 1 42.660571 896V128a42.660571 42.660571 0 0 1 42.678858-42.660571l556.434285-0.018286z m296.905142 0A42.660571 42.660571 0 0 1 981.339429 128v768a42.660571 42.660571 0 0 1-42.678858 42.660571H296.886857l185.965714-322.066285 112.329143 108.726857h12.086857l123.794286-132.608a21.339429 21.339429 0 0 1 31.195429 0l123.794285 132.608h31.268572v-576l-164.699429-0.018286 36.937143-64 149.101714 0.036572zM725.339429 298.678857a85.339429 85.339429 0 1 1 0 170.678857 85.339429 85.339429 0 0 1 0-170.678857z" fill="#8F959E" opacity=".65" p-id="41102"></path></svg>