<?xml version="1.0" standalone="no"?><!DOCTYPE svg PUBLIC "-//W3C//DTD SVG 1.1//EN" "http://www.w3.org/Graphics/SVG/1.1/DTD/svg11.dtd"><svg t="1611147182121" class="icon" viewBox="0 0 1024 1024" version="1.1" xmlns="http://www.w3.org/2000/svg" p-id="5851" xmlns:xlink="http://www.w3.org/1999/xlink" width="24" height="24"><defs><style type="text/css"></style></defs><path d="M512 42.6752C693.1712 42.6752 850.3552 145.3056 928.5632 295.6032l-288.5632 216.3968 288.5632 216.448c-78.2336 150.272-235.4176 252.9024-416.5632 252.9024C252.8 981.3504 42.6752 771.2256 42.6752 512 42.6752 252.8 252.8 42.6752 512 42.6752z m0 85.3248c-212.0704 0-384 171.9296-384 384 0 212.096 171.9296 384 384 384 117.6576 0 225.792-53.3248 297.4208-141.0048l4.608-5.7856-316.2368-237.2096 316.2368-237.2096-4.608-5.76a383.5648 383.5648 0 0 0-288.384-140.928l-9.0368-0.1024z" fill="#00B34A" p-id="5852"></path><path d="M576 277.3504m-64 0a64 64 0 1 0 128 0 64 64 0 1 0-128 0Z" fill="#00B34A" p-id="5853"></path></svg>