<?xml version="1.0" standalone="no"?><!DOCTYPE svg PUBLIC "-//W3C//DTD SVG 1.1//EN" "http://www.w3.org/Graphics/SVG/1.1/DTD/svg11.dtd"><svg t="1611147173233" class="icon" viewBox="0 0 1024 1024" version="1.1" xmlns="http://www.w3.org/2000/svg" p-id="5710" xmlns:xlink="http://www.w3.org/1999/xlink" width="24" height="24"><defs><style type="text/css"></style></defs><path d="M512 0c282.773333 0 512 229.226667 512 512S794.773333 1024 512 1024 0 794.773333 0 512 229.226667 0 512 0z m0 247.786667c-149.088 0-269.952 120.864-269.952 269.952 0 149.098667 120.853333 269.952 269.952 269.952 92.746667 0 174.56-46.773333 223.157333-118.005334l-202.24-137.706666-1.322666-0.992a17.237333 17.237333 0 0 1 1.322666-27.488l202.24-137.696C686.56 294.56 604.746667 247.797333 512 247.797333z" fill="#00B34A" p-id="5711"></path><path d="M546.464 368.405333m-34.464 0a34.464 34.464 0 1 0 68.928 0 34.464 34.464 0 1 0-68.928 0Z" fill="#00B34A" p-id="5712"></path></svg>