<svg class="icon" viewBox="0 0 1024 1024" version="1.1" xmlns="http://www.w3.org/2000/svg"
    width="200" height="200">
    <path
        d="M725.333547 42.666667c164.949333 0 298.666667 133.717333 298.666666 298.666666 0 83.349333-34.133333 158.72-89.173333 212.906667a85.333333 85.333333 0 0 1-13.824 18.090667L542.165547 951.168a42.666667 42.666667 0 0 1-60.330667 0L102.997547 572.330667a85.418667 85.418667 0 0 1-13.909334-18.218667A297.642667 297.642667 0 0 1 0.000213 341.333333C0.000213 176.384 133.717547 42.666667 298.66688 42.666667c83.584 0 159.146667 34.346667 213.333333 89.664A297.642667 297.642667 0 0 1 725.333547 42.666667z m0 85.333333a212.202667 212.202667 0 0 0-147.285334 59.029333L572.992213 192 512.000213 254.293333l-60.949333-62.229333A212.394667 212.394667 0 0 0 298.66688 128C180.84288 128 85.333547 223.509333 85.333547 341.333333c0 55.573333 21.248 107.562667 58.666666 146.901334l4.970667 5.056 8.469333 8.341333 5.909334 10.368L512.000213 860.650667 860.65088 512l5.866667-10.304 8.448-8.298667A212.394667 212.394667 0 0 0 938.66688 341.333333c0-117.824-95.509333-213.333333-213.333333-213.333333z"
        fill="#1F2126"></path>
</svg>