<?xml version="1.0" standalone="no"?><!DOCTYPE svg PUBLIC "-//W3C//DTD SVG 1.1//EN" "http://www.w3.org/Graphics/SVG/1.1/DTD/svg11.dtd">
<svg class="icon" height="200" p-id="7542" t="1650422677852" version="1.1" viewBox="0 0 1024 1024"
    width="200" xmlns="http://www.w3.org/2000/svg"><defs><style type="text/css">@font-face { font-family: feedback-iconfont; src: url("//at.alicdn.com/t/font_1031158_u69w8yhxdu.woff2?t=1630033759944") format("woff2"), url("//at.alicdn.com/t/font_1031158_u69w8yhxdu.woff?t=1630033759944") format("woff"), url("//at.alicdn.com/t/font_1031158_u69w8yhxdu.ttf?t=1630033759944") format("truetype"); }
</style></defs><path d="M725.333547 42.666667c164.949333 0 298.666667 133.717333 298.666666 298.666666 0 83.349333-34.133333 158.72-89.173333 212.906667a85.333333 85.333333 0 0 1-13.824 18.090667L542.165547 951.168a42.666667 42.666667 0 0 1-60.330667 0L102.997547 572.330667a85.418667 85.418667 0 0 1-13.909334-18.218667A297.642667 297.642667 0 0 1 0.000213 341.333333C0.000213 176.384 133.717547 42.666667 298.66688 42.666667c83.584 0 159.146667 34.346667 213.333333 89.664A297.642667 297.642667 0 0 1 725.333547 42.666667z" fill="#F2494A" p-id="7543"></path></svg>