<?xml version="1.0" standalone="no"?><!DOCTYPE svg PUBLIC "-//W3C//DTD SVG 1.1//EN" "http://www.w3.org/Graphics/SVG/1.1/DTD/svg11.dtd"><svg t="1624845701327" class="icon" viewBox="0 0 1024 1024" version="1.1" xmlns="http://www.w3.org/2000/svg" p-id="5986" xmlns:xlink="http://www.w3.org/1999/xlink" width="200" height="200"><defs><style type="text/css"></style></defs><path d="M591.36 171.584c3.882667 5.418667 5.973333 11.946667 5.973333 18.602667v643.626666a32 32 0 0 1-50.602666 26.026667L298.666667 682.666667H106.666667a21.333333 21.333333 0 0 1-21.333334-21.333334V362.666667a21.333333 21.333333 0 0 1 21.333334-21.333334h192l248.064-177.194666a32 32 0 0 1 44.650666 7.445333z m167.808 484.565333l120.682667 120.682667a21.333333 21.333333 0 0 1 0 30.165333l-30.186667 30.186667a21.333333 21.333333 0 0 1-30.165333 0l-120.682667-120.682667a21.333333 21.333333 0 0 1 0-30.165333l30.186667-30.186667a21.333333 21.333333 0 0 1 30.165333 0zM917.333333 469.333333a21.333333 21.333333 0 0 1 21.333334 21.333334v42.666666a21.333333 21.333333 0 0 1-21.333334 21.333334h-170.666666a21.333333 21.333333 0 0 1-21.333334-21.333334v-42.666666a21.333333 21.333333 0 0 1 21.333334-21.333334h170.666666zM849.664 186.816l30.186667 30.186667a21.333333 21.333333 0 0 1 0 30.165333l-120.682667 120.682667a21.333333 21.333333 0 0 1-30.165333 0l-30.186667-30.186667a21.333333 21.333333 0 0 1 0-30.165333l120.682667-120.682667a21.333333 21.333333 0 0 1 30.165333 0z" fill="#646A73" p-id="5987"></path></svg>