<?xml version="1.0" standalone="no"?><!DOCTYPE svg PUBLIC "-//W3C//DTD SVG 1.1//EN" "http://www.w3.org/Graphics/SVG/1.1/DTD/svg11.dtd"><svg t="1634902833141" class="icon" viewBox="0 0 1024 1024" version="1.1" xmlns="http://www.w3.org/2000/svg" p-id="7232" xmlns:xlink="http://www.w3.org/1999/xlink" width="48" height="48"><defs><style type="text/css"></style></defs><path d="M640 554.666667c44.032 0 113.621333 25.557333 208.768 76.672A170.666667 170.666667 0 0 1 938.666667 781.696V938.666667a42.666667 42.666667 0 0 1-42.666667 42.666666H128a42.666667 42.666667 0 0 1-42.666667-42.666666v-156.970667a170.666667 170.666667 0 0 1 89.898667-150.357333C270.378667 580.224 339.968 554.666667 384 554.666667h256zM512 42.666667c117.824 0 213.333333 95.509333 213.333333 213.333333s-95.509333 213.333333-213.333333 213.333333-213.333333-95.509333-213.333333-213.333333S394.176 42.666667 512 42.666667z" fill="#363940" p-id="7233"></path></svg>