<?xml version="1.0" standalone="no"?><!DOCTYPE svg PUBLIC "-//W3C//DTD SVG 1.1//EN" "http://www.w3.org/Graphics/SVG/1.1/DTD/svg11.dtd"><svg t="1624845716375" class="icon" viewBox="0 0 1024 1024" version="1.1" xmlns="http://www.w3.org/2000/svg" p-id="6240" xmlns:xlink="http://www.w3.org/1999/xlink" width="200" height="200"><defs><style type="text/css"></style></defs><path d="M810.6752 448c22.3232 0 40.6272 17.152 42.496 38.9888l0.1536 3.6864c0 174.0544-130.2784 317.696-298.624 338.688l-0.0256 130.6368c0 11.776-9.5488 21.3248-21.3504 21.3248h-42.6496a21.3248 21.3248 0 0 1-21.3504-21.3248v-130.6368c-168.3712-20.992-298.6496-164.6336-298.6496-338.688l0.1536-3.6864a42.6752 42.6752 0 0 1 84.992 0l0.1792 3.6864c0 141.3888 114.6112 256 256 256 139.2128 0 252.4672-111.104 255.9232-249.4976l0.0768-6.5024 0.1536-3.6864a42.6752 42.6752 0 0 1 42.496-38.9888z m-448 42.6752V192a149.3248 149.3248 0 1 1 298.6496 0v298.6752a149.3248 149.3248 0 0 1-143.616 149.2224L512 640a149.3248 149.3248 0 0 1-149.3248-149.3248z" fill="#646A73" p-id="6241"></path></svg>