<?xml version="1.0" standalone="no"?><!DOCTYPE svg PUBLIC "-//W3C//DTD SVG 1.1//EN" "http://www.w3.org/Graphics/SVG/1.1/DTD/svg11.dtd"><svg t="1624845709321" class="icon" viewBox="0 0 1024 1024" version="1.1" xmlns="http://www.w3.org/2000/svg" p-id="6113" xmlns:xlink="http://www.w3.org/1999/xlink" width="200" height="200"><defs><style type="text/css"></style></defs><path d="M810.6752 448c22.3232 0 40.6272 17.152 42.496 38.9888l0.1536 3.6864c0 174.0544-130.2784 317.696-298.624 338.688l-0.0256 130.6368c0 11.776-9.5488 21.3248-21.3504 21.3248h-42.6496a21.3248 21.3248 0 0 1-21.3504-21.3248v-130.6368a339.1488 339.1488 0 0 1-75.3408-18.3296l69.0432-69.0432c15.872 3.072 32.2304 4.6848 48.9728 4.6848 139.2128 0 252.4672-111.104 255.9232-249.4976l0.0768-6.5024 0.1536-3.6864a42.6752 42.6752 0 0 1 42.496-38.9888z m63.36-328.192l30.1824 30.1568a21.3248 21.3248 0 0 1 0 30.1568L180.1216 904.2176a21.3248 21.3248 0 0 1-30.1568 0l-30.1824-30.1824a21.3248 21.3248 0 0 1 0-30.1568l176.64-176.64 16.1024-16.128 203.1104-203.1104 145.664-145.6896 182.5792-182.528a21.3248 21.3248 0 0 1 30.1568 0zM213.3248 448c22.3232 0 40.6528 17.152 42.496 38.9888l0.1792 3.6864c0 28.928 4.7872 56.7296 13.6448 82.6624L204.288 638.6432a339.968 339.968 0 0 1-33.6384-147.968l0.1536-3.6864a42.6752 42.6752 0 0 1 42.496-38.9888z m430.08 113.6384a150.016 150.016 0 0 1-60.416 60.4416l60.416-60.4416zM512 42.6752c79.104 0 143.872 61.5168 148.992 139.3152L362.6752 480.3072V192A149.3248 149.3248 0 0 1 512 42.6752z" fill="#F24848" p-id="6114"></path></svg>