<?xml version="1.0" standalone="no"?><!DOCTYPE svg PUBLIC "-//W3C//DTD SVG 1.1//EN" "http://www.w3.org/Graphics/SVG/1.1/DTD/svg11.dtd"><svg class="icon" width="200px" height="200.00px" viewBox="0 0 1024 1024" version="1.1" xmlns="http://www.w3.org/2000/svg"><path d="M426.666667 554.666667a42.666667 42.666667 0 0 1 42.666666 42.666666v298.666667a42.666667 42.666667 0 0 1-42.666666 42.666667H128a42.666667 42.666667 0 0 1-42.666667-42.666667V597.333333a42.666667 42.666667 0 0 1 42.666667-42.666666h298.666667z m469.333333 0a42.666667 42.666667 0 0 1 42.666667 42.666666v298.666667a42.666667 42.666667 0 0 1-42.666667 42.666667H597.333333a42.666667 42.666667 0 0 1-42.666666-42.666667V597.333333a42.666667 42.666667 0 0 1 42.666666-42.666666h298.666667z m-512 85.333333H170.666667v213.333333h213.333333V640z m469.333333 0H640v213.333333h213.333333V640zM426.666667 85.333333a42.666667 42.666667 0 0 1 42.666666 42.666667v298.666667a42.666667 42.666667 0 0 1-42.666666 42.666666H128a42.666667 42.666667 0 0 1-42.666667-42.666666V128a42.666667 42.666667 0 0 1 42.666667-42.666667h298.666667z m320 0a192 192 0 1 1 0 384 192 192 0 0 1 0-384zM384 170.666667H170.666667v213.333333h213.333333V170.666667z m362.666667 0a106.666667 106.666667 0 1 0 0 213.333333 106.666667 106.666667 0 0 0 0-213.333333z" fill="#1F2126" /></svg>