<?xml version="1.0" standalone="no"?><!DOCTYPE svg PUBLIC "-//W3C//DTD SVG 1.1//EN" "http://www.w3.org/Graphics/SVG/1.1/DTD/svg11.dtd"><svg t="1591945376702" class="icon" viewBox="0 0 1024 1024" version="1.1" xmlns="http://www.w3.org/2000/svg" p-id="4395" xmlns:xlink="http://www.w3.org/1999/xlink" width="200" height="200"><defs><style type="text/css"></style></defs><path d="M682.666667 192a85.333333 85.333333 0 0 1 85.333333 85.333333v89.578667l100.373333-70.229333A67.029333 67.029333 0 0 1 928 288a46.805333 46.805333 0 0 1 32 44.394667V691.626667c0 20.138667-12.885333 38.016-32 44.394666a67.029333 67.029333 0 0 1-59.626667-8.682666L768 657.066667V746.666667a85.333333 85.333333 0 0 1-85.333333 85.333333H149.333333a85.333333 85.333333 0 0 1-85.333333-85.333333V277.333333a85.333333 85.333333 0 0 1 85.333333-85.333333h533.333334z m0 85.333333H149.333333v469.333334h533.333334V277.333333z m192 119.061334l-106.666667 74.666666v81.856l106.666667 74.666667V396.394667z" p-id="4396"></path></svg>