<?xml version="1.0" standalone="no"?><!DOCTYPE svg PUBLIC "-//W3C//DTD SVG 1.1//EN" "http://www.w3.org/Graphics/SVG/1.1/DTD/svg11.dtd"><svg t="1591945390101" class="icon" viewBox="0 0 1024 1024" version="1.1" xmlns="http://www.w3.org/2000/svg" p-id="4761" xmlns:xlink="http://www.w3.org/1999/xlink" width="200" height="200"><defs><style type="text/css"></style></defs><path d="M682.666667 85.333333a85.333333 85.333333 0 0 1 85.226666 81.066667L768 170.666667v256l115.84 193.066666a85.333333 85.333333 0 0 1 12.010667 38.762667l0.149333 5.12V682.666667a42.666667 42.666667 0 0 1-39.466667 42.56L853.333333 725.333333H554.666667v170.666667a42.666667 42.666667 0 1 1-85.333334 0v-170.666667H170.666667a42.666667 42.666667 0 0 1-42.56-39.466666L128 682.666667v-19.029334a85.333333 85.333333 0 0 1 9.642667-39.424l2.517333-4.48L256 426.666667V170.666667a85.333333 85.333333 0 0 1 81.066667-85.226667L341.333333 85.333333h341.333334z m113.834666 554.666667L682.666667 450.304l0.021333-277.546667L682.666667 170.666667l-339.2-0.021334L341.333333 170.666667v279.637333L227.498667 640h569.002666z" p-id="4762"></path></svg>