<?xml version="1.0" standalone="no"?><!DOCTYPE svg PUBLIC "-//W3C//DTD SVG 1.1//EN" "http://www.w3.org/Graphics/SVG/1.1/DTD/svg11.dtd"><svg t="1600422977619" class="icon" viewBox="0 0 1024 1024" version="1.1" xmlns="http://www.w3.org/2000/svg" p-id="4306" xmlns:xlink="http://www.w3.org/1999/xlink" width="200" height="200"><defs><style type="text/css"></style></defs><path d="M512 576v85.333333h-170.666667a170.666667 170.666667 0 0 0-170.581333 165.333334L170.666667 832v21.333333h341.333333v85.333334H170.666667a85.333333 85.333333 0 0 1-85.333334-85.333334v-21.333333c0-141.376 114.624-256 256-256h170.666667z m245.333333 234.666667a53.333333 53.333333 0 1 1 0 106.666666 53.333333 53.333333 0 0 1 0-106.666666z m0-149.333334a53.333333 53.333333 0 1 1 0 106.666667 53.333333 53.333333 0 0 1 0-106.666667z m0-149.333333a53.333333 53.333333 0 1 1 0 106.666667 53.333333 53.333333 0 0 1 0-106.666667zM448 85.333333c117.824 0 213.333333 95.509333 213.333333 213.333334s-95.509333 213.333333-213.333333 213.333333-213.333333-95.509333-213.333333-213.333333S330.176 85.333333 448 85.333333z m0 85.333334a128 128 0 1 0 0 256 128 128 0 0 0 0-256z" fill="#1F2125" p-id="4307"></path></svg>