<?xml version="1.0" standalone="no"?><!DOCTYPE svg PUBLIC "-//W3C//DTD SVG 1.1//EN" "http://www.w3.org/Graphics/SVG/1.1/DTD/svg11.dtd"><svg t="1583500682506" class="icon" viewBox="0 0 1024 1024" version="1.1" xmlns="http://www.w3.org/2000/svg" p-id="2317" width="64" height="64" xmlns:xlink="http://www.w3.org/1999/xlink"><defs><style type="text/css">@font-face { font-family: element-icons; src: url("chrome-extension://moombeodfomdpjnpocobemoiaemednkg/fonts/element-icons.woff") format("woff"), url("chrome-extension://moombeodfomdpjnpocobemoiaemednkg/fonts/element-icons.ttf ") format("truetype"); }
</style></defs><path d="M723.2 258.133333H302.933333L375.466667 149.333333c8.533333-12.8 21.333333-19.2 36.266666-19.2h204.8c14.933333 0 27.733333 6.4 36.266667 19.2l70.4 108.8zM298.666667 234.666667H170.666667V196.266667C170.666667 181.333333 181.333333 170.666667 196.266667 170.666667h76.8c14.933333 0 25.6 10.666667 25.6 25.6V234.666667z" fill="#2c2c2c" p-id="2318" data-spm-anchor-id="a313x.7781069.0.i4" class="selected"></path><path d="M853.333333 896H170.666667c-46.933333 0-85.333333-38.4-85.333334-85.333333V298.666667c0-46.933333 38.4-85.333333 85.333334-85.333334h682.666666c46.933333 0 85.333333 38.4 85.333334 85.333334v512c0 46.933333-38.4 85.333333-85.333334 85.333333z" fill="#2c2c2c" p-id="2319" data-spm-anchor-id="a313x.7781069.0.i2" class="selected"></path><path d="M725.333333 533.333333c0-117.333333-96-213.333333-213.333333-213.333333-51.2 0-98.133333 17.066667-134.4 46.933333l25.6 34.133334C433.066667 377.6 469.333333 362.666667 512 362.666667c93.866667 0 170.666667 76.8 170.666667 170.666666h-74.666667l96 119.466667 96-119.466667H725.333333zM620.8 665.6C590.933333 689.066667 552.533333 704 512 704c-93.866667 0-170.666667-76.8-170.666667-170.666667h74.666667L320 413.866667 224 533.333333H298.666667c0 117.333333 96 213.333333 213.333333 213.333334 51.2 0 98.133333-17.066667 134.4-46.933334l-25.6-34.133333z" fill="#e6e6e6" p-id="2320" data-spm-anchor-id="a313x.7781069.0.i3" class=""></path></svg>