<?xml version="1.0" standalone="no"?><!DOCTYPE svg PUBLIC "-//W3C//DTD SVG 1.1//EN" "http://www.w3.org/Graphics/SVG/1.1/DTD/svg11.dtd"><svg t="1591945395167" class="icon" viewBox="0 0 1024 1024" version="1.1" xmlns="http://www.w3.org/2000/svg" p-id="4883" xmlns:xlink="http://www.w3.org/1999/xlink" width="200" height="200"><defs><style type="text/css"></style></defs><path d="M554.666667 853.333333a42.666667 42.666667 0 1 1 0 85.333334h-85.333334a42.666667 42.666667 0 1 1 0-85.333334h85.333334zM173.184 768A38.592 38.592 0 0 1 138.666667 746.666667a33.088 33.088 0 0 1 6.186666-38.186667L213.333333 640V384c0-164.949333 133.717333-298.666667 298.666667-298.666667s298.666667 133.717333 298.666667 298.666667v256l68.48 68.48c10.069333 10.069333 12.565333 25.450667 6.186666 38.186667a38.613333 38.613333 0 0 1-31.168 21.184l-3.349333 0.149333H173.184zM512 170.666667c-115.84 0-210.090667 92.309333-213.248 207.36L298.666667 384v298.666667h426.666666V384c0-115.84-92.309333-210.090667-207.36-213.248L512 170.666667z" p-id="4884"></path></svg>