<?xml version="1.0" standalone="no"?><!DOCTYPE svg PUBLIC "-//W3C//DTD SVG 1.1//EN" "http://www.w3.org/Graphics/SVG/1.1/DTD/svg11.dtd"><svg t="1621410933290" class="icon" viewBox="0 0 1024 1024" version="1.1" xmlns="http://www.w3.org/2000/svg" p-id="6330" xmlns:xlink="http://www.w3.org/1999/xlink" width="200" height="200"><defs><style type="text/css"></style></defs><path d="M149.333333 448m21.333334 0l85.333333 0q21.333333 0 21.333333 21.333333l0 85.333334q0 21.333333-21.333333 21.333333l-85.333333 0q-21.333333 0-21.333334-21.333333l0-85.333334q0-21.333333 21.333334-21.333333Z" fill="#2B2F36" p-id="6331"></path><path d="M448 448m21.333333 0l85.333334 0q21.333333 0 21.333333 21.333333l0 85.333334q0 21.333333-21.333333 21.333333l-85.333334 0q-21.333333 0-21.333333-21.333333l0-85.333334q0-21.333333 21.333333-21.333333Z" fill="#2B2F36" p-id="6332"></path><path d="M746.666667 448m21.333333 0l85.333333 0q21.333333 0 21.333334 21.333333l0 85.333334q0 21.333333-21.333334 21.333333l-85.333333 0q-21.333333 0-21.333333-21.333333l0-85.333334q0-21.333333 21.333333-21.333333Z" fill="#2B2F36" p-id="6333"></path></svg>