<?xml version="1.0" standalone="no"?><!DOCTYPE svg PUBLIC "-//W3C//DTD SVG 1.1//EN" "http://www.w3.org/Graphics/SVG/1.1/DTD/svg11.dtd"><svg t="1654069165038" class="icon" viewBox="0 0 1024 1024" version="1.1" xmlns="http://www.w3.org/2000/svg" p-id="9260" xmlns:xlink="http://www.w3.org/1999/xlink" width="200" height="200"><defs><style type="text/css">@font-face { font-family: feedback-iconfont; src: url("//at.alicdn.com/t/font_1031158_u69w8yhxdu.woff2?t=1630033759944") format("woff2"), url("//at.alicdn.com/t/font_1031158_u69w8yhxdu.woff?t=1630033759944") format("woff"), url("//at.alicdn.com/t/font_1031158_u69w8yhxdu.ttf?t=1630033759944") format("truetype"); }
</style></defs><path d="M828.928 429.312l2.005333 1.770667 30.165334 30.165333a21.333333 21.333333 0 0 1 1.770666 28.16l-1.770666 2.026667L691.157333 661.333333l169.941334 169.962667a21.333333 21.333333 0 0 1 0 30.165333l-30.165334 30.165334a21.333333 21.333333 0 0 1-30.165333 0l-211.2-211.2a21.312 21.312 0 0 1-5.866667-19.072 21.333333 21.333333 0 0 1 4.053334-17.045334l1.813333-2.026666 211.2-211.2a21.333333 21.333333 0 0 1 28.16-1.770667zM512 768v85.333333H149.333333a21.333333 21.333333 0 0 1-21.333333-21.333333v-42.666667a21.333333 21.333333 0 0 1 21.333333-21.333333h362.666667z m0-298.666667v85.333334H149.333333a21.333333 21.333333 0 0 1-21.333333-21.333334v-42.666666a21.333333 21.333333 0 0 1 21.333333-21.333334h362.666667zM874.666667 170.666667a21.333333 21.333333 0 0 1 21.333333 21.333333v42.666667a21.333333 21.333333 0 0 1-21.333333 21.333333H149.333333a21.333333 21.333333 0 0 1-21.333333-21.333333V192a21.333333 21.333333 0 0 1 21.333333-21.333333h725.333334z" fill="#1F2126" p-id="9261"></path></svg>