<?xml version="1.0" standalone="no"?><!DOCTYPE svg PUBLIC "-//W3C//DTD SVG 1.1//EN" "http://www.w3.org/Graphics/SVG/1.1/DTD/svg11.dtd"><svg t="1591942548203" class="icon" viewBox="0 0 1024 1024" version="1.1" xmlns="http://www.w3.org/2000/svg" p-id="3595" xmlns:xlink="http://www.w3.org/1999/xlink" width="200" height="200"><defs><style type="text/css"></style></defs><path d="M640 234.666667a85.333333 85.333333 0 0 1 85.333333 85.333333v78.208l65.706667-54.741333A64 64 0 0 1 896 392.64v238.72a64 64 0 0 1-104.96 49.173333L725.333333 625.770667V704a85.333333 85.333333 0 0 1-85.333333 85.333333H213.333333a85.333333 85.333333 0 0 1-85.333333-85.333333V320a85.333333 85.333333 0 0 1 85.333333-85.333333h426.666667z m0 85.333333H213.333333v384h426.666667V320z m170.666667 265.813333v-147.648l-88.597334 73.813334L810.666667 585.813333z" p-id="3596"></path></svg>