<?xml version="1.0" standalone="no"?><!DOCTYPE svg PUBLIC "-//W3C//DTD SVG 1.1//EN" "http://www.w3.org/Graphics/SVG/1.1/DTD/svg11.dtd"><svg t="1591942492839" class="icon" viewBox="0 0 1024 1024" version="1.1" xmlns="http://www.w3.org/2000/svg" p-id="3355" xmlns:xlink="http://www.w3.org/1999/xlink" width="200" height="200"><defs><style type="text/css"></style></defs><path d="M512 618.666667c70.826667 0 128-57.173333 128-128V234.666667c0-70.826667-57.173333-128-128-128s-128 57.173333-128 128v256c0 70.826667 57.173333 128 128 128z m-42.666667-384c0-23.466667 19.2-42.666667 42.666667-42.666667s42.666667 19.2 42.666667 42.666667v256c0 23.466667-19.2 42.666667-42.666667 42.666666s-42.666667-19.2-42.666667-42.666666V234.666667z m256 256c0 117.76-95.573333 213.333333-213.333333 213.333333s-213.333333-95.573333-213.333333-213.333333h-85.333334c0 150.613333 111.36 274.346667 256 295.253333V874.666667a42.666667 42.666667 0 1 0 85.333334 0v-88.746667c144.64-20.906667 256-144.64 256-295.253333h-85.333334z m-469.333333 42.666666a42.666667 42.666667 0 1 0 0-85.333333 42.666667 42.666667 0 0 0 0 85.333333z m512 0a42.666667 42.666667 0 1 0 0-85.333333 42.666667 42.666667 0 0 0 0 85.333333z" p-id="3356"></path></svg>