<?xml version="1.0" standalone="no"?><!DOCTYPE svg PUBLIC "-//W3C//DTD SVG 1.1//EN" "http://www.w3.org/Graphics/SVG/1.1/DTD/svg11.dtd"><svg t="1591942558684" class="icon" viewBox="0 0 1024 1024" version="1.1" xmlns="http://www.w3.org/2000/svg" p-id="3715" xmlns:xlink="http://www.w3.org/1999/xlink" width="200" height="200"><defs><style type="text/css"></style></defs><path d="M184.554667 213.333333a76.032 76.032 0 0 1 74.688 63.573334l0.554666 4.053333 11.029334 95.786667a76.117333 76.117333 0 0 1-18.517334 58.965333l-3.157333 3.349333-70.293333 70.314667a571.690667 571.690667 0 0 0 240.704 245.376l9.728 5.056 69.930666-69.930667a75.52 75.52 0 0 1 48.512-21.973333l4.565334-0.170667c1.536 0 3.072 0 4.608 0.106667l4.629333 0.384 96.533333 11.029333c37.013333 4.032 65.536 34.56 67.2 70.826667l0.064 4.032v65.749333c0 40.256-31.402667 74.176-70.698666 76.053334L650.666667 896l-4.010667-0.149333C322.496 875.733333 62.954667 616.533333 42.816 291.989333c-2.581333-41.6 30.848-76.416 72-78.549333L118.805333 213.333333h65.749334z m371.690666 540.181334l-33.664 33.664 7.061334 2.133333a558.08 558.08 0 0 0 105.493333 20.074667l4.864 0.405333v-46.741333l-83.754667-9.536zM853.333333 384a42.666667 42.666667 0 0 1-42.666666 42.666667H554.666667a42.666667 42.666667 0 0 1-42.666667-42.666667V170.666667a42.666667 42.666667 0 0 1 42.666667-42.666667h256a42.666667 42.666667 0 0 1 42.666666 42.666667v42.666666l97.130667-48.554666a21.290667 21.290667 0 0 1 6.997333-2.133334l2.346667-0.128a21.333333 21.333333 0 0 1 21.525333 21.333334v186.965333a21.333333 21.333333 0 0 1-18.837333 21.184l-2.496 0.149333a21.333333 21.333333 0 0 1-9.536-2.261333L853.333333 341.333333v42.666667zM175.936 298.666667H128.853333l0.426667 4.864c3.328 36.266667 10.133333 71.573333 20.053333 105.514666l2.112 7.018667 34.069334-34.069333L175.936 298.666667zM768 213.333333h-170.666667v128h170.666667v-128z" p-id="3716"></path></svg>