<?xml version="1.0" standalone="no"?><!DOCTYPE svg PUBLIC "-//W3C//DTD SVG 1.1//EN"
        "http://www.w3.org/Graphics/SVG/1.1/DTD/svg11.dtd">
<svg class="icon" width="200px" height="200.00px" viewBox="0 0 1024 1024" version="1.1"
     xmlns="http://www.w3.org/2000/svg">
    <path d="M917.333333 853.333333a21.333333 21.333333 0 0 1 21.333334 21.333334v42.666666a21.333333 21.333333 0 0 1-21.333334 21.333334H704a21.333333 21.333333 0 0 1-21.333333-21.333334v-42.666666a21.333333 21.333333 0 0 1 21.333333-21.333334h213.333333zM448 597.333333h85.333333a21.333333 21.333333 0 0 1 21.333334 21.333334v42.666666a21.333333 21.333333 0 0 1-21.333334 21.333334h-85.333333v170.666666h85.333333a21.333333 21.333333 0 0 1 21.333334 21.333334v42.666666a21.333333 21.333333 0 0 1-21.333334 21.333334H128a42.666667 42.666667 0 0 1-42.56-39.466667L85.333333 896v-128.682667l0.213334-2.56 0.533333-3.2 0.853333-3.797333 1.194667-4.352 1.642667-4.885333 2.090666-5.333334 1.664-3.797333 1.898667-3.968 3.306667-6.250667 2.517333-4.330666 2.816-4.48 3.093333-4.544 3.392-4.672 3.690667-4.736 4.010667-4.8c1.408-1.6 2.858667-3.221333 4.373333-4.842667l4.693333-4.906667 5.056-4.906666c1.749333-1.642667 3.562667-3.285333 5.44-4.906667l5.802667-4.928c2.005333-1.642667 4.053333-3.264 6.186667-4.906667l6.613333-4.864c6.826667-4.842667 14.293333-9.6 22.4-14.229333l8.362667-4.586667c40.042667-21.184 95.317333-38.954667 171.285333-46.826666l16.576-1.536A898.048 898.048 0 0 1 448 597.333333z m-0.021333 85.312l-10.453334 0.085334c-117.632 1.28-194.112 24.277333-237.973333 58.922666-11.861333 9.344-20.053333 18.688-25.301333 27.370667l-2.346667 4.245333-1.258667 2.624v77.418667h277.333334v-170.666667zM917.333333 682.666667a21.333333 21.333333 0 0 1 21.333334 21.333333v42.666667a21.333333 21.333333 0 0 1-21.333334 21.333333H704a21.333333 21.333333 0 0 1-21.333333-21.333333v-42.666667a21.333333 21.333333 0 0 1 21.333333-21.333333h213.333333z m0-170.666667a21.333333 21.333333 0 0 1 21.333334 21.333333v42.666667a21.333333 21.333333 0 0 1-21.333334 21.333333H704a21.333333 21.333333 0 0 1-21.333333-21.333333v-42.666667a21.333333 21.333333 0 0 1 21.333333-21.333333h213.333333zM448 85.333333c117.824 0 213.333333 95.509333 213.333333 213.333334s-95.509333 213.333333-213.333333 213.333333-213.333333-95.509333-213.333333-213.333333S330.176 85.333333 448 85.333333z m0 85.333334a128 128 0 1 0 0 256 128 128 0 0 0 0-256z"/>
</svg>