<?xml version="1.0" standalone="no"?><!DOCTYPE svg PUBLIC "-//W3C//DTD SVG 1.1//EN" "http://www.w3.org/Graphics/SVG/1.1/DTD/svg11.dtd"><svg t="1621410909885" class="icon" viewBox="0 0 1024 1024" version="1.1" xmlns="http://www.w3.org/2000/svg" p-id="5690" xmlns:xlink="http://www.w3.org/1999/xlink" width="200" height="200"><defs><style type="text/css"></style></defs><path d="M512 42.666667c259.2 0 469.333333 210.133333 469.333333 469.333333s-210.133333 469.333333-469.333333 469.333333H77.184a21.333333 21.333333 0 0 1-19.072-30.869333L136.533333 793.642667A467.264 467.264 0 0 1 42.666667 512C42.666667 252.8 252.8 42.666667 512 42.666667z m0 106.666666C311.701333 149.333333 149.333333 311.701333 149.333333 512c0 76.650667 23.722667 149.44 67.157334 210.325333l5.333333 7.253334 39.616 52.757333L215.253333 874.666667H512c197.973333 0 358.933333-158.656 362.602667-355.776L874.666667 512c0-200.298667-162.368-362.666667-362.666667-362.666667z m170.666667 213.333334a21.333333 21.333333 0 0 1 21.333333 21.333333v64a21.333333 21.333333 0 0 1-21.333333 21.333333h-117.333334v234.666667a21.333333 21.333333 0 0 1-21.333333 21.333333h-64a21.333333 21.333333 0 0 1-21.333333-21.333333V469.333333H341.333333a21.333333 21.333333 0 0 1-21.333333-21.333333v-64a21.333333 21.333333 0 0 1 21.333333-21.333333h341.333334z" fill="#363940" p-id="5691"></path></svg>