<?xml version="1.0" standalone="no"?><!DOCTYPE svg PUBLIC "-//W3C//DTD SVG 1.1//EN" "http://www.w3.org/Graphics/SVG/1.1/DTD/svg11.dtd"><svg t="1591942604734" class="icon" viewBox="0 0 1024 1024" version="1.1" xmlns="http://www.w3.org/2000/svg" p-id="4197" xmlns:xlink="http://www.w3.org/1999/xlink" width="200" height="200"><defs><style type="text/css"></style></defs><path d="M704 512c141.376 0 256 114.624 256 256v42.666667a85.333333 85.333333 0 0 1-85.333333 85.333333l-193.493334 0.021333a169.728 169.728 0 0 0 22.677334-78.208L704 810.666667h170.666667v-42.666667a170.666667 170.666667 0 0 0-165.333334-170.581333L704 597.333333l-45.653333 0.042667a342.698667 342.698667 0 0 0-61.056-77.290667C617.749333 514.816 639.210667 512 661.333333 512h42.666667z m-341.333333 0c141.376 0 256 114.624 256 256v42.666667a85.333333 85.333333 0 0 1-85.333334 85.333333H149.333333a85.333333 85.333333 0 0 1-85.333333-85.333333v-42.666667c0-141.376 114.624-256 256-256h42.666667z m0 85.333333h-42.666667a170.666667 170.666667 0 0 0-170.581333 165.333334L149.333333 768v42.666667h384v-42.666667a170.666667 170.666667 0 0 0-165.333333-170.581333L362.666667 597.333333zM682.666667 128a128 128 0 0 1 128 128v42.666667a128 128 0 1 1-256 0v-42.666667a128 128 0 0 1 128-128zM341.333333 128a128 128 0 0 1 128 128v42.666667a128 128 0 1 1-256 0v-42.666667a128 128 0 0 1 128-128z m341.333334 85.333333a42.666667 42.666667 0 0 0-42.56 39.466667L640 256v42.666667a42.666667 42.666667 0 0 0 85.226667 3.2L725.333333 298.666667v-42.666667a42.666667 42.666667 0 0 0-42.666666-42.666667z m-341.333334 0a42.666667 42.666667 0 0 0-42.56 39.466667L298.666667 256v42.666667a42.666667 42.666667 0 0 0 85.226666 3.2L384 298.666667v-42.666667a42.666667 42.666667 0 0 0-42.666667-42.666667z" p-id="4198"></path></svg>