<?xml version="1.0" standalone="no"?><!DOCTYPE svg PUBLIC "-//W3C//DTD SVG 1.1//EN" "http://www.w3.org/Graphics/SVG/1.1/DTD/svg11.dtd"><svg t="1621410913314" class="icon" viewBox="0 0 1024 1024" version="1.1" xmlns="http://www.w3.org/2000/svg" p-id="5818" xmlns:xlink="http://www.w3.org/1999/xlink" width="200" height="200"><defs><style type="text/css"></style></defs><path d="M512 42.666667c259.2 0 469.333333 210.133333 469.333333 469.333333 0 256.618667-205.952 465.130667-461.568 469.269333L512 981.333333H77.184a21.333333 21.333333 0 0 1-19.072-30.869333L136.533333 793.642667A467.264 467.264 0 0 1 42.666667 512C42.666667 252.8 252.8 42.666667 512 42.666667z m0 85.333333C299.925333 128 128 299.925333 128 512c0 81.258667 25.216 158.464 71.338667 222.997333l5.418666 7.381334 31.701334 42.218666L180.736 896h330.581333l7.061334-0.042667C727.744 892.544 896 721.706667 896 512c0-212.074667-171.925333-384-384-384z m170.666667 234.666667a21.333333 21.333333 0 0 1 21.333333 21.333333v42.666667a21.333333 21.333333 0 0 1-21.333333 21.333333h-128v256a21.333333 21.333333 0 0 1-21.333334 21.333333h-42.666666a21.333333 21.333333 0 0 1-21.333334-21.333333V448h-128a21.333333 21.333333 0 0 1-21.333333-21.333333v-42.666667a21.333333 21.333333 0 0 1 21.333333-21.333333h341.333334z" fill="#646A73" p-id="5819"></path></svg>