<?xml version="1.0" standalone="no"?><!DOCTYPE svg PUBLIC "-//W3C//DTD SVG 1.1//EN" "http://www.w3.org/Graphics/SVG/1.1/DTD/svg11.dtd"><svg t="1624612186549" class="icon" viewBox="0 0 1024 1024" version="1.1" xmlns="http://www.w3.org/2000/svg" p-id="6231" xmlns:xlink="http://www.w3.org/1999/xlink" width="200" height="200"><defs><style type="text/css"></style></defs><path d="M341.330824 341.330824c188.513882 0 341.338353 152.824471 341.338352 341.338352 0 181.368471-141.462588 329.697882-320.075294 340.675765l0.075294 0.655059H21.300706a10.669176 10.669176 0 0 1-8.545882-17.054118l73.178352-97.829647C32.466824 848.865882 0 769.558588 0 682.669176 0 494.155294 152.816941 341.330824 341.330824 341.330824z m0 60.235294C186.089412 401.566118 60.235294 527.420235 60.235294 682.669176a279.725176 279.725176 0 0 0 68.058353 183.386353l2.695529 3.087059 32.594824 36.736L120.267294 963.764706h229.812706l8.824471-0.534588c146.183529-8.990118 261.202824-129.400471 263.491764-276.10353l0.037647-4.457412c0-155.248941-125.854118-281.103059-281.103058-281.103058zM682.669176 0C871.183059 0 1024 152.816941 1024 341.330824a340.005647 340.005647 0 0 1-83.139765 223.269647l-2.785882 3.184941 73.170823 97.822117a10.669176 10.669176 0 0 1-7.514352 17.016471l-1.03153 0.045176H768c0-20.449882-1.438118-40.568471-4.216471-60.250352l139.941647 0.007529-43.309176-57.886118 32.602353-36.72847 2.688-3.087059A279.725176 279.725176 0 0 0 963.764706 341.330824C963.764706 186.089412 837.910588 60.235294 682.669176 60.235294 554.970353 60.235294 447.171765 145.377882 412.912941 261.985882a427.745882 427.745882 0 0 0-60.860235-5.850353C389.895529 108.852706 523.565176 0 682.669176 0z" fill="#B7BAC0" p-id="6232"></path></svg>