<?xml version="1.0" standalone="no"?><!DOCTYPE svg PUBLIC "-//W3C//DTD SVG 1.1//EN" "http://www.w3.org/Graphics/SVG/1.1/DTD/svg11.dtd"><svg t="1591946125535" class="icon" viewBox="0 0 1024 1024" version="1.1" xmlns="http://www.w3.org/2000/svg" p-id="8057" xmlns:xlink="http://www.w3.org/1999/xlink" width="200" height="200"><defs><style type="text/css"></style></defs><path d="M668.501333 364.16c10.602667 0 21.077333 0.746667 31.509334 1.834667C671.701333 241.706667 530.773333 149.333333 369.877333 149.333333 189.994667 149.333333 42.666667 264.96 42.666667 411.733333c0 84.650667 49.045333 154.24 130.944 208.192l-32.768 92.864 114.410666-54.101333c40.917333 7.658667 73.770667 15.488 114.624 15.488 10.282667 0 20.458667-0.469333 30.506667-1.194667a217.706667 217.706667 0 0 1-10.048-64.704c0-134.762667 122.752-244.16 278.186667-244.16v0.064z m-175.914666-83.669333c24.618667 0 40.96 15.296 40.96 38.506666 0 23.168-16.341333 38.613333-40.96 38.613334-24.533333 0-49.152-15.445333-49.152-38.613334 0-23.210667 24.64-38.506667 49.152-38.506666z m-229.034667 77.162666c-24.533333 0-49.237333-15.488-49.237333-38.613333 0-23.253333 24.725333-38.549333 49.237333-38.549333 24.533333 0 40.853333 15.296 40.853333 38.506666 0 23.168-16.32 38.613333-40.853333 38.613334v0.042666zM981.76 619.392c0-121.045333-132.608-219.648-281.514667-219.648-157.76 0-281.92 98.602667-281.92 219.648 0 121.194667 124.16 219.648 281.92 219.648 32.981333 0 66.261333-7.616 99.434667-15.189333l90.88 45.44-24.874667-75.648c66.517333-45.546667 116.074667-106.026667 116.074667-174.250667z m-372.906667-37.866667c-16.554667 0-33.194667-14.976-33.194666-30.272 0-15.125333 16.704-30.250667 33.194666-30.250666 25.024 0 41.472 15.125333 41.472 30.250666 0 15.296-16.426667 30.272-41.472 30.272z m182.272 0c-16.384 0-32.853333-14.976-32.853333-30.272 0-15.125333 16.469333-30.250667 32.853333-30.250666 24.832 0 41.472 15.125333 41.472 30.250666 0 15.296-16.64 30.272-41.472 30.272z" fill="#62C227" p-id="8058"></path></svg>