<?xml version="1.0" standalone="no"?><!DOCTYPE svg PUBLIC "-//W3C//DTD SVG 1.1//EN" "http://www.w3.org/Graphics/SVG/1.1/DTD/svg11.dtd"><svg class="icon" width="200px" height="200.00px" viewBox="0 0 1024 1024" version="1.1" xmlns="http://www.w3.org/2000/svg"><path fill="#333333" d="M320 746.666667a42.666667 42.666667 0 0 1-42.666667-42.666667v-42.666667h512a42.666667 42.666667 0 0 0 42.56-39.466666L832 618.666667V277.333333h42.666667a42.666667 42.666667 0 0 1 42.666666 42.666667v597.333333h-21.333333l-149.333333-170.666666H320zM704 106.666667a42.666667 42.666667 0 0 1 42.666667 42.666666v384a42.666667 42.666667 0 0 1-42.666667 42.666667H277.333333l-149.333333 170.666667H106.666667V149.333333a42.666667 42.666667 0 0 1 42.666666-42.666666h554.666667z" /></svg>