<?xml version="1.0" standalone="no"?><!DOCTYPE svg PUBLIC "-//W3C//DTD SVG 1.1//EN" "http://www.w3.org/Graphics/SVG/1.1/DTD/svg11.dtd"><svg t="1591946152805" class="icon" viewBox="0 0 1024 1024" version="1.1" xmlns="http://www.w3.org/2000/svg" p-id="8435" xmlns:xlink="http://www.w3.org/1999/xlink" width="200" height="200"><defs><style type="text/css"></style></defs><path d="M511.125333 947.370667c-78.378667 0-150.336-24.469333-196.650666-61.013334-23.530667 6.549333-53.610667 17.109333-72.597334 30.186667-16.256 11.178667-14.229333 22.592-11.306666 27.2 12.864 20.224 220.586667 12.906667 280.533333 6.613333v-2.986666z" fill="#FAAD08" p-id="8436"></path><path d="M496.981333 947.370667c78.378667 0 150.336-24.469333 196.650667-61.013334 23.530667 6.549333 53.610667 17.109333 72.597333 30.186667 16.256 11.178667 14.229333 22.592 11.306667 27.2-12.864 20.224-220.586667 12.906667-280.533333 6.613333v-2.986666z" fill="#FAAD08" p-id="8437"></path><path d="M497.450667 475.349333c129.002667-0.853333 232.405333-25.194667 267.434666-34.56 8.341333-2.218667 12.8-6.208 12.8-6.208 0.042667-1.152 0.533333-20.48 0.533334-30.464 0-168.021333-81.28-336.853333-281.237334-336.853333-199.936 0-281.237333 168.832-281.237333 336.853333 0 9.984 0.490667 29.312 0.533333 30.464 0 0 3.626667 3.733333 10.282667 5.546667 32.341333 8.768 137.685333 34.346667 269.952 35.221333h0.938667zM852.544 617.386667c-7.936-25.514667-18.773333-55.253333-29.76-83.818667 0 0-6.293333-0.768-9.493333 0.149333-98.474667 28.565333-217.813333 46.762667-308.778667 45.653334h-0.938667c-90.453333 1.088-208.981333-16.896-307.114666-45.184-3.754667-1.066667-11.157333-0.618667-11.157334-0.618667-10.986667 28.586667-21.824 58.304-29.76 83.818667-37.845333 121.621333-25.6 171.946667-16.256 173.077333 20.053333 2.432 78.016-91.541333 78.016-91.541333 0 95.488 86.357333 242.112 284.117334 243.456h5.248c197.76-1.344 284.117333-147.968 284.117333-243.456 0 0 57.962667 93.973333 78.016 91.541333 9.344-1.130667 21.589333-51.456-16.256-173.077333" fill="#000000" p-id="8438"></path><path d="M436.117333 321.258667c-27.306667 1.216-50.602667-29.44-52.053333-68.416-1.493333-38.976 19.413333-71.573333 46.698667-72.789334 27.242667-1.194667 50.56 29.44 52.032 68.416 1.493333 38.997333-19.413333 71.573333-46.677334 72.789334m202.069334-68.416c-1.472 38.976-24.768 69.610667-52.053334 68.416-27.264-1.216-48.170667-33.792-46.677333-72.789334 1.472-38.976 24.768-69.610667 52.032-68.416 27.285333 1.216 48.192 33.813333 46.698667 72.789334" fill="#FFFFFF" p-id="8439"></path><path d="M680.106667 371.818667c-7.146667-17.216-79.253333-36.394667-168.512-36.394667h-0.96c-89.258667 0-161.365333 19.178667-168.533334 36.394667a6.058667 6.058667 0 0 0 0.469334 5.76c6.037333 9.536 86.101333 56.725333 168.064 56.725333h0.96c81.962667 0 162.026667-47.189333 168.064-56.746667a6.208 6.208 0 0 0 0.469333-5.76" fill="#FAAD08" p-id="8440"></path><path d="M468.608 262.058667c1.237333 15.530667-7.210667 29.333333-18.837333 30.848-11.626667 1.493333-22.058667-9.877333-23.296-25.408-1.216-15.552 7.210667-29.333333 18.816-30.848 11.669333-1.493333 22.101333 9.877333 23.317333 25.386666m71.466667 7.786667c2.496-4.053333 19.413333-25.216 54.4-17.493333 9.173333 2.026667 13.44 4.992 14.336 6.186666 1.322667 1.706667 1.706667 4.181333 0.341333 7.509334-2.645333 6.570667-8.149333 6.4-11.2 5.098666-1.962667-0.832-26.325333-15.530667-48.789333 6.4-1.536 1.514667-4.309333 2.026667-6.933334 0.234667-2.602667-1.792-3.690667-5.418667-2.133333-7.936" fill="#000000" p-id="8441"></path><path d="M504.512 582.890667h-0.96c-62.144 0.725333-137.514667-7.338667-210.496-21.44-6.250667 35.456-10.026667 80.021333-6.784 133.162666 8.192 134.336 89.6 218.773333 215.232 220.010667h5.12c125.632-1.237333 207.018667-85.674667 215.210667-220.010667 3.242667-53.141333-0.533333-97.706667-6.784-133.162666-73.002667 14.08-148.373333 22.186667-210.56 21.44" fill="#FFFFFF" p-id="8442"></path><path d="M327.466667 575.573333v134.4s63.509333 12.437333 127.146666 3.84v-123.989333a1205.610667 1205.610667 0 0 1-127.146666-14.250667" fill="#EB1C26" p-id="8443"></path><path d="M781.973333 434.304s-119.274667 39.488-277.44 40.618667h-0.938666c-157.909333-1.130667-277.034667-40.490667-277.44-40.618667L186.197333 538.88c99.925333 31.573333 223.744 51.946667 317.397334 50.773333h0.938666c93.632 1.173333 217.450667-19.2 317.376-50.773333l-39.936-104.576z" fill="#EB1C26" p-id="8444"></path></svg>