<?xml version="1.0" standalone="no"?><!DOCTYPE svg PUBLIC "-//W3C//DTD SVG 1.1//EN" "http://www.w3.org/Graphics/SVG/1.1/DTD/svg11.dtd"><svg t="1586316216064" class="icon" viewBox="0 0 1024 1024" version="1.1" xmlns="http://www.w3.org/2000/svg" p-id="4919" xmlns:xlink="http://www.w3.org/1999/xlink" width="48" height="48"><defs><style type="text/css">@font-face { font-family: element-icons; src: url("chrome-extension://moombeodfomdpjnpocobemoiaemednkg/fonts/element-icons.woff") format("woff"), url("chrome-extension://moombeodfomdpjnpocobemoiaemednkg/fonts/element-icons.ttf ") format("truetype"); }
</style></defs><path d="M512 64c20.48 0 40.144 8.144 54.624 22.624l363.312 363.312A48 48 0 0 1 944 483.888V512a32 32 0 0 1-32 32h-64v352a64 64 0 0 1-64 64H240a64 64 0 0 1-64-64V544H112a32 32 0 0 1-32-32v-28.112a48 48 0 0 1 14.064-33.952L457.376 86.624A77.248 77.248 0 0 1 512 64z m0 384a32 32 0 0 0-32 32v96h-96a32 32 0 1 0 0 64h96v96a32 32 0 1 0 64 0v-96h96a32 32 0 1 0 0-64l-96-0.016V480a32 32 0 0 0-32-32z" p-id="4920"></path></svg>