<svg height="200" viewBox="0 0 1024 1024" width="200" xmlns="http://www.w3.org/2000/svg"><path d="m716.16 100.885333 61.589333 152.448 152.490667 61.632a32 32 0 0 1 17.664 41.642667l-64.213333 158.933333 64.213333 158.954667a32 32 0 0 1 -17.664 41.664l-152.490667 61.589333-61.589333 152.490667a32 32 0 0 1 -41.664 17.664l-158.933333-64.213333-158.933334 64.213333a32 32 0 0 1 -41.664-17.664l-61.632-152.490667-152.426666-61.589333a32 32 0 0 1 -17.706667-41.664l64.213333-158.933333-64.213333-158.933334a32 32 0 0 1 17.706667-41.664l152.448-61.632 61.632-152.448a32 32 0 0 1 41.642666-17.706666l158.933334 64.213333 158.954666-64.213333a32 32 0 0 1 41.664 17.706666z" fill="#5562f2"/><path d="m709.397333 364.394667 45.205334 45.162666-286.656 286.506667-8.170667-8.192-.448.469333-158.4-158.314666 45.226667-45.184 121.365333 121.28 241.877333-241.706667z" fill="#fff"/></svg>