<?xml version="1.0" standalone="no"?><!DOCTYPE svg PUBLIC "-//W3C//DTD SVG 1.1//EN" "http://www.w3.org/Graphics/SVG/1.1/DTD/svg11.dtd"><svg t="1591946149872" class="icon" viewBox="0 0 1024 1024" version="1.1" xmlns="http://www.w3.org/2000/svg" p-id="8306" xmlns:xlink="http://www.w3.org/1999/xlink" width="200" height="200"><defs><style type="text/css"></style></defs><path d="M466.752 134.848c-32.704 5.034667-67.904 12.586667-98.069333 25.152-32.682667 15.082667 256.469333 256.448 261.482666 264V152.448l-22.613333-7.530667c-32.704-7.552-65.386667-12.586667-98.069333-12.586666-15.082667 0-27.648 0-42.730667 2.517333z" fill="#FA5452" p-id="8307"></path><path d="M778.517333 245.482667c-10.069333-10.048-20.117333-20.117333-32.682666-27.648-27.669333-20.117333-57.834667-37.717333-88-50.282667-32.682667-12.586667 2.517333 357.013333 0 369.6l193.6-188.586667a54.741333 54.741333 0 0 0-12.586667-20.117333c-15.082667-32.682667-37.696-57.813333-60.330667-82.965333z" fill="#6467F0" p-id="8308"></path><path d="M861.482667 373.717333S607.573333 625.152 597.482667 632.704h271.552l7.530666-22.656c7.552-30.165333 12.586667-62.848 12.586667-95.530667 0-15.082667 0-27.669333-2.517333-42.752-2.517333-35.2-12.586667-67.882667-25.152-98.048z" fill="#5283F0" p-id="8309"></path><path d="M677.952 851.413333c7.530667-2.496 15.082667-7.530667 20.096-12.565333 27.669333-15.082667 55.317333-35.2 77.952-60.330667 10.048-10.069333 20.117333-20.117333 27.648-32.682666 20.117333-27.669333 37.717333-55.317333 50.304-85.482667 2.496 2.496-354.517333 5.013333-364.586667 2.496l188.586667 188.586667z" fill="#00B1FE" p-id="8310"></path><path d="M391.317333 871.552l22.613334 7.530667c32.704 7.552 62.869333 12.586667 95.573333 12.586666 15.061333 0 27.648 0 42.730667-2.517333 32.682667-5.034667 65.365333-12.586667 98.048-25.152 0 0-251.434667-256.448-258.986667-264v271.552z" fill="#66D020" p-id="8311"></path><path d="M172.586667 683.946667c2.496 7.530667 7.530667 15.061333 12.565333 22.613333 15.082667 27.648 35.2 52.8 57.813333 77.930667 10.069333 10.069333 20.117333 20.117333 32.682667 27.669333 27.669333 22.613333 55.317333 37.717333 88 52.8 0 0-2.496-359.552 0-372.117333L172.586667 683.925333z" fill="#9AD122" p-id="8312"></path><path d="M132.352 515.477333c0 15.082667 0 27.648 2.496 42.730667 5.034667 35.2 12.586667 67.882667 25.152 98.069333 0 0 253.952-256.469333 264-261.482666H152.448c-2.496 5.013333-5.013333 15.082667-7.530667 22.613333a402.282667 402.282667 0 0 0-12.586666 98.069333z" fill="#FFC817" p-id="8313"></path><path d="M323.413333 182.613333a378.304 378.304 0 0 0-77.930666 60.373334l-30.165334 30.165333C195.2 300.8 177.6 328.448 165.034667 358.613333c0 0 357.013333-2.517333 369.6 0l-191.082667-186.069333c-7.552 2.517333-15.104 7.552-20.117333 10.069333z" fill="#FF7612" p-id="8314"></path></svg>