<?xml version="1.0" standalone="no"?><!DOCTYPE svg PUBLIC "-//W3C//DTD SVG 1.1//EN" "http://www.w3.org/Graphics/SVG/1.1/DTD/svg11.dtd"><svg t="1591946122933" class="icon" viewBox="0 0 1024 1024" version="1.1" xmlns="http://www.w3.org/2000/svg" p-id="7935" xmlns:xlink="http://www.w3.org/1999/xlink" width="200" height="200"><defs><style type="text/css"></style></defs><path d="M277.952 347.072h52.522667c7.573333 0 14.677333-3.797333 19.093333-10.218667l48.490667-70.613333c4.394667-6.421333 11.498667-10.24 19.072-10.24h193.322666c7.786667 0 15.082667 4.032 19.413334 10.752l45.141333 69.546667c4.352 6.72 11.605333 10.752 19.392 10.773333h51.904c35.541333 0 64.362667 29.973333 64.362667 66.986667v280.789333C810.666667 735.253333 779.2 768 740.394667 768H283.605333C244.778667 768 213.333333 735.253333 213.333333 694.848v-280.533333c0-37.162667 28.928-67.242667 64.618667-67.242667zM512 672c78.144 0 141.461333-64.469333 141.461333-144S590.144 384 512 384c-78.144 0-141.461333 64.469333-141.461333 144S433.856 672 512 672z m0-64c-43.392 0-78.592-35.84-78.592-80 0-44.202667 35.2-80 78.592-80 43.392 0 78.592 35.84 78.592 80 0 44.202667-35.2 80-78.592 80z" p-id="7936"></path></svg>