<?xml version="1.0" standalone="no"?><!DOCTYPE svg PUBLIC "-//W3C//DTD SVG 1.1//EN" "http://www.w3.org/Graphics/SVG/1.1/DTD/svg11.dtd"><svg class="icon" width="16px" height="16.00px" viewBox="0 0 1024 1024" version="1.1" xmlns="http://www.w3.org/2000/svg"><path d="M192.571733 887.466667c-3.797333 0-7.697067-0.7168-11.392-2.363734a28.501333 28.501333 0 0 1-17.5872-26.274133V739.5584h-46.370133C52.565333 739.5584 0 690.082133 0 629.213867V238.336C0 177.476267 52.565333 128 117.2224 128h621.687467c64.657067 0 117.2224 49.476267 117.2224 110.336v390.877867c0 60.868267-52.565333 110.336-117.2224 110.336H346.453333l-133.000533 138.990933A28.8768 28.8768 0 0 1 192.571733 887.466667z m-75.349333-722.722134c-44.970667 0-81.442133 33.0496-81.442133 73.6v390.869334c0 40.541867 36.573867 73.591467 81.442133 73.591466h64.256c9.898667 0 17.885867 8.2176 17.885867 18.3808v119.5776l126.8224-132.514133a17.834667 17.834667 0 0 1 12.791466-5.444267H738.901333c44.970667 0 81.442133-33.0496 81.442134-73.591466V238.336c0-40.5504-36.573867-73.6-81.442134-73.6H117.2224z" fill="#787F8D" /><path d="M883.805867 955.733333c-6.997333 0-13.696-2.858667-18.688-8.277333l-91.306667-99.370667H502.144c-13.499733 0-26.496-2.961067-38.596267-8.8832-8.900267-4.292267-12.6976-15.223467-8.4992-24.405333a17.800533 17.800533 0 0 1 23.893334-8.686933c7.304533 3.575467 15.104 5.307733 23.296 5.307733h279.483733c4.906667 0 9.7024 2.141867 13.098667 5.717333l79.104 85.998934V829.610667c0-10.112 7.995733-18.286933 17.8944-18.286934h44.893866c28.398933 0 51.498667-21.853867 51.498667-48.6144V478.6688c0-15.223467-7.799467-29.824-20.906667-39.0144a18.5856 18.5856 0 0 1-4.590933-25.429333 17.6384 17.6384 0 0 1 24.900267-4.701867c22.792533 16.042667 36.394667 41.873067 36.394666 69.1456v284.330667c0 46.993067-39.1936 85.188267-87.389866 85.188266h-26.999467v81.911467a25.6256 25.6256 0 0 1-16 23.799467 27.733333 27.733333 0 0 1-9.8048 1.834666zM202.555733 407.586133c-9.796267 0-17.800533-8.072533-17.902933-18.082133-0.093867-10.112 7.901867-18.3808 17.706667-18.4832L644.027733 366.933333h0.196267c9.8048 0 17.800533 8.072533 17.902933 18.0736 0.093867 10.112-7.901867 18.389333-17.698133 18.491734l-441.668267 4.087466h-0.2048z m270.583467 123.374934H202.555733c-9.898667 0-17.8944-8.174933-17.8944-18.286934 0-10.103467 7.995733-18.2784 17.8944-18.2784h270.583467c9.898667 0 17.8944 8.174933 17.8944 18.2784 0 10.112-7.995733 18.286933-17.8944 18.286934z" fill="#787F8D" /></svg>