<?xml version="1.0" standalone="no"?><!DOCTYPE svg PUBLIC "-//W3C//DTD SVG 1.1//EN" "http://www.w3.org/Graphics/SVG/1.1/DTD/svg11.dtd"><svg t="1591946137008" class="icon" viewBox="0 0 1024 1024" version="1.1" xmlns="http://www.w3.org/2000/svg" p-id="8179" xmlns:xlink="http://www.w3.org/1999/xlink" width="200" height="200"><defs><style type="text/css"></style></defs><path d="M921.962667 468.096a32.362667 32.362667 0 0 1-61.738667-19.370667 163.2 163.2 0 0 0-33.28-158.016 158.186667 158.186667 0 0 0-151.978667-49.642666c-8.469333 1.813333-16.938667 0-24.213333-4.842667a36.992 36.992 0 0 1-14.506667-21.802667 32.085333 32.085333 0 0 1 24.810667-38.741333c75.669333-16.341333 157.994667 7.253333 213.696 70.229333 55.68 61.76 70.826667 147.114667 47.210667 222.186667z" fill="#FF9933" p-id="8180"></path><path d="M696.768 345.194667c-7.253333 1.813333-14.506667 0-21.184-3.626667a30.08 30.08 0 0 1-12.117333-17.557333c-3.008-15.146667 6.058667-30.293333 21.205333-33.301334 38.122667-8.469333 78.08 4.842667 104.106667 33.92 27.264 30.250667 34.517333 72.021333 23.018666 108.352-2.432 7.253333-7.253333 13.312-13.930666 16.341334a28.522667 28.522667 0 0 1-39.338667-34.517334 55.146667 55.146667 0 0 0-10.901333-53.269333 51.946667 51.946667 0 0 0-50.858667-16.341333z" fill="#FF9933" p-id="8181"></path><path d="M721.6 505.621333c48.426667 15.146667 102.912 52.053333 102.912 117.44 0 107.754667-153.173333 243.968-383.808 243.968C265.130667 867.029333 85.333333 780.458667 85.333333 638.208c0-74.453333 46.613333-160.426667 126.506667-241.557333 106.56-108.373333 231.274667-157.397333 277.888-110.186667 20.586667 21.205333 22.4 57.514667 9.685333 100.501333-7.253333 22.4 19.370667 10.282667 19.370667 10.282667 86.570667-36.906667 161.642667-38.741333 188.885333 1.216 14.528 21.184 13.312 50.858667-0.597333 85.354667-5.461333 15.744 2.410667 18.176 14.506667 21.802666z" fill="#E6162D" p-id="8182"></path><path d="M440.704 815.573333c140.437333-13.909333 246.997333-101.098667 237.312-194.922666-8.490667-93.226667-129.557333-157.397333-270.016-143.488-140.437333 13.930667-246.4 101.12-237.312 194.944 9.088 93.226667 130.154667 157.397333 270.016 143.466666z" fill="#FFFFFF" p-id="8183"></path><path d="M455.232 549.205333c69.013333 18.176 104.106667 84.16 76.266667 148.330667-28.458667 65.984-110.784 100.48-181.013334 77.482667-67.797333-21.802667-96.256-89.6-66.581333-150.741334 29.056-58.730667 104.106667-92.629333 171.306667-75.072z" fill="#1A1A1A" p-id="8184"></path><path d="M403.776 704.789333c13.312-22.4 6.037333-47.829333-15.744-56.896-21.184-9.088-49.642667 0-62.976 21.184-13.312 21.184-7.253333 47.210667 14.549333 56.896 21.781333 10.304 50.837333 0.618667 64.170667-21.184z" fill="#FFFFFF" p-id="8185"></path></svg>