<?xml version="1.0" standalone="no"?><!DOCTYPE svg PUBLIC "-//W3C//DTD SVG 1.1//EN" "http://www.w3.org/Graphics/SVG/1.1/DTD/svg11.dtd"><svg t="1626416112710" class="icon" viewBox="0 0 1024 1024" version="1.1" xmlns="http://www.w3.org/2000/svg" p-id="5950" xmlns:xlink="http://www.w3.org/1999/xlink" width="200" height="200"><defs><style type="text/css"></style></defs><path d="M490.666667 66.538667a21.333333 21.333333 0 0 1 13.568 4.864l307.776 253.461333a21.333333 21.333333 0 0 1 0 32.938667L598.826667 533.333333l213.162666 175.530667a21.333333 21.333333 0 0 1 0 32.938667l-307.776 253.44A21.333333 21.333333 0 0 1 469.333333 978.816V639.146667l-193.792 159.744a21.333333 21.333333 0 0 1-28.202666-0.917334l-1.834667-1.962666-27.136-32.917334a21.333333 21.333333 0 0 1 2.901333-30.037333L463.530667 533.333333l-242.261334-199.722666a21.333333 21.333333 0 0 1-2.901333-30.037334l27.136-32.917333a21.333333 21.333333 0 0 1 30.037333-2.88L469.333333 427.498667V87.872a21.333333 21.333333 0 0 1 21.333334-21.333333z m64 541.909333v234.709333L697.749333 725.333333l-10.602666-8.704a21.333333 21.333333 0 0 1-4.970667-3.072L554.666667 608.448z m0-384.96v234.709333l127.509333-105.088a21.333333 21.333333 0 0 1 5.013333-3.093333l10.56-8.682667L554.666667 223.488z" fill="#646A73" p-id="5951"></path></svg>