<?xml version="1.0" standalone="no"?><!DOCTYPE svg PUBLIC "-//W3C//DTD SVG 1.1//EN" "http://www.w3.org/Graphics/SVG/1.1/DTD/svg11.dtd"><svg t="1626416119650" class="icon" viewBox="0 0 1024 1024" version="1.1" xmlns="http://www.w3.org/2000/svg" p-id="6077" xmlns:xlink="http://www.w3.org/1999/xlink" width="200" height="200"><defs><style type="text/css"></style></defs><path d="M589.077333 76.053333c229.546667 53.12 332.437333 321.173333 86.613334 596.8l-1.258667 13.610667-1.301333 11.733333-0.853334 6.592-2.112 14.357334-2.005333 11.733333-2.410667 12.416-1.856 8.576-2.069333 8.832-2.304 9.002667-2.538667 9.152-2.773333 9.258666a418.133333 418.133333 0 0 1-1.493333 4.693334l-3.2 9.386666c-1.088 3.114667-2.24 6.272-3.456 9.386667l-3.754667 9.450667c-30.613333 73.728-89.429333 144.448-203.264 139.434666l-5.525333-0.362666-5.824-0.618667-6.101334-0.853333a174.570667 174.570667 0 0 1-3.136-0.554667l-6.442666-1.28a188.992 188.992 0 0 1-3.285334-0.768l-6.72-1.706667a198.314667 198.314667 0 0 1-3.413333-0.981333l-6.912-2.176a203.050667 203.050667 0 0 1-3.52-1.216l-7.04-2.645333a202.282667 202.282667 0 0 1-21.44-10.005334l-7.125333-4.032c-49.898667-29.696-95.338667-86.826667-89.941334-186.581333h85.546667c-6.058667 85.376 39.189333 126.08 94.656 128.533333 55.530667 2.453333 89.130667-21.397333 114.410667-73.024 18.56-37.888 27.946667-80.341333 32.448-125.802666l0.96-10.538667 2.346666-28.48 19.008-21.333333c185.728-208.213333 143.850667-409.92-36.650666-455.509334l-5.504-1.344c-119.402667-27.626667-215.317333 28.8-267.989334 153.813334l-5.930666 14.592-0.853334 1.28-76.757333-38.4 1.493333-2.325334c63.701333-158.976 197.077333-251.946667 369.28-212.096z m-29.738666 209.578667c80.149333 39.637333 91.306667 179.136-46.784 275.413333-12.586667 8.789333-24.277333 32.810667-35.050667 72.064l-0.576 2.090667-81.109333-28.416 1.685333-5.824c14.933333-51.52 33.856-85.546667 62.442667-107.157333l3.797333-2.730667c44.394667-30.976 66.410667-66.005333 69.013333-96.277333 1.429333-16.725333-3.157333-27.349333-9.6-31.722667l-0.384-0.213333c-24.192-8.832-50.922667 6.442667-65.429333 47.146666l-75.882667-37.930666c34.944-82.453333 109.482667-116.266667 177.877334-86.442667z" fill="#646A73" p-id="6078"></path></svg>