<?xml version="1.0" standalone="no"?><!DOCTYPE svg PUBLIC "-//W3C//DTD SVG 1.1//EN" "http://www.w3.org/Graphics/SVG/1.1/DTD/svg11.dtd"><svg t="1612232926917" class="icon" viewBox="0 0 1024 1024" version="1.1" xmlns="http://www.w3.org/2000/svg" p-id="5581" xmlns:xlink="http://www.w3.org/1999/xlink" width="200" height="200"><defs><style type="text/css"></style></defs><path d="M832 42.6624A85.3376 85.3376 0 0 1 917.3376 128v768A85.3376 85.3376 0 0 1 832 981.3376H192A85.3376 85.3376 0 0 1 106.6624 896V128A85.3376 85.3376 0 0 1 192 42.6624h640zM832 128H192v768h640V128zM414.7072 258.368l97.28 97.28 97.3056-97.28a21.3376 21.3376 0 0 1 28.6464-1.3824l1.536 1.3824 30.1568 30.1696c8.3328 8.32 8.3328 21.8368 0 30.1696l-105.6 105.6c-0.8832 0.896-1.8304 1.6768-2.8288 2.3808l100.1344-0.0256c11.776 0 21.3248 9.5616 21.3248 21.3376v42.6624c0 11.776-9.5488 21.3376-21.3248 21.3376h-106.688v85.3248h106.688c11.776 0 21.3248 9.5616 21.3248 21.3376v42.6752c0 11.776-9.5488 21.3248-21.3248 21.3248h-106.688L554.6624 768c0 11.776-9.5488 21.3376-21.3248 21.3376h-42.6752c-11.776 0-21.3248-9.5616-21.3248-21.3376v-85.3376h-106.6752c-11.776 0-21.3248-9.5488-21.3248-21.3248v-42.6752c0-11.776 9.5488-21.3248 21.3248-21.3248h106.6624v-85.3504L362.6624 512c-11.776 0-21.3248-9.5488-21.3248-21.3376V448c0-11.776 9.5488-21.3376 21.3248-21.3376l100.1344 0.0256a21.4656 21.4656 0 0 1-2.8416-2.3936l-105.6-105.6a21.3376 21.3376 0 0 1 0-30.1568l30.1824-30.1696c8.32-8.3328 21.8368-8.3328 30.1696 0z" fill="#8F959E" opacity=".65" p-id="5582"></path></svg>