<?xml version="1.0" standalone="no"?><!DOCTYPE svg PUBLIC "-//W3C//DTD SVG 1.1//EN"
        "http://www.w3.org/Graphics/SVG/1.1/DTD/svg11.dtd">
<svg class="icon" width="200px" height="200.00px" viewBox="0 0 1024 1024" version="1.1"
     xmlns="http://www.w3.org/2000/svg">
    <path d="M192 277.333333h682.666667a42.666667 42.666667 0 1 1 0 85.333334H192a42.666667 42.666667 0 1 1 0-85.333334zM149.333333 661.333333h682.666667a42.666667 42.666667 0 1 1 0 85.333334H149.333333a42.666667 42.666667 0 1 1 0-85.333334z"/>
    <path d="M401.28 85.333333H405.333333a38.613333 38.613333 0 0 1 38.421334 42.453334L366.528 900.266667A42.666667 42.666667 0 0 1 324.053333 938.666667H320a38.613333 38.613333 0 0 1-38.421333-42.453334L358.805333 123.733333A42.666667 42.666667 0 0 1 401.28 85.333333zM699.946667 85.333333H704a38.613333 38.613333 0 0 1 38.421333 42.453334L665.194667 900.266667A42.666667 42.666667 0 0 1 622.72 938.666667H618.666667a38.613333 38.613333 0 0 1-38.421334-42.453334L657.472 123.733333A42.666667 42.666667 0 0 1 699.946667 85.333333z"/>
</svg>