<?xml version="1.0" standalone="no"?><!DOCTYPE svg PUBLIC "-//W3C//DTD SVG 1.1//EN" "http://www.w3.org/Graphics/SVG/1.1/DTD/svg11.dtd"><svg t="1635130660849" class="icon" viewBox="0 0 1024 1024" version="1.1" xmlns="http://www.w3.org/2000/svg" p-id="6648" xmlns:xlink="http://www.w3.org/1999/xlink" width="48" height="48"><defs><style type="text/css"></style></defs><path d="M853.333333 85.333333a85.333333 85.333333 0 0 1 85.333334 85.333334v682.666666a85.333333 85.333333 0 0 1-85.333334 85.333334H170.666667a85.333333 85.333333 0 0 1-85.333334-85.333334V170.666667a85.333333 85.333333 0 0 1 85.333334-85.333334h682.666666z m-138.666666 394.666667h-405.333334a10.666667 10.666667 0 0 0-10.666666 10.666667v42.666666a10.666667 10.666667 0 0 0 10.666666 10.666667h405.333334a10.666667 10.666667 0 0 0 10.666666-10.666667v-42.666666a10.666667 10.666667 0 0 0-10.666666-10.666667z" fill="#363940" p-id="6649"></path></svg>