<?xml version="1.0" standalone="no"?><!DOCTYPE svg PUBLIC "-//W3C//DTD SVG 1.1//EN" "http://www.w3.org/Graphics/SVG/1.1/DTD/svg11.dtd"><svg xmlns:xlink="http://www.w3.org/1999/xlink" class="icon" height="200" p-id="9555" t="1646031238504" version="1.1" viewBox="0 0 1024 1024" width="200" xmlns="http://www.w3.org/2000/svg"><defs><style type="text/css"></style></defs><path d="M512 213.333333a85.333333 85.333333 0 1 0 0-170.666666 85.333333 85.333333 0 0 0 0 170.666666z m213.333333 42.666667c117.824 0 213.333333 95.509333 213.333334 213.333333v298.666667c0 117.824-95.509333 213.333333-213.333334 213.333333H298.666667C180.842667 981.333333 85.333333 885.824 85.333333 768V469.333333c0-117.824 95.509333-213.333333 213.333334-213.333333h426.666666z m0 85.333333H298.666667a128 128 0 0 0-127.914667 123.2L170.666667 469.333333v298.666667a128 128 0 0 0 123.2 127.914667L298.666667 896h426.666666a128 128 0 0 0 127.914667-123.2L853.333333 768V469.333333a128 128 0 0 0-123.2-127.914666L725.333333 341.333333z m-320 192a21.333333 21.333333 0 0 1 21.333334 21.333334v128a21.333333 21.333333 0 0 1-21.333334 21.333333h-42.666666a21.333333 21.333333 0 0 1-21.333334-21.333333v-128a21.333333 21.333333 0 0 1 21.333334-21.333334h42.666666z m256 0a21.333333 21.333333 0 0 1 21.333334 21.333334v128a21.333333 21.333333 0 0 1-21.333334 21.333333h-42.666666a21.333333 21.333333 0 0 1-21.333334-21.333333v-128a21.333333 21.333333 0 0 1 21.333334-21.333334h42.666666z" fill="#1F2126" p-id="9556"></path></svg>