<?xml version="1.0" standalone="no"?><!DOCTYPE svg PUBLIC "-//W3C//DTD SVG 1.1//EN" "http://www.w3.org/Graphics/SVG/1.1/DTD/svg11.dtd"><svg t="1634902838624" class="icon" viewBox="0 0 1024 1024" version="1.1" xmlns="http://www.w3.org/2000/svg" p-id="7360" xmlns:xlink="http://www.w3.org/1999/xlink" width="48" height="48"><defs><style type="text/css"></style></defs><path d="M512 42.666667c131.221333 0 262.442667 36.330667 393.664 108.970666A64 64 0 0 1 938.666667 207.616V661.333333c0 213.333333-336.853333 320-426.666667 320-89.813333 0-426.666667-106.666667-426.666667-320V207.616a64 64 0 0 1 33.002667-55.978667C249.557333 78.997333 380.778667 42.666667 512 42.666667z m42.666667 490.666666h-85.333334c-24.149333 0-68.821333 15.381333-133.973333 46.144A64 64 0 0 0 298.666667 637.354667V725.333333a21.333333 21.333333 0 0 0 21.333333 21.333334h384a21.333333 21.333333 0 0 0 21.333333-21.333334v-87.978666a64 64 0 0 0-36.693333-57.877334C623.509333 548.714667 578.837333 533.333333 554.666667 533.333333z m-42.666667-256a106.666667 106.666667 0 1 0 0 213.333334 106.666667 106.666667 0 0 0 0-213.333334z" fill="#363940" p-id="7361"></path></svg>