<?xml version="1.0" standalone="no"?><!DOCTYPE svg PUBLIC "-//W3C//DTD SVG 1.1//EN" "http://www.w3.org/Graphics/SVG/1.1/DTD/svg11.dtd"><svg xmlns:xlink="http://www.w3.org/1999/xlink" class="icon" height="48" p-id="7174" t="1641448627504" version="1.1" viewBox="0 0 1024 1024" width="48" xmlns="http://www.w3.org/2000/svg"><defs><style type="text/css"></style></defs><path d="M512 42.666667c131.221333 0 262.442667 36.330667 393.664 108.970666A64 64 0 0 1 938.666667 207.616V661.333333c0 117.461333-102.101333 202.581333-208.853334 255.36l-13.098666 6.293334-6.570667 3.050666-13.077333 5.802667-13.013334 5.504-12.949333 5.162667-12.8 4.842666-12.650667 4.522667-12.437333 4.202667a728.96 728.96 0 0 1-6.101333 1.984l-12.032 3.712-11.733334 3.413333-11.370666 3.050667-10.986667 2.773333-10.538667 2.410667-10.069333 2.090666-9.578667 1.792-4.586666 0.768-8.725334 1.28-8.106666 0.981334-3.84 0.362666-7.125334 0.469334a135.36 135.36 0 0 1-12.842666 0l-7.125334-0.469334-3.84-0.362666-8.106666-0.981334-8.746667-1.28-9.28-1.621333-4.864-0.938667-10.069333-2.090666-10.538667-2.432-10.986667-2.752-11.370666-3.050667-11.733334-3.413333-12.032-3.712a728.96 728.96 0 0 1-6.101333-1.984l-12.437333-4.202667-12.629334-4.522667-12.8-4.842666-12.949333-5.162667-13.034667-5.504-13.077333-5.802667a713.450667 713.450667 0 0 1-6.570667-3.050666l-13.077333-6.293334C187.434667 863.914667 85.333333 778.794667 85.333333 661.333333V207.616a64 64 0 0 1 33.002667-55.978667C249.557333 78.997333 380.778667 42.666667 512 42.666667z m0 85.333333C403.797333 128 294.805333 156.096 184.256 213.12l-13.610667 7.168L170.666667 661.333333c0 56.661333 45.056 112.917333 128.490666 161.28l7.466667 4.224c45.504 25.450667 99.434667 46.08 142.805333 58.026667l12.672 3.285333c20.544 5.077333 37.973333 7.850667 49.898667 7.850667 11.946667 0 29.354667-2.773333 49.898667-7.850667l12.672-3.306666c43.370667-11.904 97.28-32.554667 142.826666-58.005334 85.674667-47.872 133.184-103.893333 135.829334-160.512L853.333333 661.333333l-0.021333-441.045333-1.28-0.704c-110.656-59.178667-219.733333-89.386667-328-91.477333L512 128z m42.666667 405.333333c24.149333 0 68.821333 15.381333 133.973333 46.144A64 64 0 0 1 725.333333 637.354667V725.333333a21.333333 21.333333 0 0 1-21.333333 21.333334H320a21.333333 21.333333 0 0 1-21.333333-21.333334v-87.978666a64 64 0 0 1 36.693333-57.877334C400.490667 548.714667 445.162667 533.333333 469.333333 533.333333h85.333334z m-42.666667-256a106.666667 106.666667 0 1 1 0 213.333334 106.666667 106.666667 0 0 1 0-213.333334z" fill="#363940" p-id="7175"></path></svg>