<?xml version="1.0" standalone="no"?><!DOCTYPE svg PUBLIC "-//W3C//DTD SVG 1.1//EN" "http://www.w3.org/Graphics/SVG/1.1/DTD/svg11.dtd"><svg t="1618456663112" class="icon" viewBox="0 0 1024 1024" version="1.1" xmlns="http://www.w3.org/2000/svg" p-id="5822" xmlns:xlink="http://www.w3.org/1999/xlink" width="24" height="24"><defs><style type="text/css"></style></defs><path d="M814.229333 896c9.813333 0 17.770667 7.957333 17.770667 17.770667v49.792c0 9.813333-7.957333 17.770667-17.770667 17.770666H209.770667A17.770667 17.770667 0 0 1 192 963.562667v-49.792c0-9.813333 7.957333-17.770667 17.770667-17.770667h604.458666z m-277.333333-853.333333c9.813333 0 17.770667 7.957333 17.770667 17.770666v588.757334l188.650666-188.629334a17.792 17.792 0 0 1 23.317334-1.578666l1.813333 1.578666 35.2 35.2a17.770667 17.770667 0 0 1 0 25.152L527.104 797.44a17.728 17.728 0 0 1-13.397333 5.205333 17.728 17.728 0 0 1-13.376-5.205333L223.765333 520.917333a17.770667 17.770667 0 0 1 0-25.152l35.2-35.2a17.770667 17.770667 0 0 1 25.152 0L469.333333 645.781333V60.437333c0-9.813333 7.957333-17.770667 17.770667-17.770666h49.792z" fill="#363940" p-id="5823"></path></svg>