<svg t="1653374798997" class="icon" viewBox="0 0 1024 1024" version="1.1"
    xmlns="http://www.w3.org/2000/svg" p-id="9102" width="200" height="200">
    <path
        d="M170.666667 693.333333V853.333333h160a10.666667 10.666667 0 0 1 10.666666 10.666667v64a10.666667 10.666667 0 0 1-10.666666 10.666667H128a42.666667 42.666667 0 0 1-42.666667-42.666667v-202.666667a10.666667 10.666667 0 0 1 10.666667-10.666666h64a10.666667 10.666667 0 0 1 10.666667 10.666666z m768 0V896a42.666667 42.666667 0 0 1-42.666667 42.666667h-202.666667a10.666667 10.666667 0 0 1-10.666666-10.666667v-64a10.666667 10.666667 0 0 1 10.666666-10.666667H853.333333v-160a10.666667 10.666667 0 0 1 10.666667-10.666666h64a10.666667 10.666667 0 0 1 10.666667 10.666666zM928 469.333333a10.666667 10.666667 0 0 1 10.666667 10.666667v64a10.666667 10.666667 0 0 1-10.666667 10.666667h-832a10.666667 10.666667 0 0 1-10.666667-10.666667v-64a10.666667 10.666667 0 0 1 10.666667-10.666667h832zM896 85.333333a42.666667 42.666667 0 0 1 42.666667 42.666667v202.666667a10.666667 10.666667 0 0 1-10.666667 10.666666h-64a10.666667 10.666667 0 0 1-10.666667-10.666666V170.666667h-160a10.666667 10.666667 0 0 1-10.666666-10.666667v-64a10.666667 10.666667 0 0 1 10.666666-10.666667H896z m-554.666667 10.666667v64a10.666667 10.666667 0 0 1-10.666666 10.666667H170.666667v160a10.666667 10.666667 0 0 1-10.666667 10.666666h-64a10.666667 10.666667 0 0 1-10.666667-10.666666V128a42.666667 42.666667 0 0 1 42.666667-42.666667h202.666667a10.666667 10.666667 0 0 1 10.666666 10.666667z"
        p-id="9103"></path>
</svg>