<?xml version="1.0" standalone="no"?><!DOCTYPE svg PUBLIC "-//W3C//DTD SVG 1.1//EN" "http://www.w3.org/Graphics/SVG/1.1/DTD/svg11.dtd"><svg t="1639985970247" class="icon" viewBox="0 0 1024 1024" version="1.1" xmlns="http://www.w3.org/2000/svg" p-id="8011" xmlns:xlink="http://www.w3.org/1999/xlink" width="200" height="200"><defs><style type="text/css">@font-face { font-family: element-icons; src: url("chrome-extension://moombeodfomdpjnpocobemoiaemednkg/fonts/element-icons.woff") format("woff"), url("chrome-extension://moombeodfomdpjnpocobemoiaemednkg/fonts/element-icons.ttf ") format("truetype"); }
</style></defs><path d="M1022.78592 110.016c1.216 3.36 1.6 7.008 1.024 10.56l-131.424 853.344a21.28 21.28 0 0 1-31.744 15.2l-355.776-206.976-195.872 76.672a21.28 21.28 0 0 1-5.12 1.28l-2.624 0.192a21.312 21.312 0 0 1-21.056-18.176l-0.256-3.136v-187.712L10.62592 494.624a21.312 21.312 0 0 1 3.392-38.464l981.44-358.848a21.28 21.28 0 0 1 27.296 12.704z m-99.648 104.48L171.26592 489.44l193.856 112.768v143.104l147.04-57.568 310.336 180.512 100.672-653.76z m-126.176 114.528c14.4 16.64 13.664 41.184-0.96 56.96l-3.392 3.2-256.832 222.272a42.656 42.656 0 0 1-59.2-61.312l3.36-3.2 256.832-222.272a42.656 42.656 0 0 1 60.192 4.352z" fill="#198CFE" p-id="8012"></path></svg>