<?xml version="1.0" standalone="no"?><!DOCTYPE svg PUBLIC "-//W3C//DTD SVG 1.1//EN" "http://www.w3.org/Graphics/SVG/1.1/DTD/svg11.dtd"><svg t="1621410961881" class="icon" viewBox="0 0 1024 1024" version="1.1" xmlns="http://www.w3.org/2000/svg" p-id="6972" xmlns:xlink="http://www.w3.org/1999/xlink" width="200" height="200"><defs><style type="text/css"></style></defs><path d="M618.666667 42.666667l49.301333 118.336a383.573333 383.573333 0 0 1 69.909333 40.426666l127.253334-16.469333 106.666666 184.746667-77.888 101.973333a388.416 388.416 0 0 1 0 80.64l77.866667 101.973333-106.666667 184.746667-127.232-16.469333a383.594667 383.594667 0 0 1-69.888 40.426666L618.666667 981.333333H405.333333l-49.322666-118.336a383.594667 383.594667 0 0 1-69.888-40.426666l-127.253334 16.469333-106.666666-184.746667 77.888-101.973333a388.416 388.416 0 0 1 0-80.64l-77.866667-101.973333 106.666667-184.746667 127.232 16.469333a383.573333 383.573333 0 0 1 69.909333-40.426666L405.333333 42.666667h213.333334z m-56.896 85.333333h-99.584l-40.448 97.152-31.018667 13.802667c-15.978667 7.104-31.274667 15.616-45.76 25.408l-8.576 6.037333-27.498667 20.010667-104.533333-13.546667-49.813333 86.250667 63.936 83.712-3.52 33.706666a303.082667 303.082667 0 0 0-0.896 52.501334l0.896 10.453333 3.52 33.706667-63.936 83.669333 49.792 86.250667 104.554666-13.525334 27.498667 20.010667c14.122667 10.304 29.12 19.349333 44.821333 27.008l9.493334 4.416 31.018666 13.802667L462.186667 896h99.584l40.533333-97.173333 30.997333-13.802667a297.962667 297.962667 0 0 0 45.738667-25.386667l8.576-6.037333 27.498667-20.010667 104.533333 13.525334 49.792-86.229334-63.914667-83.690666 3.52-33.706667a303.082667 303.082667 0 0 0 0.896-52.522667l-0.896-10.410666-3.52-33.706667 63.914667-83.733333-49.792-86.250667-104.533333 13.546667-27.498667-20.010667a298.56 298.56 0 0 0-44.842667-27.008l-9.493333-4.437333-31.018667-13.802667L561.770667 128zM512 341.333333a170.666667 170.666667 0 1 1 0 341.333334 170.666667 170.666667 0 0 1 0-341.333334z m0 85.333334a85.333333 85.333333 0 1 0 0 170.666666 85.333333 85.333333 0 0 0 0-170.666666z" fill="#363940" p-id="6973"></path></svg>