<?xml version="1.0" standalone="no"?><!DOCTYPE svg PUBLIC "-//W3C//DTD SVG 1.1//EN"
        "http://www.w3.org/Graphics/SVG/1.1/DTD/svg11.dtd">
<svg class="icon" width="200px" height="200.00px" viewBox="0 0 1024 1024" version="1.1"
     xmlns="http://www.w3.org/2000/svg">
    <path d="M424.426667 85.333333a21.333333 21.333333 0 0 1 21.226666 23.466667L428.8 277.333333h213.312l17.301333-172.8a21.333333 21.333333 0 0 1 21.226667-19.2h42.453333a21.333333 21.333333 0 0 1 21.226667 23.466667L727.466667 277.333333H874.666667a21.333333 21.333333 0 0 1 21.333333 21.333334v42.666666a21.333333 21.333333 0 0 1-21.333333 21.333334h-155.733334l-10.986666 110.165333a212.224 212.224 0 0 0-89.301334 39.189333l14.933334-149.354666H420.266667l-29.866667 298.666666h121.578667a106.517333 106.517333 0 0 0-42.517334 79.850667L469.333333 746.666667h-87.466666l-17.28 172.8a21.333333 21.333333 0 0 1-21.226667 19.2h-42.453333a21.333333 21.333333 0 0 1-21.226667-23.466667l16.832-168.533333H149.333333a21.333333 21.333333 0 0 1-21.333333-21.333334v-42.666666a21.333333 21.333333 0 0 1 21.333333-21.333334h155.712l29.866667-298.666666H192a21.333333 21.333333 0 0 1-21.333333-21.333334v-42.666666a21.333333 21.333333 0 0 1 21.333333-21.333334h151.445333l17.301334-172.8a21.333333 21.333333 0 0 1 21.226666-19.2h42.453334z"
          fill="#363940"/>
    <path d="M746.666667 554.666667a128 128 0 0 1 128 128v42.666666h42.666666a21.333333 21.333333 0 0 1 21.333334 21.333334v213.333333a21.333333 21.333333 0 0 1-21.333334 21.333333H576a21.333333 21.333333 0 0 1-21.333333-21.333333V746.666667a21.333333 21.333333 0 0 1 21.333333-21.333334h42.666667v-42.666666a128 128 0 0 1 128-128z m0 85.333333a42.666667 42.666667 0 0 0-42.56 39.466667L704 682.666667v42.666666h85.333333v-42.666666a42.666667 42.666667 0 0 0-39.466666-42.56L746.666667 640z"
          fill="#363940"/>
</svg>