<?xml version="1.0" standalone="no"?><!DOCTYPE svg PUBLIC "-//W3C//DTD SVG 1.1//EN" "http://www.w3.org/Graphics/SVG/1.1/DTD/svg11.dtd"><svg t="1635508139362" class="icon" viewBox="0 0 1024 1024" version="1.1" xmlns="http://www.w3.org/2000/svg" p-id="6796" xmlns:xlink="http://www.w3.org/1999/xlink" width="48" height="48"><defs><style type="text/css"></style></defs><path d="M362.666667 128a21.333333 21.333333 0 0 1 21.333333 21.333333v725.333334a21.333333 21.333333 0 0 1-21.333333 21.333333h-42.666667a21.290667 21.290667 0 0 1-16.32-7.594667l-195.157333-195.157333a21.333333 21.333333 0 0 1 0-30.186667l30.165333-30.165333a21.333333 21.333333 0 0 1 30.186667 0l129.770666 129.792L298.666667 149.333333a21.333333 21.333333 0 0 1 21.333333-21.333333h42.666667z m341.333333 0c6.506667 0 12.352 2.922667 16.256 7.530667l195.114667 195.114666a21.333333 21.333333 0 0 1 0 30.186667l-30.165334 30.165333a21.333333 21.333333 0 0 1-30.186666 0L725.333333 261.290667 725.333333 874.666667a21.333333 21.333333 0 0 1-21.333333 21.333333h-42.666667a21.333333 21.333333 0 0 1-21.333333-21.333333V149.333333a21.333333 21.333333 0 0 1 21.333333-21.333333h42.666667z" fill="#363940" p-id="6797"></path></svg>