<?xml version="1.0" standalone="no"?><!DOCTYPE svg PUBLIC "-//W3C//DTD SVG 1.1//EN" "http://www.w3.org/Graphics/SVG/1.1/DTD/svg11.dtd"><svg t="1637552009152" class="icon" viewBox="0 0 1024 1024" version="1.1" xmlns="http://www.w3.org/2000/svg" p-id="7442" xmlns:xlink="http://www.w3.org/1999/xlink" width="200" height="200"><defs><style type="text/css"></style></defs><path d="M512 42.666667c117.824 0 213.333333 95.509333 213.333333 213.333333h128a42.666667 42.666667 0 0 1 42.666667 42.666667v640a42.666667 42.666667 0 0 1-42.666667 42.666666H170.666667a42.666667 42.666667 0 0 1-42.666667-42.666666V298.666667a42.666667 42.666667 0 0 1 42.666667-42.666667h128c0-117.824 95.509333-213.333333 213.333333-213.333333z m298.666667 298.666666h-85.333334v85.333334h-85.333333v-85.333334H384v85.333334h-85.333333v-85.333334h-85.333334v554.666667h597.333334V341.333333zM512 128a128 128 0 0 0-127.914667 123.2L384 256h256a128 128 0 0 0-123.2-127.914667L512 128z" fill="#FF6A00" p-id="7443"></path></svg>