<?xml version="1.0" standalone="no"?><!DOCTYPE svg PUBLIC "-//W3C//DTD SVG 1.1//EN" "http://www.w3.org/Graphics/SVG/1.1/DTD/svg11.dtd"><svg class="icon" width="200px" height="200.00px" viewBox="0 0 1024 1024" version="1.1" xmlns="http://www.w3.org/2000/svg"><path d="M746.666667 85.333333c141.376 0 256 114.624 256 256v341.333334c0 141.376-114.624 256-256 256H277.333333C135.957333 938.666667 21.333333 824.042667 21.333333 682.666667V341.333333C21.333333 199.957333 135.957333 85.333333 277.333333 85.333333h469.333334z m0 85.333334H277.333333a170.666667 170.666667 0 0 0-170.581333 165.333333L106.666667 341.333333v341.333334a170.666667 170.666667 0 0 0 165.333333 170.581333L277.333333 853.333333h469.333334a170.666667 170.666667 0 0 0 170.581333-165.333333L917.333333 682.666667V341.333333a170.666667 170.666667 0 0 0-165.333333-170.581333L746.666667 170.666667z m-42.666667 512a42.666667 42.666667 0 1 1 0 85.333333H320a42.666667 42.666667 0 1 1 0-85.333333h384zM256 426.666667a64 64 0 1 1 0 128 64 64 0 0 1 0-128z m192 0a64 64 0 1 1 0 128 64 64 0 0 1 0-128z m149.333333 0a64 64 0 1 1 0 128 64 64 0 0 1 0-128z m170.666667 0a64 64 0 1 1 0 128 64 64 0 0 1 0-128z m-512-170.666667a64 64 0 1 1 0 128 64 64 0 0 1 0-128z m170.666667 0a64 64 0 1 1 0 128 64 64 0 0 1 0-128z m170.666666 0a64 64 0 1 1 0 128 64 64 0 0 1 0-128z m170.666667 0a64 64 0 1 1 0 128 64 64 0 0 1 0-128z" /></svg>