<?xml version="1.0" standalone="no"?><!DOCTYPE svg PUBLIC "-//W3C//DTD SVG 1.1//EN" "http://www.w3.org/Graphics/SVG/1.1/DTD/svg11.dtd"><svg t="1591942830148" class="icon" viewBox="0 0 1024 1024" version="1.1" xmlns="http://www.w3.org/2000/svg" p-id="4677" xmlns:xlink="http://www.w3.org/1999/xlink" width="200" height="200"><defs><style type="text/css"></style></defs><path d="M351.232 116.565333a42.666667 42.666667 0 0 1 57.642667-2.474666l2.709333 2.474666 90.517333 90.517334c1.92 1.941333 3.648 4.053333 5.141334 6.229333h9.514666c1.493333-2.197333 3.2-4.266667 5.141334-6.229333l90.517333-90.517334a42.666667 42.666667 0 1 1 60.352 60.352L636.330667 213.333333H853.333333a85.333333 85.333333 0 0 1 85.333334 85.333334v554.666666a85.333333 85.333333 0 0 1-85.333334 85.333334H170.666667a85.333333 85.333333 0 0 1-85.333334-85.333334V298.666667a85.333333 85.333333 0 0 1 85.333334-85.333334h216.981333l-36.416-36.416a42.666667 42.666667 0 0 1-2.474667-57.621333l2.474667-2.730667zM170.666667 853.333333h298.666666V554.666667H170.666667v298.666666z m682.666666 0V554.666667H554.666667v298.666666h298.666666zM170.666667 298.666667v170.666666h298.666666v-170.666666H170.666667z m384 170.666666h298.666666v-170.666666H554.666667v170.666666z" p-id="4678"></path></svg>