<?xml version="1.0" standalone="no"?><!DOCTYPE svg PUBLIC "-//W3C//DTD SVG 1.1//EN"
        "http://www.w3.org/Graphics/SVG/1.1/DTD/svg11.dtd">
<svg class="icon" width="200px" height="200.00px" viewBox="0 0 1024 1024" version="1.1"
     xmlns="http://www.w3.org/2000/svg">
    <path d="M853.333333 85.333333a85.333333 85.333333 0 0 1 85.333334 85.333334v682.666666a85.333333 85.333333 0 0 1-85.333334 85.333334H170.666667a85.333333 85.333333 0 0 1-85.333334-85.333334V170.666667a85.333333 85.333333 0 0 1 85.333334-85.333334h682.666666z m0 85.333334H170.666667v682.666666h682.666666V170.666667z m-92.501333 253.504a21.333333 21.333333 0 0 1 7.168 15.936V746.666667a21.333333 21.333333 0 0 1-21.333333 21.333333H282.88a21.333333 21.333333 0 0 1-15.786667-35.690667l165.12-181.610666a21.333333 21.333333 0 0 1 31.573334 0l78.890666 86.762666 188.053334-211.52a21.333333 21.333333 0 0 1 30.101333-1.770666zM362.666667 256a21.333333 21.333333 0 0 1 21.333333 21.333333v85.333334a21.333333 21.333333 0 0 1-21.333333 21.333333h-85.333334a21.333333 21.333333 0 0 1-21.333333-21.333333v-85.333334a21.333333 21.333333 0 0 1 21.333333-21.333333h85.333334z"/>
</svg>