<?xml version="1.0" standalone="no"?><!DOCTYPE svg PUBLIC "-//W3C//DTD SVG 1.1//EN"
        "http://www.w3.org/Graphics/SVG/1.1/DTD/svg11.dtd">
<svg class="icon" width="200px" height="200.00px" viewBox="0 0 1024 1024" version="1.1"
     xmlns="http://www.w3.org/2000/svg">
    <path d="M512 42.666667c259.2 0 469.333333 210.133333 469.333333 469.333333v42.666667a170.666667 170.666667 0 0 1-309.76 98.922666A212.778667 212.778667 0 0 1 512 725.333333c-117.824 0-213.333333-95.509333-213.333333-213.333333s95.509333-213.333333 213.333333-213.333333c115.84 0 210.090667 92.309333 213.248 207.36L725.333333 512v42.666667a85.333333 85.333333 0 0 0 81.066667 85.226666L810.666667 640a85.333333 85.333333 0 0 0 85.226666-81.066667L896 554.666667v-42.666667c0-207.338667-164.330667-376.298667-369.834667-383.744l-7.104-0.192L512 128C299.925333 128 128 299.925333 128 512c0 209.706667 168.106667 380.16 376.96 383.936L512 896h213.333333a42.666667 42.666667 0 0 1 3.2 85.226667L725.333333 981.333333H512C252.8 981.333333 42.666667 771.2 42.666667 512S252.8 42.666667 512 42.666667z m0 341.333333a128 128 0 1 0 0 256 128 128 0 0 0 0-256z"/>
</svg>