<?xml version="1.0" standalone="no"?><!DOCTYPE svg PUBLIC "-//W3C//DTD SVG 1.1//EN" "http://www.w3.org/Graphics/SVG/1.1/DTD/svg11.dtd"><svg t="1591943070340" class="icon" viewBox="0 0 1024 1024" version="1.1" xmlns="http://www.w3.org/2000/svg" p-id="5637" xmlns:xlink="http://www.w3.org/1999/xlink" width="200" height="200"><defs><style type="text/css"></style></defs><path d="M789.333333 192a42.666667 42.666667 0 0 1 42.666667 42.666667v213.333333a42.666667 42.666667 0 1 1-85.333333 0v-110.357333l-124.330667 124.373333-2.389333 2.176A233.6 233.6 0 0 1 661.333333 597.333333c0 129.6-105.066667 234.666667-234.666666 234.666667S192 726.933333 192 597.333333s105.066667-234.666667 234.666667-234.666666c49.429333 0 95.296 15.296 133.12 41.386666l2.197333-2.389333L686.314667 277.333333H576a42.666667 42.666667 0 1 1 0-85.333333h213.333333zM426.666667 448a149.333333 149.333333 0 1 0 0 298.666667 149.333333 149.333333 0 0 0 0-298.666667z" p-id="5638"></path></svg>