<?xml version="1.0" standalone="no"?><!DOCTYPE svg PUBLIC "-//W3C//DTD SVG 1.1//EN" "http://www.w3.org/Graphics/SVG/1.1/DTD/svg11.dtd"><svg t="1596609736401" class="icon" viewBox="0 0 1024 1024" version="1.1" xmlns="http://www.w3.org/2000/svg" p-id="3854" xmlns:xlink="http://www.w3.org/1999/xlink" width="200" height="200"><defs><style type="text/css"></style></defs><path d="M688.213333 85.333333a70.485333 70.485333 0 0 1 70.506667 70.485334v712.362666a70.485333 70.485333 0 1 1-140.970667 0l-0.021333-71.744h-211.477333v71.744a70.485333 70.485333 0 0 1-140.970667 0V155.818667a70.485333 70.485333 0 1 1 140.970667 0v71.722666h211.477333V155.818667A70.485333 70.485333 0 0 1 688.256 85.333333zM230.058667 654.229333v142.208h-52.266667a71.104 71.104 0 1 1 0-142.208h52.266667z m616.192 0a71.104 71.104 0 0 1 3.904 142.101334l-3.904 0.106666h-52.266667v-142.208h52.266667z m-210.858667-133.333333H388.629333v18.858667a123.370667 123.370667 0 1 0 246.741334 0v-18.858667z m-220.288-160c-24.341333 0-44.074667 19.712-44.074667 44.053333v0.768a44.053333 44.053333 0 0 0 88.106667 0v-0.768c0-24.32-19.712-44.053333-44.032-44.053333z m193.834667 0c-24.32 0-44.053333 19.712-44.053334 44.053333v0.768a44.053333 44.053333 0 1 0 88.106667 0v-0.768c0-24.32-19.712-44.053333-44.053333-44.053333z m-378.88-133.333333v142.208h-52.266667a71.104 71.104 0 0 1-3.904-142.101334l3.904-0.106666h52.266667z m616.192 0a71.104 71.104 0 1 1 0 142.208h-52.266667v-142.208h52.266667z" p-id="3855"></path></svg>