<?xml version="1.0" standalone="no"?><!DOCTYPE svg PUBLIC "-//W3C//DTD SVG 1.1//EN" "http://www.w3.org/Graphics/SVG/1.1/DTD/svg11.dtd"><svg t="1621410944708" class="icon" viewBox="0 0 1024 1024" version="1.1" xmlns="http://www.w3.org/2000/svg" p-id="6588" xmlns:xlink="http://www.w3.org/1999/xlink" width="200" height="200"><defs><style type="text/css"></style></defs><path d="M768 512c141.376 0 256 114.624 256 256v192a21.333333 21.333333 0 0 1-21.333333 21.333333H768V768l-0.085333-7.552A340.48 340.48 0 0 0 652.437333 512H768z m-85.333333 448a21.333333 21.333333 0 0 1-21.333334 21.333333H21.333333a21.333333 21.333333 0 0 1-21.333333-21.333333v-192c0-141.376 114.624-256 256-256h170.666667c29.909333 0 58.624 5.12 85.312 14.549333H512l1.002667 0.362667a254.165333 254.165333 0 0 1 75.050666 42.368 257.088 257.088 0 0 1 64.618667 78.378667l0.362667 0.704a254.976 254.976 0 0 1 29.546666 113.130666L682.666667 768v192z m0-917.333333a192 192 0 1 1-112 347.968C600.96 346.197333 618.666667 292.501333 618.666667 234.666667c0-57.813333-17.706667-111.530667-47.978667-155.946667A190.954667 190.954667 0 0 1 682.666667 42.666667zM341.333333 42.666667a192 192 0 0 1 170.666667 103.978666l0.533333 1.002667c0.746667 1.493333 1.493333 2.965333 2.197334 4.458667L512 146.624a191.210667 191.210667 0 0 1 21.205333 95.253333L533.333333 234.666667a195.285333 195.285333 0 0 1-5.418666 45.504A190.250667 190.250667 0 0 1 512 322.709333 192 192 0 1 1 341.333333 42.666667z" fill="#363940" p-id="6589"></path></svg>