<?xml version="1.0" standalone="no"?><!DOCTYPE svg PUBLIC "-//W3C//DTD SVG 1.1//EN" "http://www.w3.org/Graphics/SVG/1.1/DTD/svg11.dtd"><svg t="1591942839062" class="icon" viewBox="0 0 1024 1024" version="1.1" xmlns="http://www.w3.org/2000/svg" p-id="5037" xmlns:xlink="http://www.w3.org/1999/xlink" width="200" height="200"><defs><style type="text/css"></style></defs><path d="M853.333333 85.333333a85.333333 85.333333 0 0 1 85.333334 85.333334v256c0 188.522667-152.810667 341.333333-341.333334 341.333333H320l-146.816 146.816A54.570667 54.570667 0 0 1 117.333333 928 46.805333 46.805333 0 0 1 85.333333 883.605333V426.666667c0-188.522667 152.810667-341.333333 341.333334-341.333334h426.666666z m0 85.333334H426.666667C287.466667 170.666667 174.208 281.792 170.752 420.16L170.666667 426.666667v369.962666L284.650667 682.666667H597.333333c139.2 0 252.458667-111.125333 255.914667-249.493334L853.333333 426.666667V170.666667z m-320 106.666666a42.666667 42.666667 0 0 1 42.666667 42.666667v213.333333a42.666667 42.666667 0 1 1-85.333333 0v-64h-85.333334v64a42.666667 42.666667 0 1 1-85.333333 0V320a42.666667 42.666667 0 1 1 85.333333 0v64h85.333334v-64a42.666667 42.666667 0 0 1 42.666666-42.666667z m128 128a42.666667 42.666667 0 0 1 42.666667 42.666667v85.333333a42.666667 42.666667 0 1 1-85.333333 0v-85.333333a42.666667 42.666667 0 0 1 42.666666-42.666667z m0-128a42.666667 42.666667 0 1 1 0 85.333334 42.666667 42.666667 0 0 1 0-85.333334z" p-id="5038"></path></svg>