<?xml version="1.0" standalone="no"?><!DOCTYPE svg PUBLIC "-//W3C//DTD SVG 1.1//EN" "http://www.w3.org/Graphics/SVG/1.1/DTD/svg11.dtd"><svg t="1651735466616" class="icon" viewBox="0 0 1024 1024" version="1.1" xmlns="http://www.w3.org/2000/svg" p-id="7639" xmlns:xlink="http://www.w3.org/1999/xlink" width="200" height="200"><defs><style type="text/css">@font-face { font-family: feedback-iconfont; src: url("//at.alicdn.com/t/font_1031158_u69w8yhxdu.woff2?t=1630033759944") format("woff2"), url("//at.alicdn.com/t/font_1031158_u69w8yhxdu.woff?t=1630033759944") format("woff"), url("//at.alicdn.com/t/font_1031158_u69w8yhxdu.ttf?t=1630033759944") format("truetype"); }
</style></defs><path d="M122.517333 169.365333a32 32 0 0 1 42.026667-16.789333L934.186667 482.56a32 32 0 0 1 0 58.816L164.522667 871.424a32 32 0 0 1-43.84-36.330667L184.32 547.136l201.024-12.544a21.333333 21.333333 0 0 0 19.882667-18.922667l0.128-2.389333v-2.56a21.333333 21.333333 0 0 0-20.010667-21.312l-201.024-12.565333L120.682667 188.885333a32 32 0 0 1 0.682666-16.384z" fill="#5C6273" p-id="7640"></path></svg>