<?xml version="1.0" standalone="no"?><!DOCTYPE svg PUBLIC "-//W3C//DTD SVG 1.1//EN" "http://www.w3.org/Graphics/SVG/1.1/DTD/svg11.dtd"><svg t="1591942836199" class="icon" viewBox="0 0 1024 1024" version="1.1" xmlns="http://www.w3.org/2000/svg" p-id="4917" xmlns:xlink="http://www.w3.org/1999/xlink" width="200" height="200"><defs><style type="text/css"></style></defs><path d="M170.666667 554.666667a42.666667 42.666667 0 0 1 42.666666 42.666666v213.333334h213.333334a42.666667 42.666667 0 1 1 0 85.333333H170.666667a42.666667 42.666667 0 0 1-42.666667-42.666667V597.333333a42.666667 42.666667 0 0 1 42.666667-42.666666zM853.333333 128a42.666667 42.666667 0 0 1 42.666667 42.666667v256a42.666667 42.666667 0 1 1-85.333333 0V213.312L597.333333 213.333333a42.666667 42.666667 0 1 1 0-85.333333h256z" p-id="4918"></path></svg>