<?xml version="1.0" standalone="no"?><!DOCTYPE svg PUBLIC "-//W3C//DTD SVG 1.1//EN" "http://www.w3.org/Graphics/SVG/1.1/DTD/svg11.dtd"><svg t="1591945382175" class="icon" viewBox="0 0 1024 1024" version="1.1" xmlns="http://www.w3.org/2000/svg" p-id="4517" xmlns:xlink="http://www.w3.org/1999/xlink" width="200" height="200"><defs><style type="text/css"></style></defs><path d="M341.333333 512c141.376 0 256 114.624 256 256v42.666667a85.333333 85.333333 0 0 1-85.333333 85.333333H128a85.333333 85.333333 0 0 1-85.333333-85.333333v-42.666667c0-141.376 114.624-256 256-256h42.666666z m0 85.333333h-42.666666a170.666667 170.666667 0 0 0-170.581334 165.333334L128 768v21.333333a21.333333 21.333333 0 0 0 21.333333 21.333334h341.333334a21.333333 21.333333 0 0 0 21.333333-21.333334v-21.333333a170.666667 170.666667 0 0 0-165.333333-170.581333L341.333333 597.333333z m469.333334-256a42.666667 42.666667 0 0 1 42.666666 42.666667v85.333333h85.333334a42.666667 42.666667 0 1 1 0 85.333334h-85.333334v85.333333a42.666667 42.666667 0 1 1-85.333333 0v-85.333333h-85.333333a42.666667 42.666667 0 1 1 0-85.333334h85.333333v-85.333333a42.666667 42.666667 0 0 1 42.666667-42.666667zM320 128a149.333333 149.333333 0 1 1 0 298.666667 149.333333 149.333333 0 0 1 0-298.666667z m0 85.333333a64 64 0 1 0 0 128 64 64 0 0 0 0-128z" fill="#29CC5F" p-id="4518"></path></svg>