<?xml version="1.0" standalone="no"?><!DOCTYPE svg PUBLIC "-//W3C//DTD SVG 1.1//EN" "http://www.w3.org/Graphics/SVG/1.1/DTD/svg11.dtd"><svg t="1624612257955" class="icon" viewBox="0 0 1024 1024" version="1.1" xmlns="http://www.w3.org/2000/svg" p-id="6358" xmlns:xlink="http://www.w3.org/1999/xlink" width="200" height="200"><defs><style type="text/css"></style></defs><path d="M682.667093 0c188.522667 0 341.333333 152.810667 341.333334 341.333333a340.053333 340.053333 0 0 1-85.952 226.474667l73.194666 97.813333a10.666667 10.666667 0 0 1-8.533333 17.045334H768.000427c0-232.042667-185.258667-420.842667-415.936-426.538667C389.888427 108.842667 523.584427 0 682.667093 0z" fill="#363940" p-id="6359"></path><path d="M21.291093 1024a10.666667 10.666667 0 0 1-8.533333-17.066667l73.194667-97.792A340.053333 340.053333 0 0 1 0.000427 682.666667c0-188.522667 152.810667-341.333333 341.333333-341.333334s341.333333 152.810667 341.333333 341.333334c0 181.376-141.44 329.706667-320.064 340.693333L362.667093 1024H21.291093z" fill="#363940" p-id="6360"></path></svg>