<?xml version="1.0" standalone="no"?><!DOCTYPE svg PUBLIC "-//W3C//DTD SVG 1.1//EN" "http://www.w3.org/Graphics/SVG/1.1/DTD/svg11.dtd"><svg t="1591943067913" class="icon" viewBox="0 0 1024 1024" version="1.1" xmlns="http://www.w3.org/2000/svg" p-id="5517" xmlns:xlink="http://www.w3.org/1999/xlink" width="200" height="200"><defs><style type="text/css"></style></defs><path d="M596.266667 192c129.6 0 234.666667 105.066667 234.666666 234.666667s-105.066667 234.666667-234.666666 234.666666a233.6 233.6 0 0 1-133.034667-41.322666l-47.552 47.573333 60.352 60.330667a42.666667 42.666667 0 0 1-60.352 60.352l-60.330667-60.352-90.517333 90.517333a42.666667 42.666667 0 0 1-60.330667-60.330667l90.496-90.517333L234.666667 607.232a42.666667 42.666667 0 1 1 60.330666-60.330667l60.352 60.330667 47.573334-47.530667A233.6 233.6 0 0 1 361.6 426.666667c0-129.6 105.066667-234.666667 234.666667-234.666667z m0 85.333333a149.333333 149.333333 0 1 0 0 298.666667 149.333333 149.333333 0 0 0 0-298.666667z" p-id="5518"></path></svg>