<?xml version="1.0" standalone="no"?><!DOCTYPE svg PUBLIC "-//W3C//DTD SVG 1.1//EN" "http://www.w3.org/Graphics/SVG/1.1/DTD/svg11.dtd"><svg t="1621410947826" class="icon" viewBox="0 0 1024 1024" version="1.1" xmlns="http://www.w3.org/2000/svg" p-id="6716" xmlns:xlink="http://www.w3.org/1999/xlink" width="200" height="200"><defs><style type="text/css"></style></defs><path d="M512 42.666667c259.2 0 469.333333 210.133333 469.333333 469.333333 0 256.618667-205.952 465.130667-461.568 469.269333L512 981.333333H81.536a21.333333 21.333333 0 0 1-18.005333-32.789333l87.168-136.96A467.413333 467.413333 0 0 1 42.666667 512C42.666667 252.8 252.8 42.666667 512 42.666667z m-65.856 213.333333H403.626667a21.333333 21.333333 0 0 0-21.248 19.562667L375.104 362.666667H320a21.333333 21.333333 0 0 0-21.333333 21.333333v42.666667a21.333333 21.333333 0 0 0 21.333333 21.333333h47.978667l-10.645334 128H298.666667a21.333333 21.333333 0 0 0-21.333334 21.333333v42.666667a21.333333 21.333333 0 0 0 21.333334 21.333333h51.541333l-6.954667 83.562667A21.333333 21.333333 0 0 0 364.522667 768h42.517333a21.333333 21.333333 0 0 0 21.248-19.562667l7.253333-87.104h128l-6.954666 83.562667A21.333333 21.333333 0 0 0 577.856 768h42.517333a21.333333 21.333333 0 0 0 21.248-19.562667l7.253334-87.104H704a21.333333 21.333333 0 0 0 21.333333-21.333333v-42.666667a21.333333 21.333333 0 0 0-21.333333-21.333333h-48.021333l10.666666-128H725.333333a21.333333 21.333333 0 0 0 21.333334-21.333333v-42.666667a21.333333 21.333333 0 0 0-21.333334-21.333333h-51.562666l6.976-83.562667A21.333333 21.333333 0 0 0 659.477333 256H616.96a21.333333 21.333333 0 0 0-21.248 19.562667L588.437333 362.666667h-128l6.976-83.562667A21.333333 21.333333 0 0 0 446.144 256z m135.168 192l-10.645333 128h-128.021334l10.666667-128h128z" fill="#363940" p-id="6717"></path></svg>