<?xml version="1.0" standalone="no"?><!DOCTYPE svg PUBLIC "-//W3C//DTD SVG 1.1//EN" "http://www.w3.org/Graphics/SVG/1.1/DTD/svg11.dtd"><svg class="icon" width="200px" height="200.00px" viewBox="0 0 1024 1024" version="1.1" xmlns="http://www.w3.org/2000/svg"><path d="M512 0c282.773333 0 512 229.226667 512 512S794.773333 1024 512 1024 0 794.773333 0 512 229.226667 0 512 0z m0 85.333333C276.352 85.333333 85.333333 276.352 85.333333 512s191.018667 426.666667 426.666667 426.666667 426.666667-191.018667 426.666667-426.666667S747.648 85.333333 512 85.333333z m158.442667 290.645334l2.005333 1.770666 30.165333 30.165334a21.333333 21.333333 0 0 1 1.770667 28.16l-1.770667 2.026666-211.2 211.178667a21.546667 21.546667 0 0 1-2.005333 1.770667l-1.642667 1.664a21.333333 21.333333 0 0 1-30.165333 0l-135.765333-135.765334a21.333333 21.333333 0 0 1 0-30.165333l30.165333-30.165333a21.333333 21.333333 0 0 1 30.165333 0l90.624 90.602666 169.493334-169.472a21.333333 21.333333 0 0 1 28.16-1.770666z" fill="#198CFE" /></svg>