<?xml version="1.0" standalone="no"?><!DOCTYPE svg PUBLIC "-//W3C//DTD SVG 1.1//EN" "http://www.w3.org/Graphics/SVG/1.1/DTD/svg11.dtd"><svg t="1634902827754" class="icon" viewBox="0 0 1024 1024" version="1.1" xmlns="http://www.w3.org/2000/svg" p-id="7103" xmlns:xlink="http://www.w3.org/1999/xlink" width="48" height="48"><defs><style type="text/css"></style></defs><path d="M512 42.666667c259.2 0 469.333333 210.133333 469.333333 469.333333s-210.133333 469.333333-469.333333 469.333333S42.666667 771.2 42.666667 512 252.8 42.666667 512 42.666667z m0 85.333333C299.925333 128 128 299.925333 128 512s171.925333 384 384 384 384-171.925333 384-384S724.074667 128 512 128z" fill="#363940" p-id="7104"></path><path d="M690.944 347.584a21.333333 21.333333 0 0 1 30.165333 0l30.165334 30.165333a21.333333 21.333333 0 0 1 0 30.165334L497.792 661.461333a21.418667 21.418667 0 0 1-2.88 3.541334l-30.165333 30.165333a21.333333 21.333333 0 0 1-30.165334 0l-165.930666-165.930667a21.333333 21.333333 0 0 1 0-30.165333l30.165333-30.186667a21.333333 21.333333 0 0 1 30.165333 0l120.32 120.32z" fill="#363940" p-id="7105"></path></svg>