<svg height="200" viewBox="0 0 1024 1024" width="200" xmlns="http://www.w3.org/2000/svg">
    <path
        d="m512 64c247.424 0 448 200.576 448 448s-200.576 448-448 448-448-200.576-448-448 200.576-448 448-448zm-109.344 256a225.696 225.696 0 0 0 -104 190.208v129.792c0 11.776 9.568 21.344 21.344 21.344h128a21.344 21.344 0 0 0 21.344-21.344v-128a21.344 21.344 0 0 0 -21.344-21.344h-72.768a150.624 150.624 0 0 1 71.84-109.6zm256 0a225.696 225.696 0 0 0 -104 190.208v129.792c0 11.776 9.568 21.344 21.344 21.344h128a21.344 21.344 0 0 0 21.344-21.344v-128a21.344 21.344 0 0 0 -21.344-21.344h-72.768a150.624 150.624 0 0 1 71.84-109.6z" />
</svg>