<?xml version="1.0" standalone="no"?><!DOCTYPE svg PUBLIC "-//W3C//DTD SVG 1.1//EN" "http://www.w3.org/Graphics/SVG/1.1/DTD/svg11.dtd"><svg t="1652940236346" class="icon" viewBox="0 0 1024 1024" version="1.1" xmlns="http://www.w3.org/2000/svg" p-id="19947" xmlns:xlink="http://www.w3.org/1999/xlink" width="200" height="200"><defs><style type="text/css">@font-face { font-family: feedback-iconfont; src: url("//at.alicdn.com/t/font_1031158_u69w8yhxdu.woff2?t=1630033759944") format("woff2"), url("//at.alicdn.com/t/font_1031158_u69w8yhxdu.woff?t=1630033759944") format("woff"), url("//at.alicdn.com/t/font_1031158_u69w8yhxdu.ttf?t=1630033759944") format("truetype"); }
</style></defs><path d="M782.229333 448a14.229333 14.229333 0 0 0-14.229333 14.229333V490.666667c0 141.376-114.624 256-256 256-139.2 0-252.458667-111.125333-255.914667-249.493334L256 492.586667 256 462.229333a14.229333 14.229333 0 0 0-14.229333-14.229333H184.896a14.229333 14.229333 0 0 0-14.229333 14.229333l0.021333 28.416L170.666667 490.666667l0.021333 1.792-0.021333 12.437333c0 1.92 0.213333 3.84 0.554666 5.653333C180.714667 675.562667 307.413333 809.173333 469.333333 829.354667L469.333333 967.104c0 7.872 6.357333 14.229333 14.229334 14.229333h56.874666a14.229333 14.229333 0 0 0 14.229334-14.229333v-137.749333c161.92-20.181333 288.618667-153.792 298.090666-318.805334 0.384-1.834667 0.576-3.712 0.576-5.653333v-42.666667a14.229333 14.229333 0 0 0-14.229333-14.229333h-56.874667zM512 42.666667c-94.250667 0-170.666667 79.146667-170.666667 176.768v265.130666C341.333333 582.186667 417.749333 661.333333 512 661.333333s170.666667-79.146667 170.666667-176.768V219.434667C682.666667 121.813333 606.250667 42.666667 512 42.666667z" p-id="19948"></path></svg>