<?xml version="1.0" standalone="no"?><!DOCTYPE svg PUBLIC "-//W3C//DTD SVG 1.1//EN" "http://www.w3.org/Graphics/SVG/1.1/DTD/svg11.dtd"><svg t="1652940176569" class="icon" viewBox="0 0 1024 1024" version="1.1" xmlns="http://www.w3.org/2000/svg" p-id="18456" xmlns:xlink="http://www.w3.org/1999/xlink" width="200" height="200"><defs><style type="text/css">@font-face { font-family: feedback-iconfont; src: url("//at.alicdn.com/t/font_1031158_u69w8yhxdu.woff2?t=1630033759944") format("woff2"), url("//at.alicdn.com/t/font_1031158_u69w8yhxdu.woff?t=1630033759944") format("woff"), url("//at.alicdn.com/t/font_1031158_u69w8yhxdu.ttf?t=1630033759944") format("truetype"); }
</style></defs><path d="M640.725333 512H746.666667c129.6 0 234.666667 104.192 234.666666 232.746667V917.333333a21.333333 21.333333 0 0 1-21.333333 21.333334H746.666667v-193.92l-0.085334-6.890667C744.618667 647.936 704.085333 567.466667 640.725333 512z m-38.997333 70.186667l0.362667 0.362666a234.922667 234.922667 0 0 1 42.496 59.84 233.344 233.344 0 0 1 14.08 35.626667 229.461333 229.461333 0 0 1 9.685333 60.266667l0.085333 6.442666V917.333333a21.333333 21.333333 0 0 1-21.333333 21.333334H64a21.333333 21.333333 0 0 1-21.333333-21.333334v-172.586666C42.666667 616.170667 147.733333 512 277.333333 512h156.437334c27.413333 0 53.76 4.672 78.208 13.226667l0.042666 0.021333 2.069334 0.746667 3.114666 1.130666-5.184-1.877333a234.176 234.176 0 0 1 86.869334 54.101333l2.837333 2.837334zM668.437333 85.333333c97.216 0 176 78.144 176 174.549334s-78.784 174.549333-176 174.549333a176.192 176.192 0 0 1-102.656-32.768 249.429333 249.429333 0 0 0 43.989334-141.781333c0-52.586667-16.213333-101.397333-43.989334-141.802667A176.170667 176.170667 0 0 1 668.437333 85.333333zM355.562667 85.333333C423.68 85.333333 482.752 123.733333 512 179.861333l0.170667 0.341334a173.077333 173.077333 0 0 1 10.069333 23.552l0.362667 1.066666a172.16 172.16 0 0 1 3.84 13.226667l0.106666 0.384a172.224 172.224 0 0 1 4.864 47.872l0.128-6.421333a176 176 0 0 1-4.778666 40.512 172.074667 172.074667 0 0 1-6.229334 20.394666l-0.213333 0.554667a172.416 172.416 0 0 1-8.32 18.56 176.149333 176.149333 0 0 1-156.458667 94.506667c-97.216 0-176-78.122667-176-174.528C179.562667 163.477333 258.346667 85.333333 355.562667 85.333333z" p-id="18457"></path></svg>