<?xml version="1.0" standalone="no"?><!DOCTYPE svg PUBLIC "-//W3C//DTD SVG 1.1//EN" "http://www.w3.org/Graphics/SVG/1.1/DTD/svg11.dtd"><svg t="1652940167987" class="icon" viewBox="0 0 1024 1024" version="1.1" xmlns="http://www.w3.org/2000/svg" p-id="18187" xmlns:xlink="http://www.w3.org/1999/xlink" width="200" height="200"><defs><style type="text/css">@font-face { font-family: feedback-iconfont; src: url("//at.alicdn.com/t/font_1031158_u69w8yhxdu.woff2?t=1630033759944") format("woff2"), url("//at.alicdn.com/t/font_1031158_u69w8yhxdu.woff?t=1630033759944") format("woff"), url("//at.alicdn.com/t/font_1031158_u69w8yhxdu.ttf?t=1630033759944") format("truetype"); }
</style></defs><path d="M799.189333 600.874667l125.461334 123.072c0.896 0.853333 1.685333 1.813333 2.346666 2.816a17.749333 17.749333 0 0 1 11.669334 16.682666v48.149334a17.792 17.792 0 0 1-10.922667 16.426666 17.834667 17.834667 0 0 1-3.093333 4.032l-125.44 123.072a17.770667 17.770667 0 0 1-24.917334 0l-34.944-34.282666-0.234666-0.256a17.770667 17.770667 0 0 1 0.213333-25.130667l67.370667-66.090667h-191.573334a17.770667 17.770667 0 0 1-17.792-17.770666V743.466667c0-9.813333 7.957333-17.770667 17.770667-17.770667l190.613333-0.021333-66.368-65.109334a17.770667 17.770667 0 0 1-0.234666-25.130666l0.213333-0.256 34.986667-34.282667a17.770667 17.770667 0 0 1 24.874666 0zM128 938.666667a42.666667 42.666667 0 0 1-42.56-39.466667L85.333333 896v-128.682667l0.213334-2.56 0.533333-3.2 0.853333-3.797333 1.194667-4.352 1.642667-4.885333 2.090666-5.333334 1.664-3.797333 1.898667-3.968 3.306667-6.250667 2.517333-4.330666 2.816-4.48 3.093333-4.544 3.392-4.672 3.690667-4.736 4.010667-4.8c1.408-1.6 2.858667-3.221333 4.373333-4.842667l4.693333-4.906667 5.056-4.906666c1.749333-1.642667 3.562667-3.285333 5.44-4.906667l5.802667-4.928 6.186667-4.906667 6.613333-4.864c6.826667-4.842667 14.293333-9.6 22.4-14.229333l8.362667-4.586667c40.042667-21.184 95.317333-38.954667 171.285333-46.826666l16.576-1.536A898.048 898.048 0 0 1 448 597.333333h64a21.333333 21.333333 0 0 1 21.333333 21.333334v42.666666a21.333333 21.333333 0 0 1-18.837333 21.184L512 682.666667h-85.333333v0.234666c-111.488 2.56-184.618667 25.173333-227.114667 58.752-11.861333 9.344-20.053333 18.688-25.301333 27.370667l-2.346667 4.245333-1.258667 2.624v77.418667L512 853.333333a21.333333 21.333333 0 0 1 21.333333 21.333334v42.666666a21.333333 21.333333 0 0 1-21.333333 21.333334H128zM490.666667 85.333333c117.824 0 213.333333 95.509333 213.333333 213.333334 0 115.84-92.309333 210.090667-207.36 213.248L490.666667 512c-117.824 0-213.333333-95.509333-213.333334-213.333333 0-115.84 92.309333-210.090667 207.36-213.248L490.666667 85.333333z m0 85.333334a128 128 0 1 0 0 256 128 128 0 0 0 0-256z" p-id="18188"></path></svg>