<?xml version="1.0" standalone="no"?><!DOCTYPE svg PUBLIC "-//W3C//DTD SVG 1.1//EN" "http://www.w3.org/Graphics/SVG/1.1/DTD/svg11.dtd"><svg t="1652940192193" class="icon" viewBox="0 0 1024 1024" version="1.1" xmlns="http://www.w3.org/2000/svg" p-id="18863" xmlns:xlink="http://www.w3.org/1999/xlink" width="200" height="200"><defs><style type="text/css">@font-face { font-family: feedback-iconfont; src: url("//at.alicdn.com/t/font_1031158_u69w8yhxdu.woff2?t=1630033759944") format("woff2"), url("//at.alicdn.com/t/font_1031158_u69w8yhxdu.woff?t=1630033759944") format("woff"), url("//at.alicdn.com/t/font_1031158_u69w8yhxdu.ttf?t=1630033759944") format("truetype"); }
</style></defs><path d="M137.386667 117.269333a17.770667 17.770667 0 0 1 25.152 0l744.192 744.192a17.770667 17.770667 0 0 1 0 25.152l-20.117334 20.117334a17.770667 17.770667 0 0 1-25.152 0L117.269333 162.538667a17.770667 17.770667 0 0 1 0-25.152zM57.28 181.184c3.754667 10.282667 9.450667 20.032 17.066667 28.672l3.968 4.224L715.882667 851.626667A42.688 42.688 0 0 1 704 853.333333H85.333333a42.666667 42.666667 0 0 1-42.666666-42.666666V213.333333c0-11.776 4.778667-22.442667 12.501333-30.165333l2.112-1.984zM704 170.666667a42.666667 42.666667 0 0 1 42.666667 42.666666v162.112l186.197333-111.701333A32 32 0 0 1 981.333333 291.178667v441.642666a32 32 0 0 1-48.469333 27.434667l-92.181333-55.317333L306.410667 170.666667H704z" p-id="18864"></path></svg>