<?xml version="1.0" encoding="UTF-8"?>
<svg width="44px" height="44px" viewBox="0 0 44 44" version="1.1" xmlns="http://www.w3.org/2000/svg" xmlns:xlink="http://www.w3.org/1999/xlink">
    <title>宫格模式</title>
    <g id="AMA语音频道" stroke="none" stroke-width="1" fill="none" fill-rule="evenodd">
        <g id="进入视频频道-屏幕共享同时开视频" transform="translate(-606.000000, -110.000000)">
            <g id="头部导航" transform="translate(0.000000, 88.000000)">
                <g id="宫格模式" transform="translate(606.000000, 22.000000)">
                    <rect id="矩形" x="0" y="0" width="44" height="44"></rect>
                    <path d="M19.25,3.66666667 C19.756261,3.66666667 20.1666667,4.07707231 20.1666667,4.58333333 L20.1666667,19.25 C20.1666667,19.756261 19.756261,20.1666667 19.25,20.1666667 L4.58333333,20.1666667 C4.07707231,20.1666667 3.66666667,19.756261 3.66666667,19.25 L3.66666667,4.58333333 C3.66666667,4.07707231 4.07707231,3.66666667 4.58333333,3.66666667 L19.25,3.66666667 Z M16.5,7.33333333 L7.33333333,7.33333333 L7.33333333,16.5 L16.5,16.5 L16.5,7.33333333 Z" id="矩形" fill="#FFFFFF" fill-rule="nonzero"></path>
                    <path d="M19.25,23.8333333 C19.756261,23.8333333 20.1666667,24.243739 20.1666667,24.75 L20.1666667,39.4166667 C20.1666667,39.9229277 19.756261,40.3333333 19.25,40.3333333 L4.58333333,40.3333333 C4.07707231,40.3333333 3.66666667,39.9229277 3.66666667,39.4166667 L3.66666667,24.75 C3.66666667,24.243739 4.07707231,23.8333333 4.58333333,23.8333333 L19.25,23.8333333 Z M16.5,27.5 L7.33333333,27.5 L7.33333333,36.6666667 L16.5,36.6666667 L16.5,27.5 Z" id="矩形备份-2" fill="#FFFFFF" fill-rule="nonzero"></path>
                    <path d="M39.4166667,3.66666667 C39.9229277,3.66666667 40.3333333,4.07707231 40.3333333,4.58333333 L40.3333333,19.25 C40.3333333,19.756261 39.9229277,20.1666667 39.4166667,20.1666667 L24.75,20.1666667 C24.243739,20.1666667 23.8333333,19.756261 23.8333333,19.25 L23.8333333,4.58333333 C23.8333333,4.07707231 24.243739,3.66666667 24.75,3.66666667 L39.4166667,3.66666667 Z M36.6666667,7.33333333 L27.5,7.33333333 L27.5,16.5 L36.6666667,16.5 L36.6666667,7.33333333 Z" id="矩形备份" fill="#FFFFFF" fill-rule="nonzero"></path>
                    <path d="M39.4166667,23.8333333 C39.9229277,23.8333333 40.3333333,24.243739 40.3333333,24.75 L40.3333333,39.4166667 C40.3333333,39.9229277 39.9229277,40.3333333 39.4166667,40.3333333 L24.75,40.3333333 C24.243739,40.3333333 23.8333333,39.9229277 23.8333333,39.4166667 L23.8333333,24.75 C23.8333333,24.243739 24.243739,23.8333333 24.75,23.8333333 L39.4166667,23.8333333 Z M36.6666667,27.5 L27.5,27.5 L27.5,36.6666667 L36.6666667,36.6666667 L36.6666667,27.5 Z" id="矩形备份-3" fill="#FFFFFF" fill-rule="nonzero"></path>
                </g>
            </g>
        </g>
    </g>
</svg>