<?xml version="1.0" standalone="no"?><!DOCTYPE svg PUBLIC "-//W3C//DTD SVG 1.1//EN" "http://www.w3.org/Graphics/SVG/1.1/DTD/svg11.dtd"><svg t="1652940231619" class="icon" viewBox="0 0 1024 1024" version="1.1" xmlns="http://www.w3.org/2000/svg" p-id="19812" xmlns:xlink="http://www.w3.org/1999/xlink" width="200" height="200"><defs><style type="text/css">@font-face { font-family: feedback-iconfont; src: url("//at.alicdn.com/t/font_1031158_u69w8yhxdu.woff2?t=1630033759944") format("woff2"), url("//at.alicdn.com/t/font_1031158_u69w8yhxdu.woff?t=1630033759944") format("woff"), url("//at.alicdn.com/t/font_1031158_u69w8yhxdu.ttf?t=1630033759944") format("truetype"); }
</style></defs><path d="M241.770667 448c7.872 0 14.229333 6.357333 14.229333 14.229333V490.666667c0 141.376 114.624 256 256 256 29.653333 0 58.133333-5.034667 84.608-14.293334l65.130667 65.109334A338.986667 338.986667 0 0 1 554.666667 829.354667L554.666667 967.104a14.229333 14.229333 0 0 1-14.229334 14.229333h-56.874666a14.229333 14.229333 0 0 1-14.229334-14.229333v-137.749333c-161.92-20.181333-288.618667-153.792-298.090666-318.805334A28.224 28.224 0 0 1 170.666667 504.896v-42.666667c0-7.872 6.357333-14.229333 14.229333-14.229333h56.874667zM137.386667 117.269333a17.770667 17.770667 0 0 1 25.152 0l744.192 744.192a17.770667 17.770667 0 0 1 0 25.152l-20.117334 20.117334a17.770667 17.770667 0 0 1-25.152 0L117.269333 162.538667a17.770667 17.770667 0 0 1 0-25.152zM839.104 448c7.872 0 14.229333 6.357333 14.229333 14.229333l-0.021333 28.416L853.333333 490.666667l-0.021333 1.792 0.021333 12.437333c0 1.92-0.213333 3.84-0.554666 5.653333a339.392 339.392 0 0 1-49.066667 157.44l-62.72-62.741333a254.72 254.72 0 0 0 26.922667-108.074667L768 492.586667 768 462.229333c0-7.872 6.357333-14.229333 14.229333-14.229333h56.874667zM341.333333 477.056l183.722667 183.765333A167.125333 167.125333 0 0 1 512 661.333333c-94.250667 0-170.666667-79.146667-170.666667-176.768l-0.021333-7.509333zM512 42.666667c94.250667 0 170.666667 79.146667 170.666667 176.768v265.130666c0 18.901333-2.858667 37.098667-8.149334 54.165334L341.824 206.08C348.416 114.688 422.08 42.666667 512 42.666667z" p-id="19813"></path></svg>