<?xml version="1.0" standalone="no"?><!DOCTYPE svg PUBLIC "-//W3C//DTD SVG 1.1//EN" "http://www.w3.org/Graphics/SVG/1.1/DTD/svg11.dtd"><svg t="1653543425905" class="icon" viewBox="0 0 1024 1024" version="1.1" xmlns="http://www.w3.org/2000/svg" p-id="9128" xmlns:xlink="http://www.w3.org/1999/xlink" width="200" height="200"><defs><style type="text/css">@font-face { font-family: feedback-iconfont; src: url("//at.alicdn.com/t/font_1031158_u69w8yhxdu.woff2?t=1630033759944") format("woff2"), url("//at.alicdn.com/t/font_1031158_u69w8yhxdu.woff?t=1630033759944") format("woff"), url("//at.alicdn.com/t/font_1031158_u69w8yhxdu.ttf?t=1630033759944") format("truetype"); }
</style></defs><path d="M789.333333 64a42.666667 42.666667 0 0 1 42.666667 42.666667v810.666666a42.666667 42.666667 0 0 1-42.666667 42.666667H234.666667a42.666667 42.666667 0 0 1-42.666667-42.666667V106.666667a42.666667 42.666667 0 0 1 42.666667-42.666667h554.666666z m-202.666666 768h-149.333334a32 32 0 0 0 0 64h149.333334a32 32 0 0 0 0-64zM768 128H256v640h512V128z" p-id="9129"></path><path d="M629.269333 313.749333l16.981334 16.981334a21.333333 21.333333 0 0 1 0 30.186666L424.917333 582.250667a21.333333 21.333333 0 0 1-30.186666 0l-16.981334-16.981334a21.333333 21.333333 0 0 1 0-30.186666L599.082667 313.749333a21.333333 21.333333 0 0 1 30.186666 0z" p-id="9130"></path><path d="M661.325867 550.17033m-15.084944 15.084945l-16.985648 16.985648q-15.084945 15.084945-30.169889 0l-221.341394-221.341393q-15.084945-15.084945 0-30.16989l16.985648-16.985648q15.084945-15.084945 30.16989 0l221.341393 221.341394q15.084945 15.084945 0 30.169889Z" p-id="9131"></path></svg>