<?xml version="1.0" standalone="no"?><!DOCTYPE svg PUBLIC "-//W3C//DTD SVG 1.1//EN" "http://www.w3.org/Graphics/SVG/1.1/DTD/svg11.dtd"><svg t="1652940187106" class="icon" viewBox="0 0 1024 1024" version="1.1" xmlns="http://www.w3.org/2000/svg" p-id="18726" xmlns:xlink="http://www.w3.org/1999/xlink" width="200" height="200"><defs><style type="text/css">@font-face { font-family: feedback-iconfont; src: url("//at.alicdn.com/t/font_1031158_u69w8yhxdu.woff2?t=1630033759944") format("woff2"), url("//at.alicdn.com/t/font_1031158_u69w8yhxdu.woff?t=1630033759944") format("woff"), url("//at.alicdn.com/t/font_1031158_u69w8yhxdu.ttf?t=1630033759944") format("truetype"); }
</style></defs><path d="M789.333333 64a42.666667 42.666667 0 0 1 42.666667 42.666667v810.666666a42.666667 42.666667 0 0 1-42.666667 42.666667H234.666667a42.666667 42.666667 0 0 1-42.666667-42.666667V106.666667a42.666667 42.666667 0 0 1 42.666667-42.666667h554.666666z m-202.666666 768h-149.333334a32 32 0 0 0 0 64h149.333334a32 32 0 0 0 0-64zM768 128H256v640h512V128z" p-id="18727"></path><path d="M527.936 273.92l123.178667 138.581333A21.333333 21.333333 0 0 1 635.157333 448H388.842667a21.333333 21.333333 0 0 1-15.957334-35.498667l123.178667-138.56a21.333333 21.333333 0 0 1 31.872 0z" p-id="18728"></path><path d="M469.333333 405.333333m21.333334 0l42.666666 0q21.333333 0 21.333334 21.333334l0 170.666666q0 21.333333-21.333334 21.333334l-42.666666 0q-21.333333 0-21.333334-21.333334l0-170.666666q0-21.333333 21.333334-21.333334Z" p-id="18729"></path></svg>