<?xml version="1.0" standalone="no"?><!DOCTYPE svg PUBLIC "-//W3C//DTD SVG 1.1//EN" "http://www.w3.org/Graphics/SVG/1.1/DTD/svg11.dtd"><svg t="1652940206721" class="icon" viewBox="0 0 1024 1024" version="1.1" xmlns="http://www.w3.org/2000/svg" p-id="19136" xmlns:xlink="http://www.w3.org/1999/xlink" width="200" height="200"><defs><style type="text/css">@font-face { font-family: feedback-iconfont; src: url("//at.alicdn.com/t/font_1031158_u69w8yhxdu.woff2?t=1630033759944") format("woff2"), url("//at.alicdn.com/t/font_1031158_u69w8yhxdu.woff?t=1630033759944") format("woff"), url("//at.alicdn.com/t/font_1031158_u69w8yhxdu.ttf?t=1630033759944") format("truetype"); }
</style></defs><path d="M874.1632 874.1632c199.7824-199.808 199.7824-523.9808 0-724.3264-199.808-199.7824-523.9808-199.7824-724.3264 0-199.7824 199.808-199.7824 523.9808 0 724.3264 200.3456 199.7824 524.544 199.7824 724.3264 0zM204.1856 523.9552c0-51.1744 119.424-122.1632 307.0976-122.1632 188.2368 0 307.1232 70.9888 307.1232 122.1888 0 44.032 11.5712 110.08-79.2576 100.1728-90.8032-9.9072-84.736-44.032-84.736-89.728 0-31.9232-73.7792-39.0656-143.104-39.0656-69.9136 0-143.104 7.168-143.104 39.0656 0 45.696 6.0416 79.8208-84.7616 89.728-91.392 9.9072-79.2576-55.6032-79.2576-100.1728z" p-id="19137"></path></svg>