<?xml version="1.0" standalone="no"?><!DOCTYPE svg PUBLIC "-//W3C//DTD SVG 1.1//EN" "http://www.w3.org/Graphics/SVG/1.1/DTD/svg11.dtd"><svg t="1652940240686" class="icon" viewBox="0 0 1024 1024" version="1.1" xmlns="http://www.w3.org/2000/svg" p-id="20082" xmlns:xlink="http://www.w3.org/1999/xlink" width="200" height="200"><defs><style type="text/css">@font-face { font-family: feedback-iconfont; src: url("//at.alicdn.com/t/font_1031158_u69w8yhxdu.woff2?t=1630033759944") format("woff2"), url("//at.alicdn.com/t/font_1031158_u69w8yhxdu.woff?t=1630033759944") format("woff"), url("//at.alicdn.com/t/font_1031158_u69w8yhxdu.ttf?t=1630033759944") format("truetype"); }
</style></defs><path d="M184.896 448a14.229333 14.229333 0 0 0-14.229333 14.229333l0.021333 28.416L170.666667 490.666667l0.021333 1.792-0.021333 12.437333c0 1.92 0.213333 3.84 0.554666 5.653333C180.714667 675.562667 307.413333 809.173333 469.333333 829.354667L469.333333 967.104c0 7.872 6.357333 14.229333 14.229334 14.229333h56.874666a14.229333 14.229333 0 0 0 14.229334-14.229333l-0.021334-36.266667A254.805333 254.805333 0 0 1 512 789.333333c0-14.549333 1.216-28.842667 3.541333-42.730666-1.152 0.064-2.346667 0.064-3.541333 0.064-139.2 0-252.458667-111.125333-255.914667-249.493334L256 492.586667 256 462.229333a14.229333 14.229333 0 0 0-14.229333-14.229333H184.896zM512 42.666667c-94.250667 0-170.666667 79.146667-170.666667 176.768v265.130666C341.333333 582.186667 417.749333 661.333333 512 661.333333c12.586667 0 24.874667-1.408 36.693333-4.096a256.896 256.896 0 0 1 120.661334-104.213333c8.576-21.034667 13.312-44.16 13.312-68.458667V219.434667C682.666667 121.813333 606.250667 42.666667 512 42.666667z m270.229333 405.333333a14.229333 14.229333 0 0 0-14.229333 14.229333v30.208l-0.085333 4.736c-0.298667 12.309333-1.493333 24.405333-3.456 36.224a255.744 255.744 0 0 1 84.352 12.949334c1.92-11.733333 3.264-23.68 3.946666-35.797334 0.384-1.834667 0.576-3.712 0.576-5.653333v-42.666667a14.229333 14.229333 0 0 0-14.229333-14.229333h-56.874667zM768 597.333333a192 192 0 1 1 0 384 192 192 0 0 1 0-384z m-128 192a128 128 0 0 0 193.024 110.272l-175.296-175.296A127.402667 127.402667 0 0 0 640 789.333333z m128-128a127.402667 127.402667 0 0 0-65.024 17.728l175.296 175.296a128 128 0 0 0-106.282667-192.96L768 661.333333z" p-id="20083"></path></svg>