<?xml version="1.0" standalone="no"?><!DOCTYPE svg PUBLIC "-//W3C//DTD SVG 1.1//EN" "http://www.w3.org/Graphics/SVG/1.1/DTD/svg11.dtd"><svg t="1652940202455" class="icon" viewBox="0 0 1024 1024" version="1.1" xmlns="http://www.w3.org/2000/svg" p-id="18998" xmlns:xlink="http://www.w3.org/1999/xlink" width="200" height="200"><defs><style type="text/css">@font-face { font-family: feedback-iconfont; src: url("//at.alicdn.com/t/font_1031158_u69w8yhxdu.woff2?t=1630033759944") format("woff2"), url("//at.alicdn.com/t/font_1031158_u69w8yhxdu.woff?t=1630033759944") format("woff"), url("//at.alicdn.com/t/font_1031158_u69w8yhxdu.ttf?t=1630033759944") format("truetype"); }
</style></defs><path d="M789.333333 64a42.666667 42.666667 0 0 1 42.666667 42.666667v456.064A256.469333 256.469333 0 0 0 768 554.666667V128H256v640h259.541333a257.728 257.728 0 0 0-2.666666 64H437.333333a32 32 0 0 0-3.072 63.850667L437.333333 896h89.237334c8.149333 23.04 19.477333 44.544 33.493333 64H234.666667a42.666667 42.666667 0 0 1-42.666667-42.666667V106.666667a42.666667 42.666667 0 0 1 42.666667-42.666667h554.666666z" p-id="18999"></path><path d="M768 618.666667a192 192 0 1 1 0 384 192 192 0 0 1 0-384z m-128 192a128 128 0 0 0 193.024 110.272l-175.296-175.296A127.402667 127.402667 0 0 0 640 810.666667z m128-128a127.402667 127.402667 0 0 0-65.024 17.728l175.296 175.296a128 128 0 0 0-106.282667-192.96L768 682.666667z" p-id="19000"></path><path d="M527.936 273.92l123.178667 138.581333A21.333333 21.333333 0 0 1 635.157333 448H388.842667a21.333333 21.333333 0 0 1-15.957334-35.498667l123.178667-138.56a21.333333 21.333333 0 0 1 31.872 0z" p-id="19001"></path><path d="M469.333333 405.333333m21.333334 0l42.666666 0q21.333333 0 21.333334 21.333334l0 170.666666q0 21.333333-21.333334 21.333334l-42.666666 0q-21.333333 0-21.333334-21.333334l0-170.666666q0-21.333333 21.333334-21.333334Z" p-id="19002"></path></svg>