<?xml version="1.0" standalone="no"?><!DOCTYPE svg PUBLIC "-//W3C//DTD SVG 1.1//EN" "http://www.w3.org/Graphics/SVG/1.1/DTD/svg11.dtd"><svg t="1652940215500" class="icon" viewBox="0 0 1024 1024" version="1.1" xmlns="http://www.w3.org/2000/svg" p-id="19271" xmlns:xlink="http://www.w3.org/1999/xlink" width="200" height="200"><defs><style type="text/css">@font-face { font-family: feedback-iconfont; src: url("//at.alicdn.com/t/font_1031158_u69w8yhxdu.woff2?t=1630033759944") format("woff2"), url("//at.alicdn.com/t/font_1031158_u69w8yhxdu.woff?t=1630033759944") format("woff"), url("//at.alicdn.com/t/font_1031158_u69w8yhxdu.ttf?t=1630033759944") format("truetype"); }
</style></defs><path d="M750.186667 42.666667a21.333333 21.333333 0 0 1 20.992 17.514666L799.018667 213.333333H1002.666667a21.333333 21.333333 0 0 1 21.333333 21.333334v725.333333a21.333333 21.333333 0 0 1-21.333333 21.333333H21.333333a21.333333 21.333333 0 0 1-21.333333-21.333333V234.666667a21.333333 21.333333 0 0 1 21.333333-21.333334h203.626667l27.861333-153.152A21.333333 21.333333 0 0 1 273.813333 42.666667h476.373334zM951.466667 285.866667H72.533333v622.933333h878.933334V285.866667z m-623.914667 180.693333c3.84 0 7.296 2.048 9.258667 5.248l60.650666 99.776a11.242667 11.242667 0 0 1 0.490667 10.944 10.922667 10.922667 0 0 1-9.685333 6.101333h-27.669334a172.586667 172.586667 0 0 0 28.586667 87.893334l3.776 5.418666 0.896 1.237334 0.853333 1.216a155.264 155.264 0 0 0 42.666667 38.656c4.053333 2.389333 7.594667 4.245333 12.16 6.442666l1.984 1.002667a146.624 146.624 0 0 0 11.498667 4.608l2.496 0.938667c2.453333 0.810667 4.757333 1.450667 8.896 2.496l1.706666 0.448c2.005333 0.554667 2.794667 0.704 3.84 0.96 2.410667 0.490667 4.48 0.853333 9.173334 1.557333l2.133333 0.298667c1.408 0.213333 1.408 0.213333 2.602667 0.341333 4.266667 0.405333 8.32 0.64 12.266666 0.64 30.805333 0.469333 60.586667-9.536 85.994667-29.034667 15.018667-11.562667 35.861333-7.552 46.272 8.704 10.026667 15.744 6.592 37.333333-7.957333 48.554667-36.16 27.733333-78.506667 42.453333-122.176 42.453333-6.634667 0-13.504-0.448-21.504-1.301333-1.194667-0.149333-1.194667-0.149333-2.24-0.362667l-1.941334-0.298666c-1.365333-0.213333-1.365333-0.213333-2.773333-0.341334l-1.834667-0.256-1.109333-0.149333c-2.346667-0.298667-4.245333-0.597333-5.994667-0.938667-1.344-0.256-1.344-0.256-2.346666-0.554666l-1.194667-0.362667c-1.706667-0.341333-3.008-0.64-5.76-1.386667l-2.709333-0.704a227.008 227.008 0 0 1-12.501334-3.541333l-4.437333-1.6c-0.746667-0.32-0.746667-0.32-1.493333-0.554667a228.48 228.48 0 0 1-14.506667-5.802666c-1.109333-0.554667-1.109333-0.554667-2.112-1.002667l-1.792-0.896a204.672 204.672 0 0 1-15.402667-8.149333c-1.109333-0.64-1.109333-0.64-1.493333-0.96a212.522667 212.522667 0 0 1-47.808-39.253334l-1.301333-1.493333a229.632 229.632 0 0 1-12.202667-14.762667c-1.066667-1.386667-1.066667-1.386667-1.92-2.688a175.296 175.296 0 0 0-0.64-0.96l-0.298667-0.448-1.749333-2.346666a130.666667 130.666667 0 0 1-6.144-8.810667c-0.597333-1.002667-0.597333-1.002667-0.853333-1.6a246.506667 246.506667 0 0 1-37.312-123.349333h-27.989334a10.88 10.88 0 0 1-9.706666-6.058667 11.264 11.264 0 0 1 0.448-10.901333l60.714666-99.861334a10.816 10.816 0 0 1 9.194667-5.205333zM516.032 384l2.133333 0.106667c7.253333 0.213333 12.672 0.426667 17.962667 1.002666l4.501333 0.597334c1.344 0.213333 1.344 0.213333 2.453334 0.341333 1.493333 0.213333 1.493333 0.213333 3.157333 0.405333 0.64 0.106667 0.64 0.106667 1.344 0.149334 2.304 0.298667 3.946667 0.490667 5.653333 0.853333 1.194667 0.234667 1.194667 0.234667 2.133334 0.490667l1.557333 0.405333c1.493333 0.298667 2.709333 0.597333 5.205333 1.258667l2.346667 0.597333a181.397333 181.397333 0 0 1 17.109333 5.098667c1.002667 0.341333 1.002667 0.341333 1.898667 0.704 5.76 2.133333 10.453333 3.989333 15.146667 6.101333a214.826667 214.826667 0 0 1 81.92 66.666667c0.597333 0.789333 0.597333 0.789333 0.938666 1.322666 0.149333 0.256 0.362667 0.512 0.64 0.917334 4.373333 5.888 6.506667 8.853333 8.96 12.693333l1.002667 1.856a247.04 247.04 0 0 1 37.162667 123.221333h27.84a10.88 10.88 0 0 1 9.706666 6.037334 11.264 11.264 0 0 1-0.448 10.901333l-60.714666 99.968a10.88 10.88 0 0 1-9.194667 5.205333 10.666667 10.666667 0 0 1-9.258667-5.248l-60.693333-99.861333a11.242667 11.242667 0 0 1-0.512-10.965333 10.88 10.88 0 0 1 9.706667-6.037334h27.648c-1.6-35.114667-13.44-68.16-33.344-94.762666-15.573333-20.608-34.602667-36.309333-55.893334-46.357334-0.426667-0.149333-0.768-0.362667-1.066666-0.512a156.437333 156.437333 0 0 0-11.306667-4.544c-0.746667-0.256-0.746667-0.256-1.386667-0.554666l-1.6-0.597334a136.405333 136.405333 0 0 0-10.026666-2.794666c-0.874667-0.256-0.874667-0.256-1.728-0.448-1.450667-0.362667-1.450667-0.362667-2.773334-0.64a139.541333 139.541333 0 0 0-10.389333-1.770667l-1.386667-0.213333-2.453333-0.341334a136.597333 136.597333 0 0 0-98.218667 28.416c-14.997333 11.541333-35.904 7.552-46.250666-8.704-10.048-15.786667-6.549333-37.418667 8-48.554666 35.946667-27.669333 78.165333-42.218667 121.301333-42.304L516.053333 384z m191.424-268.8H316.522667l-16.298667 89.6h423.530667l-16.298667-89.6z" p-id="19272"></path></svg>