<?xml version="1.0" standalone="no"?><!DOCTYPE svg PUBLIC "-//W3C//DTD SVG 1.1//EN" "http://www.w3.org/Graphics/SVG/1.1/DTD/svg11.dtd"><svg t="1652940160232" class="icon" viewBox="0 0 1024 1024" version="1.1" xmlns="http://www.w3.org/2000/svg" p-id="18052" xmlns:xlink="http://www.w3.org/1999/xlink" width="200" height="200"><defs><style type="text/css">@font-face { font-family: feedback-iconfont; src: url("//at.alicdn.com/t/font_1031158_u69w8yhxdu.woff2?t=1630033759944") format("woff2"), url("//at.alicdn.com/t/font_1031158_u69w8yhxdu.woff?t=1630033759944") format("woff"), url("//at.alicdn.com/t/font_1031158_u69w8yhxdu.ttf?t=1630033759944") format("truetype"); }
</style></defs><path d="M704 170.666667a42.666667 42.666667 0 0 1 42.666667 42.666666v162.112l186.197333-111.701333A32 32 0 0 1 981.333333 291.178667v441.642666a32 32 0 0 1-48.469333 27.434667L746.666667 648.512V810.666667a42.666667 42.666667 0 0 1-42.666667 42.666666H85.333333a42.666667 42.666667 0 0 1-42.666666-42.666666V213.333333a42.666667 42.666667 0 0 1 42.666666-42.666666h618.666667z m-42.666667 85.333333H128v512h533.333333V256z m234.666667 129.365333l-149.333333 89.578667v74.090667l149.333333 89.578666V385.365333z" p-id="18053"></path></svg>