<?xml version="1.0" standalone="no"?><!DOCTYPE svg PUBLIC "-//W3C//DTD SVG 1.1//EN" "http://www.w3.org/Graphics/SVG/1.1/DTD/svg11.dtd"><svg t="1636263707135" class="icon" viewBox="0 0 1024 1024" version="1.1" xmlns="http://www.w3.org/2000/svg" p-id="6893" xmlns:xlink="http://www.w3.org/1999/xlink" width="200" height="200"><defs><style type="text/css"></style></defs><path d="M725.333333 0c47.128576 0 85.333333 38.204757 85.333334 85.333333v853.333334c0 47.128576-38.204757 85.333333-85.333334 85.333333s-85.333333-38.204757-85.333333-85.333333V853.333333h-256v85.333334c0 47.128576-38.204757 85.333333-85.333333 85.333333s-85.333333-38.204757-85.333334-85.333333v-853.333334c0-47.128576 38.204757-85.333333 85.333334-85.333333s85.333333 38.204757 85.333333 85.333333V170.666667h256V85.333333c0-47.128576 38.204757-85.333333 85.333333-85.333333zM170.666667 682.666667v170.666666H106.666667c-47.128576 0-85.333333-38.204757-85.333334-85.333333s38.204757-85.333333 85.333334-85.333333H170.666667z m746.666666 0c47.128576 0 85.333333 38.204757 85.333334 85.333333s-38.204757 85.333333-85.333334 85.333333H853.333333V682.666667z m-256-160.000683h-298.666666v21.333333c0 82.475691 66.859008 149.333333 149.333333 149.333334 81.649664 0 147.993941-65.527808 149.312853-146.863446l0.02048-2.468522v-21.333334zM394.665984 330.667349c-29.454336 0-53.332651 23.87968-53.332651 53.334016 0 29.455701 23.878315 53.334016 53.334016 53.334016 29.454336 0 53.332651-23.87968 53.332651-53.334016 0-29.455701-23.878315-53.334016-53.334016-53.334016z m234.666667 0c-29.454336 0-53.332651 23.87968-53.332651 53.334016 0 29.455701 23.878315 53.334016 53.334016 53.334016 29.454336 0 53.332651-23.87968 53.332651-53.334016 0-29.455701-23.878315-53.334016-53.334016-53.334016zM170.666667 170.666667v170.666666H106.666667c-47.128576 0-85.333333-38.204757-85.333334-85.333333s38.204757-85.333333 85.333334-85.333333H170.666667z m746.666666 0c47.128576 0 85.333333 38.204757 85.333334 85.333333s-38.204757 85.333333-85.333334 85.333333H853.333333V170.666667h64z" fill="#363940" p-id="6894"></path></svg>