<?xml version="1.0" encoding="UTF-8"?>
<svg width="48px" height="48px" viewBox="0 0 48 48" version="1.1" xmlns="http://www.w3.org/2000/svg" xmlns:xlink="http://www.w3.org/1999/xlink">
    <title>编组</title>
    <g id="交互规范" stroke="none" stroke-width="1" fill="none" fill-rule="evenodd">
        <g id="内部浏览器（更多）" transform="translate(-120.000000, -1272.000000)" fill="#363940">
            <g id="刷新" transform="translate(88.000000, 1240.000000)">
                <g id="编组" transform="translate(32.000000, 32.000000)">
                    <path d="M24,2 C32.6130987,2 40.0701514,6.94962105 43.6819627,14.1596676 L40.1037161,15.949402 C37.1487077,10.0499568 31.0473129,6 24,6 C14.0588745,6 6,14.0588745 6,24 C6,33.9411255 14.0588745,42 24,42 C31.0469142,42 37.1480173,37.9505015 40.1032145,32.0515994 L43.6814599,33.8413361 C40.0694593,41.0508383 32.612699,46 24,46 C11.8497355,46 2,36.1502645 2,24 C2,11.8497355 11.8497355,2 24,2 Z" id="形状结合" fill-rule="nonzero"></path>
                    <rect id="矩形" x="33" y="12" width="11" height="4" rx="1"></rect>
                    <rect id="矩形" x="40" y="5" width="4" height="11" rx="1"></rect>
                </g>
            </g>
        </g>
    </g>
</svg>