<?xml version="1.0" encoding="UTF-8"?>
<svg width="48px" height="48px" viewBox="0 0 48 48" version="1.1" xmlns="http://www.w3.org/2000/svg" xmlns:xlink="http://www.w3.org/1999/xlink">
    <title>链接备份</title>
    <g id="交互规范" stroke="none" stroke-width="1" fill="none" fill-rule="evenodd">
        <g id="内部浏览器（更多）备份" transform="translate(-351.000000, -1272.000000)" fill="#363940">
            <g id="编组-4" transform="translate(351.000000, 1272.000000)">
                <g id="链接" transform="translate(1.372583, 1.372583)">
                    <path d="M26.627417,12.627417 L34.627417,12.627417 C40.1502645,12.627417 44.627417,17.1045695 44.627417,22.627417 C44.627417,28.1502645 40.1502645,32.627417 34.627417,32.627417 L30.627417,32.627417 C29.5228475,32.627417 28.627417,31.7319865 28.627417,30.627417 C28.627417,29.5228475 29.5228475,28.627417 30.627417,28.627417 L30.627417,28.627417 L34.627417,28.627417 C37.9411255,28.627417 40.627417,25.9411255 40.627417,22.627417 C40.627417,19.3890201 38.0618421,16.7498452 34.8523553,16.6315555 L34.627417,16.627417 L26.627417,16.627417 C23.3890201,16.627417 20.7498452,19.1929919 20.6315555,22.4024787 L20.627417,22.627417 C20.627417,23.7319865 19.7319865,24.627417 18.627417,24.627417 C17.5228475,24.627417 16.627417,23.7319865 16.627417,22.627417 L16.627417,22.627417 C16.627417,17.1045695 21.1045695,12.627417 26.627417,12.627417 Z M14.627417,12.627417 C15.7319865,12.627417 16.627417,13.5228475 16.627417,14.627417 C16.627417,15.7319865 15.7319865,16.627417 14.627417,16.627417 L14.627417,16.627417 L10.627417,16.627417 C7.3137085,16.627417 4.627417,19.3137085 4.627417,22.627417 C4.627417,25.8658139 7.19299189,28.5049888 10.4024787,28.6232785 L10.627417,28.627417 L18.627417,28.627417 C21.9411255,28.627417 24.627417,25.9411255 24.627417,22.627417 L24.6329027,22.4781547 C24.7092519,21.4432948 25.5730552,20.627417 26.627417,20.627417 C27.7319865,20.627417 28.627417,21.5228475 28.627417,22.627417 L28.627417,22.627417 C28.627417,28.1502645 24.1502645,32.627417 18.627417,32.627417 L10.627417,32.627417 C5.1045695,32.627417 0.627416998,28.1502645 0.627416998,22.627417 C0.627416998,17.1045695 5.1045695,12.627417 10.627417,12.627417 Z" id="形状结合" transform="translate(22.627417, 22.627417) rotate(-45.000000) translate(-22.627417, -22.627417) "></path>
                </g>
            </g>
        </g>
    </g>
</svg>