<?xml version="1.0" standalone="no"?><!DOCTYPE svg PUBLIC "-//W3C//DTD SVG 1.1//EN"
        "http://www.w3.org/Graphics/SVG/1.1/DTD/svg11.dtd">
<svg class="icon" width="200px" height="200.00px" viewBox="0 0 1024 1024" version="1.1"
     xmlns="http://www.w3.org/2000/svg">
    <path d="M424.426667 85.333333a21.333333 21.333333 0 0 1 21.226666 23.466667L428.8 277.333333h213.312l17.301333-172.8a21.333333 21.333333 0 0 1 21.226667-19.2h42.453333a21.333333 21.333333 0 0 1 21.226667 23.466667L727.466667 277.333333H874.666667a21.333333 21.333333 0 0 1 21.333333 21.333334v42.666666a21.333333 21.333333 0 0 1-21.333333 21.333334h-155.733334l-29.866666 298.666666H832a21.333333 21.333333 0 0 1 21.333333 21.333334v42.666666a21.333333 21.333333 0 0 1-21.333333 21.333334h-151.466667l-17.28 172.8a21.333333 21.333333 0 0 1-21.226666 19.2h-42.453334a21.333333 21.333333 0 0 1-21.226666-23.466667l16.832-168.533333H381.866667l-17.28 172.8a21.333333 21.333333 0 0 1-21.226667 19.2h-42.453333a21.333333 21.333333 0 0 1-21.226667-23.466667l16.832-168.533333H149.333333a21.333333 21.333333 0 0 1-21.333333-21.333334v-42.666666a21.333333 21.333333 0 0 1 21.333333-21.333334h155.712l29.866667-298.666666H192a21.333333 21.333333 0 0 1-21.333333-21.333334v-42.666666a21.333333 21.333333 0 0 1 21.333333-21.333334h151.445333l17.301334-172.8a21.333333 21.333333 0 0 1 21.226666-19.2h42.453334z m179.285333 576l29.866667-298.666666H420.266667l-29.866667 298.666666h213.312z"
          fill="#363940"/>
</svg>