<?xml version="1.0" standalone="no"?><!DOCTYPE svg PUBLIC "-//W3C//DTD SVG 1.1//EN" "http://www.w3.org/Graphics/SVG/1.1/DTD/svg11.dtd"><svg class="icon" width="200px" height="200.00px" viewBox="0 0 1024 1024" version="1.1" xmlns="http://www.w3.org/2000/svg"><path d="M778.666667 64a10.666667 10.666667 0 0 1 10.666666 10.666667v32a10.666667 10.666667 0 0 1-10.666666 10.666666h-74.666667v309.333334l237.994667 330.538666c41.301333 57.376 28.277333 137.365333-29.088 178.666667A128 128 0 0 1 838.112 960H185.888c-70.698667 0-128-57.312-128-128a128 128 0 0 1 24.117333-74.794667L320 426.666667V117.333333h-74.666667a10.666667 10.666667 0 0 1-10.666666-10.666666V74.666667a10.666667 10.666667 0 0 1 10.666666-10.666667h533.333334z m-128 53.333333H373.333333v326.538667L125.290667 788.373333a74.666667 74.666667 0 0 0 58.026666 118.250667l2.56 0.042667h652.234667A74.666667 74.666667 0 0 0 900.266667 790.613333l-1.557334-2.24L650.666667 443.872V117.333333z" fill="#363940" /></svg>