<?xml version="1.0" standalone="no"?><!DOCTYPE svg PUBLIC "-//W3C//DTD SVG 1.1//EN" "http://www.w3.org/Graphics/SVG/1.1/DTD/svg11.dtd"><svg class="icon" width="200px" height="200.00px" viewBox="0 0 1024 1024" version="1.1" xmlns="http://www.w3.org/2000/svg"><path fill="#333333" d="M426.666667 64v85.333333h-64a64 64 0 0 0-63.893334 60.245334L298.666667 213.333333v192c0 41.792-17.173333 79.573333-44.842667 106.666667a148.757333 148.757333 0 0 1 44.693333 100.096L298.666667 618.666667v192l0.106666 3.754666a64 64 0 0 0 60.138667 60.138667L362.666667 874.666667h64v85.333333h-64a149.333333 149.333333 0 0 1-149.248-144.213333L213.333333 810.666667v-192l-0.106666-3.754667a64 64 0 0 0-60.138667-60.138667L149.333333 554.666667H128v-85.333334h21.333333a64 64 0 0 0 63.893334-60.245333L213.333333 405.333333v-192a149.333333 149.333333 0 0 1 149.333334-149.333333h64z m234.666666 0a149.333333 149.333333 0 0 1 149.333334 149.333333v192l0.106666 3.754667A64 64 0 0 0 874.666667 469.333333h21.333333v85.333334h-21.333333l-3.754667 0.106666a64 64 0 0 0-60.138667 60.138667L810.666667 618.666667v192l-0.085334 5.12A149.333333 149.333333 0 0 1 661.333333 960h-64v-85.333333h64l3.754667-0.106667a64 64 0 0 0 60.138667-60.138667L725.333333 810.666667v-192l0.149334-6.570667a148.757333 148.757333 0 0 1 44.693333-100.074667A148.885333 148.885333 0 0 1 725.333333 405.333333v-192l-0.106666-3.754666A64 64 0 0 0 661.333333 149.333333h-64V64z"  /></svg>