<?xml version="1.0" standalone="no"?><!DOCTYPE svg PUBLIC "-//W3C//DTD SVG 1.1//EN" "http://www.w3.org/Graphics/SVG/1.1/DTD/svg11.dtd"><svg class="icon" width="200px" height="200.00px" viewBox="0 0 1024 1024" version="1.1" xmlns="http://www.w3.org/2000/svg"><path fill="#333333" d="M896 85.333333a42.666667 42.666667 0 0 1 42.666667 42.666667v768a42.666667 42.666667 0 0 1-42.666667 42.666667H128a42.666667 42.666667 0 0 1-42.666667-42.666667V128a42.666667 42.666667 0 0 1 42.666667-42.666667h768z m-42.666667 85.333334H170.666667v682.666666h682.666666V170.666667z m-450.645333 149.333333l44.373333 61.077333a150.634667 150.634667 0 0 0-71.850666 109.610667L448 490.666667a21.333333 21.333333 0 0 1 21.333333 21.333333v128a21.333333 21.333333 0 0 1-21.333333 21.333333h-128a21.333333 21.333333 0 0 1-21.333333-21.333333v-129.792A225.706667 225.706667 0 0 1 402.688 320z m256 0l44.373333 61.077333a150.634667 150.634667 0 0 0-71.850666 109.610667L704 490.666667a21.333333 21.333333 0 0 1 21.333333 21.333333v128a21.333333 21.333333 0 0 1-21.333333 21.333333h-128a21.333333 21.333333 0 0 1-21.333333-21.333333v-129.792A225.706667 225.706667 0 0 1 658.688 320z"  /></svg>