<?xml version="1.0" standalone="no"?><!DOCTYPE svg PUBLIC "-//W3C//DTD SVG 1.1//EN" "http://www.w3.org/Graphics/SVG/1.1/DTD/svg11.dtd"><svg class="icon" width="200px" height="200.00px" viewBox="0 0 1024 1024" version="1.1" xmlns="http://www.w3.org/2000/svg"><path fill="#333333" d="M832 853.333333a21.333333 21.333333 0 0 1 21.333333 21.333334v42.666666a21.333333 21.333333 0 0 1-21.333333 21.333334H192a21.333333 21.333333 0 0 1-21.333333-21.333334v-42.666666a21.333333 21.333333 0 0 1 21.333333-21.333334h640zM725.333333 106.666667a21.333333 21.333333 0 0 1 21.333334-21.333334h42.666666a21.333333 21.333333 0 0 1 21.333334 21.333334v362.666666c0 164.949333-133.717333 298.666667-298.666667 298.666667s-298.666667-133.717333-298.666667-298.666667V106.666667a21.333333 21.333333 0 0 1 21.333334-21.333334h42.666666a21.333333 21.333333 0 0 1 21.333334 21.333334v362.666666c0 115.84 92.309333 210.090667 207.36 213.248L512 682.666667c115.84 0 210.090667-92.309333 213.248-207.36L725.333333 469.333333V106.666667z"  /></svg>