<?xml version="1.0" standalone="no"?><!DOCTYPE svg PUBLIC "-//W3C//DTD SVG 1.1//EN" "http://www.w3.org/Graphics/SVG/1.1/DTD/svg11.dtd"><svg class="icon" width="200px" height="200.00px" viewBox="0 0 1024 1024" version="1.1" xmlns="http://www.w3.org/2000/svg"><path fill="#333333" d="M146.090667 759.466667c10.922667 0 20.693333 2.048 29.312 6.144 8.618667 4.096 15.317333 9.685333 20.096 16.768 4.778667 7.082667 7.168 15.061333 7.168 23.936 0 9.386667-2.176 17.408-6.528 24.064-4.352 6.656-9.6 11.52-15.744 14.592v2.048l3.562666 1.578666c6.912 3.413333 12.629333 8.256 17.173334 14.549334 5.290667 7.338667 7.936 16.213333 7.936 26.624 0 10.069333-2.56 19.114667-7.68 27.136s-12.330667 14.336-21.632 18.944c-9.301333 4.608-20.010667 6.912-32.128 6.912-14.848 0-27.946667-3.925333-39.296-11.776-11.349333-7.850667-19.157333-19.285333-23.424-34.304l31.744-12.544 0.981333 3.456c2.133333 6.698667 5.482667 11.989333 10.026667 15.872 5.290667 4.522667 11.946667 6.784 19.968 6.784 7.338667 0 13.696-2.218667 19.072-6.656a20.970667 20.970667 0 0 0 8.064-16.896 20.906667 20.906667 0 0 0-8.576-17.536c-5.717333-4.352-13.44-6.528-23.168-6.528h-15.104v-30.464h13.824l3.648-0.149334c5.952-0.533333 11.093333-2.346667 15.424-5.482666 5.205333-3.754667 7.808-9.216 7.808-16.384 0-5.802667-2.133333-10.581333-6.4-14.336-4.266667-3.754667-9.728-5.632-16.384-5.632-6.997333 0-12.629333 1.877333-16.896 5.632-4.266667 3.754667-7.253333 8.448-8.96 14.08l-30.464-12.544 1.493333-3.776c3.797333-8.661333 9.92-16.277333 18.346667-22.848 9.642667-7.509333 21.888-11.264 36.736-11.264zM917.333333 810.666667a21.333333 21.333333 0 0 1 21.333334 21.333333v42.666667a21.333333 21.333333 0 0 1-21.333334 21.333333H320a21.333333 21.333333 0 0 1-21.333333-21.333333v-42.666667a21.333333 21.333333 0 0 1 21.333333-21.333333h597.333333zM144.042667 418.133333c11.605333 0 21.76 2.261333 30.464 6.784 8.704 4.522667 15.445333 10.666667 20.224 18.432 4.778667 7.765333 7.168 16.426667 7.168 25.984 0 18.944-9.216 37.461333-27.648 55.552-5.909333 5.76-15.744 15.530667-29.546667 29.312l-12.181333 12.16 0.768 1.536h70.912V597.333333H87.978667v-30.464l32.64-32.64a1631.232 1631.232 0 0 0 31.104-31.616c6.144-6.656 10.368-12.202667 12.672-16.64 2.304-4.437333 3.456-9.472 3.456-15.104a19.754667 19.754667 0 0 0-6.656-15.104c-4.437333-4.096-10.325333-6.144-17.664-6.144-7.168 0-12.970667 2.048-17.408 6.144a33.962667 33.962667 0 0 0-9.472 15.36l-30.208-12.544 1.322666-3.968a56.661333 56.661333 0 0 1 28.629334-30.592 62.122667 62.122667 0 0 1 27.648-5.888zM917.333333 469.333333a21.333333 21.333333 0 0 1 21.333334 21.333334v42.666666a21.333333 21.333333 0 0 1-21.333334 21.333334H320a21.333333 21.333333 0 0 1-21.333333-21.333334v-42.666666a21.333333 21.333333 0 0 1 21.333333-21.333334h597.333333zM173.909333 80.896V256H140.373333V124.672l-26.368 19.2-16.896-25.856 51.456-37.12h25.344zM917.333333 128a21.333333 21.333333 0 0 1 21.333334 21.333333v42.666667a21.333333 21.333333 0 0 1-21.333334 21.333333H320a21.333333 21.333333 0 0 1-21.333333-21.333333V149.333333a21.333333 21.333333 0 0 1 21.333333-21.333333h597.333333z"  /></svg>