<?xml version="1.0" standalone="no"?><!DOCTYPE svg PUBLIC "-//W3C//DTD SVG 1.1//EN" "http://www.w3.org/Graphics/SVG/1.1/DTD/svg11.dtd"><svg class="icon" width="200px" height="200.00px" viewBox="0 0 1024 1024" version="1.1" xmlns="http://www.w3.org/2000/svg"><path fill="#333333" d="M931.242667 349.248V896H852.906667V432.128l-77.653334 57.002667v-83.264l77.653334-56.618667h78.357333zM640 874.666667a21.333333 21.333333 0 0 1-21.333333 21.333333h-42.666667a21.333333 21.333333 0 0 1-21.333333-21.333333V554.666667H170.666667v320a21.333333 21.333333 0 0 1-21.333334 21.333333H106.666667a21.333333 21.333333 0 0 1-21.333334-21.333333V149.333333a21.333333 21.333333 0 0 1 21.333334-21.333333h42.666666a21.333333 21.333333 0 0 1 21.333334 21.333333v320h384V149.333333a21.333333 21.333333 0 0 1 21.333333-21.333333h42.666667a21.333333 21.333333 0 0 1 21.333333 21.333333v725.333334z"  /></svg>