<?xml version="1.0" standalone="no"?><!DOCTYPE svg PUBLIC "-//W3C//DTD SVG 1.1//EN" "http://www.w3.org/Graphics/SVG/1.1/DTD/svg11.dtd"><svg class="icon" width="200px" height="200.00px" viewBox="0 0 1024 1024" version="1.1" xmlns="http://www.w3.org/2000/svg"><path fill="#333333" d="M298.666667 661.333333v21.333334a170.666667 170.666667 0 0 0 165.333333 170.581333L469.333333 853.333333h85.333334a170.666667 170.666667 0 0 0 170.581333-165.333333L725.333333 682.666667v-21.333334h85.333334v21.333334c0 141.376-114.624 256-256 256h-85.333334c-141.376 0-256-114.624-256-256v-21.333334h85.333334z m618.666666-170.666666a21.333333 21.333333 0 0 1 21.333334 21.333333v42.666667a21.333333 21.333333 0 0 1-21.333334 21.333333H106.666667a21.333333 21.333333 0 0 1-21.333334-21.333333v-42.666667a21.333333 21.333333 0 0 1 21.333334-21.333333h810.666666zM554.666667 85.333333c141.376 0 256 114.624 256 256v64h-85.333334v-64a170.666667 170.666667 0 0 0-165.333333-170.581333L554.666667 170.666667h-85.333334a170.666667 170.666667 0 0 0-170.581333 165.333333L298.666667 341.333333v64h-85.333334v-64c0-141.376 114.624-256 256-256h85.333334z"  /></svg>