<?xml version="1.0" standalone="no"?><!DOCTYPE svg PUBLIC "-//W3C//DTD SVG 1.1//EN" "http://www.w3.org/Graphics/SVG/1.1/DTD/svg11.dtd"><svg class="icon" width="200px" height="200.00px" viewBox="0 0 1024 1024" version="1.1" xmlns="http://www.w3.org/2000/svg"><path fill="#333333" d="M234.666667 128h298.666666c117.824 0 213.333333 95.509333 213.333334 213.333333a212.736 212.736 0 0 1-66.752 154.986667A213.205333 213.205333 0 0 1 789.333333 682.666667c0 117.824-95.509333 213.333333-213.333333 213.333333H234.666667V128z m341.333333 426.666667H320v256h256a128 128 0 0 0 4.8-255.914667L576 554.666667z m-42.666667-341.333334H320v256h213.333333a128 128 0 0 0 4.8-255.914666L533.333333 213.333333z"  /></svg>