<?xml version="1.0" standalone="no"?><!DOCTYPE svg PUBLIC "-//W3C//DTD SVG 1.1//EN" "http://www.w3.org/Graphics/SVG/1.1/DTD/svg11.dtd"><svg class="icon" width="200px" height="200.00px" viewBox="0 0 1024 1024" version="1.1" xmlns="http://www.w3.org/2000/svg"><path fill="#333333" d="M816.64 344.746667c46.976 0.512 85.12 15.509333 114.346667 45.013333 29.76 29.226667 44.885333 66.346667 45.397333 111.36 0 36.010667-11.008 68.010667-33.002667 96l-175.872 220.501333h208.853334V896H664.746667v-73.877333l213.376-267.008c8.256-10.730667 13.866667-20.736 16.874666-29.994667 2.005333-8.746667 2.986667-17.002667 2.986667-24.746667 0-20.48-6.357333-38.378667-19.114667-53.632-13.226667-15.232-32-23.125333-56.234666-23.616-21.504 0-39.381333 6.869333-53.632 20.629334-14.762667 13.738667-23.509333 33.130667-26.24 58.112H664.746667c2.005333-45.482667 17.258667-83.114667 45.76-112.853334 28.736-29.013333 64.128-43.754667 106.112-44.266666zM597.333333 874.666667a21.333333 21.333333 0 0 1-21.333333 21.333333h-42.666667a21.333333 21.333333 0 0 1-21.333333-21.333333V554.666667H128v320a21.333333 21.333333 0 0 1-21.333333 21.333333H64a21.333333 21.333333 0 0 1-21.333333-21.333333V149.333333a21.333333 21.333333 0 0 1 21.333333-21.333333h42.666667a21.333333 21.333333 0 0 1 21.333333 21.333333v320h384V149.333333a21.333333 21.333333 0 0 1 21.333333-21.333333h42.666667a21.333333 21.333333 0 0 1 21.333333 21.333333v725.333334z"  /></svg>