<?xml version="1.0" standalone="no"?><!DOCTYPE svg PUBLIC "-//W3C//DTD SVG 1.1//EN" "http://www.w3.org/Graphics/SVG/1.1/DTD/svg11.dtd"><svg class="icon" width="200px" height="200.00px" viewBox="0 0 1024 1024" version="1.1" xmlns="http://www.w3.org/2000/svg"><path fill="#333333" d="M824.832 344.746667c49.749333 0.512 89.258667 16.384 118.506667 47.637333 27.989333 30.506667 42.24 66.496 42.752 107.989333 0 20.992-3.754667 41.258667-11.264 60.757334-8.746667 19.498667-24.362667 36.864-46.869334 52.117333 22.997333 14.997333 39.616 33.002667 49.877334 53.994667 9.749333 21.013333 14.613333 43.008 14.613333 66.005333-0.490667 51.242667-16.362667 91.626667-47.616 121.130667-30.741333 30.250667-70.250667 45.632-118.506667 46.122666-37.248 0-70.250667-12.010667-98.986666-36.010666-28.757333-24-47.381333-58.730667-55.893334-104.234667h78.378667c7.018667 18.24 16.874667 33.002667 29.653333 44.245333 12.970667 11.733333 30.229333 17.621333 51.733334 17.621334 22.997333 0 42.368-7.872 58.112-23.616 16-14.762667 24.256-35.754667 24.746666-62.997334-0.490667-27.754667-8.746667-49.258667-24.746666-64.512-15.744-14.741333-35.733333-22.122667-59.989334-22.122666h-33.002666v-69.376h27.008c26.752 0 47.488-7.381333 62.250666-22.122667 14.741333-14.250667 22.122667-32.746667 22.122667-55.509333-0.512-22.997333-8.128-41.856-22.869333-56.618667-14.762667-14.250667-33.749333-21.632-57.002667-22.122667-16.746667 0-32 5.376-45.76 16.128-14.506667 10.752-24.256 27.370667-29.226667 49.877334h-78.4c4.010667-40.512 20.373333-74.624 49.130667-102.4 28.245333-27.477333 61.994667-41.472 101.248-41.984zM597.333333 874.666667a21.333333 21.333333 0 0 1-21.333333 21.333333h-42.666667a21.333333 21.333333 0 0 1-21.333333-21.333333V554.666667H128v320a21.333333 21.333333 0 0 1-21.333333 21.333333H64a21.333333 21.333333 0 0 1-21.333333-21.333333V149.333333a21.333333 21.333333 0 0 1 21.333333-21.333333h42.666667a21.333333 21.333333 0 0 1 21.333333 21.333333v320h384V149.333333a21.333333 21.333333 0 0 1 21.333333-21.333333h42.666667a21.333333 21.333333 0 0 1 21.333333 21.333333v725.333334z"  /></svg>