<svg height="64" viewBox="0 0 292 64" width="292" xmlns="http://www.w3.org/2000/svg"><g fill="none" fill-rule="evenodd"><path d="m0 0h64v64h-64z"/><path d="m44 0c2.9455187 0 5.3333333 2.38781467 5.3333333 5.33333333v53.33333337c0 2.9455186-2.3878146 5.3333333-5.3333333 5.3333333s-5.3333333-2.3878147-5.3333333-5.3333333l-.0006667-5.3336667h-16l.0006667 5.3336667c0 2.9455186-2.3878147 5.3333333-5.3333334 5.3333333-2.9455186 0-5.3333333-2.3878147-5.3333333-5.3333333v-53.33333337c0-2.94551866 2.3878147-5.33333333 5.3333333-5.33333333 2.9455187 0 5.3333334 2.38781467 5.3333334 5.33333333l-.0006667 5.33266667h16l.0006667-5.33266667c0-2.94551866 2.3878146-5.33333333 5.3333333-5.33333333zm-34.66666667 42.6666667v10.6666666h-4c-2.94551866 0-5.33333333-2.3878146-5.33333333-5.3333333s2.38781467-5.3333333 5.33333333-5.3333333zm46.66666667 0c2.9455187 0 5.3333333 2.3878146 5.3333333 5.3333333 0 2.8718807-2.2699163 5.213594-5.1134937 5.3288848l-.2198396.0044485h-4v-10.6666666zm-16-10h-18.6666667v1.3333333c0 5.1546577 4.1786757 9.3333333 9.3333334 9.3333333 5.1546576 0 9.3333333-4.1786756 9.3333333-9.3333333zm-16.6666667-12c-1.8409491 0-3.3333333 1.4923841-3.3333333 3.3333333s1.4923842 3.3333333 3.3333333 3.3333333c1.8409492 0 3.3333334-1.4923841 3.3333334-3.3333333s-1.4923842-3.3333333-3.3333334-3.3333333zm14.6666667 0c-1.8409492 0-3.3333333 1.4923841-3.3333333 3.3333333s1.4923841 3.3333333 3.3333333 3.3333333 3.3333333-1.4923841 3.3333333-3.3333333-1.4923841-3.3333333-3.3333333-3.3333333zm-28.66666667-10v10.6666666h-4c-2.94551866 0-5.33333333-2.3878146-5.33333333-5.3333333 0-2.8718807 2.26991632-5.213594 5.11349372-5.3288848l.21983961-.0044485zm46.66666667 0c2.9455187 0 5.3333333 2.3878146 5.3333333 5.3333333s-2.3878146 5.3333333-5.3333333 5.3333333h-4v-10.6666666z" fill="#6179f2" transform="translate(1.333333)"/><path d="m93.751623 51.4136393v-15.7042703h13.29911v-6.016571h-13.29911v-9.30529h15.379418v-5.9910772h-23.131041v37.0172085zm26.276268.4079031c1.551976 0 3.009017-.3101763 4.371123-.930529s2.588002-1.5253877 3.677687-2.7151052l.866795 3.2377311h6.290454v-16.749522c0-3.6201402-.998877-6.3819843-2.996633-8.2855322s-4.870562-2.8553219-8.618418-2.8553219c-1.684059 0-3.491945.1997026-5.42366.5991077-1.931714.3994052-3.772621.964521-5.522722 1.6953474l1.609762 5.2772466c1.221768-.5438708 2.59213-.9900148 4.111085-1.3384321 1.518955-.3484172 2.856295-.5226259 4.012022-.5226259 3.384628 0 5.126473 1.5806246 5.225535 4.7418739v.6883365h-3.24429c-4.193636 0-7.458563.7988103-9.794782 2.3964308-2.336219 1.5976206-3.504328 3.8240918-3.504328 6.6794137 0 2.4644147.804881 4.4274484 2.414643 5.8891013s3.785004 2.1924793 6.525727 2.1924793zm1.95648-5.0987891c-1.205257 0-2.138094-.2931803-2.798509-.8795411-.660415-.5863607-.990623-1.4404079-.990623-2.5621415 0-1.359677.598501-2.4219247 1.795504-3.1867431 1.197002-.7648184 2.876934-1.1472275 5.039793-1.1472275h2.600385v5.0478011c-.676926.8328022-1.514827 1.4956448-2.513705 1.9885277-.998878.492883-2.04316.7393244-3.132845.7393244zm27.341188 4.690886v-19.1204589c.643905-.9687699 1.494189-1.7378373 2.550854-2.3072021 1.056664-.5693647 2.19588-.8540471 3.417648-.8540471 1.353851 0 2.336219.3569152 2.947103 1.0707457.610884.7138304.916326 1.8695559.916326 3.4671765v17.7437859h7.603029v-18.177183c0-3.0592734-.751222-5.4259613-2.253666-7.1000637-1.502445-1.6741024-3.640539-2.5111536-6.414283-2.5111536-3.813897 0-6.893083 1.410665-9.237557 4.2319949l-.817264-3.7985978h-6.339985v27.3550032zm36.207261.3569152c4.490824 0 8.024045-1.3044402 10.599664-3.9133206s3.863428-6.1737837 3.863428-10.69471c0-4.2829828-1.023643-7.6099426-3.07093-9.9808795s-4.911838-3.5564054-8.593652-3.5564054c-2.806765 0-5.192515 1.0112598-7.15725 3.0337795v-14.5060548h-7.603029v37.9094965c1.33734.5098789 3.091568.922031 5.262683 1.2364563s4.404144.471638 6.699086.471638zm-.346718-5.3282346c-1.551975.016996-2.889316-.2039515-4.012022-.6628425v-12.2115998c.330208-1.3256851.994751-2.3879328 1.993629-3.1867431s2.191752-1.1982154 3.578624-1.1982154c1.799632 0 3.169993.6925855 4.111085 2.0777565.941091 1.385171 1.411637 3.4374336 1.411637 6.1567878 0 2.9572976-.606756 5.2007648-1.820269 6.7304015s-2.967741 2.294455-5.262684 2.294455zm31.526569 5.5576801c4.375251 0 7.726858-1.2407053 10.054821-3.722116 2.327964-2.4814107 3.491945-6.0165711 3.491945-10.6054812s-1.163981-8.1113236-3.491945-10.5672403c-2.327963-2.4559167-5.67957-3.6838751-10.054821-3.6838751-4.35874 0-7.702092 1.2279584-10.030055 3.6838751s-3.491945 5.9783302-3.491945 10.5672403c0 4.6059061 1.172237 8.1453155 3.516711 10.6182282 2.344473 2.4729127 5.67957 3.709369 10.005289 3.709369zm0-5.9145953c-3.91296 0-5.869439-2.804334-5.869439-8.4130019s1.956479-8.4045039 5.869439-8.387585c3.929471-.0169189 5.894206 2.7789171 5.894206 8.387585s-1.964735 8.4130019-5.894206 8.4130019zm30.313056 5.9145953c4.375251 0 7.726858-1.2407053 10.054821-3.722116 2.327964-2.4814107 3.491945-6.0165711 3.491945-10.6054812s-1.163981-8.1113236-3.491945-10.5672403c-2.327963-2.4559167-5.67957-3.6838751-10.054821-3.6838751-4.35874 0-7.702092 1.2279584-10.030055 3.6838751s-3.491945 5.9783302-3.491945 10.5672403c0 4.6059061 1.172237 8.1453155 3.516711 10.6182282 2.344473 2.4729127 5.67957 3.709369 10.005289 3.709369zm0-5.9145953c-3.91296 0-5.869439-2.804334-5.869439-8.4130019s1.956479-8.4045039 5.869439-8.387585c3.929471-.0169189 5.894206 2.7789171 5.894206 8.387585s-1.964735 8.4130019-5.894206 8.4130019zm26.424862 5.3282346v-39.4136393h-7.627795v39.4136393zm18.549411 0-10.129118-15.4493308 8.568887-11.9056724h-8.073575l-8.420294 12.1606118 9.584276 15.1943914z" fill="#363940" fill-rule="nonzero"/></g></svg>