<?xml version="1.0" standalone="no"?><!DOCTYPE svg PUBLIC "-//W3C//DTD SVG 1.1//EN" "http://www.w3.org/Graphics/SVG/1.1/DTD/svg11.dtd"><svg t="1610778834073" class="icon" viewBox="0 0 1024 1024" version="1.1" xmlns="http://www.w3.org/2000/svg" p-id="10684" xmlns:xlink="http://www.w3.org/1999/xlink" width="200" height="200"><defs><style type="text/css">@font-face { font-family: element-icons; src: url("chrome-extension://moombeodfomdpjnpocobemoiaemednkg/fonts/element-icons.woff") format("woff"), url("chrome-extension://moombeodfomdpjnpocobemoiaemednkg/fonts/element-icons.ttf ") format("truetype"); }
</style></defs><path d="M543.744 73.408a64 64 0 0 1 23.808 23.808l401.728 703.04A64 64 0 0 1 913.728 896H110.272a64 64 0 0 1-55.552-95.744L456.448 97.216a64 64 0 0 1 87.296-23.808zM512 193.472L165.376 800h693.184L512 193.472zM512 384a32 32 0 0 1 31.488 26.24l0.512 5.76v174.4a32 32 0 0 1-63.488 5.76l-0.512-5.76V416A32 32 0 0 1 512 384z" p-id="10685"></path><path d="M512 736.832a32 32 0 1 0 0-64 32 32 0 0 0 0 64z" p-id="10686"></path></svg>