<?xml version="1.0" standalone="no"?><!DOCTYPE svg PUBLIC "-//W3C//DTD SVG 1.1//EN" "http://www.w3.org/Graphics/SVG/1.1/DTD/svg11.dtd"><svg t="1610779747136" class="icon" viewBox="0 0 1024 1024" version="1.1" xmlns="http://www.w3.org/2000/svg" p-id="10810" xmlns:xlink="http://www.w3.org/1999/xlink" width="200" height="200"><defs><style type="text/css">@font-face { font-family: element-icons; src: url("chrome-extension://moombeodfomdpjnpocobemoiaemednkg/fonts/element-icons.woff") format("woff"), url("chrome-extension://moombeodfomdpjnpocobemoiaemednkg/fonts/element-icons.ttf ") format("truetype"); }
</style></defs><path d="M102.4 102.4h819.2v819.2H102.4z" fill="#FFFFFF" fill-opacity=".01" p-id="10811"></path><path d="M836.2496 153.6c17.4592 0 31.3856 13.4656 33.792 30.464l0.3584 5.2224V356.864a35.2256 35.2256 0 0 1-29.0304 35.2768l-5.12 0.4096L358.4 392.4992v102.5536l324.3008 0.1536c8.2944 0 15.1552 5.888 16.7424 13.6704l0.3584 3.4304L699.6992 614.4h136.5504c17.4592 0 31.3856 13.4656 33.792 30.464l0.3584 5.2224v167.5776a35.2256 35.2256 0 0 1-29.0304 35.2768l-5.12 0.4096H187.7504a34.6112 34.6112 0 0 1-33.792-30.5152L153.6 817.664v-167.5776c0-17.6128 12.3392-32.7168 29.0304-35.328l5.12-0.3584h477.7984v-85.0432l-324.1984-0.1536a17.0496 17.0496 0 0 1-16.7424-13.6192l-0.3584-3.4304V392.4992H187.7504a34.6112 34.6112 0 0 1-33.792-30.464L153.6 356.864V189.2864c0-17.6128 12.3392-32.7168 29.0304-35.328l5.12-0.3584h648.4992zM614.4 716.8H409.6l-3.4304 0.3584a17.0496 17.0496 0 0 0 0 33.4336l3.4304 0.3584h204.8l3.4304-0.3584A17.0496 17.0496 0 0 0 614.4 716.8z m0-460.8H409.6l-3.4304 0.3584a17.0496 17.0496 0 0 0 0 33.4336L409.6 290.1504h204.8l3.4304-0.3584A17.0496 17.0496 0 0 0 614.4 256z" fill="#1F2125" p-id="10812"></path></svg>