<?xml version="1.0" standalone="no"?><!DOCTYPE svg PUBLIC "-//W3C//DTD SVG 1.1//EN" "http://www.w3.org/Graphics/SVG/1.1/DTD/svg11.dtd"><svg t="1610439679875" class="icon" viewBox="0 0 1024 1024" version="1.1" xmlns="http://www.w3.org/2000/svg" p-id="2739" xmlns:xlink="http://www.w3.org/1999/xlink" width="200" height="200"><defs><style type="text/css"></style></defs><path d="M789.3504 85.3504c11.776 0 21.2992 9.5232 21.2992 21.2992v42.7008c0 11.776-9.5232 21.2992-21.2992 21.2992h-64v298.7008l81.7152 122.624c2.3552 3.4816 3.584 7.6288 3.584 11.776v57.6c0 11.776-9.5232 21.2992-21.2992 21.2992h-234.7008v234.7008c0 11.776-9.5232 21.2992-21.2992 21.2992h-42.7008a21.3504 21.3504 0 0 1-21.2992-21.2992v-234.7008H234.6496a21.3504 21.3504 0 0 1-21.2992-21.2992v-57.5488c0-4.1984 1.2288-8.3456 3.584-11.8272l81.7152-122.624V170.6496h-64a21.3504 21.3504 0 0 1-21.2992-21.2992v-42.7008c0-11.776 9.5232-21.2992 21.2992-21.2992h554.7008z" p-id="2740"></path></svg>