<?xml version="1.0" standalone="no"?><!DOCTYPE svg PUBLIC "-//W3C//DTD SVG 1.1//EN" "http://www.w3.org/Graphics/SVG/1.1/DTD/svg11.dtd"><svg t="1610439683222" class="icon" viewBox="0 0 1024 1024" version="1.1" xmlns="http://www.w3.org/2000/svg" p-id="2864" xmlns:xlink="http://www.w3.org/1999/xlink" width="200" height="200"><defs><style type="text/css"></style></defs><path d="M533.3504 576a256 256 0 0 1 256 256v21.3504c0 47.104-38.2464 85.2992-85.3504 85.2992H149.3504c-47.104 0-85.3504-38.1952-85.3504-85.2992v-21.3504a256 256 0 0 1 256-256h213.3504zM938.6496 512c11.776 0 21.3504 9.5744 21.3504 21.3504v42.6496c0 11.776-9.5744 21.3504-21.3504 21.3504H768a21.3504 21.3504 0 0 1-21.3504-21.3504v-42.6496c0-11.776 9.5744-21.3504 21.3504-21.3504h170.6496z m-512-426.6496a213.3504 213.3504 0 1 1 0 426.6496 213.3504 213.3504 0 0 1 0-426.6496z m512 256c11.776 0 21.3504 9.5232 21.3504 21.2992v42.7008c0 11.776-9.5744 21.2992-21.3504 21.2992H768a21.3504 21.3504 0 0 1-21.3504-21.2992v-42.7008c0-11.776 9.5744-21.2992 21.3504-21.2992h170.6496z m0-170.7008c11.776 0 21.3504 9.5744 21.3504 21.3504v42.6496c0 11.776-9.5744 21.3504-21.3504 21.3504H768a21.3504 21.3504 0 0 1-21.3504-21.3504V192c0-11.776 9.5744-21.3504 21.3504-21.3504h170.6496z" p-id="2865"></path></svg>