<?xml version="1.0" standalone="no"?><!DOCTYPE svg PUBLIC "-//W3C//DTD SVG 1.1//EN" "http://www.w3.org/Graphics/SVG/1.1/DTD/svg11.dtd"><svg t="1610439677189" class="icon" viewBox="0 0 1024 1024" version="1.1" xmlns="http://www.w3.org/2000/svg" p-id="2614" xmlns:xlink="http://www.w3.org/1999/xlink" width="200" height="200"><defs><style type="text/css"></style></defs><path d="M533.3504 554.6496a256 256 0 0 1 256 256v21.3504c0 47.104-38.2464 85.3504-85.3504 85.3504H149.3504c-47.104 0-85.3504-38.2464-85.3504-85.3504v-21.3504a256 256 0 0 1 256-256h213.3504z m364.8-313.6c11.776 0 21.2992 9.5744 21.2992 21.3504v61.7984l61.9008 0.0512c11.776 0 21.2992 9.5744 21.2992 21.3504v46.9504c0 11.776-9.5232 21.2992-21.2992 21.2992h-61.9008v61.9008c0 11.776-9.5232 21.2992-21.2992 21.2992h-46.9504a21.3504 21.3504 0 0 1-21.3504-21.2992v-61.952L768 413.8496a21.3504 21.3504 0 0 1-21.3504-21.2992v-46.9504c0-11.776 9.5744-21.3504 21.3504-21.3504h61.8496v-61.8496c0-11.776 9.5744-21.3504 21.3504-21.3504h46.9504zM426.6496 64a213.3504 213.3504 0 1 1 0 426.6496 213.3504 213.3504 0 0 1 0-426.6496z" p-id="2615"></path></svg>