<?xml version="1.0" standalone="no"?><!DOCTYPE svg PUBLIC "-//W3C//DTD SVG 1.1//EN" "http://www.w3.org/Graphics/SVG/1.1/DTD/svg11.dtd"><svg t="1609987568119" class="icon" viewBox="0 0 1024 1024" version="1.1" xmlns="http://www.w3.org/2000/svg" p-id="9006" xmlns:xlink="http://www.w3.org/1999/xlink" width="200" height="200"><defs><style type="text/css"></style></defs><path d="M512 0a512 512 0 1 1 0 1024A512 512 0 0 1 512 0z m256.967111 321.194667a37.262222 37.262222 0 0 0-52.679111 0l-291.669333 291.726222-120.604445-120.604445a37.262222 37.262222 0 0 0-52.622222 52.679112l144.839111 144.839111c7.793778 7.793778 18.204444 11.377778 28.387556 10.808889 10.24 0.568889 20.593778-3.015111 28.387555-10.808889l315.960889-315.960889a37.262222 37.262222 0 0 0 0-52.679111z" p-id="9007"></path></svg>