<?xml version="1.0" standalone="no"?><!DOCTYPE svg PUBLIC "-//W3C//DTD SVG 1.1//EN" "http://www.w3.org/Graphics/SVG/1.1/DTD/svg11.dtd"><svg t="1608087729318" class="icon" viewBox="0 0 1024 1024" version="1.1" xmlns="http://www.w3.org/2000/svg" p-id="2890" xmlns:xlink="http://www.w3.org/1999/xlink" width="200" height="200"><defs><style type="text/css">@font-face { font-family: element-icons; src: url("chrome-extension://moombeodfomdpjnpocobemoiaemednkg/fonts/element-icons.woff") format("woff"), url("chrome-extension://moombeodfomdpjnpocobemoiaemednkg/fonts/element-icons.ttf ") format("truetype"); }
</style></defs><path d="M810.6496 128H632.32A128.4608 128.4608 0 0 0 512 42.6496c-55.4496 0-102.4 35.84-120.32 85.3504H213.3504C166.4 128 128 166.4 128 213.3504v597.2992c0 46.9504 38.4 85.3504 85.3504 85.3504h597.2992c46.9504 0 85.3504-38.4 85.3504-85.3504V213.3504c0-46.9504-38.4-85.3504-85.3504-85.3504zM512 128c23.4496 0 42.6496 19.2 42.6496 42.6496a42.8032 42.8032 0 0 1-42.6496 42.7008 42.8032 42.8032 0 0 1-42.6496-42.7008c0-23.4496 19.2-42.6496 42.6496-42.6496z m0 170.6496c70.8096 0 128 57.1904 128 128 0 70.8608-57.1904 128-128 128a127.8464 127.8464 0 0 1-128-128c0-70.8096 57.1904-128 128-128z m256 512H256v-59.6992c0-85.3504 170.6496-132.3008 256-132.3008 85.3504 0 256 46.9504 256 132.3008v59.6992z" p-id="2891"></path></svg>