<?xml version="1.0" standalone="no"?><!DOCTYPE svg PUBLIC "-//W3C//DTD SVG 1.1//EN" "http://www.w3.org/Graphics/SVG/1.1/DTD/svg11.dtd"><svg t="1607500126928" class="icon" viewBox="0 0 1024 1024" version="1.1" xmlns="http://www.w3.org/2000/svg" p-id="2282" xmlns:xlink="http://www.w3.org/1999/xlink" width="200" height="200"><defs><style type="text/css"></style></defs><path d="M268.608 522.88L512 781.056l243.392-258.176a43.072 43.072 0 0 1 63.488 0 49.664 49.664 0 0 1 0 67.328l-275.136 291.84a43.008 43.008 0 0 1-60.288 3.072l-3.2-3.072-275.136-291.84a49.664 49.664 0 0 1 0-67.328 43.072 43.072 0 0 1 63.488 0z m0-380.928L512 400l243.392-258.112a43.072 43.072 0 0 1 63.488 0 49.664 49.664 0 0 1 0 67.328L543.744 501.12a43.008 43.008 0 0 1-60.288 3.072l-3.2-3.072-275.136-291.84a49.664 49.664 0 0 1 0-67.328 43.072 43.072 0 0 1 63.488 0z" p-id="2283"></path></svg>