<?xml version="1.0" standalone="no"?><!DOCTYPE svg PUBLIC "-//W3C//DTD SVG 1.1//EN" "http://www.w3.org/Graphics/SVG/1.1/DTD/svg11.dtd"><svg t="1607500115197" class="icon" viewBox="0 0 1024 1024" version="1.1" xmlns="http://www.w3.org/2000/svg" p-id="2031" xmlns:xlink="http://www.w3.org/1999/xlink" width="200" height="200"><defs><style type="text/css"></style></defs><path d="M832 384a64 64 0 0 1 64 64v384a64 64 0 0 1-64 64H192a64 64 0 0 1-64-64V448a64 64 0 0 1 64-64h640z m-256 320H320v64h256v-64z m128-192H320v64h384V512z" p-id="2032"></path><path d="M557.888 173.312L832 448H192l275.328-274.816a64 64 0 0 1 90.56 0.128z m-45.312 45.184L346.688 384h331.008l-165.12-165.504z" p-id="2033"></path></svg>