<?xml version="1.0" standalone="no"?><!DOCTYPE svg PUBLIC "-//W3C//DTD SVG 1.1//EN" "http://www.w3.org/Graphics/SVG/1.1/DTD/svg11.dtd"><svg t="1607500145501" class="icon" viewBox="0 0 1024 1024" version="1.1" xmlns="http://www.w3.org/2000/svg" p-id="2407" xmlns:xlink="http://www.w3.org/1999/xlink" width="200" height="200"><defs><style type="text/css"></style></defs><path d="M539.5456 85.3504c34.9184 0 66.304 21.248 79.2576 53.6064l23.3984 58.624 58.0608-24.8832a85.3504 85.3504 0 0 1 93.952 18.1248l38.9632 38.9632c24.6784 24.6784 31.8464 61.9008 18.1248 93.952l-24.9344 58.0096 58.6752 23.4496a85.3504 85.3504 0 0 1 53.6064 79.2576v55.0912c0 34.9184-21.248 66.304-53.6064 79.2576l-58.6752 23.3984 24.9344 58.0608 1.6384 4.1984a85.3504 85.3504 0 0 1-16.4864 86.3232l-3.2768 3.4304-38.9632 38.9632-3.2768 3.1232a85.3504 85.3504 0 0 1-86.272 16.7424l-4.4032-1.7408-58.0608-24.9344-23.3984 58.6752a85.3504 85.3504 0 0 1-74.752 53.504l-4.5056 0.1024h-55.0912c-33.3824 0-63.5392-19.456-77.4656-49.4592l-1.792-4.1472-23.4496-58.6752-58.0096 24.9344c-30.72 13.1072-66.048 7.168-90.624-15.0016l-3.328-3.072-38.9632-39.0144a85.3504 85.3504 0 0 1-19.7632-89.7536l1.6384-4.1984 24.8832-58.0608-58.624-23.3984a85.3504 85.3504 0 0 1-53.504-74.752l-0.1024-4.5056v-55.0912c0-33.3824 19.456-63.5392 49.4592-77.4656l4.1472-1.792 58.624-23.4496-24.8832-58.0096c-13.1072-30.72-7.168-66.048 15.0016-90.624l3.072-3.328 39.0144-38.9632a85.3504 85.3504 0 0 1 89.7536-19.7632l4.1984 1.6384 58.0096 24.8832 23.4496-58.624a85.3504 85.3504 0 0 1 79.2576-53.6064h55.0912zM512 384a128 128 0 1 0 0 256 128 128 0 0 0 0-256z" p-id="2408"></path></svg>