<?xml version="1.0" standalone="no"?><!DOCTYPE svg PUBLIC "-//W3C//DTD SVG 1.1//EN" "http://www.w3.org/Graphics/SVG/1.1/DTD/svg11.dtd"><svg t="1609987544200" class="icon" viewBox="0 0 1024 1024" version="1.1" xmlns="http://www.w3.org/2000/svg" p-id="8006" xmlns:xlink="http://www.w3.org/1999/xlink" width="200" height="200"><defs><style type="text/css"></style></defs><path d="M810.6496 128H213.3504C166.4 128 128 166.4 128 213.3504v597.2992c0 46.9504 38.4 85.3504 85.3504 85.3504h597.2992c46.9504 0 85.3504-38.4 85.3504-85.3504V213.3504c0-46.9504-38.4-85.3504-85.3504-85.3504zM341.3504 725.3504a42.8032 42.8032 0 0 1-42.7008-42.7008V469.3504c0-23.5008 19.2-42.7008 42.7008-42.7008 23.4496 0 42.6496 19.2 42.6496 42.7008v213.2992a42.8032 42.8032 0 0 1-42.6496 42.7008z m170.6496 0a42.8032 42.8032 0 0 1-42.6496-42.7008V341.3504c0-23.5008 19.2-42.7008 42.6496-42.7008 23.4496 0 42.6496 19.2 42.6496 42.7008v341.2992a42.8032 42.8032 0 0 1-42.6496 42.7008z m170.6496 0a42.8032 42.8032 0 0 1-42.6496-42.7008v-85.2992c0-23.5008 19.2-42.7008 42.6496-42.7008 23.5008 0 42.7008 19.2 42.7008 42.7008v85.2992a42.8032 42.8032 0 0 1-42.7008 42.7008z" p-id="8007"></path></svg>