<?xml version="1.0" standalone="no"?><!DOCTYPE svg PUBLIC "-//W3C//DTD SVG 1.1//EN" "http://www.w3.org/Graphics/SVG/1.1/DTD/svg11.dtd"><svg t="1605063554152" class="icon" viewBox="0 0 1024 1024" version="1.1" xmlns="http://www.w3.org/2000/svg" p-id="1871" xmlns:xlink="http://www.w3.org/1999/xlink" width="200" height="200"><defs><style type="text/css"></style></defs><path d="M853.312 725.312c23.616 0 42.688 19.136 42.688 42.688v85.312a42.688 42.688 0 0 1-36.352 42.24l-6.336 0.448H170.688A42.688 42.688 0 0 1 128 853.312V768a42.688 42.688 0 0 1 85.312 0v42.624h597.312V768c0-23.552 19.2-42.688 42.688-42.688zM512 128c23.552 0 42.688 19.072 42.688 42.688L554.624 590.08l108.224-108.224a42.688 42.688 0 1 1 60.352 60.288L542.08 723.2a42.688 42.688 0 0 1-60.288 0L300.8 542.08a42.688 42.688 0 0 1 60.352-60.288l108.16 108.032v-419.2C469.312 147.072 488.448 128 512 128z" p-id="1872"></path></svg>