<?xml version="1.0" standalone="no"?><!DOCTYPE svg PUBLIC "-//W3C//DTD SVG 1.1//EN" "http://www.w3.org/Graphics/SVG/1.1/DTD/svg11.dtd"><svg t="1605063543939" class="icon" viewBox="0 0 1024 1024" version="1.1" xmlns="http://www.w3.org/2000/svg" p-id="1246" xmlns:xlink="http://www.w3.org/1999/xlink" width="200" height="200"><defs><style type="text/css"></style></defs><path d="M227.584 600.896c19.584 0 35.52 15.936 35.52 35.52v124.48h124.48a35.584 35.584 0 1 1 0 71.104h-160A35.584 35.584 0 0 1 192 796.416v-160c0-19.584 15.936-35.52 35.584-35.52z m568.832 0c19.648 0 35.584 15.936 35.584 35.52v160a35.584 35.584 0 0 1-35.584 35.584h-160a35.584 35.584 0 0 1 0-71.104h124.48V636.416c0-19.584 15.936-35.52 35.52-35.52z m0-408.896c19.648 0 35.584 15.936 35.584 35.584v160a35.584 35.584 0 0 1-71.104 0V263.04H636.416a35.584 35.584 0 1 1 0-71.104h160zM387.584 192a35.584 35.584 0 1 1 0 71.104H263.04v124.48a35.584 35.584 0 1 1-71.104 0v-160C192 207.936 207.936 192 227.584 192z" p-id="1247"></path></svg>