<?xml version="1.0" standalone="no"?><!DOCTYPE svg PUBLIC "-//W3C//DTD SVG 1.1//EN" "http://www.w3.org/Graphics/SVG/1.1/DTD/svg11.dtd"><svg t="1631967062268" class="icon" viewBox="0 0 1024 1024" version="1.1" xmlns="http://www.w3.org/2000/svg" p-id="6367" xmlns:xlink="http://www.w3.org/1999/xlink" width="200" height="200"><defs><style type="text/css"></style></defs><path d="M864 0v800H176a80 80 0 0 0-79.893333 75.733333l-0.106667 4.266667a80 80 0 0 0 75.733333 79.893333l4.266667 0.106667H928V96h64V1024h-832a128 128 0 0 1-128-128V128a128 128 0 0 1 128-128h704zM647.765333 189.717333l-271.765333 271.786667-105.941333-105.962667-90.517334 90.517334 158.4 158.4 0.213334-0.256 38.08 38.08 362.026666-362.048-90.496-90.517334z" fill="#363940" p-id="6368"></path></svg>