<?xml version="1.0" standalone="no"?><!DOCTYPE svg PUBLIC "-//W3C//DTD SVG 1.1//EN" "http://www.w3.org/Graphics/SVG/1.1/DTD/svg11.dtd"><svg t="1609987541743" class="icon" viewBox="0 0 1024 1024" version="1.1" xmlns="http://www.w3.org/2000/svg" p-id="7881" xmlns:xlink="http://www.w3.org/1999/xlink" width="200" height="200"><defs><style type="text/css"></style></defs><path d="M512 85.3504A426.8032 426.8032 0 0 0 85.3504 512c0 235.52 191.1296 426.6496 426.6496 426.6496S938.6496 747.52 938.6496 512 747.52 85.3504 512 85.3504z m209.0496 575.5392l-59.6992 59.7504a21.1456 21.1456 0 0 1-30.3104 0l-145.5104-145.5104a148.4288 148.4288 0 0 1-154.4192-34.56 147.968 147.968 0 0 1-25.1904-174.8992L406.1696 465.92l60.16-60.16-100.2496-99.84a147.8656 147.8656 0 0 1 174.9504 25.1904c41.7792 41.7792 52.8896 102.4 34.56 154.4192l145.4592 145.5104a21.4016 21.4016 0 0 1 0 29.8496z" p-id="7882"></path></svg>