<?xml version="1.0" standalone="no"?><!DOCTYPE svg PUBLIC "-//W3C//DTD SVG 1.1//EN" "http://www.w3.org/Graphics/SVG/1.1/DTD/svg11.dtd"><svg t="1609987546543" class="icon" viewBox="0 0 1024 1024" version="1.1" xmlns="http://www.w3.org/2000/svg" p-id="8131" xmlns:xlink="http://www.w3.org/1999/xlink" width="200" height="200"><defs><style type="text/css"></style></defs><path d="M512 42.6496a469.3504 469.3504 0 1 1 0 938.7008A469.3504 469.3504 0 0 1 512 42.6496z m170.6496 533.3504H341.3504a170.6496 170.6496 0 1 0 341.2992 0z m-320-213.3504a64 64 0 1 0 0 128 64 64 0 0 0 0-128z m298.7008 0a64 64 0 1 0 0 128 64 64 0 0 0 0-128z" p-id="8132"></path></svg>