<?xml version="1.0" standalone="no"?><!DOCTYPE svg PUBLIC "-//W3C//DTD SVG 1.1//EN" "http://www.w3.org/Graphics/SVG/1.1/DTD/svg11.dtd"><svg t="1609987550756" class="icon" viewBox="0 0 1024 1024" version="1.1" xmlns="http://www.w3.org/2000/svg" p-id="8381" xmlns:xlink="http://www.w3.org/1999/xlink" width="200" height="200"><defs><style type="text/css"></style></defs><path d="M673.6896 554.5984l72.96 0.0512a256 256 0 0 1 256 256v64c0 35.328-28.672 64-64 64h-149.3504v-135.5264a340.48 340.48 0 0 0-115.6096-248.5248z m-67.8912 54.4768l2.048 1.6384a257.28 257.28 0 0 1 34.5088 33.28l0.7168 0.8704a257.0752 257.0752 0 0 1 53.2992 103.6288 253.9008 253.9008 0 0 1 6.5536 38.6048l0.1536 1.4848c0.6144 7.2704 0.9216 14.6432 0.9216 22.0672v64c0 35.328-28.672 64-64 64H85.3504c-35.328 0-64-28.672-64-64v-64a256 256 0 0 1 256-256H448c22.016 0 43.4688 2.816 63.8464 8.0384h0.0512a253.952 253.952 0 0 1 90.2144 43.52l3.6864 2.8672z m55.552-523.776a192 192 0 1 1-82.3808 365.568 275.7632 275.7632 0 0 0 61.0304-173.568c0-65.5872-22.784-125.952-60.928-173.4144a190.2592 190.2592 0 0 1 82.2784-18.5344z m-298.7008 0c60.3648 0 114.176 27.8528 149.4016 71.3728l1.536 1.9456a192.3072 192.3072 0 0 1 39.7312 95.8976 192.512 192.512 0 0 1 1.024 33.8432l0.3072-11.008a194.6112 194.6112 0 0 1-9.1648 58.8288l-0.2048 0.6656A190.5152 190.5152 0 0 1 512 397.9776a192 192 0 1 1-149.4016-312.6272z" p-id="8382"></path></svg>