<?xml version="1.0" standalone="no"?><!DOCTYPE svg PUBLIC "-//W3C//DTD SVG 1.1//EN" "http://www.w3.org/Graphics/SVG/1.1/DTD/svg11.dtd"><svg t="1609987548695" class="icon" viewBox="0 0 1024 1024" version="1.1" xmlns="http://www.w3.org/2000/svg" p-id="8256" xmlns:xlink="http://www.w3.org/1999/xlink" width="200" height="200"><defs><style type="text/css"></style></defs><path d="M128 213.3504v597.2992c0 46.9504 37.9904 85.3504 85.3504 85.3504h597.2992c46.9504 0 85.3504-38.4 85.3504-85.3504V213.3504c0-46.9504-38.4-85.3504-85.3504-85.3504H213.3504c-47.36 0-85.3504 38.4-85.3504 85.3504z m512 170.6496c0 70.8096-57.1904 128-128 128a127.8464 127.8464 0 0 1-128-128C384 313.1904 441.1904 256 512 256s128 57.1904 128 128zM256 725.3504c0-85.3504 170.6496-132.3008 256-132.3008 85.3504 0 256 46.9504 256 132.3008V768H256v-42.6496z" p-id="8257"></path></svg>