<?xml version="1.0" standalone="no"?><!DOCTYPE svg PUBLIC "-//W3C//DTD SVG 1.1//EN" "http://www.w3.org/Graphics/SVG/1.1/DTD/svg11.dtd"><svg t="1609987558853" class="icon" viewBox="0 0 1024 1024" version="1.1" xmlns="http://www.w3.org/2000/svg" p-id="8631" xmlns:xlink="http://www.w3.org/1999/xlink" width="200" height="200"><defs><style type="text/css"></style></defs><path d="M725.3504 298.6496h-128a42.8032 42.8032 0 0 0-42.7008 42.7008c0 23.4496 19.2 42.6496 42.7008 42.6496h128c70.4 0 128 57.6 128 128s-57.6 128-128 128h-128a42.8032 42.8032 0 0 0-42.7008 42.6496c0 23.5008 19.2 42.7008 42.7008 42.7008h128c117.76 0 213.2992-95.5904 213.2992-213.3504s-95.5392-213.3504-213.2992-213.3504zM341.3504 512c0 23.4496 19.2 42.6496 42.6496 42.6496h256a42.8032 42.8032 0 0 0 42.6496-42.6496 42.8032 42.8032 0 0 0-42.6496-42.6496h-256a42.8032 42.8032 0 0 0-42.6496 42.6496z m85.2992 128h-128a128.3584 128.3584 0 0 1-128-128c0-70.4 57.6-128 128-128h128a42.8032 42.8032 0 0 0 42.7008-42.6496 42.8032 42.8032 0 0 0-42.7008-42.7008h-128A213.4016 213.4016 0 0 0 85.3504 512c0 117.76 95.5392 213.3504 213.2992 213.3504h128a42.8032 42.8032 0 0 0 42.7008-42.7008 42.8032 42.8032 0 0 0-42.7008-42.6496z" p-id="8632"></path></svg>