<?xml version="1.0" standalone="no"?><!DOCTYPE svg PUBLIC "-//W3C//DTD SVG 1.1//EN" "http://www.w3.org/Graphics/SVG/1.1/DTD/svg11.dtd"><svg t="1609987576166" class="icon" viewBox="0 0 1024 1024" version="1.1" xmlns="http://www.w3.org/2000/svg" p-id="9381" xmlns:xlink="http://www.w3.org/1999/xlink" width="200" height="200"><defs><style type="text/css"></style></defs><path d="M853.357714 85.357714c47.104 0 85.284571 38.180571 85.284572 85.284572v682.715428c0 47.104-38.180571 85.284571-85.284572 85.284572H170.642286a85.357714 85.357714 0 0 1-85.284572-85.284572V170.642286c0-47.104 38.180571-85.284571 85.284572-85.284572h682.715428zM298.642286 463.725714a42.642286 42.642286 0 0 0-42.642286 42.642286v218.989714c0 23.552 19.090286 42.642286 42.642286 42.642286h328.411428a42.642286 42.642286 0 0 0 23.698286-78.189714l-328.411429-218.916572a42.642286 42.642286 0 0 0-23.698285-7.168zM704 256a64 64 0 1 0 0 128 64 64 0 0 0 0-128z" p-id="9382"></path></svg>