<?xml version="1.0" standalone="no"?><!DOCTYPE svg PUBLIC "-//W3C//DTD SVG 1.1//EN" "http://www.w3.org/Graphics/SVG/1.1/DTD/svg11.dtd"><svg t="1609987524112" class="icon" viewBox="0 0 1024 1024" version="1.1" xmlns="http://www.w3.org/2000/svg" p-id="7256" xmlns:xlink="http://www.w3.org/1999/xlink" width="200" height="200"><defs><style type="text/css"></style></defs><path d="M780.352 439.68h-59.264V290.56C721.088 165.504 627.392 64 512 64 396.672 64 302.848 165.568 302.848 290.56v149.12h-59.2c-28.544 0-51.648 24.96-51.648 55.936v408.32c0 31.04 23.104 56.064 51.648 56.064h536.768c28.544 0 51.584-25.024 51.584-56V495.616c0-30.912-23.104-55.936-51.648-55.936z m-239.36 270.72v89.216c0 4.032-3.008 7.296-6.72 7.36h-44.416c-3.776 0-6.784-3.328-6.848-7.36v-89.152a70.208 70.208 0 0 1-35.264-61.888c0-38.4 28.8-69.632 64.256-69.632 35.52 0 64.32 31.232 64.32 69.632 0 27.136-14.4 50.304-35.264 61.888z m99.84-270.72H383.232V294.208c0-76.928 57.856-139.584 128.896-139.584 71.04 0 128.832 62.656 128.832 139.52V439.68z" p-id="7257"></path></svg>