<?xml version="1.0" standalone="no"?><!DOCTYPE svg PUBLIC "-//W3C//DTD SVG 1.1//EN" "http://www.w3.org/Graphics/SVG/1.1/DTD/svg11.dtd"><svg t="1609987570895" class="icon" viewBox="0 0 1024 1024" version="1.1" xmlns="http://www.w3.org/2000/svg" p-id="9131" xmlns:xlink="http://www.w3.org/1999/xlink" width="200" height="200"><defs><style type="text/css"></style></defs><path d="M797.3888 805.7856l-0.8192 0.8192a412.16 412.16 0 0 1-11.4688 10.6496A408.064 408.064 0 0 1 512 921.6a408.064 408.064 0 0 1-273.152-104.3968v0.0512l-2.4064-2.2016a412.1088 412.1088 0 0 1-5.12-4.7616l7.5776 6.9632a412.1088 412.1088 0 0 1-12.288-11.4688l-8.8576-8.8576a412.16 412.16 0 0 1-11.1616-11.9808l1.1264 1.2288a411.9552 411.9552 0 0 1-81.5616-136.3968A406.528 406.528 0 0 1 102.4 512a409.6 409.6 0 1 1 818.944 14.08L921.6 512a416.6144 416.6144 0 0 1-13.2096 103.5264 406.8352 406.8352 0 0 1-92.1088 170.6496l1.1264-1.2288a412.0576 412.0576 0 0 1-11.1616 11.9808l-8.8576 8.8576zM512 631.4496c-115.712 0-202.24 34.048-259.584 102.144A340.4288 340.4288 0 0 0 512 853.3504c103.936 0 196.9664-46.4384 259.584-119.7056-57.344-68.096-143.872-102.1952-259.584-102.1952z m0-358.4a136.5504 136.5504 0 1 0 0 273.1008 136.5504 136.5504 0 0 0 0-273.1008z" p-id="9132"></path></svg>