<?xml version="1.0" standalone="no"?><!DOCTYPE svg PUBLIC "-//W3C//DTD SVG 1.1//EN" "http://www.w3.org/Graphics/SVG/1.1/DTD/svg11.dtd"><svg t="1610960049927" class="icon" viewBox="0 0 1024 1024" version="1.1" xmlns="http://www.w3.org/2000/svg" p-id="2618" xmlns:xlink="http://www.w3.org/1999/xlink" width="200" height="200"><defs><style type="text/css"></style></defs><path d="M504.0128 57.0368a95.744 95.744 0 0 1 67.1744 0.512l288 104.3456c37.4784 13.4656 62.4128 48.2304 62.4128 86.7328v218.0608c0 234.24-163.6864 452.7616-384 506.112C317.2864 919.4496 153.6 700.928 153.6 466.688V248.6272c0-38.912 24.9344-73.2672 62.4128-87.1936zM716.8 395.6224c0-87.04-87.808-155.4944-186.88-136.3968-58.5728 11.1616-105.4208 54.4768-117.1968 107.776-15.872 72.8064 30.464 137.984 99.328 160.1024v194.3552c0 25.6 23.04 46.5408 51.2 46.5408s51.2-20.992 51.2-46.592h51.2c28.16 0 51.1488-20.8896 51.1488-46.4896s-23.04-46.592-51.2-46.592h-51.2v-101.2224c59.648-19.0976 102.4-70.7584 102.4-131.4816z m-153.6-46.592c28.16 0 51.2 20.992 51.2 46.592s-23.04 46.5408-51.2 46.5408-51.2-20.992-51.2-46.592 23.04-46.4896 51.2-46.4896z" p-id="2619"></path></svg>