<?xml version="1.0" standalone="no"?><!DOCTYPE svg PUBLIC "-//W3C//DTD SVG 1.1//EN" "http://www.w3.org/Graphics/SVG/1.1/DTD/svg11.dtd"><svg t="1609987565334" class="icon" viewBox="0 0 1024 1024" version="1.1" xmlns="http://www.w3.org/2000/svg" p-id="8881" xmlns:xlink="http://www.w3.org/1999/xlink" width="200" height="200"><defs><style type="text/css"></style></defs><path d="M494.85056 0c250.88 0 458.24 186.752 490.496 428.864h-100.096a395.968 395.968 0 1 0-714.688 293.184l7.488 10.24 36.8 49.024-54.72 109.44h347.52l13.312-0.896 6.848-0.576v99.328H527.36256l0.448 1.088H106.75456a65.92 65.92 0 0 1-59.008-95.488l51.2-102.4A494.848 494.848 0 0 1 494.85056 0z m329.92 527.808c72.832 0 131.904 59.136 131.904 131.968v33.024h16.512c27.328 0 49.472 22.144 49.472 49.472v197.952a49.472 49.472 0 0 1-49.472 49.472h-296.896a49.472 49.472 0 0 1-49.472-49.472v-197.952c0-27.328 22.144-49.472 49.472-49.472h16.512v-33.024c0-72.832 59.072-131.968 131.968-131.968z m-181.44-197.888a49.472 49.472 0 0 1 0 98.944H544.32256v247.424a49.472 49.472 0 1 1-98.944 0V428.864H346.37056a49.472 49.472 0 0 1 0-98.944h296.96z m181.44 280.384a49.472 49.472 0 0 0-49.28 44.8l-0.256 4.672v33.024h99.008v-33.024a49.472 49.472 0 0 0-44.8-49.28l-4.672-0.192z" p-id="8882"></path></svg>