<?xml version="1.0" standalone="no"?><!DOCTYPE svg PUBLIC "-//W3C//DTD SVG 1.1//EN" "http://www.w3.org/Graphics/SVG/1.1/DTD/svg11.dtd"><svg t="1609914511825" class="icon" viewBox="0 0 1024 1024" version="1.1" xmlns="http://www.w3.org/2000/svg" p-id="3996" xmlns:xlink="http://www.w3.org/1999/xlink" width="200" height="200"><defs><style type="text/css">@font-face { font-family: element-icons; src: url("chrome-extension://moombeodfomdpjnpocobemoiaemednkg/fonts/element-icons.woff") format("woff"), url("chrome-extension://moombeodfomdpjnpocobemoiaemednkg/fonts/element-icons.ttf ") format("truetype"); }
</style></defs><path d="M512 85.3504A426.8032 426.8032 0 0 0 85.3504 512c0 235.52 191.1296 426.6496 426.6496 426.6496S938.6496 747.52 938.6496 512 747.52 85.3504 512 85.3504z m170.6496 469.2992h-128v128a42.8032 42.8032 0 0 1-42.6496 42.7008 42.8032 42.8032 0 0 1-42.6496-42.7008v-128h-128A42.8032 42.8032 0 0 1 298.6496 512c0-23.4496 19.2-42.6496 42.7008-42.6496h128v-128c0-23.5008 19.2-42.7008 42.6496-42.7008 23.4496 0 42.6496 19.2 42.6496 42.7008v128h128c23.5008 0 42.7008 19.2 42.7008 42.6496a42.8032 42.8032 0 0 1-42.7008 42.6496z" p-id="3997"></path></svg>