<?xml version="1.0" standalone="no"?><!DOCTYPE svg PUBLIC "-//W3C//DTD SVG 1.1//EN" "http://www.w3.org/Graphics/SVG/1.1/DTD/svg11.dtd"><svg t="1609914494453" class="icon" viewBox="0 0 1024 1024" version="1.1" xmlns="http://www.w3.org/2000/svg" p-id="3746" xmlns:xlink="http://www.w3.org/1999/xlink" width="200" height="200"><defs><style type="text/css">@font-face { font-family: element-icons; src: url("chrome-extension://moombeodfomdpjnpocobemoiaemednkg/fonts/element-icons.woff") format("woff"), url("chrome-extension://moombeodfomdpjnpocobemoiaemednkg/fonts/element-icons.ttf ") format("truetype"); }
</style></defs><path d="M477.44 58.0096L178.7904 190.72c-30.72 13.6704-50.7904 44.3904-50.7904 78.08v200.5504c0 236.8 163.84 458.24 384 512 220.16-53.76 384-275.2 384-512V268.8c0-33.6896-20.0704-64.4096-50.7904-78.08l-298.6496-132.7104a84.8384 84.8384 0 0 0-69.12 0zM396.3904 695.04l-110.5408-110.4896a42.496 42.496 0 1 1 60.16-60.16l80.64 80.1792 250.88-250.88a42.496 42.496 0 1 1 60.16 60.16l-281.1392 281.1904a42.496 42.496 0 0 1-60.16 0z" p-id="3747"></path></svg>