<?xml version="1.0" standalone="no"?><!DOCTYPE svg PUBLIC "-//W3C//DTD SVG 1.1//EN" "http://www.w3.org/Graphics/SVG/1.1/DTD/svg11.dtd"><svg t="1611045081742" class="icon" viewBox="0 0 1024 1024" version="1.1" xmlns="http://www.w3.org/2000/svg" p-id="2644" xmlns:xlink="http://www.w3.org/1999/xlink" width="200" height="200"><defs><style type="text/css"></style></defs><path d="M512 102.4a409.4464 409.4464 0 0 1 409.6 409.6 409.6 409.6 0 1 1-409.6-409.6zM448.7168 366.3872L326.5536 482.3552a27.5456 27.5456 0 0 0-4.7104 5.8368A27.136 27.136 0 0 0 307.2 512c0 10.24 5.888 19.0976 14.6432 23.808a26.9824 26.9824 0 0 0 2.9184 3.9936l1.792 1.8432 122.1632 115.968c11.264 10.6496 29.4912 10.6496 40.7552 0a26.3168 26.3168 0 0 0 1.6896-36.9152l-1.6896-1.7408-83.968-79.616h333.7216c15.872 0 28.7744-12.288 28.7744-27.3408 0-15.104-12.9024-27.3408-28.8256-27.3408H405.5552L489.472 405.0432a26.368 26.368 0 0 0 0-38.656 29.9008 29.9008 0 0 0-40.7552 0z" p-id="2645"></path></svg>