<?xml version="1.0" standalone="no"?><!DOCTYPE svg PUBLIC "-//W3C//DTD SVG 1.1//EN" "http://www.w3.org/Graphics/SVG/1.1/DTD/svg11.dtd"><svg t="1608100275025" class="icon" viewBox="0 0 1024 1024" version="1.1" xmlns="http://www.w3.org/2000/svg" p-id="6700" xmlns:xlink="http://www.w3.org/1999/xlink" width="200" height="200"><defs><style type="text/css"></style></defs><path d="M896 405.3504V179.6096a21.0944 21.0944 0 0 0-36.2496-14.8992L783.7696 240.64A384.4096 384.4096 0 0 0 476.16 129.6896C297.3696 145.92 150.1696 289.6896 130.56 468.48a384 384 0 0 0 762.4704 91.2896 42.8544 42.8544 0 0 0-42.7008-47.7696 41.984 41.984 0 0 0-41.7792 36.7104 299.3152 299.3152 0 0 1-300.8 261.9392c-158.3104-2.0992-291.84-135.68-294.4-294.4-2.56-166.4 132.6592-302.8992 298.6496-302.8992 82.3296 0 157.0304 33.6896 211.2 87.4496l-89.1904 89.1904a21.3504 21.3504 0 0 0 14.9504 36.6592h225.6896a21.1456 21.1456 0 0 0 21.3504-21.2992z" p-id="6701"></path></svg>