<?xml version="1.0" standalone="no"?><!DOCTYPE svg PUBLIC "-//W3C//DTD SVG 1.1//EN" "http://www.w3.org/Graphics/SVG/1.1/DTD/svg11.dtd"><svg t="1605063026520" class="icon" viewBox="0 0 1024 1024" version="1.1" xmlns="http://www.w3.org/2000/svg" p-id="996" xmlns:xlink="http://www.w3.org/1999/xlink" width="200" height="200"><defs><style type="text/css"></style></defs><path d="M439.04 247.232A42.816 42.816 0 0 1 512 277.504v476.608c0 37.952-46.08 57.152-72.96 30.272l-140.352-140.352h-128A42.816 42.816 0 0 1 128 601.344V430.656c0-23.424 19.2-42.624 42.688-42.624h128z m442.304 127.936c16.64 16.64 16.64 43.648 0 60.352l-75.392 75.392 75.392 75.456a42.688 42.688 0 0 1-60.352 60.352L745.6 571.264l-75.456 75.456a42.688 42.688 0 0 1-60.288-60.352l75.392-75.456L609.92 435.52a42.688 42.688 0 0 1 60.288-60.352L745.6 450.56l75.392-75.392c16.64-16.64 43.712-16.64 60.352 0z" p-id="997"></path></svg>