<?xml version="1.0" standalone="no"?><!DOCTYPE svg PUBLIC "-//W3C//DTD SVG 1.1//EN" "http://www.w3.org/Graphics/SVG/1.1/DTD/svg11.dtd"><svg t="1605063545934" class="icon" viewBox="0 0 1024 1024" version="1.1" xmlns="http://www.w3.org/2000/svg" p-id="1371" xmlns:xlink="http://www.w3.org/1999/xlink" width="200" height="200"><defs><style type="text/css"></style></defs><path d="M128 426.688v170.624c0 23.488 19.2 42.688 42.688 42.688h128l140.352 140.352c26.88 26.88 72.96 7.68 72.96-30.272V273.472A42.816 42.816 0 0 0 439.04 243.2L298.688 384h-128C147.2 384 128 403.2 128 426.688zM704 512a192 192 0 0 0-106.688-171.968v343.488A190.912 190.912 0 0 0 704 512zM597.312 189.888V198.4a39.68 39.68 0 0 0 25.6 36.288 298.88 298.88 0 0 1 0 554.624 39.04 39.04 0 0 0-25.6 36.288v8.512a38.4 38.4 0 0 0 51.648 36.288A383.104 383.104 0 0 0 896 512c0-163.84-102.4-303.36-247.04-358.4-24.768-9.792-51.648 9.408-51.648 36.288z" p-id="1372"></path></svg>